<svg width="56" height="57" viewBox="0 0 56 57" fill="none" xmlns="http://www.w3.org/2000/svg">
<path fill-rule="evenodd" clip-rule="evenodd" d="M28 2.73267C13.4106 2.73267 1.5802 14.5605 1.5802 29.1524C1.5802 40.8258 9.15026 50.7286 19.6476 54.2225C20.9676 54.4675 21.4523 53.6494 21.4523 52.9515C21.4523 52.3215 21.4278 50.2404 21.4165 48.0327C14.0665 49.6309 12.5155 44.9155 12.5155 44.9155C11.3137 41.8618 9.58208 41.0498 9.58208 41.0498C7.18458 39.41 9.76276 39.4442 9.76276 39.4442C12.4153 39.6301 13.8127 42.1667 13.8127 42.1667C16.1691 46.2049 19.9933 45.0376 21.5009 44.363C21.738 42.6554 22.4227 41.4895 23.1783 40.8297C17.3101 40.1625 11.1409 37.8967 11.1409 27.7734C11.1409 24.889 12.1734 22.5322 13.8635 20.6815C13.5887 20.0165 12.6844 17.3294 14.1189 13.6903C14.1189 13.6903 16.3371 12.9802 21.3858 16.3984C23.4937 15.8126 25.7543 15.5182 28 15.5081C30.2443 15.5182 32.5062 15.8117 34.618 16.3975C39.6606 12.9794 41.8761 13.6894 41.8761 13.6894C43.3142 17.3281 42.4099 20.0157 42.1356 20.6807C43.8296 22.5313 44.8546 24.8881 44.8546 27.7725C44.8546 37.9199 38.6741 40.1538 32.791 40.8083C33.7391 41.6282 34.5835 43.2364 34.5835 45.7009C34.5835 49.2359 34.5528 52.0809 34.5528 52.9511C34.5528 53.6542 35.0288 54.478 36.3676 54.2185C46.8588 50.7212 54.4201 40.8214 54.4201 29.1524C54.4197 14.5614 42.5906 2.73267 28 2.73267Z" fill="#181616"/>
<path d="M11.5867 40.6652C11.5285 40.7965 11.322 40.8359 11.1339 40.7462C10.9414 40.6604 10.8342 40.4815 10.8963 40.3498C10.9532 40.2142 11.1601 40.177 11.3513 40.2676C11.5438 40.3537 11.6532 40.5344 11.5863 40.6657L11.5867 40.6652ZM12.6568 41.8592C12.5313 41.976 12.2849 41.9217 12.1178 41.7367C11.9446 41.5529 11.9122 41.3066 12.0404 41.1881C12.1708 41.0717 12.4096 41.1268 12.5829 41.3106C12.7553 41.4969 12.7894 41.7411 12.6573 41.8596L12.6568 41.8592ZM13.6989 43.3804C13.5371 43.4932 13.2719 43.3878 13.1083 43.1529C12.9464 42.9175 12.9464 42.6353 13.1127 42.5229C13.2759 42.41 13.5371 42.5119 13.7033 42.7447C13.8643 42.9831 13.8643 43.2657 13.6989 43.3804ZM15.1256 44.8508C14.9813 45.0105 14.6724 44.9676 14.4466 44.7502C14.2161 44.5371 14.1518 44.2339 14.2966 44.0747C14.4436 43.9146 14.7538 43.9592 14.9808 44.1753C15.2114 44.3879 15.2809 44.6916 15.1265 44.8504L15.1256 44.8508ZM17.0944 45.7044C17.0301 45.9113 16.7334 46.0054 16.4338 45.917C16.1349 45.8264 15.9394 45.5845 16.0006 45.3754C16.0619 45.1667 16.3607 45.0691 16.6621 45.1632C16.9609 45.2533 17.1565 45.4939 17.0944 45.7044ZM19.2569 45.8623C19.2644 46.0802 19.0106 46.2604 18.6969 46.2648C18.3806 46.2722 18.1247 46.0955 18.1216 45.8811C18.1216 45.6611 18.3701 45.483 18.686 45.4769C18.9997 45.4712 19.2574 45.6462 19.2574 45.8619L19.2569 45.8623ZM21.2686 45.5202C21.3062 45.7324 21.0879 45.9507 20.7759 46.0089C20.4697 46.0657 20.1853 45.9336 20.1459 45.7232C20.1083 45.5053 20.3306 45.287 20.6368 45.2306C20.9492 45.1767 21.2292 45.3045 21.2686 45.5202Z" fill="#181616"/>
</svg>
