<svg width="56" height="56" viewBox="0 0 56 56" fill="none">
    <g clip-path="url(#clip0_110_413)">
        <path
            d="M20.0508 56.1699C25.1641 56.1699 29.2891 52.0449 29.2891 46.9316V37.6934H20.0508C14.9375 37.6934 10.8125 41.8184 10.8125 46.9316C10.8125 52.0449 14.9375 56.1699 20.0508 56.1699Z"
            fill="#0ACF83"></path>
        <path
            d="M10.8125 28.4551C10.8125 23.3418 14.9375 19.2168 20.0508 19.2168H29.2891V37.6934H20.0508C14.9375 37.6934 10.8125 33.5684 10.8125 28.4551Z"
            fill="#A259FF"></path>
        <path
            d="M10.8125 9.97852C10.8125 4.86523 14.9375 0.740234 20.0508 0.740234H29.2891V19.2168H20.0508C14.9375 19.2168 10.8125 15.0918 10.8125 9.97852Z"
            fill="#F24E1E"></path>
        <path
            d="M29.2891 0.740234H38.5273C43.6406 0.740234 47.7656 4.86523 47.7656 9.97852C47.7656 15.0918 43.6406 19.2168 38.5273 19.2168H29.2891V0.740234Z"
            fill="#FF7262"></path>
        <path
            d="M47.7656 28.4551C47.7656 33.5684 43.6406 37.6934 38.5273 37.6934C33.4141 37.6934 29.2891 33.5684 29.2891 28.4551C29.2891 23.3418 33.4141 19.2168 38.5273 19.2168C43.6406 19.2168 47.7656 23.3418 47.7656 28.4551Z"
            fill="#1ABCFE"></path>
    </g>
    <defs>
        <clipPath id="clip0_110_413">
            <rect width="55" height="55" fill="white" transform="translate(0.5 0.740234)"></rect>
        </clipPath>
    </defs>
</svg>