<svg width="56" height="55" viewBox="0 0 56 55" fill="none" xmlns="http://www.w3.org/2000/svg">
<g clip-path="url(#clip0_661_2601)">
<path d="M20.0508 55.4297C25.1641 55.4297 29.2891 51.3047 29.2891 46.1914V36.9531H20.0508C14.9375 36.9531 10.8125 41.0781 10.8125 46.1914C10.8125 51.3047 14.9375 55.4297 20.0508 55.4297Z" fill="#8C8C8C"/>
<path d="M10.8125 27.7148C10.8125 22.6016 14.9375 18.4766 20.0508 18.4766H29.2891V36.9531H20.0508C14.9375 36.9531 10.8125 32.8281 10.8125 27.7148Z" fill="#818181"/>
<path d="M10.8125 9.23828C10.8125 4.125 14.9375 0 20.0508 0H29.2891V18.4766H20.0508C14.9375 18.4766 10.8125 14.3516 10.8125 9.23828Z" fill="#7A7A7A"/>
<path d="M29.2891 0H38.5273C43.6406 0 47.7656 4.125 47.7656 9.23828C47.7656 14.3516 43.6406 18.4766 38.5273 18.4766H29.2891V0Z" fill="#9B9B9B"/>
<path d="M47.7656 27.7148C47.7656 32.8281 43.6406 36.9531 38.5273 36.9531C33.4141 36.9531 29.2891 32.8281 29.2891 27.7148C29.2891 22.6016 33.4141 18.4766 38.5273 18.4766C43.6406 18.4766 47.7656 22.6016 47.7656 27.7148Z" fill="#939393"/>
</g>
<defs>
<clipPath id="clip0_661_2601">
<rect width="55" height="55" fill="white" transform="translate(0.5)"/>
</clipPath>
</defs>
</svg>
