<svg width="56" height="56" viewBox="0 0 56 56" fill="none">
    <g clip-path="url(#clip0_380_515)">
        <path
            d="M42.6094 0.760254H13.3906C6.27133 0.760254 0.5 6.53158 0.5 13.6509V42.8696C0.5 49.9889 6.27133 55.7603 13.3906 55.7603H42.6094C49.7287 55.7603 55.5 49.9889 55.5 42.8696V13.6509C55.5 6.53158 49.7287 0.760254 42.6094 0.760254Z"
            fill="#953CAD"></path>
        <path
            d="M42.4882 22.3882V25.283H45.383V22.3882H46.8304V25.283H49.725V26.7304H46.8304V29.625H49.725V31.0724H46.8304V33.9672H45.383V31.0724H42.4882V33.9672H41.0408V31.0724H38.1462V29.625H41.0408V26.7304H38.1462V25.283H41.0408V22.3882H42.4882ZM45.383 26.7304H42.4882V29.625H45.383V26.7304Z"
            fill="white"></path>
        <path
            d="M26.7112 7.8501C34.2614 7.8501 40.8537 11.9506 44.3844 18.0457L44.35 17.9871L35.4665 23.1021C33.7163 20.1387 30.5077 18.1387 26.827 18.0977L26.7112 18.0971C21.0981 18.0971 16.5478 22.6472 16.5478 28.26C16.5459 30.0291 17.0081 31.7678 17.8882 33.3024C19.64 36.3607 22.9331 38.4237 26.7112 38.4237C30.5122 38.4237 33.8242 36.3345 35.5672 33.2436L35.5249 33.3177L44.3949 38.4563C40.9029 44.4999 34.4011 48.5877 26.9385 48.6691L26.7112 48.6704C19.1368 48.6704 12.5259 44.5446 9.00395 38.4172C7.28455 35.4259 6.30078 31.9581 6.30078 28.26C6.30078 16.988 15.4385 7.8501 26.7112 7.8501Z"
            fill="white"></path>
    </g>
    <defs>
        <clipPath id="clip0_380_515">
            <rect width="55" height="55" fill="white" transform="translate(0.5 0.760254)"></rect>
        </clipPath>
    </defs>
</svg>