<svg width="56" height="55" viewBox="0 0 56 55" fill="none" xmlns="http://www.w3.org/2000/svg">
<path d="M50.0859 13.1914L29.332 1.24609C28.9883 1.03125 28.5156 0.945312 28 0.945312C27.4844 0.945312 27.0117 1.07422 26.668 1.24609L6.04297 13.2344C5.3125 13.6641 4.79688 14.7383 4.79688 15.5547V39.4883C4.79688 39.9609 4.88281 40.5195 5.22656 40.9922L51.1172 14.3516C50.8594 13.8359 50.4727 13.4492 50.0859 13.1914Z" fill="#9B4F96"/>
<path d="M5.09766 40.9492C5.3125 41.293 5.61328 41.5937 5.91406 41.7656L26.625 53.7539C26.9688 53.9688 27.4414 54.0547 27.957 54.0547C28.4727 54.0547 28.9453 53.9258 29.2891 53.7539L49.9141 41.7656C50.6445 41.3359 51.1602 40.2617 51.1602 39.4453V15.5117C51.1602 15.125 51.1172 14.6953 50.9023 14.3086L5.09766 40.9492Z" fill="#68217A"/>
<path d="M37.1523 32.6992C35.3477 35.8789 31.9102 38.0273 28 38.0273C22.1992 38.0273 17.4727 33.3008 17.4727 27.5C17.4727 21.6992 22.1992 16.9727 28 16.9727C31.9102 16.9727 35.3477 19.1211 37.1523 22.3438L42.7383 19.1211C39.8164 14.0078 34.3164 10.5273 28 10.5273C18.6328 10.5273 11.0273 18.1328 11.0273 27.5C11.0273 36.8672 18.6328 44.4727 28 44.4727C34.2734 44.4727 39.7734 41.0352 42.6953 35.9648L37.1523 32.6992ZM42.1797 28.4453L42.5664 26.5977H40.7617V24.5781H42.9531L43.4688 21.9141H45.5742L45.0586 24.5352H46.6914L47.207 21.9141H49.2695L48.7539 24.5352H49.7852V26.5547H48.3672L47.9805 28.4023H49.7852V30.4219H47.5937L47.0781 33H44.9727L45.4883 30.4219H43.8555L43.3398 33H41.2773L41.793 30.4219H40.7617V28.4023H42.1797V28.4453ZM44.2422 28.4453H45.875L46.2617 26.5977H44.6289L44.2422 28.4453Z" fill="white"/>
</svg>
