<svg width="56" height="56" viewBox="0 0 56 56" fill="none" xmlns="http://www.w3.org/2000/svg">
    <g clip-path="url(#clip0_518_905)">
        <path
            d="M44.3521 22.5791C44.2628 20.9669 44.7114 19.4424 43.9929 18.1894C42.2003 15.0527 37.7212 13.2617 28.7596 13.2617V13.1707V13.26C18.9026 13.26 14.6917 15.0527 12.9007 18.1877C12.2918 19.5675 12.0157 21.0712 12.0946 22.5774C11.7638 23.9557 11.613 25.3712 11.646 26.7883C11.9142 28.7597 12.0946 30.7311 12.3628 32.5221C12.6309 34.0449 14.7828 35.2102 15.0509 36.6471C15.5889 40.5005 18.9937 42.2914 28.849 42.2914V42.74H28.6771V42.2914C37.637 42.2914 41.3959 40.4988 41.939 36.6471C42.1109 35.2136 43.9104 34.0483 44.1734 32.5221C44.4415 30.7294 44.5326 28.758 44.8007 26.7883C44.7988 25.3734 44.6484 23.9626 44.3521 22.5791Z"
            fill="#EFCCA3"></path>
        <path
            d="M28.3128 24.0125C29.7786 24.1465 31.1319 24.8552 32.0768 25.9839C33.3315 27.0598 35.3923 27.7765 36.2878 28.7614C37.3781 29.6653 38.2125 30.8393 38.7078 32.1662C39.0504 33.4225 39.2312 34.7175 39.2457 36.0196C39.2457 36.4682 39.5139 36.3789 40.2306 36.0196C41.6502 35.1531 42.9211 34.0639 43.9946 32.7935C43.7265 34.3164 41.8445 35.6604 41.6657 37.0904C41.1278 40.9439 37.3689 42.8242 28.1357 42.8242H28.6737"
            fill="#CCAC8D"></path>
        <path
            d="M34.0483 20.9669C34.4075 22.1322 35.5711 26.1644 33.2422 24.8203C34.0917 25.4877 34.6656 26.4447 34.8544 27.5084C34.9669 28.0788 35.2353 28.6069 35.6297 29.0341C36.0241 29.4613 36.5291 29.7708 37.0888 29.9284C38.6364 30.1579 40.2123 29.7716 41.4784 28.8525C42.2215 28.1404 42.7308 27.2195 42.9389 26.2115C43.147 25.2036 43.0441 24.1563 42.6438 23.2081C42.3712 22.4361 41.8777 21.7613 41.2246 21.2675C40.5716 20.7736 39.7878 20.4826 38.9708 20.4306C37.2813 19.9803 33.6891 19.6228 34.0483 20.9669Z"
            fill="#CCAC8D"></path>
        <path
            d="M38.6184 28.5826C40.4495 28.5826 41.9339 27.0982 41.9339 25.2671C41.9339 23.436 40.4495 21.9517 38.6184 21.9517C36.7874 21.9517 35.303 23.436 35.303 25.2671C35.303 27.0982 36.7874 28.5826 38.6184 28.5826Z"
            fill="black"></path>
        <path
            d="M37.7213 24.6398C38.2158 24.6398 38.6167 24.2389 38.6167 23.7443C38.6167 23.2498 38.2158 22.8489 37.7213 22.8489C37.2267 22.8489 36.8258 23.2498 36.8258 23.7443C36.8258 24.2389 37.2267 24.6398 37.7213 24.6398Z"
            fill="white"></path>
        <path
            d="M33.5103 25.0884C35.1961 26.2711 36.7573 27.6221 38.1699 29.1206C39.7821 31.1831 39.7821 31.5406 39.7821 31.5406L38.6167 32.0785C37.7456 30.3785 36.4875 28.9067 34.9438 27.7817C32.8813 26.6163 32.6149 25.6315 32.6149 25.6315L33.5103 25.0884Z"
            fill="#EFCCA3"></path>
        <path
            d="M28.4039 24.0125C26.8607 24.1426 25.4222 24.8459 24.3717 25.9839C23.117 27.0598 20.8775 27.7765 20.0748 28.7614C18.9571 29.6593 18.0923 30.8327 17.5655 32.1662C17.2229 33.4225 17.0421 34.7175 17.0275 36.0196C17.0275 36.4682 17.1169 36.5576 15.9516 36.0196C14.5112 35.1821 13.2356 34.0888 12.1875 32.7935C12.4556 34.3164 14.3377 35.6604 14.5164 37.0904C15.0544 40.8545 18.8133 42.7348 28.0464 42.7348H28.6737"
            fill="#CCAC8D"></path>
        <path
            d="M37.0045 30.1949C35.9765 28.831 34.6516 27.7189 33.1303 26.9426C31.609 26.1663 29.9311 25.7462 28.2234 25.7141C26.5179 25.7569 24.8436 26.1817 23.3239 26.9571C21.8043 27.7326 20.4778 28.839 19.4423 30.1949C18.7526 30.9131 18.2334 31.7772 17.923 32.7234C17.6127 33.6695 17.5193 34.6734 17.6497 35.6605C17.6497 43.6355 20.4272 41.2155 22.3092 42.2021C24.1835 42.8275 26.1769 43.0116 28.134 42.74C30.0911 43.0157 32.0854 42.8315 33.9589 42.2021C35.8409 41.2172 38.6184 43.6355 38.6184 35.6605C38.8406 34.6876 38.8089 33.6738 38.5263 32.7166C38.2436 31.7595 37.7196 30.8911 37.0045 30.1949Z"
            fill="#56332B"></path>
        <path d="M28.0447 27.9553C27.9772 29.4484 27.706 30.9253 27.2386 32.345L28.2235 32.0769L28.0447 27.9553Z"
            fill="#442823"></path>
        <path d="M28.3128 27.9553C28.3803 29.4484 28.6516 30.9253 29.1189 32.345L28.134 32.0769L28.3128 27.9553Z"
            fill="#442823"></path>
        <path
            d="M25.1778 27.0599C24.8186 26.1644 26.1626 24.731 28.3145 24.731C30.4664 24.731 31.8087 26.1644 31.4512 27.0599C31.0937 27.9553 29.6586 28.2252 28.3145 28.2252C26.8794 28.2235 25.5353 27.9553 25.1778 27.0599Z"
            fill="#56332B"></path>
        <path
            d="M28.3128 27.9553C28.3128 27.7834 29.5675 27.7834 30.2842 27.328C30.2842 27.328 28.8508 27.7766 28.5809 27.5961C28.3956 27.4321 28.2694 27.2116 28.2217 26.9688C28.1741 27.2116 28.0478 27.4321 27.8625 27.5961C27.5944 27.768 25.9805 27.328 25.9805 27.328C26.6832 27.4832 27.3728 27.6929 28.043 27.9553V28.672C27.9869 29.8396 28.0444 31.0098 28.2148 32.1662C28.483 32.5255 28.3867 29.6569 28.3867 28.672C28.3235 28.4387 28.2985 28.1966 28.3128 27.9553Z"
            fill="black"></path>
        <path
            d="M28.3129 33.0617C29.3257 33.1968 30.2843 33.599 31.0904 34.227C30.3896 33.3188 29.4161 32.6592 28.3129 32.345C27.0476 32.6195 25.9296 33.3546 25.1761 34.4075C26.0595 33.6486 27.1543 33.1789 28.3129 33.0617Z"
            fill="#7F4A41"></path>
        <path
            d="M28.134 39.6874C26.7285 39.6098 25.3404 39.3385 24.009 38.8813C23.7409 38.7919 23.4711 38.9707 23.2029 38.8813C21.0376 38.2678 19.1234 36.9815 17.7373 35.2083V35.5676C17.7373 43.5426 20.5148 41.1226 22.3968 42.1091C24.2711 42.7345 26.2645 42.9186 28.2217 42.6471C30.1787 42.9228 32.1731 42.7386 34.0465 42.1091C35.9286 41.1243 38.7061 43.5426 38.7061 35.5676V34.7615C37.3798 36.7093 35.418 38.1359 33.1562 38.7971C32.8881 38.8865 32.4395 38.7077 32.1714 38.7077C30.8921 39.2644 29.5262 39.5959 28.134 39.6874Z"
            fill="#442823"></path>
        <path
            d="M24.4611 35.3906C24.4611 35.3906 23.4762 38.2575 24.193 39.5156L23.2975 39.1564C23.5914 37.874 23.9804 36.6153 24.4611 35.3906ZM31.9875 35.3906C31.9875 35.3906 32.9723 38.2575 32.2556 39.5156L33.1562 39.1564C32.9037 37.8627 32.5118 36.6 31.9875 35.3906Z"
            fill="#442823"></path>
        <path
            d="M22.1305 20.9669C21.7713 22.1322 20.6077 26.1644 22.9366 24.8203C22.087 25.4877 21.5131 26.4447 21.3244 27.5084C21.2118 28.0788 20.9435 28.6069 20.5491 29.0341C20.1547 29.4613 19.6496 29.7708 19.09 29.9284C17.541 30.1617 15.9624 29.7778 14.6934 28.8594C13.9504 28.1473 13.4411 27.2263 13.233 26.2184C13.0249 25.2105 13.1278 24.1631 13.5281 23.215C13.8007 22.443 14.2942 21.7681 14.9472 21.2743C15.6003 20.7805 16.384 20.4895 17.2011 20.4375C18.9061 19.9803 22.4897 19.6228 22.1305 20.9669Z"
            fill="#CCAC8D"></path>
        <path
            d="M28.2234 32.345C29.334 32.6577 30.3269 33.2927 31.0765 34.1699C31.8261 35.0471 32.2986 36.1269 32.4343 37.2726V37.1008C32.4061 35.9107 31.9738 34.7657 31.2085 33.8539C30.4432 32.9422 29.3905 32.3179 28.2234 32.0837C27.049 32.3027 25.987 32.9227 25.219 33.8377C24.4509 34.7528 24.0245 35.9062 24.0125 37.1008V37.2726C24.1631 36.1322 24.641 35.0599 25.3883 34.1853C26.1356 33.3108 27.1204 32.6716 28.2234 32.345Z"
            fill="black"></path>
        <path
            d="M29.0727 27.0389C29.2161 27.0019 29.2722 26.7387 29.198 26.451C29.1238 26.1633 28.9475 25.96 28.8041 25.997C28.6607 26.034 28.6046 26.2972 28.6788 26.5849C28.753 26.8726 28.9293 27.0758 29.0727 27.0389Z"
            fill="#331712"></path>
        <path
            d="M27.5853 26.6133C27.6733 26.3296 27.63 26.064 27.4886 26.0201C27.3471 25.9762 27.1611 26.1707 27.0731 26.4544C26.9851 26.7382 27.0283 27.0038 27.1698 27.0477C27.3112 27.0916 27.4972 26.8971 27.5853 26.6133Z"
            fill="#331712"></path>
        <path
            d="M17.7408 28.5826C19.5718 28.5826 21.0562 27.0982 21.0562 25.2671C21.0562 23.436 19.5718 21.9517 17.7408 21.9517C15.9097 21.9517 14.4253 23.436 14.4253 25.2671C14.4253 27.0982 15.9097 28.5826 17.7408 28.5826Z"
            fill="black"></path>
        <path
            d="M18.6362 24.6398C19.1307 24.6398 19.5317 24.2389 19.5317 23.7443C19.5317 23.2498 19.1307 22.8489 18.6362 22.8489C18.1416 22.8489 17.7407 23.2498 17.7407 23.7443C17.7407 24.2389 18.1416 24.6398 18.6362 24.6398Z"
            fill="white"></path>
        <path
            d="M29.2031 25.2671C29.2031 25.2671 28.3077 25.6263 28.1272 25.7157C27.7498 25.6159 27.3878 25.465 27.0513 25.2671H29.2031Z"
            fill="#7F4A41"></path>
        <path
            d="M22.6719 25.0884C20.9861 26.2711 19.4249 27.6221 18.0123 29.1206C16.4001 31.1831 16.4001 31.5406 16.4001 31.5406L17.5655 32.0785C18.4366 30.3785 19.6947 28.9067 21.2384 27.7817C23.3009 26.6163 23.5673 25.6315 23.5673 25.6315L22.6719 25.0884Z"
            fill="#EFCCA3"></path>
        <path
            d="M16.1269 19.0848C15.5024 20.738 14.3329 22.1288 12.8114 23.0276C13.7617 22.915 14.6334 22.4446 15.2493 21.7122C15.8652 20.9798 16.179 20.0403 16.1269 19.0848ZM39.8731 19.0848C40.4976 20.738 41.6671 22.1288 43.1886 23.0276C42.2383 22.915 41.3666 22.4446 40.7507 21.7122C40.1348 20.9798 39.821 20.0403 39.8731 19.0848ZM33.6891 24.2806C32.2488 22.9027 30.3863 22.0502 28.4022 21.8606H28.6703C27.678 21.8486 26.6957 22.0599 25.796 22.4788C24.8964 22.8977 24.1024 23.5134 23.4728 24.2806C24.9515 23.1102 26.7845 22.478 28.6703 22.4879C30.4752 22.6176 32.2104 23.2375 33.6891 24.2806ZM31.0009 19.3529C30.3451 18.4903 29.3826 17.913 28.3128 17.7407H28.5809C28.0446 17.7589 27.5225 17.9173 27.0665 18.2002C26.6105 18.483 26.2367 18.8805 25.9822 19.3529C26.662 18.6386 27.5954 18.2201 28.5809 18.1876C29.044 18.1985 29.4994 18.3081 29.9167 18.509C30.334 18.71 30.7037 18.9977 31.0009 19.3529ZM17.7408 31.0009C16.8017 31.4847 15.7193 31.6123 14.6934 31.3601H14.3359C13.6265 30.6291 13.104 29.7376 12.8131 28.7613C13.1853 29.6995 13.9066 30.457 14.8254 30.8746C15.7443 31.2922 16.7892 31.3375 17.7408 31.0009ZM38.5291 31.0009C39.4681 31.4847 40.5506 31.6123 41.5764 31.3601H41.2172C41.7443 31.1489 42.2008 30.7927 42.5339 30.3328C42.867 29.8729 43.063 29.3281 43.0992 28.7613C42.9615 29.2188 42.7308 29.6428 42.4217 30.007C42.1125 30.3712 41.7315 30.6677 41.3026 30.8779C40.8736 31.0881 40.4059 31.2075 39.9286 31.2287C39.4514 31.2498 38.9749 31.1723 38.5291 31.0009Z"
            fill="#CCAC8D"></path>
        <path
            d="M19.8015 18.9061C21.0813 18.6548 22.4026 18.7137 23.6549 19.078C25.2671 19.6159 24.0142 21.7661 24.2823 21.8555C24.7988 21.3849 25.4096 21.0297 26.0739 20.8133C26.7383 20.597 27.4412 20.5246 28.1357 20.6008C31.1831 20.7727 31.5406 22.1236 31.9892 21.8555C32.4378 21.6836 31.5406 18.0914 36.2001 18.8992C36.2001 18.8992 31.4512 17.6445 31.6299 21.0494C30.6493 20.4087 29.5098 20.0533 28.3389 20.023C27.1679 19.9926 26.0115 20.2885 24.999 20.8775C24.999 20.8775 25.9838 17.562 19.8015 18.9061ZM18.5468 14.25C18.5468 14.25 14.4218 19.3581 13.8873 21.3278C13.2599 23.2992 12.8113 31.5423 12.2751 32.7077L10.3931 24.6398L13.8873 16.218L18.5468 14.25ZM37.7212 14.25C37.7212 14.25 41.8462 19.3581 42.3807 21.3278C43.0081 23.2992 43.4567 31.5423 43.9929 32.7077L45.8749 24.6398L42.3807 16.218L37.7212 14.25Z"
            fill="#CCAC8D"></path>
        <path
            d="M37.4531 14.2501C39.954 16.3749 41.8926 19.0833 43.0975 22.1357C44.3521 26.3467 43.8142 31.5442 44.8007 32.1715C46.2342 33.067 47.757 27.6907 48.295 27.1545C49.1011 26.259 51.8785 23.9284 52.059 23.4815C52.2395 23.0346 46.504 16.7612 43.9053 15.5065C41.0367 14.0662 37.2812 13.8875 37.4531 14.2501Z"
            fill="#56332B"></path>
        <path
            d="M41.2172 16.4844C44.3895 20.8093 46.1711 25.997 46.3253 31.3584L48.3878 27.1475C46.8414 23.0931 44.3888 19.4458 41.2172 16.4844Z"
            fill="#442823"></path>
        <path
            d="M18.5469 14.2501C16.046 16.3749 14.1073 19.0833 12.9025 22.1357C11.6478 26.3467 12.1858 31.5442 11.1992 32.1715C9.76577 33.067 8.24296 27.6907 7.70499 27.1545C6.8989 26.259 4.1214 23.9284 3.94093 23.4815C3.76046 23.0346 9.49593 16.7612 12.0947 15.5065C14.9633 14.0662 18.7187 13.8875 18.5469 14.2501Z"
            fill="#56332B"></path>
        <path
            d="M14.7828 16.4844C11.6104 20.8093 9.82882 25.997 9.67466 31.3584L7.6156 27.1406C9.16187 23.089 11.6133 19.4442 14.7828 16.4844Z"
            fill="#442823"></path>
        <path
            d="M11.9159 31.4494C12.0576 32.4032 12.3928 33.318 12.9007 34.1376C13.5281 34.7649 13.0726 33.5996 13.0726 33.5996C13.0726 33.5996 12.4453 33.2404 12.5346 30.6433C12.624 28.0463 11.9159 31.4494 11.9159 31.4494ZM44.1734 31.4494C44.0316 32.4032 43.6965 33.318 43.1885 34.1376C42.5612 34.7649 43.0167 33.5996 43.0167 33.5996C43.0167 33.5996 43.644 33.2404 43.5546 30.6433C43.4567 28.134 44.1734 31.4494 44.1734 31.4494Z"
            fill="#CCAC8D"></path>
        <path
            d="M24.3718 30.1949C24.5198 30.1949 24.6399 30.0749 24.6399 29.9268C24.6399 29.7787 24.5198 29.6587 24.3718 29.6587C24.2237 29.6587 24.1036 29.7787 24.1036 29.9268C24.1036 30.0749 24.2237 30.1949 24.3718 30.1949Z"
            fill="#442823"></path>
        <path
            d="M22.579 32.0768C22.7271 32.0768 22.8472 31.9567 22.8472 31.8087C22.8472 31.6606 22.7271 31.5405 22.579 31.5405C22.431 31.5405 22.3109 31.6606 22.3109 31.8087C22.3109 31.9567 22.431 32.0768 22.579 32.0768Z"
            fill="#442823"></path>
        <path
            d="M22.0411 30.1949C22.1892 30.1949 22.3092 30.0749 22.3092 29.9268C22.3092 29.7787 22.1892 29.6587 22.0411 29.6587C21.893 29.6587 21.7729 29.7787 21.7729 29.9268C21.7729 30.0749 21.893 30.1949 22.0411 30.1949Z"
            fill="#442823"></path>
        <path
            d="M31.7194 30.1949C31.8675 30.1949 31.9875 30.0749 31.9875 29.9268C31.9875 29.7787 31.8675 29.6587 31.7194 29.6587C31.5713 29.6587 31.4513 29.7787 31.4513 29.9268C31.4513 30.0749 31.5713 30.1949 31.7194 30.1949Z"
            fill="#442823"></path>
        <path
            d="M33.421 32.0768C33.569 32.0768 33.6891 31.9567 33.6891 31.8087C33.6891 31.6606 33.569 31.5405 33.421 31.5405C33.2729 31.5405 33.1528 31.6606 33.1528 31.8087C33.1528 31.9567 33.2729 32.0768 33.421 32.0768Z"
            fill="#442823"></path>
        <path
            d="M33.9589 30.1949C34.107 30.1949 34.227 30.0749 34.227 29.9268C34.227 29.7787 34.107 29.6587 33.9589 29.6587C33.8108 29.6587 33.6908 29.7787 33.6908 29.9268C33.6908 30.0749 33.8108 30.1949 33.9589 30.1949Z"
            fill="#442823"></path>
    </g>
    <defs>
        <clipPath id="clip0_518_905">
            <rect width="55" height="55" fill="white" transform="translate(0.5 0.5)"></rect>
        </clipPath>
    </defs>
</svg>