<svg width="56" height="55" viewBox="0 0 56 55" fill="none" xmlns="http://www.w3.org/2000/svg">
<g id="pugjs" clip-path="url(#clip0_661_3030)">
<path id="Vector" d="M46.535 21.01C46.425 19.14 46.7 17.435 45.875 16.005C43.785 12.485 38.615 10.45 28.33 10.45C18.045 10.45 12.6 12.485 10.565 16.06C9.74002 17.545 9.85002 19.1399 9.68502 21.0649C9.57502 22.5499 8.91502 24.145 9.19002 25.8499C9.52002 28.1049 9.68502 30.305 10.015 32.395C10.29 34.0449 12.6 35.4749 12.82 37.0699C13.425 41.4699 17.99 43.4499 28.275 43.4499C38.56 43.4499 42.96 41.4149 43.51 37.0699C43.73 35.4199 45.875 34.0449 46.15 32.395C46.48 30.36 46.645 28.1049 46.975 25.8499C47.305 24.145 46.59 22.495 46.535 21.01Z" fill="#D2D2D2"/>
<path id="Vector_2" d="M28.1649 22.55C30.0349 22.605 31.2999 23.76 32.5099 24.805C33.9399 26.07 36.3049 26.895 37.2949 27.995C38.2849 29.095 39.5499 30.14 40.0449 31.79C40.5399 33.44 40.6499 35.5851 40.6499 36.1901C40.6499 36.7401 40.9249 36.6301 41.8049 36.1901C43.8399 35.2001 46.0399 32.56 46.0399 32.56C45.7649 34.21 43.6199 35.75 43.3999 37.345C42.9049 41.7451 38.6149 43.835 28.1099 43.835H28.0549H28.3299" fill="#B2B2B2"/>
<path id="Vector_3" d="M34.93 19.195C35.315 20.515 36.69 25.025 34.05 23.54C34.05 23.54 35.1501 24.2 35.8651 26.62C36.5801 29.04 38.3401 29.37 38.3401 29.37C38.3401 29.37 41.2 29.92 43.345 28.105C45.16 26.565 45.4351 23.815 44.6651 21.725C43.8951 19.69 42.52 19.03 40.485 18.59C38.505 18.095 34.435 17.71 34.93 19.195Z" fill="#B2B2B2"/>
<path id="Vector_4" d="M40.045 27.8851C42.135 27.8851 43.84 26.1801 43.84 24.0901C43.84 22.0001 42.135 20.3501 40.045 20.3501C37.955 20.3501 36.25 22.0001 36.25 24.0901C36.25 26.1801 37.955 27.8851 40.045 27.8851Z" fill="black"/>
<path id="Vector_5" d="M39.0549 23.43C39.6049 23.43 40.0449 22.99 40.0449 22.44C40.0449 21.89 39.6049 21.45 39.0549 21.45C38.5049 21.45 38.0649 21.89 38.0649 22.44C38.0649 22.99 38.5049 23.43 39.0549 23.43Z" fill="white"/>
<path id="Vector_6" d="M34.2699 23.925C34.2699 23.925 37.6799 26.235 39.4949 28.545C41.3649 30.8 41.3099 31.24 41.3099 31.24L39.9899 31.845C39.9899 31.845 38.1199 28.27 35.8099 26.95C33.4449 25.63 33.1699 24.53 33.1699 24.53L34.2699 23.925Z" fill="#D2D2D2"/>
<path id="Vector_7" d="M28.2751 22.55C26.4051 22.605 25.0301 23.76 23.8201 24.805C22.3901 26.07 19.9151 26.895 18.9251 27.995C17.9351 29.095 16.6151 30.14 16.1201 31.79C15.6251 33.44 15.4601 35.5851 15.4601 36.1901C15.4601 36.7401 15.5701 36.7951 14.3051 36.1901C12.2701 35.2551 10.0701 32.56 10.0701 32.56C10.3451 34.21 12.4901 35.75 12.7101 37.345C13.3151 41.7451 17.5501 43.835 28.0551 43.835H28.2751" fill="#B2B2B2"/>
<path id="Vector_8" d="M38.2299 29.81C36.1949 27.28 32.8399 24.915 28.2749 24.915H28.2199C23.5999 24.915 20.2999 27.28 18.2649 29.81C16.1199 32.45 16.2849 33.44 16.2849 35.97C16.2849 44.99 19.4749 42.405 21.5649 43.505C23.7099 44.605 25.9649 44.22 28.2199 44.22H28.2749C30.5849 44.22 32.7849 44.495 34.9299 43.45C37.0199 42.35 40.2099 45.045 40.2099 36.025C40.2649 33.55 40.3749 32.45 38.2299 29.81Z" fill="#3D3D3D"/>
<path id="Vector_9" d="M28.055 27.1699C28.055 27.1699 27.78 31.3499 27.175 32.1749L28.275 31.8999L28.055 27.1699Z" fill="#303030"/>
<path id="Vector_10" d="M28.385 27.1699C28.385 27.1699 28.66 31.3499 29.265 32.1749L28.165 31.8999L28.385 27.1699Z" fill="#303030"/>
<path id="Vector_11" d="M24.755 26.18C24.315 25.19 25.855 23.595 28.33 23.54C30.75 23.54 32.345 25.135 31.905 26.18C31.465 27.225 29.925 27.5 28.33 27.555C26.79 27.5 25.195 27.17 24.755 26.18Z" fill="#3D3D3D"/>
<path id="Vector_12" d="M28.3301 27.1701C28.3301 27.0051 29.8151 26.9501 30.5851 26.4551C30.5851 26.4551 28.9901 26.9501 28.6601 26.7301C28.3301 26.5651 28.2201 26.0701 28.2201 26.0701C28.2201 26.0701 28.1101 26.5651 27.8351 26.7301C27.5601 26.8951 25.7451 26.4551 25.7451 26.4551C25.7451 26.4551 28.1651 27.0601 28.1651 27.1701C28.1651 27.2801 28.1101 27.7201 28.1101 28.0501C28.1101 29.1501 28.1101 31.7901 28.2751 32.0101C28.5501 32.3951 28.4401 29.1501 28.4401 28.0501C28.3851 27.6651 28.3851 27.3351 28.3301 27.1701Z" fill="black"/>
<path id="Vector_13" d="M28.3851 32.8901C29.1001 32.8901 30.4201 33.3851 31.5751 34.2101C30.4751 32.9451 29.1551 32.1201 28.3851 32.1201C27.6151 32.1201 25.9651 33.0551 24.8101 34.4301C26.0201 33.4951 27.6151 32.8901 28.3851 32.8901Z" fill="#595959"/>
<path id="Vector_14" d="M28.1101 40.48C26.4601 40.48 24.8651 39.985 23.4351 39.6C23.1601 39.49 22.8301 39.71 22.5551 39.655C19.8601 38.775 17.6601 37.345 16.3401 35.475V35.9151C16.3401 44.9351 19.5301 42.405 21.6201 43.45C23.7651 44.55 26.0201 44.1651 28.2751 44.1651H28.3301C30.6401 44.1651 32.8401 44.44 34.9851 43.395C37.0751 42.295 40.2651 44.9351 40.2651 35.9151C40.2651 35.5851 40.2651 35.255 40.3201 34.925C39.0551 36.96 36.8001 38.5551 33.9401 39.4901C33.6651 39.6001 33.0601 39.38 32.8401 39.38C31.2451 39.93 29.8701 40.48 28.1101 40.48Z" fill="#303030"/>
<path id="Vector_15" d="M24.04 35.6399C24.04 35.6399 22.94 38.8849 23.71 40.2599L22.72 39.8199C22.72 39.8749 23.435 36.5749 24.04 35.6399ZM32.51 35.6399C32.51 35.6399 33.61 38.8849 32.84 40.2599L33.83 39.8199C33.885 39.8749 33.06 36.5749 32.51 35.6399Z" fill="#303030"/>
<path id="Vector_16" d="M21.2899 19.195C20.9049 20.515 19.5299 25.025 22.1699 23.54C22.1699 23.54 21.0699 24.2 20.3549 26.62C19.6949 29.04 17.8799 29.37 17.8799 29.37C17.8799 29.37 15.0199 29.92 12.8749 28.105C11.0599 26.565 10.7849 23.815 11.5549 21.725C12.3249 19.635 13.6999 19.03 15.7349 18.59C17.7149 18.095 21.7299 17.71 21.2899 19.195Z" fill="#B2B2B2"/>
<path id="Vector_17" d="M28.275 32.12C29.43 32.12 33.06 34.595 33.06 37.675V37.51C33.06 34.32 30.145 31.79 28.275 31.79C26.405 31.79 23.49 34.375 23.49 37.51V37.675C23.49 34.595 27.12 32.12 28.275 32.12Z" fill="black"/>
<path id="Vector_18" d="M29.2099 26.18C29.3749 26.125 29.4849 25.795 29.3749 25.465C29.2649 25.135 29.0449 24.86 28.8799 24.915C28.7149 24.97 28.6049 25.3 28.7149 25.63C28.8249 26.015 29.0449 26.235 29.2099 26.18Z" fill="#1F1F1F"/>
<path id="Vector_19" d="M27.01 26.1801C27.175 26.2351 27.45 26.0151 27.505 25.6851C27.615 25.3551 27.56 25.0251 27.395 24.9701C27.23 24.9151 26.955 25.1351 26.9 25.4651C26.79 25.7951 26.845 26.1251 27.01 26.1801Z" fill="#1F1F1F"/>
<path id="Vector_20" d="M16.3951 27.8851C18.4851 27.8851 20.1901 26.1801 20.1901 24.0901C20.1901 22.0001 18.4851 20.3501 16.3951 20.3501C14.3051 20.3501 12.6001 22.0001 12.6001 24.0901C12.6001 26.1801 14.3051 27.8851 16.3951 27.8851Z" fill="black"/>
<path id="Vector_21" d="M17.385 23.43C17.935 23.43 18.375 22.99 18.375 22.44C18.375 21.89 17.935 21.45 17.385 21.45C16.835 21.45 16.395 21.89 16.395 22.44C16.395 22.99 16.835 23.43 17.385 23.43Z" fill="white"/>
<path id="Vector_22" d="M29.375 24.1449C29.375 24.0899 28.385 24.5849 28.11 24.6399C27.835 24.5849 26.845 24.1449 26.845 24.1449H29.375Z" fill="#595959"/>
<path id="Vector_23" d="M21.8949 23.925C21.8949 23.925 18.4849 26.235 16.6699 28.545C14.7999 30.8 14.8549 31.24 14.8549 31.24L16.1749 31.845C16.1749 31.845 18.0449 28.27 20.3549 26.95C22.6649 25.63 22.9949 24.53 22.9949 24.53L21.8949 23.925Z" fill="#D2D2D2"/>
<path id="Vector_24" d="M14.47 17.05C14.47 17.05 13.315 20.24 10.73 21.56C10.73 21.56 14.745 21.12 14.47 17.05ZM41.53 17.05C41.53 17.05 42.685 20.24 45.27 21.56C45.27 21.56 41.255 21.12 41.53 17.05ZM34.215 22.99C34.215 22.99 31.685 20.35 28.275 20.24H28.33H28.385C24.975 20.35 22.445 22.99 22.445 22.99C25.415 20.955 27.945 20.955 28.385 20.955C28.33 20.955 31.245 20.9 34.215 22.99ZM31.245 17.38C31.245 17.38 29.98 15.565 28.22 15.51H28.33C27.065 15.565 25.36 17.38 25.36 17.38C26.845 15.95 28.33 16.005 28.33 16.005C28.33 16.005 29.76 16.005 31.245 17.38ZM16.395 30.58C16.395 30.58 14.36 31.57 12.93 30.965H12.875C11.555 30.25 10.95 28.05 10.95 28.05C10.95 28.05 12.215 31.9 16.395 30.58ZM39.935 30.58C39.935 30.58 41.97 31.57 43.4 30.965C45.105 30.25 45.38 28.05 45.38 28.05C45.38 28.05 44.06 31.9 39.935 30.58Z" fill="#B2B2B2"/>
<path id="Vector_25" d="M18.705 16.83C19.805 16.61 21.675 16.555 23.105 17.05C24.975 17.71 23.4351 20.075 23.8201 20.185C24.2051 20.295 24.7 18.535 28.165 18.7C31.63 18.865 32.015 20.405 32.51 20.185C33.005 19.91 32.0151 15.895 37.2401 16.83C37.2401 16.83 31.7951 15.345 32.0701 19.305C32.0701 19.305 28.935 16.885 24.535 19.03C24.59 19.085 25.69 15.4 18.705 16.83ZM37.735 16.83C37.845 16.83 37.845 16.885 37.9 16.885C37.955 16.885 37.845 16.83 37.735 16.83ZM17.22 11.55C17.22 11.55 12.6 17.38 11.885 19.635C11.225 21.89 10.675 31.24 10.07 32.56L7.92505 23.375L11.885 13.805L17.22 11.55ZM39 11.55C39 11.55 43.62 17.38 44.335 19.635C44.995 21.89 45.545 31.24 46.15 32.56L48.2951 23.375L44.335 13.805L39 11.55Z" fill="#B2B2B2"/>
<path id="Vector_26" d="M38.7799 11.5499C38.7799 11.5499 43.7849 15.7299 45.2149 20.5149C46.6999 25.2999 46.0949 31.1849 47.1949 31.8999C48.7899 32.9449 50.6049 26.7849 51.2099 26.1249C52.1449 25.0799 55.2799 22.4949 55.4999 21.9999C55.7199 21.5049 49.1199 14.3549 46.2599 12.9249C42.7949 11.3299 38.5049 11.2199 38.7799 11.5499Z" fill="#3D3D3D"/>
<path id="Vector_27" d="M43.0701 14.135C43.0701 14.135 48.9551 21.67 48.8451 31.02L51.2101 26.235C51.1551 26.18 49.1201 20.075 43.0701 14.135Z" fill="#303030"/>
<path id="Vector_28" d="M17.22 11.5499C17.22 11.5499 12.215 15.7299 10.785 20.5149C9.3 25.3549 9.905 31.1849 8.805 31.8999C7.21 32.9449 5.395 26.7849 4.79 26.1249C3.855 25.0799 0.719997 22.4949 0.499997 21.9999C0.279997 21.5049 6.88 14.3549 9.74 12.9249C13.205 11.3299 17.495 11.2199 17.22 11.5499Z" fill="#3D3D3D"/>
<path id="Vector_29" d="M12.93 14.135C12.93 14.135 7.04497 21.67 7.15497 31.02L4.84497 26.235C4.84497 26.18 6.87997 20.075 12.93 14.135Z" fill="#303030"/>
<path id="Vector_30" d="M9.79492 31.1849C9.79492 31.1849 10.2349 33.4949 10.8949 34.2099C11.5549 34.9249 11.1149 33.6599 11.1149 33.6599C11.1149 33.6599 10.3999 33.2749 10.5099 30.3049C10.6199 27.3899 9.79492 31.1849 9.79492 31.1849ZM46.3699 31.1849C46.3699 31.1849 45.9299 33.4949 45.2699 34.2099C44.6099 34.9249 45.0499 33.6599 45.0499 33.6599C45.0499 33.6599 45.7649 33.2749 45.6549 30.3049C45.5449 27.3899 46.3699 31.1849 46.3699 31.1849Z" fill="#B2B2B2"/>
<path id="Vector_31" d="M23.82 29.755C23.985 29.755 24.15 29.59 24.15 29.425C24.15 29.26 23.985 29.095 23.82 29.095C23.655 29.095 23.49 29.26 23.49 29.425C23.49 29.59 23.6 29.755 23.82 29.755Z" fill="#303030"/>
<path id="Vector_32" d="M21.84 31.8451C22.005 31.8451 22.17 31.6801 22.17 31.5151C22.17 31.3501 22.005 31.1851 21.84 31.1851C21.675 31.1851 21.51 31.3501 21.51 31.5151C21.51 31.6801 21.675 31.8451 21.84 31.8451Z" fill="#303030"/>
<path id="Vector_33" d="M21.1801 29.755C21.3451 29.755 21.5101 29.59 21.5101 29.425C21.5101 29.26 21.3451 29.095 21.1801 29.095C21.0151 29.095 20.8501 29.26 20.8501 29.425C20.8501 29.59 21.0151 29.755 21.1801 29.755Z" fill="#303030"/>
<path id="Vector_34" d="M32.1801 29.755C32.3451 29.755 32.5101 29.59 32.5101 29.425C32.5101 29.26 32.3451 29.095 32.1801 29.095C32.0151 29.095 31.8501 29.26 31.8501 29.425C31.8501 29.59 32.0151 29.755 32.1801 29.755Z" fill="#303030"/>
<path id="Vector_35" d="M34.1601 31.8451C34.3251 31.8451 34.4901 31.6801 34.4901 31.5151C34.4901 31.3501 34.3251 31.1851 34.1601 31.1851C33.9951 31.1851 33.8301 31.3501 33.8301 31.5151C33.8301 31.6801 33.9951 31.8451 34.1601 31.8451Z" fill="#303030"/>
<path id="Vector_36" d="M34.8199 29.755C34.9849 29.755 35.1499 29.59 35.1499 29.425C35.1499 29.26 34.9849 29.095 34.8199 29.095C34.6549 29.095 34.4899 29.26 34.4899 29.425C34.4349 29.59 34.5999 29.755 34.8199 29.755Z" fill="#303030"/>
</g>
<defs>
<clipPath id="clip0_661_3030">
<rect width="55" height="55" fill="white" transform="translate(0.5)"/>
</clipPath>
</defs>
</svg>
