<svg width="56" height="55" viewBox="0 0 56 55" fill="none" xmlns="http://www.w3.org/2000/svg">
<g clip-path="url(#clip0_673_9071)">
<path d="M42.6094 0H13.3906C6.27133 0 0.5 5.77133 0.5 12.8906V42.1094C0.5 49.2287 6.27133 55 13.3906 55H42.6094C49.7287 55 55.5 49.2287 55.5 42.1094V12.8906C55.5 5.77133 49.7287 0 42.6094 0Z" fill="#F0DB4F"/>
<path d="M14.9615 45.962L19.1703 43.4149C19.9824 44.8545 20.7211 46.0727 22.4929 46.0727C24.1912 46.0727 25.262 45.4084 25.262 42.8242V25.2505H30.4307V42.8973C30.4307 48.2506 27.2927 50.6873 22.7144 50.6873C18.5797 50.6873 16.1797 48.546 14.9613 45.9616M33.2381 45.4082L37.4464 42.9716C38.5544 44.7808 39.9943 46.1099 42.5414 46.1099C44.6832 46.1099 46.0488 45.0391 46.0488 43.5622C46.0488 41.7902 44.6458 41.1624 42.283 40.129L40.9911 39.575C37.2621 37.9877 34.7884 35.9939 34.7884 31.7851C34.7884 27.9085 37.742 24.9548 42.3571 24.9548C45.6429 24.9548 48.0058 26.0995 49.7039 29.0899L45.6797 31.6743C44.7934 30.0868 43.8339 29.4592 42.3571 29.4592C40.8433 29.4592 39.8834 30.4192 39.8834 31.6743C39.8834 33.2248 40.8433 33.8526 43.0584 34.8127L44.3504 35.3664C48.7438 37.2495 51.2175 39.1689 51.2175 43.4883C51.2175 48.1406 47.5626 50.6877 42.6523 50.6877C37.8529 50.6877 34.7516 48.3988 33.2381 45.4082Z" fill="white"/>
</g>
<defs>
<clipPath id="clip0_673_9071">
<rect width="55" height="55" fill="white" transform="translate(0.5)"/>
</clipPath>
</defs>
</svg>
