<svg width="44" height="49" viewBox="0 0 44 49" fill="none" xmlns="http://www.w3.org/2000/svg">
<g clip-path="url(#clip0_518_69)">
<path d="M4.08396 43.2518L0.483398 0.359985L43.4834 0.446179L39.6762 43.2518L22.1457 48.1996L4.08396 43.2518Z" fill="#E9CA32"/>
<path d="M22.1456 44.0572V4.44482L39.8533 4.50229L36.6956 39.9433L22.1456 44.0572Z" fill="#FFDE25"/>
<path d="M20.2495 9.14832H15.5681V35.5133L11.927 34.8373V31.2882L7.59229 30.6121V38.5554L20.2495 41.7666V9.14832ZM23.7613 9.14832H36.7213L35.8544 14.2016H28.7088V22.4941H35.8544L34.9874 39.2315L23.7613 41.7666V36.5274L31.3463 33.9923L31.7843 27.063L23.7613 28.1953V9.14832Z" fill="white"/>
</g>
<defs>
<clipPath id="clip0_518_69">
<rect width="43" height="48" fill="white" transform="translate(0.483398 0.279785)"/>
</clipPath>
</defs>
</svg>
