<svg width="44" height="49" viewBox="0 0 44 49" fill="none" xmlns="http://www.w3.org/2000/svg">
<g clip-path="url(#clip0_661_1502)">
<path d="M4.08396 43.2517L0.483398 0.359863L43.4834 0.446057L39.6762 43.2517L22.1457 48.1995L4.08396 43.2517Z" fill="#767676"/>
<path d="M22.1456 44.0572V4.44482L39.8533 4.50229L36.6956 39.9433L22.1456 44.0572Z" fill="#888888"/>
<path d="M20.2495 9.14819H15.5681V35.5132L11.927 34.8372V31.288L7.59229 30.612V38.5553L20.2495 41.7664V9.14819ZM23.7613 9.14819H36.7213L35.8544 14.2015H28.7088V22.494H35.8544L34.9874 39.2313L23.7613 41.7664V36.5272L31.3463 33.9921L31.7843 27.0629L23.7613 28.1952V9.14819Z" fill="white"/>
</g>
<defs>
<clipPath id="clip0_661_1502">
<rect width="43" height="48" fill="white" transform="translate(0.483398 0.279785)"/>
</clipPath>
</defs>
</svg>
