<svg width="56" height="56" viewBox="0 0 56 56" fill="none" xmlns="http://www.w3.org/2000/svg">
    <g clip-path="url(#clip0_110_350)">
        <path
            d="M38.859 38.7011C34.9918 46.9057 28.22 52.426 19.261 54.2408C17.8873 54.5901 16.4772 54.7608 15.0629 54.7491C9.90668 54.7491 5.18012 52.5196 2.88559 48.8677C-0.195273 44.0029 -1.24371 33.6892 8.9141 26.0598C9.12035 27.2236 9.54145 28.8199 9.82074 29.7653C7.8267 31.3026 6.19451 33.2891 5.04691 35.5754C3.15629 39.428 3.36684 43.2761 5.60551 46.8344C7.15238 49.2333 9.6016 50.6914 12.7512 51.1373C16.6852 51.6541 20.6761 50.8741 24.1594 48.9078C29.6207 45.9292 33.2602 42.3709 35.6407 37.5061C34.9675 36.7843 34.5691 35.8339 34.5192 34.8307C34.4832 33.7542 34.8602 32.7069 35.5675 31.9186C36.2748 31.1303 37.2546 30.6654 38.2918 30.6258H38.4379C39.4468 30.6206 40.419 31.018 41.1534 31.7359C41.8878 32.4538 42.3282 33.4372 42.3834 34.4826C42.4386 35.528 42.1044 36.5554 41.45 37.3522C40.7956 38.1491 39.871 38.6544 38.8676 38.7636L38.859 38.7011ZM51.1782 29.6939C56.4246 35.8652 56.5664 43.1289 54.5383 47.3427C52.6477 51.1909 47.6633 55.0434 40.9602 55.0434C37.8311 54.9772 34.7528 54.209 31.9368 52.7916C32.9207 52.0648 34.3172 50.901 35.0864 50.1742C37.258 51.1505 39.5949 51.6689 41.9614 51.6992C46.3012 51.6992 49.5883 49.5945 51.5477 45.7464C52.8067 43.2047 52.8797 40.2261 51.6895 37.1762C50.229 33.3386 47.6302 30.0827 44.2688 27.8791C39.8588 24.7941 34.6599 23.1495 29.3414 23.157H28.0825C27.7889 23.8607 27.3113 24.4651 26.7038 24.9017C26.0962 25.3383 25.383 25.5896 24.645 25.6273H24.5118C23.4909 25.6143 22.5151 25.1888 21.7917 24.4412C21.0683 23.6936 20.6542 22.6827 20.6375 21.6234C20.6207 20.5641 21.0025 19.5397 21.7018 18.7678C22.4012 17.996 23.3629 17.5374 24.3829 17.4896H24.5246C25.2354 17.4901 25.9322 17.6939 26.5386 18.0786C27.145 18.4632 27.6376 19.0139 27.9621 19.67H29.0836C38.0211 19.67 45.8672 23.2283 51.1782 29.6939ZM15.6215 39.9497C15.5479 39.2092 15.7208 38.4649 16.1114 37.8405C12.1926 30.7953 10.0957 21.8639 13.3141 12.5668C15.6215 5.57953 21.4309 0.857422 27.7301 0.857422C34.4504 0.857422 41.45 6.96182 42.2879 18.7247C41.2395 18.3635 39.7098 17.8329 38.7903 17.6367C38.5625 13.7886 35.4301 4.20169 28.0094 4.34438C25.3496 4.42018 21.4309 5.72667 19.4157 8.411C16.9229 11.6153 15.4727 15.557 15.2735 19.67C14.8011 25.3097 16.0762 30.9586 18.9129 35.7938C19.0695 35.7345 19.2365 35.7102 19.4028 35.7225H19.5403C20.5796 35.703 21.5838 36.1127 22.332 36.8616C23.0802 37.6104 23.5111 38.637 23.5299 39.7156C23.5487 40.7941 23.1539 41.8362 22.4323 42.6127C21.7107 43.3891 20.7214 43.8363 19.6821 43.8558H19.5403C18.5263 43.852 17.5529 43.4424 16.8229 42.7122C16.0928 41.982 15.6625 40.9876 15.6215 39.9363V39.9497Z"
            fill="#646464"></path>
    </g>
    <defs>
        <clipPath id="clip0_110_350">
            <rect width="55" height="55" fill="white" transform="translate(0.75 0.740234)"></rect>
        </clipPath>
    </defs>
</svg>