<svg width="56" height="56" viewBox="0 0 56 56" fill="none">
    <path
        d="M41.0585 40.3195C41.3958 37.5123 41.2949 37.1003 43.3857 37.5553L43.9164 37.6017C45.5243 37.6748 47.6276 37.3431 48.8634 36.769C51.5236 35.5345 53.1005 33.4741 50.4781 34.0151C44.4952 35.2496 44.084 33.2236 44.084 33.2236C50.4016 23.85 53.0425 11.9507 50.7626 9.03782C44.545 1.09332 33.7826 4.85008 33.6026 4.94719L33.545 4.95793C32.3629 4.71258 31.0399 4.56606 29.5536 4.542C26.8462 4.49731 24.7918 5.25184 23.2334 6.43348C23.2334 6.43348 4.03364 -1.47664 4.92696 16.3812C5.11688 20.18 10.372 45.1264 16.6402 37.5914C18.9313 34.8363 21.1451 32.5065 21.1451 32.5065C22.2442 33.2365 23.5608 33.6095 24.9409 33.4754L25.0479 33.3843C25.0144 33.7264 25.029 34.0611 25.0905 34.4573C23.4761 36.2615 23.9505 36.5782 20.7223 37.2425C17.4558 37.9154 19.3748 39.1138 20.6273 39.427C22.1463 39.8069 25.6598 40.3448 28.0343 37.0216L27.9397 37.4006C28.5731 37.9077 28.5306 41.0431 28.6199 43.2831C28.7097 45.5234 28.8597 47.6139 29.3165 48.8466C29.7732 50.079 30.312 53.2535 34.5548 52.3443C38.1006 51.5863 40.8115 50.4928 41.0585 40.3195Z"
        fill="black"></path>
    <path
        d="M33.1733 54.5612C31.2969 54.5612 30.0748 53.8354 29.3328 53.1346C28.2126 52.0776 27.7683 50.7159 27.5027 49.9025L27.388 49.563C26.8535 48.1202 26.6721 46.0426 26.5647 43.3674C26.5484 42.9656 26.5372 42.5518 26.5248 42.1131C26.5157 41.7921 26.5046 41.3895 26.4882 40.9684C25.8122 41.2908 25.0946 41.5175 24.3561 41.6422C23.0331 41.8682 21.6108 41.7952 20.128 41.4243C19.0817 41.1627 17.9946 40.6204 17.375 39.7829C15.569 41.3646 13.8464 41.1502 12.908 40.837C11.2524 40.2848 9.77081 38.7332 8.37819 36.0945C7.38604 34.2146 6.42655 31.7654 5.52593 28.8143C3.95757 23.6752 2.96112 18.2625 2.87261 16.4853C2.59417 10.923 4.09163 6.94492 7.32245 4.66285C12.419 1.06293 20.1409 3.18 22.9562 4.14121C24.8477 3.00125 27.073 2.44652 29.5876 2.48648C30.9381 2.50839 32.2241 2.62699 33.4187 2.84011C34.6648 2.44824 37.126 1.88578 39.9435 1.92101C45.1345 1.98289 49.4361 4.00586 52.3825 7.77121C54.4854 10.4576 53.4455 16.099 52.639 19.2228C51.5038 23.6168 49.5148 28.2901 47.0715 32.3584C47.735 32.3631 48.6962 32.2836 50.0626 32.0013C52.7585 31.4448 53.5469 32.8903 53.7609 33.5374C54.6181 36.1336 50.8919 38.0955 49.7296 38.6352C48.2403 39.3266 45.8121 39.7477 43.8235 39.6566L43.7367 39.651L43.2142 39.605L43.1627 40.0407L43.1128 40.4666C42.9792 45.6224 42.2427 48.8876 40.7272 51.045C39.1387 53.3069 36.9309 53.9407 34.9862 54.3575C34.3227 54.4993 33.7199 54.5612 33.1733 54.5612ZM29.2245 35.7963C30.4358 36.7657 30.5419 38.5897 30.6369 41.9984C30.6489 42.4238 30.6601 42.8264 30.6751 43.2024C30.7206 44.3411 30.8276 47.0073 31.2453 48.1339C31.3042 48.2933 31.357 48.4549 31.4129 48.6263C31.8782 50.0512 32.1115 50.7657 34.1238 50.3356C35.8129 49.9734 36.6813 49.6486 37.361 48.6809C38.3489 47.2741 38.9015 44.4442 39.0029 40.2698L41.0581 40.3196L39.0171 40.0747L39.0772 39.5651C39.2727 37.885 39.4137 36.6716 40.5364 35.8689C41.4375 35.2252 42.464 35.2875 43.2817 35.4349C42.3832 34.756 42.1349 33.9598 42.0687 33.6332L41.8973 32.7889L42.3789 32.0743C45.1534 27.9579 47.4411 22.8988 48.6562 18.1937C49.9049 13.3593 49.5242 10.7919 49.1435 10.3064C44.1037 3.86664 35.3643 6.52554 34.4516 6.82718L34.2974 6.91054L33.5239 7.05449L33.1278 6.97242C32.0355 6.74554 30.8221 6.62007 29.5214 6.59902C27.4778 6.56464 25.8291 7.04761 24.4773 8.07328L23.5393 8.78441L22.4509 8.33625C20.1254 7.38535 13.2951 5.47367 9.69089 8.02644C7.69026 9.44355 6.77889 12.2202 6.98171 16.2794C7.04874 17.6196 7.95925 22.693 9.46143 27.6133C11.5373 34.4131 13.4236 36.672 14.2112 36.9345C14.3487 36.9809 14.7053 36.7038 15.0603 36.2775C16.5401 34.5035 18.0725 32.774 19.6553 31.0912L20.8456 29.8387L22.2846 30.7947C22.8647 31.1802 23.5045 31.3989 24.1615 31.4401L27.5934 28.5131L27.0962 33.5868C27.0851 33.7007 27.0795 33.8558 27.1242 34.1437L27.2737 35.1053L26.6249 35.8307L26.5501 35.9149L28.4356 36.785L29.2245 35.7963Z"
        fill="black"></path>
    <path
        d="M50.4782 34.0152C44.4948 35.2497 44.0836 33.2237 44.0836 33.2237C50.4013 23.8496 53.0421 11.9499 50.7631 9.03787C44.5455 1.09381 33.7822 4.85056 33.6026 4.9481L33.5446 4.95841C32.3625 4.71306 31.0395 4.56697 29.5524 4.54291C26.8449 4.49865 24.7915 5.25275 23.233 6.43439C23.233 6.43439 4.03282 -1.4753 4.92571 16.3821C5.11563 20.1814 10.3707 45.1278 16.639 37.5928C18.9301 34.8376 21.1434 32.5078 21.1434 32.5078C22.243 33.2379 23.5591 33.6108 24.9388 33.4768L25.0463 33.3857C25.0127 33.7277 25.0282 34.0624 25.0892 34.4586C23.4745 36.2629 23.9488 36.5796 20.7206 37.2438C17.4541 37.9167 19.3731 39.1151 20.6261 39.4284C22.1446 39.8082 25.6586 40.3462 28.0326 37.023L27.9376 37.402C28.5706 37.909 29.0149 40.6985 28.9405 43.2272C28.8658 45.756 28.8159 47.4923 29.3148 48.8484C29.8132 50.2045 30.3099 53.2553 34.5535 52.3461C38.0993 51.5864 39.9366 49.6171 40.1927 46.3326C40.3741 43.9972 40.7844 44.3427 40.8106 42.2549L41.1402 41.2666C41.5201 38.1011 41.2004 37.0801 43.3853 37.5549L43.916 37.6013C45.5239 37.6744 47.6281 37.3427 48.8634 36.7686C51.5232 35.535 53.1006 33.4742 50.4782 34.0152Z"
        fill="#336791"></path>
    <path
        d="M33.3878 53.294C29.8506 53.294 28.73 50.4929 28.2715 49.3473C27.6004 47.6685 27.4556 41.1536 27.6051 35.8109C27.6073 35.7208 27.6273 35.632 27.664 35.5497C27.7007 35.4674 27.7533 35.3931 27.8188 35.3312C27.8843 35.2693 27.9614 35.221 28.0457 35.189C28.1299 35.157 28.2197 35.142 28.3098 35.1449C28.3998 35.1473 28.4884 35.1675 28.5706 35.2042C28.6528 35.2409 28.7269 35.2935 28.7888 35.3589C28.8506 35.4243 28.899 35.5013 28.9311 35.5854C28.9632 35.6695 28.9784 35.7591 28.9758 35.8491C28.8035 42.0113 29.048 47.5955 29.5447 48.8382C30.3199 50.7756 31.4955 52.4703 34.8191 51.7583C37.9743 51.0816 39.156 49.8853 39.6823 46.8341C40.0862 44.4927 40.885 37.8317 40.9834 36.5173C40.99 36.4275 41.0142 36.3398 41.0547 36.2594C41.0953 36.179 41.1513 36.1073 41.2195 36.0485C41.2878 35.9898 41.367 35.9451 41.4525 35.917C41.5381 35.8889 41.6284 35.8779 41.7182 35.8848C41.8994 35.8985 42.0678 35.9836 42.1864 36.1214C42.305 36.2591 42.3641 36.4383 42.3507 36.6196C42.248 37.9881 41.4531 44.6362 41.0337 47.0674C40.4124 50.6712 38.8058 52.3057 35.1066 53.0989C34.4779 53.2334 33.9069 53.2936 33.3878 53.294ZM14.2083 39.6123C13.8991 39.6113 13.5921 39.5605 13.2991 39.4619C11.0015 38.6954 8.81314 34.9537 6.79447 28.3395C5.2579 23.3048 4.28423 18.0498 4.19872 16.3417C3.94564 11.2783 5.24931 7.69601 8.07451 5.69495C13.6635 1.73495 23.0654 5.50589 23.4629 5.66831C23.6313 5.73709 23.7654 5.86993 23.8359 6.03762C23.9063 6.20531 23.9072 6.39412 23.8385 6.56249C23.7697 6.73087 23.6368 6.86503 23.4691 6.93546C23.3014 7.00588 23.1126 7.00681 22.9443 6.93804C22.8536 6.90109 13.8379 3.28913 8.86427 6.81558C6.44857 8.52831 5.33954 11.7106 5.56771 16.2734C5.63947 17.7125 6.54911 22.8412 8.10544 27.939C9.90755 33.8438 11.9585 37.5696 13.7326 38.1613C14.0111 38.2541 14.8584 38.5364 16.0697 37.0798C17.4823 35.3833 18.9478 33.7316 20.4641 32.1272C20.591 32.0006 20.7624 31.9288 20.9416 31.927C21.1208 31.9252 21.2935 31.9936 21.4229 32.1176C21.5523 32.2416 21.628 32.4113 21.6338 32.5904C21.6397 32.7695 21.5752 32.9438 21.4541 33.0759C21.4335 33.0974 19.3714 35.2532 17.1242 37.9567C16.0598 39.2368 15.0397 39.6123 14.2083 39.6123ZM44.0411 33.8352C43.9168 33.835 43.7949 33.8011 43.6884 33.737C43.5819 33.6729 43.4948 33.581 43.4364 33.4713C43.3781 33.3615 43.3507 33.238 43.3571 33.1139C43.3636 32.9897 43.4036 32.8697 43.473 32.7666C49.8595 23.2898 52.1011 11.8391 50.1813 9.38554C47.7647 6.2978 44.3526 4.68519 40.039 4.59194C36.8451 4.52319 34.3065 5.33874 33.8914 5.48097L33.787 5.52351C33.3698 5.65456 33.0497 5.42597 32.9289 5.1587C32.8601 5.00558 32.8496 4.83255 32.8996 4.67226C32.9495 4.51197 33.0564 4.3755 33.2001 4.28859C33.2198 4.27698 33.2826 4.25034 33.3844 4.21296C34.0895 3.95472 36.6668 3.18128 39.8589 3.2178C44.6319 3.26851 48.5747 5.10886 51.2603 8.54077C52.5308 10.1646 52.5338 13.9054 51.2684 18.8047C49.9785 23.7998 47.5512 29.1679 44.6095 33.5331C44.4781 33.7295 44.2615 33.8352 44.0411 33.8352ZM44.3676 38.2223C43.2771 38.2223 42.2995 38.0685 41.7143 37.7178C41.1127 37.3573 40.998 36.8675 40.983 36.6075C40.8188 33.7243 42.4095 33.2225 43.2208 32.9934C43.1078 32.8224 42.9471 32.6213 42.7808 32.4138C42.3077 31.8225 41.6597 31.013 41.1604 29.8021C41.0822 29.6131 40.8373 29.1735 40.5537 28.6643C39.0159 25.9066 35.816 20.1681 37.8716 17.2295C38.8229 15.8695 40.7174 15.3341 43.5087 15.6328C42.6876 13.1311 38.7774 5.30566 29.4992 5.15355C26.7088 5.10714 24.4202 5.96523 22.7006 7.70159C18.8506 11.5898 18.9899 18.6251 18.992 18.6956C18.9944 18.7856 18.979 18.8752 18.9467 18.9592C18.9145 19.0433 18.866 19.1202 18.804 19.1855C18.7421 19.2508 18.6678 19.3033 18.5856 19.3399C18.5034 19.3765 18.4147 19.3966 18.3247 19.399C18.2347 19.4013 18.1451 19.386 18.0611 19.3537C17.977 19.3215 17.9001 19.273 17.8348 19.211C17.7695 19.149 17.717 19.0748 17.6804 18.9926C17.6437 18.9103 17.6237 18.8217 17.6213 18.7317C17.6127 18.4193 17.4692 11.0364 21.7265 6.73652C23.719 4.72429 26.3418 3.73085 29.5219 3.78284C35.4576 3.88038 39.2784 6.89808 41.438 9.41218C43.7923 12.1523 44.9464 15.1747 45.0414 16.1836C45.1123 16.9339 44.5739 17.0838 44.4652 17.1062L44.2177 17.1117C41.4784 16.673 39.721 16.9777 38.9944 18.0158C37.4308 20.2506 40.4579 25.6789 41.7504 27.997C42.0804 28.5883 42.3185 29.0158 42.4276 29.2796C42.8521 30.3092 43.406 31.001 43.8507 31.557C44.2422 32.046 44.5812 32.4701 44.7024 32.9676C44.7586 33.0665 45.5574 34.2481 50.2973 33.2697C51.4854 33.0248 52.1978 33.2341 52.4157 33.8928C52.8441 35.1883 50.4404 36.6995 49.1097 37.3174C47.9173 37.8717 46.0142 38.2223 44.3676 38.2223ZM42.3498 36.4945C42.5002 36.6462 43.2526 36.9079 44.8106 36.8409C46.1959 36.7816 47.6569 36.4803 48.5335 36.0734C49.6545 35.5527 50.403 34.9704 50.7906 34.573L50.5758 34.6125C47.5452 35.2381 45.4015 35.1548 44.2043 34.3646C44.1239 34.3114 44.0465 34.2539 43.9723 34.1923C43.8426 34.2434 43.7227 34.2769 43.6372 34.301C42.9583 34.4913 42.2561 34.6885 42.3498 36.4945ZM22.7724 40.3252C22.0196 40.3252 21.2272 40.2225 20.4181 40.0201C19.5798 39.8104 18.1666 39.1792 18.1881 38.1424C18.2126 36.9792 19.9042 36.6303 20.541 36.4993C22.8416 36.0253 22.9915 35.8354 23.7104 34.9223C23.9201 34.6563 24.1809 34.325 24.5367 33.928C25.0648 33.3368 25.6418 33.0373 26.252 33.0373C26.677 33.0373 27.0254 33.1812 27.2558 33.277C27.9897 33.5812 28.602 34.3169 28.8538 35.1964C29.0811 35.9901 28.9724 36.7541 28.5487 37.3475C27.1578 39.2952 25.1602 40.3252 22.7724 40.3252ZM19.6692 38.2012C19.8759 38.3611 20.2901 38.5746 20.7511 38.6898C21.452 38.8651 22.1317 38.9541 22.7728 38.9541C24.7262 38.9541 26.2945 38.1454 27.4336 36.5504C27.6713 36.2178 27.5999 35.7954 27.5363 35.5733C27.4031 35.1079 27.0723 34.6847 26.7315 34.5433C26.5468 34.4668 26.3934 34.4084 26.2524 34.4084C26.1768 34.4084 25.9465 34.4084 25.5589 34.8419C25.2915 35.1427 25.0344 35.4526 24.7881 35.7709C23.8926 36.9079 23.4822 37.2937 20.8182 37.8425C20.1681 37.9757 19.8346 38.1114 19.6692 38.2012ZM24.941 35.0387C24.7774 35.0385 24.6192 34.9797 24.4951 34.873C24.3709 34.7663 24.2891 34.6187 24.2643 34.4569C24.2472 34.3431 24.2358 34.2286 24.2299 34.1136C22.4836 34.081 20.7988 33.3316 19.5197 31.997C17.9023 30.3096 17.1663 27.9717 17.5006 25.583C17.8636 22.989 17.7279 20.6992 17.6548 19.469C17.6346 19.127 17.62 18.8799 17.6209 18.7089C17.6222 18.4919 17.6265 17.9166 19.5497 16.9416C20.2338 16.5948 21.6054 15.9898 23.1037 15.8347C25.586 15.5782 27.2222 16.6838 27.7121 18.9482C29.0342 25.0618 27.8169 27.7659 26.9279 29.7407C26.7625 30.1085 26.6061 30.4557 26.481 30.7921L26.3706 31.0886C25.901 32.348 25.4949 33.436 25.6195 34.2485C25.6332 34.3375 25.6292 34.4284 25.6078 34.5158C25.5863 34.6032 25.5479 34.6856 25.4946 34.7582C25.4414 34.8308 25.3743 34.8922 25.2973 34.9388C25.2203 34.9855 25.1349 35.0165 25.0459 35.0301L24.941 35.0387ZM18.9963 18.8988L19.0229 19.3882C19.0986 20.6661 19.2395 23.044 18.8579 25.7734C18.5825 27.7435 19.1841 29.6664 20.5092 31.0482C21.5564 32.1405 22.9344 32.7434 24.3506 32.7434H24.3799C24.5384 32.0752 24.8018 31.3696 25.0854 30.6095L25.195 30.3148C25.3363 29.9349 25.5018 29.5671 25.6771 29.1778C26.5326 27.2769 27.5978 24.9106 26.371 19.2383C26.1283 18.1146 25.5392 17.4645 24.5711 17.2501C22.5825 16.811 19.6189 18.3067 18.9963 18.8988ZM23.1342 18.6079C23.0998 18.8503 23.5781 19.4974 24.202 19.5837C24.8246 19.671 25.3574 19.1648 25.3913 18.9225C25.4253 18.6801 24.9475 18.4128 24.3236 18.326C23.7001 18.2392 23.1673 18.3656 23.1342 18.6079ZM24.3451 19.8222L24.1702 19.8102C23.7835 19.7565 23.3924 19.5128 23.1247 19.1579C23.0306 19.0333 22.8772 18.7918 22.9077 18.5761C22.9511 18.2599 23.337 18.0704 23.939 18.0704C24.0735 18.0704 24.2136 18.0803 24.3545 18.1C24.6836 18.1456 24.9892 18.2405 25.2147 18.3664C25.6058 18.5847 25.6345 18.8284 25.6169 18.9542C25.5688 19.3036 25.0132 19.8222 24.3451 19.8222ZM23.3615 18.6483C23.3808 18.7978 23.7512 19.2911 24.2333 19.3577L24.3455 19.3655C24.7906 19.3655 25.1232 19.0153 25.1623 18.9005C25.1211 18.8223 24.8349 18.6281 24.2922 18.5525C24.1754 18.5357 24.0575 18.5273 23.9394 18.5271C23.5905 18.5271 23.4053 18.6058 23.3615 18.6483ZM42.098 18.1134C42.132 18.3557 41.6542 19.0028 41.0307 19.0896C40.4076 19.1764 39.8744 18.6707 39.84 18.4283C39.8074 18.186 40.2852 17.9183 40.9082 17.8319C41.5313 17.7447 42.0636 17.8714 42.098 18.1134ZM40.8867 19.2134C40.2869 19.2134 39.7691 18.7467 39.7266 18.4438C39.6772 18.0803 40.2757 17.804 40.8919 17.7185C41.0277 17.6996 41.1622 17.6901 41.2915 17.6901C41.8234 17.6901 42.1758 17.8461 42.211 18.0979C42.2338 18.2607 42.1088 18.5121 41.8935 18.739C41.7513 18.8881 41.4526 19.1463 41.0457 19.2026L40.8867 19.2134ZM41.2919 17.9187C41.1733 17.9187 41.0496 17.9277 40.9241 17.9449C40.3049 18.0313 39.9354 18.2796 39.9534 18.4128C39.9741 18.5594 40.3694 18.9852 40.8872 18.9852L41.0148 18.9762C41.3529 18.9293 41.6069 18.7085 41.7281 18.5813C41.9184 18.3815 41.994 18.1933 41.985 18.1292C41.973 18.0442 41.7444 17.9187 41.2919 17.9187ZM42.9956 32.0309C42.8714 32.031 42.7495 31.9973 42.643 31.9334C42.5365 31.8695 42.4493 31.7779 42.3909 31.6683C42.3324 31.5587 42.3049 31.4352 42.3112 31.3112C42.3175 31.1871 42.3575 31.0671 42.4267 30.964C43.8868 28.7834 43.6195 26.5597 43.3613 24.4091C43.2509 23.493 43.1374 22.5456 43.1667 21.6364C43.1967 20.7009 43.3158 19.9292 43.4305 19.1828C43.5667 18.2985 43.6956 17.4632 43.6423 16.4715C43.6375 16.3816 43.6504 16.2917 43.6803 16.2068C43.7102 16.1219 43.7565 16.0437 43.8167 15.9767C43.8768 15.9097 43.9495 15.8552 44.0307 15.8163C44.1119 15.7774 44.2 15.7549 44.2899 15.7501C44.3797 15.7452 44.4697 15.7581 44.5546 15.788C44.6395 15.8179 44.7177 15.8643 44.7847 15.9244C44.8517 15.9846 44.9062 16.0573 44.9451 16.1385C44.9839 16.2197 45.0065 16.3077 45.0113 16.3976C45.0723 17.5311 44.9267 18.4764 44.7857 19.3912C44.677 20.0972 44.5644 20.8273 44.5374 21.6802C44.5111 22.4854 44.6138 23.3405 44.7226 24.2454C44.9976 26.5322 45.3091 29.1241 43.5663 31.7267C43.5035 31.8204 43.4186 31.8972 43.3191 31.9503C43.2195 32.0034 43.1084 32.0311 42.9956 32.0309Z"
        fill="white"></path>
</svg>