<svg width="56" height="55" viewBox="0 0 56 55" fill="none" xmlns="http://www.w3.org/2000/svg">
<path d="M28.043 0.601562L2.90625 9.32422L6.51562 42.668L28.043 54.3984V0.601562Z" fill="#575757"/>
<path d="M27.957 0.601562L53.0938 9.32422L49.4844 42.668L27.957 54.3984V0.601562Z" fill="#676767"/>
<path d="M40.5468 19.0352L40.5039 18.9922C41.6497 20.2813 42.2513 21.7995 42.3086 23.5469C42.3372 25.2943 41.7356 27.1419 40.5039 29.0898C41.4205 28.3737 42.4804 26.8555 43.6836 24.5352C44.1992 29.2617 42.2656 32.8568 37.8828 35.3203C39.2864 35.2057 41.1341 34.2891 43.4258 32.5703C40.9909 38.4714 36.4935 41.5794 29.9336 41.8945C23.5742 41.8945 19.4922 38.1133 19.4922 38.1133C16.8854 36.0794 15.095 33.5156 14.1211 30.4219C12.5312 28.7461 12.5312 28.5742 12.3593 27.8867C12.2304 27.1992 12.4883 26.9844 12.9179 26.3398C13.233 25.8815 13.3047 25.2513 13.1328 24.4492C12.7604 23.9049 12.5455 23.0599 12.4883 21.9141C12.4883 21.3411 12.8606 20.7539 13.6054 20.1523C14.3502 19.5221 14.7942 19.0495 14.9375 18.7344C15.0807 18.5625 15.138 17.7891 15.1093 16.4141C15.0807 15.0677 15.8255 14.3372 17.3437 14.2227C19.5781 14.0508 20.8242 12.375 21.5547 11.6016C22.0273 11.0859 22.7148 10.8281 23.5742 10.8281C24.8203 10.7852 25.9375 11.2578 26.9258 12.2461C29.332 12.1172 31.7812 12.7617 34.2734 14.1797C37.8255 16.2708 39.7734 18.5482 40.1172 21.0117C39.7161 24.2487 35.3906 24.1628 27.1406 20.7539C22.8151 21.9857 20.681 24.6354 20.7383 28.7031C20.7383 32.4557 22.5573 35.1771 26.1953 36.8672C24.4336 35.1484 23.6601 33.6875 23.9179 32.4844C27.5846 36.8385 31.7526 38.4714 36.4218 37.3828C34.388 37.4401 32.7552 36.7669 31.5234 35.3633C34.6744 35.2773 37.6536 33.8021 40.4609 30.9375C38.8567 32.2266 37.1523 32.7135 35.3476 32.3984C40.2174 28.5885 41.9505 24.1341 40.5468 19.0352ZM32.3828 17.7031C32.3828 17.3164 32.082 17.0156 31.6953 17.0156C31.3086 17.0156 30.9648 17.3164 30.9648 17.7031C30.9648 18.0898 31.3086 18.4336 31.6953 18.4336C32.082 18.4336 32.3828 18.0898 32.3828 17.7031Z" fill="#fff"/>
</svg>
