<svg width="60" height="55" viewBox="0 0 84 55" fill="none" xmlns="http://www.w3.org/2000/svg">
    <g clip-path="url(#clip0_518_1293)">
        <path
            d="M47.1128 54.6821H78.2683C79.258 54.6821 80.23 54.4297 81.0871 53.9498C81.9386 53.4751 82.6502 52.7847 83.1502 51.9478C83.6437 51.1211 83.9043 50.1763 83.9045 49.2135C83.9045 48.2537 83.6429 47.3111 83.1476 46.4799L62.2247 11.3274C61.7245 10.4909 61.0131 9.80071 60.1618 9.3261C59.3007 8.84464 58.3304 8.59235 57.3438 8.59342C56.3541 8.59342 55.3824 8.84616 54.5253 9.3261C53.6741 9.80063 52.9628 10.4908 52.4628 11.3274L47.1128 20.3215L36.6529 2.73331C36.1521 1.8971 35.4404 1.2071 34.5891 0.732353C33.7275 0.251438 32.7571 -0.000696716 31.7704 1.44597e-06C30.781 1.44597e-06 29.8087 0.25274 28.9516 0.732353C28.1005 1.20715 27.3889 1.89715 26.8882 2.73331L0.851221 46.4799C0.35716 47.3062 0.0958456 48.2508 0.0949707 49.2135C0.0949707 50.1734 0.354584 51.1166 0.849256 51.9478C1.3493 52.7847 2.06087 53.4751 2.91241 53.9498C3.77378 54.4312 4.74437 54.6834 5.73116 54.6821H25.2879C33.0367 54.6821 38.7508 51.3808 42.683 44.9399L52.2291 28.9038L57.3421 20.3215L72.6878 46.1002H52.2291L47.1128 54.6821ZM24.9687 46.0916L11.3209 46.0884L31.7796 11.7189L41.9876 28.9038L35.1529 40.3896C32.5417 44.5687 29.5753 46.0913 24.969 46.0913"
            fill="#909090" />
    </g>
    <defs>
        <clipPath id="clip0_518_1293">
            <rect width="83.81" height="55" fill="white" transform="translate(0.0949707)" />
        </clipPath>
    </defs>
</svg>