<svg width="56" height="57" viewBox="0 0 56 57" fill="none" xmlns="http://www.w3.org/2000/svg">
<g clip-path="url(#clip0_575_82)">
<path d="M55.9206 28.4307C55.9206 43.8556 43.4158 56.3607 27.99 56.3607C12.5637 56.3607 0.059082 43.8556 0.059082 28.4307C0.059082 13.0048 12.5641 0.5 27.99 0.5C43.416 0.5 55.9206 13.0048 55.9206 28.4307Z" fill="#DD4814"/>
<path d="M8.99775 24.701C6.93735 24.701 5.26807 26.3703 5.26807 28.4307C5.26807 30.49 6.93735 32.1595 8.99775 32.1595C11.0573 32.1595 12.7266 30.49 12.7266 28.4307C12.7266 26.3703 11.0573 24.701 8.99775 24.701ZM35.6229 41.6493C33.8394 42.6796 33.2276 44.959 34.2579 46.7416C35.2871 48.5253 37.5665 49.1367 39.3502 48.1066C41.1337 47.0774 41.7453 44.798 40.7152 43.0141C39.686 41.2317 37.4053 40.6203 35.6229 41.6493ZM17.0978 28.4307C17.0978 24.7456 18.9283 21.4897 21.729 19.5184L19.0027 14.9522C15.7403 17.1331 13.3126 20.4655 12.3037 24.3687C13.481 25.329 14.2344 26.7914 14.2344 28.4305C14.2344 30.0687 13.481 31.531 12.3037 32.4915C13.3113 36.3956 15.739 39.7285 19.0027 41.9094L21.729 37.3419C18.9283 35.3716 17.0978 32.1159 17.0978 28.4307ZM27.9898 17.5376C33.6802 17.5376 38.3488 21.9003 38.8388 27.4645L44.1522 27.3861C43.891 23.2785 42.0964 19.5908 39.3393 16.8791C37.9213 17.4149 36.2833 17.3328 34.868 16.5169C33.4498 15.6985 32.5606 14.318 32.3176 12.8196C30.908 12.4296 29.4522 12.2317 27.9896 12.2311C25.4993 12.2287 23.0422 12.8024 20.8105 13.9074L23.4016 18.5508C24.8386 17.882 26.4048 17.5361 27.9898 17.5376ZM27.9898 39.3229C26.4048 39.3243 24.8388 38.9785 23.4018 38.3096L20.8107 42.9526C23.0421 44.059 25.4995 44.6334 27.9901 44.6306C29.4527 44.6304 30.9085 44.4319 32.3178 44.0407C32.5608 42.5422 33.4503 41.163 34.868 40.3434C36.2846 39.5259 37.9215 39.4454 39.3393 39.9811C42.0966 37.2695 43.891 33.5818 44.1526 29.4741L38.8377 29.3958C38.3488 34.9615 33.6804 39.3229 27.9898 39.3229ZM35.6216 15.2096C37.4053 16.2395 39.6849 15.6296 40.7139 13.846C41.7442 12.0623 41.1339 9.78267 39.3502 8.75236C37.5665 7.72336 35.2871 8.33454 34.2566 10.1182C33.2278 11.901 33.8392 14.1804 35.6216 15.2096Z" fill="white"/>
</g>
<defs>
<clipPath id="clip0_575_82">
<rect width="56" height="56" fill="white" transform="translate(0 0.5)"/>
</clipPath>
</defs>
</svg>
