<svg width="56" height="56" viewBox="0 0 56 56" fill="none" xmlns="http://www.w3.org/2000/svg">
    <g clip-path="url(#clip0_518_1283)">
        <path
            d="M34.6012 26.176L23.5866 29.7725L14.0046 34.0015L11.3234 34.7096C10.6157 35.3854 9.89114 36.0433 9.15042 36.6827C8.30136 37.4149 7.51074 38.0814 6.90316 38.5639C6.22855 39.0967 5.22952 40.0958 4.72163 40.7287C3.96367 41.6779 3.36468 42.685 3.10644 43.4593C2.64839 44.858 2.87355 46.2734 3.7557 47.5805C4.88835 49.2455 7.14421 50.9441 9.77476 52.1008C11.1154 52.6925 13.3712 53.45 15.0702 53.8741C17.892 54.5904 23.3537 55.3651 26.359 55.4811C26.9666 55.5065 27.7825 55.5065 27.8156 55.4811C27.8826 55.4395 28.3489 54.5487 28.8903 53.4418C30.7379 49.67 32.07 46.132 32.7948 43.1096C33.2275 41.2783 33.5687 38.8389 33.7934 35.9501C33.8519 35.1423 33.8768 32.4366 33.8269 31.5209C33.7517 30.0226 33.6185 28.807 33.4102 27.6168C33.3771 27.4415 33.3689 27.2833 33.3857 27.2747C33.4187 27.2502 33.5189 27.2167 34.8758 26.8253L34.6012 26.176ZM32.0871 27.6499C32.1873 27.6499 32.4532 30.2052 32.5198 31.8204C32.5366 32.162 32.5284 32.3867 32.5112 32.3867C32.4451 32.3867 31.1044 31.5961 30.1475 30.9963C29.3148 30.472 27.7327 29.4232 27.4835 29.2229C27.3997 29.1649 27.4078 29.1563 28.0906 28.9234C29.2478 28.5324 31.9956 27.6494 32.0867 27.6494L32.0871 27.6499ZM26.4754 29.4975C26.5506 29.4975 26.7418 29.6058 27.1999 29.889C28.9148 30.9632 31.2462 32.2621 32.2453 32.6948C32.5529 32.828 32.5864 32.7777 31.8787 33.2611C30.3637 34.2933 28.4739 35.309 26.1596 36.333C25.7514 36.516 25.4098 36.6574 25.4016 36.6574C25.3849 36.6574 25.4352 36.4494 25.5018 36.1998C26.0591 34.1265 26.3757 32.0288 26.3925 30.347C26.4011 29.5143 26.4011 29.5143 26.4759 29.4893C26.4587 29.4979 26.4673 29.4979 26.4759 29.4979L26.4754 29.4975ZM25.3187 29.9388C25.3685 29.9891 25.335 31.8539 25.2684 32.3618C25.1191 33.5889 24.8629 34.8007 24.5027 35.9832C24.4112 36.2913 24.3278 36.5495 24.3111 36.5659C24.2776 36.6075 23.1372 35.4917 22.7625 35.059C22.1132 34.3096 21.6053 33.5606 21.2307 32.828C21.0394 32.4533 20.7395 31.7207 20.7644 31.6958C20.8976 31.6038 25.2852 29.9057 25.3187 29.9388ZM19.8737 32.0786C19.8819 32.0786 19.89 32.0786 19.8986 32.0868C19.9154 32.1036 19.9738 32.2372 20.0237 32.3867C20.2901 33.1108 20.8891 34.1764 21.4055 34.8591C21.9719 35.6085 22.7127 36.4082 23.3288 36.9324C23.5286 37.0987 23.7117 37.2568 23.7366 37.2817C23.7864 37.332 23.8032 37.3234 22.4458 37.8399C20.8732 38.4393 19.1578 39.0387 17.1929 39.6712C16.7235 39.8226 16.2546 39.9753 15.7861 40.1293C15.7109 40.1542 15.7362 40.1121 15.9524 39.7709C16.9265 38.2481 18.408 35.2592 19.2408 33.1443C19.3826 32.7777 19.5244 32.4116 19.5493 32.3283C19.5824 32.2118 19.6241 32.1702 19.7319 32.1117C19.7903 32.0954 19.8488 32.0786 19.8737 32.0786ZM18.2087 32.7696C18.2336 32.7863 17.8091 33.6771 17.3927 34.4926C16.5849 36.0666 15.7027 37.6152 14.5207 39.4968C14.3204 39.8212 14.1296 40.1211 14.1039 40.1542C14.0626 40.2126 14.0463 40.1959 13.9127 39.9381C13.6295 39.3799 13.3966 38.664 13.2716 38.0062C13.1469 37.3569 13.1719 36.2247 13.3137 35.5252C13.4211 35.0095 13.4134 35.0177 13.663 34.8927C14.7286 34.3513 18.1751 32.7365 18.2087 32.7696ZM32.5697 33.3527V33.702C32.5697 35.5587 32.3699 38.1063 32.0785 39.9625C32.0287 40.2874 31.987 40.5538 31.9789 40.5624C31.9789 40.5624 31.7374 40.4958 31.4546 40.4124C30.1278 39.9911 28.845 39.4418 27.6244 38.7723C26.8166 38.331 25.6435 37.6066 25.6766 37.5735C25.6848 37.5649 26.0346 37.3818 26.4423 37.1653C28.0743 36.3162 29.6392 35.4006 30.9966 34.4926C31.5045 34.1515 32.2702 33.6023 32.4365 33.4524L32.5697 33.3527ZM11.9232 35.8165C11.9563 35.8165 11.9477 35.8831 11.8978 36.183C11.8563 36.4785 11.8258 36.7755 11.8063 37.0733C11.7397 38.2893 11.9395 39.1887 12.5389 40.4206C12.7057 40.7618 12.8389 41.0449 12.8303 41.0531C12.7723 41.1034 7.26066 42.7186 5.52902 43.1929C5.01296 43.3347 4.56351 43.4593 4.52999 43.4675C4.47156 43.4847 4.46339 43.4761 4.48831 43.3343C4.67995 42.1106 5.61238 40.5121 6.91132 39.1633C7.77671 38.264 8.46808 37.7398 9.65015 37.0656C10.4992 36.5826 11.8063 35.8582 11.906 35.8251C11.906 35.8165 11.9146 35.8165 11.9232 35.8165ZM24.9105 38.1394C24.9191 38.1308 25.1185 38.2395 25.36 38.3809C27.1419 39.4134 29.6225 40.3708 31.7369 40.8619L31.9286 40.9036L31.6622 41.0535C30.5553 41.6697 26.9167 43.1848 23.1956 44.5748C22.6542 44.7746 22.1214 44.9744 22.0217 45.0161C21.922 45.0578 21.8301 45.0827 21.8301 45.0741C21.8301 45.0655 21.98 44.7746 22.1712 44.4167C23.2119 42.4685 24.2608 40.0958 24.7941 38.4475C24.8607 38.2893 24.9019 38.148 24.9101 38.1394H24.9105ZM23.5871 38.5721C23.5952 38.5807 23.5286 38.7556 23.4453 38.9554C22.7208 40.7119 21.7716 42.627 20.556 44.7746C20.2484 45.3246 19.9901 45.7655 19.982 45.7655C19.9738 45.7655 19.7237 45.6155 19.4238 45.4325C17.6591 44.3501 16.0937 43.0181 15.0702 41.7277L14.9198 41.5447L15.6778 41.3363C18.3917 40.5955 20.6978 39.7963 22.9872 38.814C23.3121 38.6808 23.5789 38.5721 23.5871 38.5721ZM31.8121 41.4445C31.8207 41.6362 31.3958 43.3511 31.046 44.5916C30.7547 45.6323 30.505 46.4478 30.047 47.8881C29.8476 48.5215 29.6732 49.0453 29.6646 49.0453C29.656 49.0453 29.6061 49.0375 29.5559 49.0208C27.0834 48.5709 24.8688 47.9466 22.7874 47.1143C22.2048 46.8809 21.3725 46.5063 21.3222 46.4646C21.3059 46.4478 21.8051 46.2149 22.4381 45.9404C26.2262 44.2835 30.1553 42.4019 31.5045 41.5945C31.6626 41.4944 31.7872 41.4445 31.8121 41.4445ZM12.8221 42.0938C12.8389 42.111 11.7814 43.6342 10.2998 45.7075C9.78335 46.4315 9.18394 47.2806 8.95921 47.5968C8.69924 47.9637 8.44668 48.3357 8.20167 48.7127L7.85191 49.2541L7.47722 48.9374C7.03593 48.5709 6.27023 47.7884 5.92863 47.3558C5.21277 46.465 4.7298 45.524 4.53859 44.6668C4.44663 44.2672 4.44663 44.0669 4.52999 44.0424C6.00514 43.69 7.48155 43.343 8.95921 43.0013C9.95361 42.7724 10.9471 42.5393 11.9395 42.3022C12.4225 42.1858 12.8139 42.0938 12.8221 42.0938ZM13.8877 42.502L14.1541 42.8015C15.353 44.1421 16.5767 45.133 18.0587 45.9984C18.3251 46.1488 18.5249 46.282 18.5082 46.2906C18.4501 46.3318 13.3631 48.1382 11.0071 48.9542C10.2014 49.2397 9.39385 49.52 8.58452 49.7951C8.57636 49.7951 8.50116 49.7448 8.41824 49.6868L8.26827 49.5785L8.50976 49.2288C9.29179 48.0965 10.2745 46.856 12.4139 44.2753L13.8877 42.502ZM20.5316 47.2556C20.5397 47.247 20.9058 47.3802 21.3557 47.5474C22.4381 47.9552 23.2953 48.2134 24.4443 48.5047C25.8597 48.8627 27.9076 49.2124 29.115 49.3125C29.298 49.3289 29.3977 49.3456 29.3646 49.3706C29.3062 49.4036 28.0825 49.8118 27.1835 50.0946C25.7514 50.5445 21.3806 51.8348 17.8172 52.8588C17.3991 52.9811 16.9802 53.1006 16.5604 53.2171C16.477 53.2334 16.202 53.1583 16.202 53.1252C16.202 53.1088 16.4018 52.8506 16.6433 52.5674C17.8421 51.1353 19.0328 49.5368 20.0237 48.0218C20.2987 47.6054 20.5316 47.2638 20.5316 47.2556ZM19.0663 47.2973C19.0745 47.3059 18.4832 48.2547 17.4507 49.8866C17.0098 50.5775 16.5183 51.3604 16.3438 51.635C16.1771 51.9014 15.927 52.3178 15.7861 52.5507L15.5446 52.9752L15.4196 52.9421C15.1196 52.8588 13.0133 52.1175 12.4556 51.8928C11.7941 51.6297 11.1467 51.3326 10.516 51.0025C9.84995 50.6441 9.01765 50.1113 9.08425 50.0946C9.10058 50.086 10.2414 49.7783 11.6151 49.4036C15.261 48.4128 17.2844 47.8387 18.6083 47.4224C18.8498 47.3472 19.0577 47.2892 19.0659 47.2977L19.0663 47.2973ZM29.4312 49.7281H29.4398C29.4729 49.8118 28.1241 53.5579 27.6326 54.7399C27.5247 55.0063 27.483 55.0734 27.4246 55.0648C27.2832 55.0562 25.3269 54.782 24.1362 54.6072C22.0634 54.2909 18.5829 53.6829 17.7094 53.4831L17.5091 53.4414L18.7496 53.1583C21.4137 52.5588 22.6959 52.2344 23.9948 51.8348C25.6722 51.3219 27.3108 50.6903 28.8984 49.9446C29.1562 49.8286 29.3728 49.7362 29.4312 49.7281Z"
            fill="url(#paint0_linear_518_1283)"></path>
        <path
            d="M23.2455 0.50043C23.0624 0.475508 20.1066 1.54113 18.2005 2.31543C15.6276 3.3643 13.6299 4.36332 12.3976 5.22914C11.9396 5.55398 11.3651 6.12848 11.2735 6.3532C11.2394 6.44365 11.2225 6.53969 11.2237 6.63637L12.3396 7.6934L14.9951 8.54289L21.314 9.67512L28.5401 10.9156L28.6153 10.2913C28.5904 10.2913 28.5736 10.2827 28.5487 10.2827L27.5995 10.1332L27.4083 9.79156C26.4256 8.05992 25.3437 5.91191 24.7107 4.46344C24.22 3.33938 23.7534 2.04086 23.4956 1.10844C23.3538 0.542109 23.3374 0.508594 23.2455 0.5V0.50043ZM23.1123 0.924961H23.1209C23.129 0.933555 23.1621 1.16688 23.1956 1.44145C23.3374 2.60676 23.5953 3.73082 24.0035 4.94641C24.3111 5.86164 24.3111 5.81223 23.9532 5.70395C23.1041 5.47105 19.2997 4.8132 16.5437 4.42992C16.1024 4.37191 15.7277 4.31391 15.7277 4.30531C15.6946 4.2718 17.7171 3.21477 18.6083 2.7984C19.7487 2.27418 22.8794 0.966641 23.1123 0.924961ZM15.0866 4.65508L15.4114 4.76336C17.1766 5.36277 21.6135 6.21227 24.0615 6.41207C24.336 6.43699 24.5694 6.46191 24.5771 6.46191C24.5857 6.47051 24.3528 6.59512 24.0529 6.73648C22.8708 7.32773 21.5719 8.05219 20.673 8.60992C20.4065 8.77621 20.1651 8.90984 20.1315 8.90984C20.0985 8.90984 19.9236 8.87633 19.7405 8.85098L19.4075 8.80113L18.5748 7.98516C17.5624 6.99923 16.5441 6.01952 15.5197 5.04609L15.0866 4.65508ZM14.7536 4.91332L15.9275 6.37855C16.5686 7.18637 17.2183 7.97699 17.3596 8.15188C17.501 8.32676 17.6174 8.46812 17.6089 8.47672C17.5758 8.50164 15.9107 8.1768 15.0286 7.97742C14.1211 7.76902 13.7464 7.66891 13.1887 7.49402L12.7306 7.34406V7.22805C12.7392 6.66945 13.4469 5.83715 14.6453 4.98852L14.7536 4.91332ZM24.7275 6.91137C24.7606 6.91137 24.8022 6.98613 24.9019 7.21086C25.1855 7.8352 26.0677 9.51699 26.2842 9.84184C26.3508 9.95012 26.4673 9.95871 25.2934 9.76707C22.4712 9.30902 21.5637 9.15906 21.5637 9.14273C21.5637 9.13414 21.6471 9.07613 21.7553 9.0177C22.6297 8.53473 23.5119 7.91898 24.2948 7.26113C24.486 7.10301 24.6609 6.95305 24.6944 6.92812C24.7026 6.91137 24.7189 6.9032 24.7275 6.91137Z"
            fill="url(#paint1_linear_518_1283)"></path>
        <path
            d="M11.332 6.23633C11.332 6.23633 11.1489 6.52809 11.3234 6.96121C11.4317 7.22762 11.7479 7.55203 12.1063 7.88504C12.1063 7.88504 15.8106 11.4983 16.2605 12.0143C18.3084 14.3789 19.1996 16.71 19.2825 19.9236C19.3328 21.9882 18.9413 23.8032 17.9672 25.9096C16.2356 29.6891 12.5807 33.8605 6.94446 38.4891L7.7686 38.2141C8.30141 37.8145 9.02586 37.3904 10.7244 36.458C14.6453 34.3095 19.0578 32.3368 24.4693 30.3048C32.2616 27.3744 45.0745 23.9446 52.3672 22.8291L53.1251 22.7127L53.0082 22.5292C52.3422 21.4967 51.8842 20.856 51.3346 20.1732C49.7362 18.192 47.797 16.5854 45.4238 15.2533C42.1604 13.4297 37.9395 12.0062 32.5947 10.9491C31.587 10.7489 29.3724 10.3661 27.5742 10.0915C24.5728 9.62969 21.5756 9.14126 18.583 8.62625C17.6089 8.45953 16.1518 8.20988 15.1863 8.00148C14.6866 7.8932 13.7297 7.66848 12.9803 7.41066C12.3809 7.17734 11.515 6.94445 11.3316 6.23676L11.332 6.23633ZM13.48 8.31773C13.4882 8.31 13.6214 8.35984 13.7963 8.41785C14.1951 8.55182 14.5977 8.67405 15.0037 8.78438C15.369 8.88487 15.7353 8.98198 16.1024 9.0757C16.6017 9.20031 17.0181 9.31676 17.0262 9.31676C17.0847 9.3752 17.9256 12.0642 18.2087 13.0967C18.317 13.4877 18.4004 13.8207 18.3922 13.8207C18.3836 13.8293 18.2921 13.6875 18.1838 13.4963C17.2097 11.7814 15.6697 10.0416 13.8878 8.64258C13.6549 8.47629 13.48 8.32633 13.48 8.31773ZM17.5758 9.45039C17.6179 9.45039 17.8009 9.47531 18.0257 9.52516C19.4406 9.84141 21.9801 10.3244 23.603 10.5994C23.878 10.6411 24.0946 10.6909 24.0946 10.7072C24.0946 10.7244 23.9949 10.7824 23.8698 10.849C23.5948 10.9904 22.488 11.6482 22.1214 11.8975C21.1976 12.5141 20.3649 13.1801 19.7655 13.7795C19.524 14.021 19.316 14.2208 19.316 14.2208C19.316 14.2208 19.2662 14.079 19.2241 13.9045C18.9246 12.747 18.3002 11.0321 17.7339 9.82465C17.6424 9.63344 17.5676 9.45855 17.5676 9.44223C17.5676 9.45855 17.5672 9.45039 17.5758 9.45039ZM24.7859 10.8237C24.8358 10.8409 24.9191 11.1236 25.0854 11.7479C25.3977 12.9937 25.5323 14.2775 25.485 15.561C25.4683 15.9107 25.4515 16.2356 25.4348 16.2773L25.4098 16.3602L24.9772 16.2184C24.0864 15.9357 22.6379 15.5111 21.3974 15.1614C20.6897 14.9697 20.1152 14.7953 20.1152 14.7789C20.1152 14.7287 21.1478 13.6961 21.5891 13.3051C22.4295 12.5639 24.7107 10.7992 24.7859 10.8237ZM25.36 10.907C25.3849 10.8821 28.807 11.4729 30.3637 11.7729C31.5213 11.9976 33.2027 12.3473 33.3028 12.389C33.3522 12.4058 33.1777 12.505 32.6196 12.7555C30.4217 13.746 28.7902 14.6367 27.1668 15.7191C26.7423 16.0023 26.3839 16.2356 26.3762 16.2356C26.3676 16.2356 26.359 15.9941 26.359 15.7028C26.359 14.1211 26.0432 12.5222 25.4601 11.1739C25.4017 11.0407 25.3518 10.9156 25.36 10.9075V10.907ZM34.2099 12.6559C34.2348 12.6804 34.1269 13.355 34.0268 13.7546C33.7269 14.9951 32.9195 16.835 31.9291 18.5666C31.7538 18.8747 31.5956 19.1244 31.5789 19.1325C31.5625 19.1411 31.3382 19.0161 31.0796 18.8661C30.1141 18.2998 29.0149 17.7674 27.8161 17.2677C27.4831 17.1259 27.1918 17.0099 27.1836 16.9927C27.1252 16.9433 29.806 15.17 31.2209 14.3205C32.3454 13.6377 34.1772 12.6223 34.2099 12.6554V12.6559ZM34.8428 12.7555C34.9175 12.7555 36.4326 13.1715 37.2237 13.4048C39.18 13.9875 41.4282 14.8116 42.8934 15.4776L43.501 15.7526L43.0765 15.8523C39.4972 16.6764 36.4331 17.6261 33.4772 18.8245C33.2357 18.9246 33.0192 19.0079 33.0029 19.0079C32.9865 19.0079 33.0695 18.8163 33.1777 18.5834C34.0685 16.6932 34.643 14.7205 34.7848 13.0383C34.7929 12.8802 34.8179 12.7555 34.8428 12.7555ZM19.7573 16.2188C19.7822 16.1939 20.9389 16.4685 21.5637 16.6434C22.5133 16.9098 24.5277 17.5844 24.5277 17.6338C24.5277 17.6424 24.303 17.834 24.0366 18.0669C22.946 18.9744 21.8967 19.9318 20.6395 21.1473C20.2652 21.5053 19.9489 21.7966 19.9322 21.7966C19.915 21.7966 19.9073 21.7468 19.915 21.6802C20.1066 20.2815 20.0654 18.4833 19.799 16.6601C19.7736 16.4268 19.7491 16.227 19.7573 16.2188ZM44.0755 16.2438C44.0918 16.2605 43.5427 17.1259 43.1929 17.617C42.6936 18.3333 41.9606 19.2825 40.3041 21.3639C39.5742 22.2801 38.8471 23.1987 38.123 24.1195C37.79 24.5359 37.5154 24.8852 37.5064 24.8852C37.4987 24.8852 37.3904 24.7357 37.2735 24.5526C36.3411 23.1536 35.2256 21.9298 33.9018 20.8311C33.7 20.6603 33.4947 20.4937 33.286 20.3314C33.1941 20.2648 33.1193 20.1982 33.1193 20.1896C33.1193 20.1651 34.5343 19.5571 35.6085 19.1244C37.4905 18.3582 40.054 17.4426 41.9777 16.8513C42.9849 16.5351 44.0587 16.227 44.0755 16.2438ZM44.7166 16.41C44.7497 16.4019 44.9499 16.502 45.1909 16.6434C47.2143 17.8005 49.1956 19.2911 50.7606 20.8225C51.2018 21.2556 52.2928 22.3879 52.2761 22.396C52.2761 22.396 51.8928 22.4295 51.4433 22.4626C47.9384 22.729 43.4511 23.4698 39.1388 24.5105C38.847 24.5771 38.5888 24.6351 38.5725 24.6351C38.5561 24.6351 38.8806 24.3107 39.2888 23.9197C41.8196 21.4804 42.9768 19.9404 44.3419 17.1925C44.5335 16.7852 44.6998 16.435 44.7166 16.41C44.708 16.41 44.708 16.41 44.7166 16.41ZM26.176 18.3084C26.2924 18.3333 27.3748 18.8412 28.1908 19.2494C28.9402 19.6237 30.0642 20.2231 30.1222 20.2734C30.1308 20.2815 29.7312 20.4895 29.2397 20.7314C27.7721 21.461 26.336 22.2525 24.9355 23.1037C24.5359 23.3452 24.2029 23.545 24.1947 23.545C24.1612 23.545 24.1698 23.5115 24.3945 23.1037C25.1439 21.7386 25.7433 20.1066 26.0845 18.5164C26.1175 18.3918 26.1511 18.3084 26.176 18.3084ZM25.0936 18.5082C25.1185 18.5331 24.8358 19.5571 24.6609 20.1152C24.3193 21.1723 23.7448 22.4957 23.1871 23.4952C23.0539 23.728 22.8541 24.0696 22.7458 24.2609L22.5378 24.5939L22.0716 24.1444C21.5302 23.6202 21.0893 23.2954 20.5234 23.0036C20.2983 22.8876 20.1234 22.7875 20.1234 22.7707C20.1234 22.7041 21.5474 21.4138 22.6379 20.4813C23.42 19.8067 25.0687 18.4833 25.0936 18.5082ZM31.7125 21.2307L32.1207 21.4971C33.0531 22.1051 34.1518 22.9125 34.9927 23.6198C35.4671 24.0108 36.3828 24.8358 36.5663 25.0352L36.6659 25.1434L35.9913 25.3351C32.1787 26.3921 29.2315 27.3331 25.7931 28.5986C25.4098 28.7404 25.0854 28.8564 25.0605 28.8564C25.0107 28.8564 24.969 28.898 25.8266 28.107C28.0245 26.0845 29.9723 23.8531 31.4212 21.6802L31.7125 21.2307ZM29.9723 21.6634C29.9895 21.6802 28.8486 23.2868 28.1659 24.1943C27.3499 25.2766 25.9014 27.0916 24.902 28.2737C24.486 28.7653 24.1285 29.173 24.1113 29.1812C24.0864 29.1898 24.0778 29.0652 24.0778 28.8731C24.0778 27.8659 23.82 26.7917 23.3706 25.8761C23.1789 25.4932 23.1454 25.4017 23.1875 25.36C23.3456 25.2182 25.7682 23.8363 27.2996 23.0122C28.3326 22.4626 29.9473 21.6471 29.9723 21.6634ZM19.4492 24.2445C19.4741 24.2445 19.6654 24.3442 19.8823 24.4607C20.389 24.7368 20.8683 25.0602 21.3141 25.4266C21.3308 25.4429 21.1143 25.6182 20.8311 25.8262C20.0405 26.3921 18.8416 27.3 18.1421 27.8578C17.4095 28.4404 17.3846 28.4568 17.4675 28.3322C18.0175 27.4913 18.2921 27.0169 18.5834 26.4089C18.8514 25.8435 19.0849 25.2623 19.2825 24.6686C19.3491 24.428 19.4325 24.2445 19.4492 24.2445ZM22.2551 26.442C22.2963 26.4342 22.3466 26.509 22.5709 26.842C23.0453 27.5497 23.4118 28.4989 23.5033 29.2646L23.5205 29.4309L22.3797 29.8726C20.34 30.6632 18.4584 31.4457 17.1848 32.0288C16.7195 32.2469 16.2559 32.4689 15.7943 32.6948C15.3861 32.9027 15.0535 33.0609 15.0535 33.0527C15.0535 33.0445 15.3113 32.8529 15.6276 32.6196C18.1172 30.8132 20.2734 28.8314 21.8886 26.8502C22.0634 26.6422 22.2216 26.4505 22.2379 26.4424L22.2551 26.442ZM20.9643 26.7586C20.9978 26.7917 20.0486 27.8659 19.3994 28.5238C17.7923 30.1635 16.2025 31.4457 14.2294 32.6943C13.9793 32.8525 13.7546 32.9943 13.7297 33.0106C13.6716 33.0441 13.746 32.9607 14.6122 32.0202C15.12 31.4752 15.6006 30.9056 16.0525 30.3134C16.3688 29.9052 16.4268 29.8472 16.8848 29.5228C18.109 28.6398 20.9312 26.7255 20.9643 26.7586Z"
            fill="url(#paint2_radial_518_1283)"></path>
    </g>
    <defs>
        <linearGradient id="paint0_linear_518_1283" x1="11.1684" y1="50.0616" x2="15.1493" y2="47.7094"
            gradientUnits="userSpaceOnUse">
            <stop stop-color="#909CA9"></stop>
            <stop offset="1" stop-color="#EDEDEE"></stop>
        </linearGradient>
        <linearGradient id="paint1_linear_518_1283" x1="11.2596" y1="5.71568" x2="14.4627" y2="5.71568"
            gradientUnits="userSpaceOnUse">
            <stop stop-color="#939FAB"></stop>
            <stop offset="1" stop-color="#DCDEE1"></stop>
        </linearGradient>
        <radialGradient id="paint2_radial_518_1283" cx="0" cy="0" r="1" gradientUnits="userSpaceOnUse"
            gradientTransform="translate(27.4583 20.4632) rotate(-171.408) scale(4.13318 8.26693)">
            <stop stop-color="#EE352C"></stop>
            <stop offset="1" stop-color="#A91D22"></stop>
        </radialGradient>
        <clipPath id="clip0_518_1283">
            <rect width="55" height="55" fill="white" transform="translate(0.5 0.5)"></rect>
        </clipPath>
    </defs>
</svg>