<svg width="52" height="53" viewBox="0 0 52 53" fill="none" xmlns="http://www.w3.org/2000/svg">
<g clip-path="url(#clip0_518_1084)">
<path d="M50.6862 8.43005L27.3504 50.1592C26.8682 51.0209 25.6303 51.0258 25.1416 50.169L1.34269 8.43493C0.809283 7.49974 1.60756 6.36833 2.66747 6.55724L26.0285 10.7323C26.1776 10.7595 26.3303 10.7595 26.4794 10.7323L49.3513 6.56374C50.4067 6.37158 51.2099 7.49365 50.6862 8.43005Z" fill="url(#paint0_linear_518_1084)"/>
<path d="M37.1556 1.08083L19.8875 4.46408C19.7497 4.49101 19.6247 4.56295 19.5322 4.66862C19.4397 4.77428 19.3849 4.90768 19.3765 5.04786L18.3133 22.9911C18.3076 23.0895 18.3249 23.1879 18.3638 23.2785C18.4027 23.369 18.4621 23.4493 18.5374 23.5129C18.6127 23.5765 18.7017 23.6217 18.7975 23.645C18.8933 23.6682 18.9932 23.6688 19.0893 23.6468L23.8976 22.5357C24.0012 22.5119 24.1091 22.5145 24.2114 22.5432C24.3137 22.572 24.4071 22.6259 24.4831 22.7002C24.5591 22.7744 24.6153 22.8665 24.6464 22.9681C24.6776 23.0697 24.6827 23.1775 24.6614 23.2816L23.2326 30.2768C23.2108 30.3845 23.2173 30.496 23.2514 30.6004C23.2856 30.7048 23.3463 30.7985 23.4276 30.8724C23.5089 30.9463 23.6079 30.9979 23.7151 31.022C23.8223 31.0461 23.9339 31.042 24.039 31.0101L27.0079 30.107C27.4682 29.9672 27.911 30.3719 27.8143 30.8431L25.5434 41.831C25.402 42.5183 26.316 42.8929 26.6971 42.3038L26.951 41.9106L41.0235 13.8265C41.26 13.3553 40.8525 12.819 40.3369 12.919L35.3868 13.8745C35.2803 13.8951 35.1702 13.8881 35.0672 13.854C34.9642 13.8199 34.8717 13.7599 34.7985 13.6798C34.7254 13.5996 34.6741 13.502 34.6495 13.3963C34.625 13.2906 34.628 13.1804 34.6584 13.0762L37.8881 1.87911C37.9184 1.77456 37.9214 1.66395 37.8965 1.55794C37.8717 1.45193 37.82 1.35411 37.7464 1.27389C37.6728 1.19367 37.5798 1.13376 37.4763 1.09995C37.3728 1.06613 37.2624 1.05955 37.1556 1.08083Z" fill="url(#paint1_linear_518_1084)"/>
</g>
<defs>
<linearGradient id="paint0_linear_518_1084" x1="0.76102" y1="5.06614" x2="29.8054" y2="44.5107" gradientUnits="userSpaceOnUse">
<stop stop-color="#41D1FF"/>
<stop offset="1" stop-color="#BD34FE"/>
</linearGradient>
<linearGradient id="paint1_linear_518_1084" x1="24.6878" y1="1.99894" x2="29.9418" y2="38.0407" gradientUnits="userSpaceOnUse">
<stop stop-color="#FFEA83"/>
<stop offset="0.083" stop-color="#FFDD35"/>
<stop offset="1" stop-color="#FFA800"/>
</linearGradient>
<clipPath id="clip0_518_1084">
<rect width="52" height="52" fill="white" transform="translate(0 0.5)"/>
</clipPath>
</defs>
</svg>
