<svg width="52" height="53" viewBox="0 0 52 53" fill="none" xmlns="http://www.w3.org/2000/svg">
<g id="vitejs" clip-path="url(#clip0_664_118)">
<path id="Vector" d="M51.3759 8.19594L27.4039 51.8239C26.8839 52.7079 25.6359 52.7079 25.1159 51.8239L0.675933 8.19594C0.155933 7.20794 0.987933 6.06394 2.07993 6.21994L26.1039 10.5879C26.2599 10.6399 26.4159 10.6399 26.5719 10.5879L50.0239 6.21994C51.1159 6.06394 51.9479 7.20794 51.3759 8.19594Z" fill="url(#paint0_linear_664_118)"/>
<path id="Vector_2" d="M37.4919 0.49995L19.7599 4.03595C19.6039 4.08795 19.4999 4.13995 19.3959 4.24395C19.2919 4.39995 19.2399 4.50395 19.2399 4.65995L18.1479 23.432C18.1479 23.536 18.1479 23.64 18.1999 23.744C18.2519 23.848 18.3039 23.9 18.3559 24.004C18.4079 24.056 18.5119 24.108 18.6159 24.16C18.7199 24.16 18.8239 24.16 18.9279 24.16L23.8679 23.016C24.3359 22.912 24.7519 23.328 24.6479 23.796L23.1919 31.128C23.0879 31.596 23.5559 32.064 24.0239 31.908L27.0919 30.972C27.5599 30.816 28.0279 31.232 27.9239 31.752L25.5839 43.14C25.4279 43.868 26.3639 44.232 26.7799 43.66L27.0399 43.244L41.4959 13.864C41.7559 13.396 41.3399 12.824 40.7679 12.928L35.6719 13.916C35.2039 14.02 34.7879 13.552 34.9439 13.084L38.2719 1.38395C38.3759 0.863951 37.9599 0.39595 37.4919 0.49995Z" fill="url(#paint1_linear_664_118)"/>
</g>
<defs>
<linearGradient id="paint0_linear_664_118" x1="15.1444" y1="-1.51309" x2="41.5866" y2="33.786" gradientUnits="userSpaceOnUse">
<stop stop-color="#ABABAB"/>
<stop offset="1" stop-color="#737373"/>
</linearGradient>
<linearGradient id="paint1_linear_664_118" x1="27.3336" y1="1.61499" x2="32.8362" y2="38.7181" gradientUnits="userSpaceOnUse">
<stop stop-color="#E5E5E5"/>
<stop offset="0.083" stop-color="#D5D5D5"/>
<stop offset="1" stop-color="#B0B0B0"/>
</linearGradient>
<clipPath id="clip0_664_118">
<rect width="52" height="52" fill="white" transform="translate(0 0.5)"/>
</clipPath>
</defs>
</svg>
