<svg width="46" height="46" viewBox="0 0 46 46" fill="none" xmlns="http://www.w3.org/2000/svg">
<g clip-path="url(#clip0_663_3293)">
<path d="M38.9887 16.577V35.303L23.0767 44.7171L22.9329 44.848V51.8467L23.0767 51.9823L45.4865 39.0379V12.9444L45.2748 12.8926L38.9569 16.4247L38.9887 16.577Z" fill="#2F406A"/>
<path d="M7.11356 35.4565L23.0767 44.7172V51.9825L0.513428 38.9869V12.9957L0.744968 12.9607L7.04452 16.6232L7.11356 16.8329V35.4565Z" fill="#2379BD"/>
<path d="M7.11356 16.8329L0.513428 12.9956L23.0256 0L45.4864 12.9445L38.9887 16.5771L23.0256 7.46991L7.11356 16.8329Z" fill="#03AFEF"/>
<path d="M22.803 33.3147L22.6301 33.1384V26.1068L22.803 26.0175L22.845 25.8441L28.8733 22.3276L29.0577 22.3689V29.6141L22.803 33.3147Z" fill="#2F406A"/>
<path d="M16.4438 29.8399V22.317L16.6186 22.3083L22.7508 25.877L22.803 26.0176V33.3148L16.4438 29.8399Z" fill="#2379BD"/>
<path d="M22.6986 18.6162L16.4438 22.317L22.803 26.0176L29.0577 22.369L22.6986 18.6162Z" fill="#03AFEF"/>
<path d="M15.0191 37.9017L14.8464 37.7253V30.6935L15.0191 30.6044L15.0613 30.4311L21.0894 26.9146L21.2739 26.9558V34.2009L15.0191 37.9017Z" fill="#2F406A"/>
<path d="M8.66016 34.4268V26.9036L8.83478 26.895L14.9669 30.4639L15.0191 30.6044V37.9016L8.66016 34.4268Z" fill="#2379BD"/>
<path d="M14.9149 23.2031L8.66016 26.9037L15.0191 30.6045L21.2738 26.9559L14.9149 23.2031Z" fill="#03AFEF"/>
<path d="M31.1426 38.0755L30.9697 37.8991V30.8673L31.1426 30.7783L31.1846 30.6049L37.2129 27.0884L37.3973 27.1297V34.3747L31.1426 38.0755Z" fill="#2F406A"/>
<path d="M24.7834 34.6006V27.0775L24.9582 27.0688L31.0904 30.6377L31.1426 30.7782V38.0755L24.7834 34.6006Z" fill="#2379BD"/>
<path d="M31.0382 23.3767L24.7834 27.0773L31.1426 30.7781L37.3973 27.1295L31.0382 23.3767Z" fill="#03AFEF"/>
<path d="M23.3587 42.6624L23.186 42.486V35.4543L23.3587 35.3652L23.4009 35.1916L29.4292 31.6753L29.6135 31.7166V38.9616L23.3587 42.6624Z" fill="#2F406A"/>
<path d="M16.9998 39.1875V31.6644L17.1744 31.6558L23.3067 35.2244L23.3587 35.3652V42.6624L16.9998 39.1875Z" fill="#2379BD"/>
<path d="M23.2545 27.9636L16.9998 31.6644L23.3587 35.3652L29.6134 31.7166L23.2545 27.9636Z" fill="#03AFEF"/>
<path d="M22.803 23.3421L22.6301 23.1655V16.1339L22.803 16.0449L22.845 15.8713L28.8733 12.355L29.0577 12.3963V19.6413L22.803 23.3421Z" fill="#2F406A"/>
<path d="M16.4438 19.8672V12.3441L16.6186 12.3354L22.7508 15.9041L22.803 16.0448V23.3421L16.4438 19.8672Z" fill="#2379BD"/>
<path d="M22.6986 8.64331L16.4438 12.3441L22.803 16.0449L29.0577 12.3963L22.6986 8.64331Z" fill="#03AFEF"/>
<path d="M15.0191 27.9288L14.8464 27.7524V20.7208L15.0191 20.6315L15.0613 20.4582L21.0894 16.9417L21.2739 16.9829V24.2282L15.0191 27.9288Z" fill="#2F406A"/>
<path d="M8.66016 24.4539V16.931L8.83478 16.9224L14.9669 20.491L15.0191 20.6316V27.9288L8.66016 24.4539Z" fill="#2379BD"/>
<path d="M14.9149 13.2302L8.66016 16.931L15.0191 20.6316L21.2738 16.983L14.9149 13.2302Z" fill="#03AFEF"/>
<path d="M31.1426 28.1026L30.9697 27.9262V20.8946L31.1426 20.8054L31.1846 20.632L37.2129 17.1155L37.3973 17.1568V24.402L31.1426 28.1026Z" fill="#2F406A"/>
<path d="M24.7834 24.6275V17.1046L24.9582 17.0959L31.0904 20.6646L31.1426 20.8052V28.1024L24.7834 24.6275Z" fill="#2379BD"/>
<path d="M31.0382 13.4038L24.7834 17.1046L31.1426 20.8052L37.3973 17.1566L31.0382 13.4038Z" fill="#03AFEF"/>
<path d="M23.3587 32.6893L23.186 32.5129V25.4811L23.3587 25.392L23.4009 25.2186L29.4292 21.7021L29.6135 21.7434V28.9885L23.3587 32.6893Z" fill="#2F406A"/>
<path d="M16.9998 29.2146V21.6915L17.1744 21.6829L23.3067 25.2517L23.3587 25.3923V32.6895L16.9998 29.2146Z" fill="#2379BD"/>
<path d="M23.2545 17.9905L16.9998 21.6913L23.3587 25.392L29.6134 21.7434L23.2545 17.9905Z" fill="#03AFEF"/>
</g>
<defs>
<clipPath id="clip0_663_3293">
<rect width="44.98" height="52" fill="white" transform="translate(0.51001)"/>
</clipPath>
</defs>
</svg>
