<svg width="80" height="73" viewBox="0 0 80 73" fill="none" xmlns="http://www.w3.org/2000/svg">
<g clip-path="url(#clip0_518_1051)">
<path d="M55.9887 27.077V45.803L40.0767 55.2171L39.9329 55.348V62.3467L40.0767 62.4823L62.4865 49.5379V23.4444L62.2748 23.3926L55.9569 26.9247L55.9887 27.077Z" fill="#2F406A"/>
<path d="M24.1136 45.9565L40.0767 55.2172V62.4825L17.5134 49.4869V23.4957L17.745 23.4607L24.0445 27.1232L24.1136 27.3329V45.9565Z" fill="#2379BD"/>
<path d="M24.1136 27.3329L17.5134 23.4956L40.0256 10.5L62.4864 23.4445L55.9887 27.0771L40.0256 17.9699L24.1136 27.3329Z" fill="#03AFEF"/>
<path d="M39.803 43.8147L39.6301 43.6384V36.6068L39.803 36.5175L39.845 36.3441L45.8733 32.8276L46.0577 32.8689V40.1141L39.803 43.8147Z" fill="#2F406A"/>
<path d="M33.4438 40.3399V32.817L33.6186 32.8083L39.7508 36.377L39.803 36.5176V43.8148L33.4438 40.3399Z" fill="#2379BD"/>
<path d="M39.6986 29.1162L33.4438 32.817L39.803 36.5176L46.0577 32.869L39.6986 29.1162Z" fill="#03AFEF"/>
<path d="M32.0191 48.4017L31.8464 48.2253V41.1935L32.0191 41.1044L32.0613 40.9311L38.0894 37.4146L38.2739 37.4558V44.7009L32.0191 48.4017Z" fill="#2F406A"/>
<path d="M25.6602 44.9268V37.4036L25.8348 37.395L31.9669 40.9639L32.0191 41.1044V48.4016L25.6602 44.9268Z" fill="#2379BD"/>
<path d="M31.9149 33.7031L25.6602 37.4037L32.0191 41.1045L38.2738 37.4559L31.9149 33.7031Z" fill="#03AFEF"/>
<path d="M48.1426 48.5755L47.9697 48.3991V41.3673L48.1426 41.2783L48.1846 41.1049L54.2129 37.5884L54.3973 37.6297V44.8747L48.1426 48.5755Z" fill="#2F406A"/>
<path d="M41.7834 45.1006V37.5775L41.9582 37.5688L48.0904 41.1377L48.1426 41.2782V48.5755L41.7834 45.1006Z" fill="#2379BD"/>
<path d="M48.0382 33.8767L41.7834 37.5773L48.1426 41.2781L54.3973 37.6295L48.0382 33.8767Z" fill="#03AFEF"/>
<path d="M40.3587 53.1624L40.186 52.986V45.9543L40.3587 45.8652L40.4009 45.6916L46.4292 42.1753L46.6135 42.2166V49.4616L40.3587 53.1624Z" fill="#2F406A"/>
<path d="M33.9998 49.6875V42.1644L34.1744 42.1558L40.3067 45.7244L40.3587 45.8652V53.1624L33.9998 49.6875Z" fill="#2379BD"/>
<path d="M40.2545 38.4636L33.9998 42.1644L40.3587 45.8652L46.6134 42.2166L40.2545 38.4636Z" fill="#03AFEF"/>
<path d="M39.803 33.8421L39.6301 33.6655V26.6339L39.803 26.5449L39.845 26.3713L45.8733 22.855L46.0577 22.8963V30.1413L39.803 33.8421Z" fill="#2F406A"/>
<path d="M33.4438 30.3672V22.8441L33.6186 22.8354L39.7508 26.4041L39.803 26.5448V33.8421L33.4438 30.3672Z" fill="#2379BD"/>
<path d="M39.6986 19.1433L33.4438 22.8441L39.803 26.5449L46.0577 22.8963L39.6986 19.1433Z" fill="#03AFEF"/>
<path d="M32.0191 38.4288L31.8464 38.2524V31.2208L32.0191 31.1315L32.0613 30.9582L38.0894 27.4417L38.2739 27.4829V34.7282L32.0191 38.4288Z" fill="#2F406A"/>
<path d="M25.6602 34.9539V27.431L25.8348 27.4224L31.9669 30.991L32.0191 31.1316V38.4288L25.6602 34.9539Z" fill="#2379BD"/>
<path d="M31.9149 23.7302L25.6602 27.431L32.0191 31.1316L38.2738 27.483L31.9149 23.7302Z" fill="#03AFEF"/>
<path d="M48.1426 38.6026L47.9697 38.4262V31.3946L48.1426 31.3054L48.1846 31.132L54.2129 27.6155L54.3973 27.6568V34.902L48.1426 38.6026Z" fill="#2F406A"/>
<path d="M41.7834 35.1275V27.6046L41.9582 27.5959L48.0904 31.1646L48.1426 31.3052V38.6024L41.7834 35.1275Z" fill="#2379BD"/>
<path d="M48.0382 23.9038L41.7834 27.6046L48.1426 31.3052L54.3973 27.6566L48.0382 23.9038Z" fill="#03AFEF"/>
<path d="M40.3587 43.1893L40.186 43.0129V35.9811L40.3587 35.892L40.4009 35.7186L46.4292 32.2021L46.6135 32.2434V39.4885L40.3587 43.1893Z" fill="#2F406A"/>
<path d="M33.9998 39.7146V32.1915L34.1744 32.1829L40.3067 35.7517L40.3587 35.8923V43.1895L33.9998 39.7146Z" fill="#2379BD"/>
<path d="M40.2545 28.4905L33.9998 32.1913L40.3587 35.892L46.6134 32.2434L40.2545 28.4905Z" fill="#03AFEF"/>
</g>
<defs>
<clipPath id="clip0_518_1051">
<rect width="44.98" height="52" fill="white" transform="translate(17.51 10.5)"/>
</clipPath>
</defs>
</svg>
