<svg width="46" height="53" viewBox="0 0 46 53" fill="none" xmlns="http://www.w3.org/2000/svg">
<g clip-path="url(#clip0_663_3262)">
<path d="M38.9887 17.077V35.803L23.0767 45.2171L22.9329 45.348V52.3467L23.0767 52.4823L45.4865 39.5379V13.4444L45.2748 13.3926L38.9569 16.9247L38.9887 17.077Z" fill="#3F3F3F"/>
<path d="M7.11356 35.9565L23.0767 45.2172V52.4825L0.513428 39.4869V13.4957L0.744968 13.4607L7.04452 17.1232L7.11356 17.3329V35.9565Z" fill="#909090"/>
<path d="M7.11356 17.3329L0.513428 13.4956L23.0256 0.5L45.4864 13.4445L38.9887 17.0771L23.0256 7.96991L7.11356 17.3329Z" fill="#909090" fill-opacity="0.8"/>
<path d="M22.803 33.8147L22.6301 33.6384V26.6068L22.803 26.5175L22.845 26.3441L28.8733 22.8276L29.0577 22.8689V30.1141L22.803 33.8147Z" fill="#3F3F3F"/>
<path d="M16.4438 30.3399V22.817L16.6186 22.8083L22.7508 26.377L22.803 26.5176V33.8148L16.4438 30.3399Z" fill="#909090"/>
<path d="M22.6986 19.1162L16.4438 22.817L22.803 26.5176L29.0577 22.869L22.6986 19.1162Z" fill="#909090" fill-opacity="0.8"/>
<path d="M15.0191 38.4017L14.8464 38.2253V31.1935L15.0191 31.1044L15.0613 30.9311L21.0894 27.4146L21.2739 27.4558V34.7009L15.0191 38.4017Z" fill="#3F3F3F"/>
<path d="M8.66016 34.9268V27.4036L8.83478 27.395L14.9669 30.9639L15.0191 31.1044V38.4016L8.66016 34.9268Z" fill="#909090"/>
<path d="M14.9149 23.7031L8.66016 27.4037L15.0191 31.1045L21.2738 27.4559L14.9149 23.7031Z" fill="#909090" fill-opacity="0.8"/>
<path d="M31.1426 38.5755L30.9697 38.3991V31.3673L31.1426 31.2783L31.1846 31.1049L37.2129 27.5884L37.3973 27.6297V34.8747L31.1426 38.5755Z" fill="#3F3F3F"/>
<path d="M24.7834 35.1006V27.5775L24.9582 27.5688L31.0904 31.1377L31.1426 31.2782V38.5755L24.7834 35.1006Z" fill="#909090"/>
<path d="M31.0382 23.8767L24.7834 27.5773L31.1426 31.2781L37.3973 27.6295L31.0382 23.8767Z" fill="#909090" fill-opacity="0.8"/>
<path d="M23.3587 43.1624L23.186 42.986V35.9543L23.3587 35.8652L23.4009 35.6916L29.4292 32.1753L29.6135 32.2166V39.4616L23.3587 43.1624Z" fill="#3F3F3F"/>
<path d="M16.9998 39.6875V32.1644L17.1744 32.1558L23.3067 35.7244L23.3587 35.8652V43.1624L16.9998 39.6875Z" fill="#909090"/>
<path d="M23.2545 28.4636L16.9998 32.1644L23.3587 35.8652L29.6134 32.2166L23.2545 28.4636Z" fill="#909090" fill-opacity="0.8"/>
<path d="M22.803 23.8421L22.6301 23.6655V16.6339L22.803 16.5449L22.845 16.3713L28.8733 12.855L29.0577 12.8963V20.1413L22.803 23.8421Z" fill="#3F3F3F"/>
<path d="M16.4438 20.3672V12.8441L16.6186 12.8354L22.7508 16.4041L22.803 16.5448V23.8421L16.4438 20.3672Z" fill="#909090"/>
<path d="M22.6986 9.14331L16.4438 12.8441L22.803 16.5449L29.0577 12.8963L22.6986 9.14331Z" fill="#909090" fill-opacity="0.8"/>
<path d="M15.0191 28.4288L14.8464 28.2524V21.2208L15.0191 21.1315L15.0613 20.9582L21.0894 17.4417L21.2739 17.4829V24.7282L15.0191 28.4288Z" fill="#3F3F3F"/>
<path d="M8.66016 24.9539V17.431L8.83478 17.4224L14.9669 20.991L15.0191 21.1316V28.4288L8.66016 24.9539Z" fill="#909090"/>
<path d="M14.9149 13.7302L8.66016 17.431L15.0191 21.1316L21.2738 17.483L14.9149 13.7302Z" fill="#909090" fill-opacity="0.8"/>
<path d="M31.1426 28.6026L30.9697 28.4262V21.3946L31.1426 21.3054L31.1846 21.132L37.2129 17.6155L37.3973 17.6568V24.902L31.1426 28.6026Z" fill="#3F3F3F"/>
<path d="M24.7834 25.1275V17.6046L24.9582 17.5959L31.0904 21.1646L31.1426 21.3052V28.6024L24.7834 25.1275Z" fill="#909090"/>
<path d="M31.0382 13.9038L24.7834 17.6046L31.1426 21.3052L37.3973 17.6566L31.0382 13.9038Z" fill="#909090" fill-opacity="0.8"/>
<path d="M23.3587 33.1893L23.186 33.0129V25.9811L23.3587 25.892L23.4009 25.7186L29.4292 22.2021L29.6135 22.2434V29.4885L23.3587 33.1893Z" fill="#3F3F3F"/>
<path d="M16.9998 29.7146V22.1915L17.1744 22.1829L23.3067 25.7517L23.3587 25.8923V33.1895L16.9998 29.7146Z" fill="#909090"/>
<path d="M23.2545 18.4905L16.9998 22.1913L23.3587 25.892L29.6134 22.2434L23.2545 18.4905Z" fill="#909090" fill-opacity="0.8"/>
</g>
<defs>
<clipPath id="clip0_663_3262">
<rect width="44.98" height="52" fill="white" transform="translate(0.51001 0.5)"/>
</clipPath>
</defs>
</svg>
