<svg width="56" height="56" viewBox="0 0 56 56" fill="none" xmlns="http://www.w3.org/2000/svg">
    <g clip-path="url(#clip0_559_105)">
        <path d="M27.807 0.5L0.570312 9.5402L4.72457 43.0597L27.807 54.959L50.8895 43.0597L55.0437 9.5402L27.807 0.5Z"
            fill="#676767"></path>
        <mask id="mask0_559_105" style="mask-type:alpha" maskUnits="userSpaceOnUse" x="0" y="0" width="56" height="55">
            <path
                d="M27.807 0.5L0.570312 9.5402L4.72457 43.0597L27.807 54.959L50.8895 43.0597L55.0437 9.5402L27.807 0.5Z"
                fill="white"></path>
        </mask>
        <g mask="url(#mask0_559_105)">
            <path fill-rule="evenodd" clip-rule="evenodd"
                d="M27.807 0.5V6.54495V6.51772V34.1012V54.959L50.8894 43.0597L55.0437 9.5402L27.807 0.5Z"
                fill="#575757"></path>
        </g>
        <path
            d="M35.7906 26.3282L33.1779 25.7858L35.2101 28.4976V36.9042L42.1775 31.4806V22.2605L38.9841 23.3452L35.7906 26.3282Z"
            fill="white"></path>
        <path
            d="M19.5331 26.3282L22.1459 25.7858L20.1138 28.4976V36.9042L13.1462 31.4806V22.2605L16.3397 23.3452L19.5331 26.3282Z"
            fill="white"></path>
        <path fill-rule="evenodd" clip-rule="evenodd"
            d="M20.9562 29.0065L23.272 25.7458L24.7193 26.561H30.5088L31.9562 25.7458L34.272 29.0065V41.2343L32.5351 43.6798L30.5088 45.5819H24.7193L22.693 43.6798L20.9562 41.2343V29.0065Z"
            fill="white"></path>
        <path d="M35.21 42.0566L38.984 38.5313V35.0059L35.21 37.9888V42.0566Z" fill="white"></path>
        <path d="M20.1138 42.0566L16.3397 38.5313V35.0059L20.1138 37.9888V42.0566Z" fill="white"></path>
        <path fill-rule="evenodd" clip-rule="evenodd"
            d="M23.8879 10.0574L21.5653 15.2098L25.3394 25.5146H27.0812V10.0574H23.8879ZM28.2425 10.0574V25.5146H30.2747L33.7584 15.2098L31.436 10.0574H28.2425Z"
            fill="white"></path>
        <path d="M25.3393 25.5146L12.8559 21.1758L11.114 14.3962L21.8556 15.2098L25.6297 25.5146H25.3393Z" fill="white">
        </path>
        <path d="M30.2747 25.5146L42.7582 21.1758L44.5 14.3962L33.4681 15.2098L29.9844 25.5146H30.2747Z" fill="white">
        </path>
        <path d="M34.3391 14.3962L40.4356 13.8539L36.3713 10.0574H32.3069L34.3391 14.3962Z" fill="white"></path>
        <path d="M20.9846 14.3962L14.8881 13.8539L18.9525 10.0574H23.0168L20.9846 14.3962Z" fill="white"></path>
    </g>
    <defs>
        <clipPath id="clip0_559_105">
            <rect width="55" height="55" fill="white" transform="translate(0.5 0.5)"></rect>
        </clipPath>
    </defs>
</svg>