<svg width="55" height="55" viewBox="0 0 62 57" fill="none" xmlns="http://www.w3.org/2000/svg">
<g clip-path="url(#clip0_566_59)">
<path d="M31.0178 56.5178L42.195 22.1182H19.8403L31.0178 56.5178Z" fill="#E24329"/>
<path d="M31.0178 56.5176L19.8404 22.1179H4.17603L31.0178 56.5176Z" fill="#FC6D26"/>
<path d="M4.17604 22.1179L0.779502 32.5719C0.628406 33.0366 0.628348 33.5373 0.779336 34.002C0.930323 34.4668 1.2246 34.8718 1.61998 35.159L31.0178 56.5178L4.17604 22.1179Z" fill="#FCA326"/>
<path d="M4.17603 22.1182H19.8404L13.1087 1.39937C12.7623 0.333231 11.2541 0.333468 10.9079 1.39937L4.17603 22.1182Z" fill="#E24329"/>
<path d="M31.0178 56.5176L42.195 22.1179H57.8596L31.0178 56.5176Z" fill="#FC6D26"/>
<path d="M57.8596 22.1179L61.2562 32.5719C61.4072 33.0366 61.4073 33.5373 61.2562 34.0021C61.1052 34.4669 60.8109 34.8719 60.4154 35.159L31.0178 56.5178L57.8596 22.1179Z" fill="#FCA326"/>
<path d="M57.8596 22.1182H42.1951L48.9269 1.39937C49.2734 0.333231 50.7816 0.333468 51.1278 1.39937L57.8596 22.1182Z" fill="#E24329"/>
</g>
<defs>
<clipPath id="clip0_566_59">
<rect width="60.75" height="56" fill="white" transform="translate(0.625 0.5)"/>
</clipPath>
</defs>
</svg>
