<svg width="56" height="56" viewBox="0 0 56 56" fill="none" xmlns="http://www.w3.org/2000/svg">
    <g clip-path="url(#clip0_110_352)">
        <path
            d="M32.8847 0.847656C32.487 0.847656 32.1177 0.932949 31.7768 1.0466C32.5012 1.52936 32.8989 2.16852 33.0976 2.89297C33.112 2.99244 33.1404 3.06355 33.1546 3.16281C33.1687 3.24811 33.1829 3.3334 33.1829 3.41848C33.2398 4.66844 32.8564 4.82463 32.5863 5.56326C32.1744 6.51502 32.2881 7.53768 32.7852 8.36139C32.8278 8.46086 32.8847 8.57451 32.9556 8.67398C32.4159 5.08029 35.413 4.54061 35.9669 3.41848C36.0094 2.43857 35.1999 1.78502 34.5607 1.33062C33.9499 0.961094 33.396 0.847656 32.8847 0.847656ZM37.4014 1.65719C37.3447 1.98396 37.3872 1.89867 37.373 2.06926C37.3588 2.18291 37.3588 2.32492 37.3447 2.43857C37.3163 2.55201 37.2879 2.66566 37.2452 2.77932C37.2168 2.89318 37.1743 3.00662 37.1317 3.12027C37.0748 3.23393 37.0323 3.3334 36.9753 3.44684C36.9328 3.50377 36.9044 3.5607 36.8617 3.61742L36.7766 3.74525C36.7057 3.84473 36.6346 3.9442 36.5635 4.02928C36.4782 4.11457 36.4073 4.21404 36.3078 4.28494V4.29912C36.2225 4.37023 36.1374 4.45553 36.038 4.52643C35.7398 4.75373 35.3988 4.9241 35.0862 5.13723C34.987 5.20813 34.8875 5.26506 34.8022 5.35035C34.7027 5.42125 34.6174 5.49215 34.5324 5.57766C34.4329 5.66273 34.362 5.74803 34.2767 5.8475C34.2058 5.93258 34.1205 6.03227 34.0636 6.13152C33.9927 6.231 33.9218 6.33025 33.8648 6.42973C33.8079 6.54359 33.7654 6.64285 33.7084 6.75629C33.6659 6.87016 33.6233 6.96963 33.595 7.08307C33.5522 7.2109 33.5239 7.32455 33.4955 7.4382C33.4813 7.49514 33.4813 7.56603 33.4672 7.62297C33.4528 7.67969 33.4528 7.73662 33.4388 7.79334C33.4388 7.90699 33.4244 8.03482 33.4244 8.14848C33.4244 8.23377 33.4244 8.31885 33.4388 8.40414C33.4388 8.51779 33.453 8.63145 33.4813 8.75928C33.4955 8.87293 33.5239 8.98637 33.5522 9.10002C33.595 9.21389 33.6233 9.32732 33.6661 9.44098C33.6942 9.51188 33.737 9.58299 33.7654 9.63992L30.4987 8.37578C29.953 8.22041 29.4036 8.07828 28.851 7.94953L27.9562 7.73662C27.1039 7.56603 26.2375 7.4382 25.3712 7.35313C25.3428 7.35313 25.3284 7.33873 25.3003 7.33873C24.4554 7.25364 23.6068 7.21097 22.7576 7.2109C22.1326 7.2109 21.5077 7.23926 20.8971 7.2818C20.0304 7.33873 19.1642 7.45238 18.2975 7.59439C18.0846 7.62297 17.8714 7.66551 17.6585 7.70826C17.2181 7.79334 16.7921 7.89281 16.3802 7.99229L15.7408 8.16266C15.5279 8.24795 15.329 8.34742 15.1302 8.4325L14.6615 8.64563C14.6331 8.6598 14.6045 8.6598 14.5906 8.67398C14.4483 8.74488 14.3205 8.80182 14.1927 8.87271C14.1584 8.88435 14.1252 8.89864 14.0932 8.91547C13.937 8.98637 13.7808 9.07166 13.653 9.14277C13.5535 9.18531 13.454 9.24203 13.369 9.28457C13.3277 9.31069 13.2851 9.33443 13.2411 9.35568C13.1133 9.42658 12.9855 9.49769 12.8716 9.56881C12.7541 9.63338 12.6403 9.70453 12.5309 9.78193C12.4314 9.85283 12.3321 9.90977 12.2468 9.98066C12.2326 9.99484 12.2185 9.99484 12.2041 10.009C12.119 10.066 12.0195 10.1369 11.9342 10.208L11.9059 10.2363L11.693 10.4067C11.6644 10.4211 11.636 10.4495 11.6077 10.4636C11.5368 10.5204 11.4657 10.5915 11.3945 10.6484C11.3804 10.6765 11.352 10.6909 11.3378 10.7051C11.2525 10.7904 11.1672 10.8613 11.0822 10.9466C11.0678 10.9466 11.0678 10.9608 11.0538 10.975C10.9685 11.0459 10.8832 11.1312 10.7981 11.2164C10.7837 11.2306 10.7837 11.2448 10.7696 11.2448C10.6987 11.3157 10.6278 11.3868 10.5567 11.4721C10.5283 11.5005 10.4858 11.5288 10.4572 11.5572C10.3863 11.6425 10.301 11.7278 10.2157 11.8129C10.2015 11.8414 10.1732 11.8556 10.1588 11.884C10.0453 11.9976 9.94585 12.1113 9.8322 12.2249L9.78966 12.2675C9.56235 12.5089 9.32087 12.7504 9.06521 12.9636C8.81334 13.1883 8.54763 13.397 8.26964 13.5885C7.99423 13.7817 7.70989 13.9618 7.41757 14.1282C7.12768 14.2872 6.82891 14.4295 6.52274 14.5543C6.22059 14.6827 5.91244 14.7964 5.59935 14.8952C5.00294 15.023 4.39192 15.2645 3.86663 15.3071C3.75276 15.3071 3.62515 15.3354 3.51149 15.3496C3.39276 15.3765 3.27437 15.405 3.15636 15.4349L2.8154 15.5627C2.70175 15.6053 2.58831 15.6622 2.47466 15.7189C2.37519 15.7898 2.26153 15.8468 2.16206 15.9179C2.06259 15.9888 1.96333 16.0741 1.87804 16.1594C1.77856 16.2303 1.67909 16.3297 1.59401 16.415C1.50872 16.5145 1.42343 16.5998 1.35253 16.699C1.28163 16.8127 1.19634 16.9122 1.1394 17.0256C1.06851 17.1253 0.997393 17.2387 0.940459 17.3524C0.88374 17.4802 0.827021 17.5939 0.784268 17.7219C0.739465 17.8442 0.696848 17.9672 0.656436 18.091C0.628076 18.2047 0.599717 18.3183 0.585537 18.432C0.585537 18.4462 0.571143 18.4603 0.571143 18.4745C0.542783 18.6023 0.542783 18.7729 0.528604 18.858C0.514424 18.9575 0.500244 19.0428 0.500244 19.142C0.500244 19.199 0.500244 19.2699 0.514424 19.3268C0.528604 19.4263 0.542783 19.5116 0.571357 19.5966C0.599717 19.6819 0.628076 19.767 0.67083 19.8523V19.8665C0.713369 19.9518 0.770088 20.0371 0.827021 20.1221C0.88374 20.2074 0.940674 20.2927 1.01179 20.3778C1.08269 20.4487 1.16776 20.5342 1.25306 20.6051C1.33835 20.6904 1.42364 20.7613 1.5229 20.8324C1.86386 21.1306 1.94915 21.2301 2.38937 21.4574C2.46026 21.4999 2.53138 21.5283 2.61667 21.5711C2.63085 21.5711 2.64503 21.5852 2.65921 21.5852C2.65921 21.6136 2.65921 21.6278 2.6736 21.6561C2.68778 21.77 2.71614 21.8834 2.7445 21.9971C2.77286 22.1249 2.8154 22.2386 2.85815 22.338C2.90069 22.4233 2.92905 22.5084 2.97181 22.5937C2.98599 22.6221 3.00017 22.6506 3.01435 22.6646C3.07128 22.7785 3.12821 22.8777 3.18493 22.9772L3.39784 23.2754C3.46874 23.3607 3.55403 23.4602 3.63933 23.5455C3.72462 23.6305 3.80991 23.7017 3.90917 23.7867C3.90917 23.7867 3.92356 23.8011 3.93753 23.8011C4.02282 23.872 4.10812 23.9429 4.19319 23.9999C4.29267 24.0708 4.39214 24.1277 4.50579 24.1846C4.60526 24.2413 4.71892 24.2983 4.83235 24.3408C4.91765 24.3834 5.01712 24.4117 5.11659 24.4403C5.13077 24.4545 5.14495 24.4545 5.17331 24.4687C5.23024 24.4828 5.30114 24.497 5.35808 24.5112C5.31532 25.2782 5.30114 26.0026 5.41479 26.2583C5.54263 26.5423 6.16761 25.6761 6.79259 24.6818C6.70751 25.6617 6.65079 26.8122 6.79259 27.1531C6.94878 27.5083 7.80106 26.4003 8.5397 25.1787C18.6103 22.8494 27.8 29.8092 28.7659 39.6383C28.5812 38.1044 26.6923 37.2521 25.8258 37.4652C25.3996 38.5162 24.6753 39.8656 23.5107 40.7035C23.6099 39.7662 23.5674 38.8002 23.3684 37.8629C23.056 39.1696 22.4452 40.3912 21.6071 41.4422C20.2579 41.5416 18.9087 40.8883 18.1982 39.9082C18.1415 39.8656 18.1273 39.7804 18.0848 39.7234C18.042 39.6242 17.9995 39.5247 17.9709 39.4252C17.9295 39.33 17.9009 39.2297 17.8858 39.127C17.8717 39.0275 17.8717 38.9281 17.8717 38.8144V38.6015C17.8858 38.502 17.9142 38.4026 17.9425 38.3031C17.9709 38.2038 17.9995 38.1044 18.042 38.0049C18.099 37.9054 18.1415 37.8059 18.2124 37.7067C18.4539 37.0248 18.4539 36.4709 18.0137 36.1441C17.9284 36.0885 17.838 36.041 17.7438 36.0023C17.6869 35.9879 17.616 35.9594 17.5591 35.9454C17.5165 35.931 17.4882 35.9168 17.4454 35.9026C17.3461 35.8743 17.2467 35.8459 17.1472 35.8317C17.0503 35.8037 16.9499 35.7893 16.849 35.789C16.7495 35.7748 16.6359 35.7606 16.5364 35.7606C16.4655 35.7606 16.3946 35.7748 16.3233 35.7748C16.2098 35.7748 16.1104 35.7892 16.0109 35.8176C15.9114 35.8317 15.8119 35.8459 15.7127 35.8743C15.6132 35.9026 15.5137 35.9312 15.4143 35.9738C15.315 36.0163 15.2295 36.059 15.1302 36.1016C15.045 36.1441 14.9599 36.2011 14.8604 36.2436C11.5509 38.4028 13.5251 43.4591 15.7836 44.9222C14.9313 45.0784 14.0648 45.2632 13.8236 45.4477L13.7952 45.4761C14.4058 45.8456 15.045 46.158 15.7127 46.4278C16.6217 46.726 17.5876 46.9959 18.0137 47.1095V47.1237C19.1905 47.365 20.3938 47.451 21.593 47.3794C27.8853 46.9389 33.0413 42.1524 33.9787 35.8459C34.0071 35.9738 34.0356 36.0874 34.064 36.2152C34.1065 36.4709 34.1635 36.7407 34.1918 37.0106V37.025C34.2202 37.1528 34.2344 37.2806 34.2488 37.3943V37.451C34.2629 37.5788 34.2771 37.7067 34.2771 37.8203C34.2913 37.9765 34.3055 38.1327 34.3055 38.2891V38.5162C34.3055 38.5873 34.3197 38.6726 34.3197 38.7435C34.3197 38.8288 34.3055 38.9141 34.3055 38.9992V39.1981C34.3055 39.2976 34.2913 39.3829 34.2913 39.4822C34.2913 39.5391 34.2913 39.5958 34.2769 39.6669C34.2769 39.7662 34.2627 39.8656 34.2627 39.9793C34.2485 40.0218 34.2485 40.0646 34.2485 40.1071C34.2344 40.2208 34.2202 40.3203 34.2058 40.4337C34.2058 40.4764 34.2058 40.519 34.1916 40.5617C34.1774 40.7035 34.1491 40.8316 34.1349 40.9736V41.002C34.1065 41.1298 34.078 41.272 34.0496 41.3998V41.4424L33.9643 41.8259C33.9643 41.8401 33.9501 41.8684 33.9501 41.8826C33.9218 42.0104 33.8934 42.1383 33.8507 42.2663V42.3088C33.8081 42.4509 33.7656 42.5787 33.7372 42.7065C33.7228 42.7207 33.7228 42.7349 33.7228 42.7349L33.595 43.1609C33.5383 43.3031 33.4957 43.431 33.4388 43.573C33.3821 43.7148 33.3393 43.857 33.2826 43.9848C33.2257 44.1269 33.1687 44.2547 33.1122 44.3967H33.0978C33.0411 44.5245 32.9842 44.6665 32.9131 44.7944C32.9015 44.8286 32.8873 44.8619 32.8705 44.8938C32.8564 44.9082 32.8564 44.9222 32.8422 44.9366C31.919 46.7971 30.5554 48.4306 28.851 49.7089C28.7372 49.7798 28.6237 49.8653 28.5101 49.9504C28.4817 49.9788 28.4392 49.9932 28.4106 50.0213C28.3111 50.0924 28.2119 50.1635 28.0982 50.2344L28.1408 50.3197H28.1549L28.7516 50.2344H28.7657C29.1353 50.1777 29.5044 50.1066 29.8737 50.0357C29.9732 50.0215 30.0868 49.9932 30.1861 49.9648C30.2572 49.9504 30.3139 49.9362 30.385 49.9221C30.4845 49.9079 30.584 49.8795 30.6832 49.8651C30.7685 49.8368 30.8538 49.8226 30.9389 49.7942C32.3594 49.4533 33.7372 48.9845 35.0581 48.4306C32.7996 51.5128 29.7742 53.9985 26.2375 55.632C27.8709 55.5183 29.5044 55.2485 31.0811 54.7941C36.8052 53.1037 41.6203 49.2545 44.5037 44.0701C43.9184 47.3588 42.6136 50.4775 40.6827 53.2031C42.0592 52.2951 43.3311 51.2376 44.4751 50.0499C47.6569 46.7262 49.7448 42.5076 50.4551 37.9765C50.9396 40.2245 51.0785 42.5331 50.8669 44.8229C61.1221 30.5195 51.7192 15.6908 47.7848 11.7847C47.7704 11.7563 47.7564 11.7422 47.7564 11.7138C47.742 11.728 47.742 11.728 47.742 11.7422C47.742 11.7278 47.742 11.7278 47.7278 11.7138C47.7278 11.8842 47.7137 12.0546 47.6995 12.2251C47.6569 12.5517 47.6142 12.8643 47.5575 13.1769C47.4866 13.4893 47.4013 13.8017 47.316 14.1143C47.2148 14.4217 47.1011 14.7249 46.975 15.023C46.8445 15.3174 46.7024 15.6066 46.549 15.8897C46.3928 16.1596 46.2224 16.4436 46.0377 16.6993C45.855 16.9634 45.6608 17.2193 45.4554 17.4662C45.2421 17.7219 45.015 17.9492 44.7877 18.1765C44.654 18.2989 44.5166 18.4172 44.3758 18.5314C44.262 18.6309 44.1627 18.7162 44.0491 18.8157C43.7934 19.0144 43.5377 19.1992 43.2537 19.3696C42.9839 19.5399 42.6996 19.7105 42.4158 19.8525C42.1172 19.9945 41.819 20.1224 41.5208 20.2502C41.2181 20.3645 40.91 20.464 40.5976 20.5484C40.2835 20.6329 39.966 20.704 39.6458 20.7615C39.3193 20.8185 38.9927 20.8468 38.6801 20.8752C38.4528 20.8894 38.2255 20.9035 37.9982 20.9035C37.6716 20.9035 37.3449 20.8752 37.0325 20.8468C36.7057 20.8182 36.3789 20.7757 36.0666 20.7046C35.74 20.6479 35.4274 20.5628 35.1148 20.4633H35.1006C35.4132 20.4347 35.7258 20.4064 36.0382 20.3495C36.3586 20.2936 36.6762 20.2225 36.9899 20.1365C37.3022 20.0521 37.6103 19.9526 37.9129 19.8383C38.2255 19.7245 38.5237 19.5827 38.808 19.4404C39.1062 19.2987 39.376 19.1422 39.66 18.9719C39.9299 18.7871 40.1999 18.6023 40.4556 18.4036C40.71 18.2058 40.9519 17.9923 41.1798 17.7645C41.4213 17.5513 41.6344 17.3101 41.8476 17.0684C42.0552 16.8197 42.2541 16.5638 42.444 16.3014C42.4723 16.2588 42.5009 16.2021 42.5293 16.1596C42.6713 15.9323 42.8133 15.705 42.9411 15.4777C43.0974 15.196 43.2396 14.9068 43.3674 14.6112C43.4957 14.314 43.6094 14.0107 43.7081 13.7024C43.8076 13.4038 43.8787 13.0914 43.9496 12.779C44.0065 12.4524 44.0635 12.1398 44.0916 11.8272C44.12 11.5007 44.1485 11.1741 44.1485 10.8615C44.1485 10.6342 44.1344 10.4069 44.1202 10.1796C44.0918 9.85305 44.0493 9.54045 44.0063 9.22785C43.9505 8.90749 43.8795 8.58995 43.7936 8.27631C43.6939 7.97811 43.5947 7.66551 43.481 7.3673C43.3672 7.0691 43.2254 6.77068 43.0833 6.48666C42.9269 6.20264 42.7707 5.9184 42.6004 5.64877C42.419 5.38253 42.2295 5.12195 42.0321 4.86738C41.8183 4.62238 41.6005 4.38086 41.3788 4.14293C41.2591 4.0211 41.136 3.90274 41.0095 3.78801C40.3731 3.29378 39.7143 2.82922 39.035 2.39582C38.9433 2.34291 38.8485 2.29556 38.751 2.25402C38.2825 1.95561 37.8422 1.79941 37.4018 1.6574L37.4014 1.65719Z"
            fill="#E0234E"></path>
    </g>
    <defs>
        <clipPath id="clip0_110_352">
            <rect width="55" height="54.79" fill="white" transform="translate(0.5 0.845215)"></rect>
        </clipPath>
    </defs>
</svg>