<svg width="72" height="52" viewBox="0 0 72 52" fill="none">
    <g clip-path="url(#clip0_457_858)">
        <path
            d="M70.4932 19.8154C68.8727 18.691 65.1594 18.2694 62.2564 18.8316C61.9191 16.0208 60.3661 13.5616 57.6655 11.3832L56.1128 10.2589L55.0323 11.8751C53.6823 13.9832 53.0071 16.9346 53.2095 19.7454C53.277 20.7289 53.6145 22.4856 54.6273 24.0316C53.6823 24.5938 51.7243 25.2965 49.1588 25.2965H0.346301L0.211382 25.8586C-0.261397 28.6691 -0.261397 37.4526 5.27478 44.1983C9.46064 49.3278 15.672 51.9278 23.841 51.9278C41.5295 51.9278 54.6273 43.4251 60.7711 28.0367C63.2017 28.107 68.4002 28.0367 71.0334 22.7664C71.1009 22.6259 71.2358 22.3448 71.7083 21.291L71.9784 20.7289L70.4932 19.8154ZM39.3691 0H31.9429V7.02675H39.3691V0ZM39.3691 8.43215H31.9429V15.4589H39.3691V8.43215ZM30.5923 8.43215H23.1661V15.4589H30.5923V8.43215ZM21.8156 8.43215H14.3891V15.4589H21.8156V8.43215ZM13.0388 16.8643H5.61235V23.891H13.0385L13.0388 16.8643ZM21.8156 16.8643H14.3891V23.891H21.8156V16.8643ZM30.5923 16.8643H23.1661V23.891H30.5923V16.8643ZM39.3693 16.8643H31.9426V23.891H39.3693V16.8643ZM48.1461 16.8643H40.7194V23.891H48.1461V16.8643Z"
            fill="#2396ED"></path>
    </g>
    <defs>
        <clipPath id="clip0_457_858">
            <rect width="71.96" height="52" fill="white" transform="translate(0.0200195)"></rect>
        </clipPath>
    </defs>
</svg>