<svg width="56" height="56" viewBox="0 0 56 56" fill="none">
    <g clip-path="url(#clip0_457_754)">
        <path
            d="M27.9542 0.41984C28.1964 0.420677 28.1964 0.420677 28.4434 0.42153C30.805 0.433598 33.0638 0.52263 35.3334 1.23338C35.4644 1.27267 35.5955 1.31196 35.7305 1.35244C40.8609 2.92171 45.6556 5.871 49.0834 10.0334C49.2486 10.223 49.2486 10.223 49.4171 10.4165C52.1165 13.6132 53.9861 17.5242 54.9501 21.5834C54.9975 21.7753 55.045 21.9672 55.0939 22.165C55.5281 24.0841 55.6023 25.9453 55.5917 27.9084C55.5914 28.0695 55.5911 28.2306 55.5907 28.3966C55.5792 30.9858 55.3795 33.4036 54.5834 35.8834C54.5363 36.0349 54.4892 36.1864 54.4406 36.3425C53.2259 40.1596 51.2572 43.5692 48.5248 46.4974C48.2326 46.8124 47.9624 47.1306 47.6969 47.4678C47.1123 48.1423 46.4712 48.6995 45.7834 49.2667C45.6241 49.4026 45.4648 49.5385 45.3007 49.6785C41.1509 53.0645 35.4928 55.4912 30.084 55.5437C29.9327 55.5455 29.7813 55.5473 29.6253 55.5492C23.3597 55.6082 23.3597 55.6082 20.6667 54.7667C20.5347 54.7274 20.4027 54.6881 20.2667 54.6477C18.2802 54.0452 16.44 53.1846 14.6167 52.2C14.4225 52.0963 14.2282 51.9925 14.0281 51.8857C11.3384 50.3855 8.87305 48.3422 6.91673 45.9667C6.8066 45.8403 6.69647 45.7138 6.58301 45.5836C3.88358 42.3869 2.01401 38.4759 1.05006 34.4167C0.978854 34.1288 0.978854 34.1288 0.906207 33.8351C0.472072 31.916 0.397858 30.0548 0.408396 28.0917C0.408719 27.9306 0.409042 27.7695 0.409375 27.6035C0.420931 25.0143 0.620598 22.5965 1.41673 20.1167C1.46385 19.9652 1.51096 19.8137 1.55951 19.6576C2.77022 15.853 4.73042 12.4285 7.4653 9.51704C7.84495 9.11414 7.84495 9.11414 8.20579 8.64549C8.74412 7.98112 9.37924 7.46374 10.0334 6.91672C10.1653 6.80328 10.2971 6.68984 10.433 6.57297C13.1502 4.30403 16.3086 2.63008 19.6699 1.54276C19.864 1.47939 19.864 1.47939 20.0622 1.41475C22.6879 0.612453 25.2276 0.399852 27.9542 0.41984Z"
            fill="#009B60"></path>
        <path
            d="M15.5333 12.2334C15.5333 13.0804 15.5333 13.9274 15.5333 14.8C14.9843 14.8717 14.4353 14.9433 13.8862 15.0149C13.2466 15.1905 13.0016 15.3783 12.6 15.9C12.3716 16.5593 12.3849 17.2184 12.3716 17.911C12.3655 18.1659 12.3594 18.4209 12.3533 18.6758C12.3447 19.0732 12.3366 19.4705 12.3293 19.8679C12.2283 25.1261 12.2283 25.1261 10.6306 26.885C10.0821 27.3806 9.66734 27.6738 8.93335 27.8167C8.93335 27.9377 8.93335 28.0587 8.93335 28.1834C9.05813 28.2212 9.18291 28.259 9.31147 28.298C10.707 28.9512 11.2949 29.8183 11.8767 31.2284C12.3986 33.1002 12.2835 35.1302 12.3069 37.0613C12.312 37.4488 12.3204 37.8362 12.3293 38.2237C12.3348 38.5663 12.3348 38.5663 12.3403 38.9157C12.4271 39.6363 12.622 40.3053 13.15 40.8334C13.9429 40.9187 14.7376 40.9626 15.5333 41.0167C15.5333 41.9242 15.5333 42.8317 15.5333 43.7667C13.8472 43.8385 12.3324 43.8834 10.9787 42.7505C9.10613 40.7449 9.44585 37.7611 9.37235 35.2131C9.40245 32.5544 9.40245 32.5544 8.38335 30.2C7.69372 29.6628 7.04678 29.4561 6.18335 29.2834C6.18335 28.4364 6.18335 27.5894 6.18335 26.7167C6.56337 26.6089 6.56337 26.6089 6.95106 26.499C7.75725 26.2244 8.23208 25.9508 8.75002 25.25C9.48079 23.637 9.38383 21.9799 9.39168 20.2428C9.41614 14.8673 9.41614 14.8673 11.1677 13.1157C12.5771 12.2074 13.8852 12.1765 15.5333 12.2334Z"
            fill="#F6FCFB"></path>
        <path
            d="M40.1001 12.4166C43.5273 12.2669 43.5273 12.2669 44.5001 13.15C45.6364 14.4756 46.0181 15.8336 46.0233 17.5686C46.028 17.8543 46.0326 18.1401 46.0373 18.4258C46.0425 18.8686 46.0469 19.3114 46.0504 19.7542C45.9952 23.0988 45.9952 23.0988 47.4334 25.9833C48.102 26.4444 48.5698 26.4076 49.4501 26.5333C49.4501 27.4408 49.4501 28.3483 49.4501 29.2833C49.1968 29.3589 48.9434 29.4346 48.6824 29.5125C47.9499 29.7632 47.4106 29.9775 46.8834 30.5666C46.2672 31.9234 46.1264 33.3211 46.1179 34.7969C46.1136 35.0849 46.1092 35.3729 46.1046 35.661C46.0982 36.109 46.0928 36.557 46.0903 37.0051C46.0639 41.0176 46.0639 41.0176 44.8644 42.3402C44.5125 42.6666 44.1654 42.9496 43.7668 43.2167C43.6094 43.3234 43.6094 43.3234 43.4488 43.4322C42.816 43.6624 42.1846 43.6215 41.5209 43.6062C41.3843 43.6046 41.2477 43.6029 41.107 43.6012C40.7713 43.5969 40.4357 43.5903 40.1001 43.5833C40.1001 42.7968 40.1001 42.0103 40.1001 41.2C40.6074 41.1105 41.1146 41.0209 41.6219 40.9314C42.1318 40.8411 42.1318 40.8411 42.6668 40.65C43.1645 39.7314 43.2975 38.9458 43.2977 37.9021C43.3001 37.7659 43.3025 37.6296 43.305 37.4892C43.3125 37.057 43.3165 36.6249 43.3199 36.1927C43.3762 30.6897 43.3762 30.6897 45.4569 28.6137C45.8114 28.3455 46.0822 28.2586 46.5168 28.1833C46.5168 28.0623 46.5168 27.9413 46.5168 27.8166C46.3296 27.7656 46.3296 27.7656 46.1386 27.7135C44.9743 27.1437 44.3261 26.3336 43.8813 25.1239C43.7763 24.8011 43.6764 24.4765 43.5834 24.15C43.5514 24.0495 43.5193 23.9491 43.4863 23.8456C43.3602 23.2179 43.364 22.5907 43.355 21.9528C43.3489 21.6611 43.3429 21.3694 43.3367 21.0777C43.3281 20.6208 43.3199 20.1638 43.3127 19.7068C43.3053 19.2638 43.2959 18.8208 43.2862 18.3778C43.2847 18.2434 43.2831 18.1089 43.2816 17.9703C43.2598 17.0476 43.1003 16.2388 42.8501 15.35C41.9286 15.062 41.0605 14.9011 40.1001 14.8C40.1001 14.0135 40.1001 13.227 40.1001 12.4166Z"
            fill="#FBFDFD"></path>
        <path
            d="M37.8999 25.0667C38.7652 25.4586 39.2467 25.9741 39.7447 26.774C40.023 27.8686 39.9368 28.7004 39.4239 29.7073C38.8074 30.4238 38.3476 30.8545 37.3915 31.0229C36.3541 31.0895 35.665 31.0284 34.852 30.349C34.1082 29.5758 33.8583 28.9842 33.7979 27.9198C33.8271 26.8175 34.3549 26.2651 35.0583 25.4563C35.8861 24.8113 36.9129 24.8856 37.8999 25.0667Z"
            fill="#FAFDFD"></path>
        <path
            d="M28.9166 25.0667C29.7363 25.3852 30.2161 25.924 30.6583 26.6709C31.0224 27.5079 31.0193 28.2326 30.7499 29.1C30.3105 29.9706 29.7945 30.4951 28.9166 30.9334C27.9926 31.1092 27.0963 31.1462 26.2604 30.6777C25.4537 30.0008 24.9615 29.4112 24.8389 28.3488C24.7644 27.0373 25.2256 26.433 26.0749 25.4563C26.8987 24.8107 27.9318 24.9054 28.9166 25.0667Z"
            fill="#FAFDFC"></path>
        <path
            d="M19.9334 25.0666C20.8317 25.4512 21.332 26.0317 21.7667 26.9C21.9344 27.9257 21.9638 28.9599 21.3657 29.8448C20.8479 30.4907 20.2283 30.8772 19.4142 31.0321C18.381 31.0619 17.6973 31.0302 16.8855 30.3489C16.1457 29.58 15.8921 28.9901 15.8313 27.9312C15.8614 26.8013 16.2796 26.1449 17.0917 25.3531C18.0425 24.9286 18.9093 24.9074 19.9334 25.0666Z"
            fill="#FAFDFD"></path>
        <path
            d="M18.2834 12.2333C20.0409 12.2333 20.0409 12.2333 20.6668 12.7833C20.8501 13.2302 20.8501 13.2302 20.8501 13.6999C20.5866 14.1239 20.5866 14.1239 20.3001 14.4333C20.3909 14.5997 20.4816 14.766 20.5751 14.9374C20.8501 15.5333 20.8501 15.5333 20.8501 16.2666C20.6686 16.2666 20.4871 16.2666 20.3001 16.2666C20.1791 15.7221 20.0581 15.1776 19.9334 14.6166C19.3889 14.5259 19.3889 14.5259 18.8334 14.4333C18.8334 15.0383 18.8334 15.6433 18.8334 16.2666C18.6519 16.2666 18.4704 16.2666 18.2834 16.2666C18.2834 14.9356 18.2834 13.6046 18.2834 12.2333Z"
            fill="#DFF4EF"></path>
        <path
            d="M27.8167 40.1001C29.7401 40.0322 29.7401 40.0322 30.1678 40.3435C30.512 40.833 30.478 41.17 30.3833 41.7501C29.8819 42.3104 29.613 42.4723 28.8594 42.5292C28.6968 42.5141 28.5342 42.499 28.3667 42.4834C28.3667 42.9674 28.3667 43.4514 28.3667 43.9501C28.1852 43.9501 28.0037 43.9501 27.8167 43.9501C27.8167 42.6796 27.8167 41.4091 27.8167 40.1001Z"
            fill="#F7FCFA"></path>
        <path
            d="M25.0668 40.1C25.3088 40.1 25.5508 40.1 25.8001 40.1C26.015 40.6725 26.2285 41.2456 26.4418 41.8187C26.5336 42.0633 26.5336 42.0633 26.6272 42.3129C26.6851 42.4688 26.743 42.6248 26.8027 42.7855C26.8833 43.0015 26.8833 43.0015 26.9656 43.2219C27.0834 43.5833 27.0834 43.5833 27.0834 43.95C26.9019 43.95 26.7204 43.95 26.5334 43.95C26.4124 43.6475 26.2914 43.345 26.1668 43.0333C25.6223 42.9728 25.0778 42.9123 24.5168 42.85C24.4563 43.213 24.3958 43.576 24.3334 43.95C24.0914 43.8895 23.8494 43.829 23.6001 43.7666C23.8093 43.1896 24.0197 42.613 24.2303 42.0364C24.3198 41.7895 24.3198 41.7895 24.4111 41.5376C24.4684 41.3811 24.5258 41.2245 24.5848 41.0632C24.6376 40.9182 24.6904 40.7732 24.7448 40.6239C24.8834 40.2833 24.8834 40.2833 25.0668 40.1Z"
            fill="#DBF3ED"></path>
        <path
            d="M21.5833 12.2333C22.3093 12.2333 23.0353 12.2333 23.7833 12.2333C23.8438 12.4148 23.9043 12.5963 23.9666 12.7833C23.3616 12.7833 22.7566 12.7833 22.1333 12.7833C22.1333 13.1463 22.1333 13.5093 22.1333 13.8833C22.6778 13.8833 23.2223 13.8833 23.7833 13.8833C23.7833 14.0043 23.7833 14.1253 23.7833 14.2499C23.2388 14.2499 22.6943 14.2499 22.1333 14.2499C22.1333 14.7944 22.1333 15.3389 22.1333 15.8999C22.7383 15.8999 23.3433 15.8999 23.9666 15.8999C23.9666 16.0209 23.9666 16.1419 23.9666 16.2666C23.1801 16.2666 22.3936 16.2666 21.5833 16.2666C21.5833 14.9356 21.5833 13.6046 21.5833 12.2333Z"
            fill="#E0F5EF"></path>
        <path
            d="M26.5333 12.2333C26.5938 12.4148 26.6543 12.5963 26.7166 12.7833C26.2931 12.8438 25.8696 12.9043 25.4333 12.9666C25.4333 13.2086 25.4333 13.4506 25.4333 13.6999C25.7494 13.9562 25.7494 13.9562 26.1551 14.1468C26.8791 14.5579 26.8791 14.5579 27.0833 15.1322C27.0833 15.2646 27.0833 15.3969 27.0833 15.5333C26.5343 16.0656 26.2659 16.2582 25.4906 16.3239C24.8833 16.2666 24.8833 16.2666 24.5166 16.0833C24.5166 15.9623 24.5166 15.8413 24.5166 15.7166C24.8866 15.7226 25.2566 15.7285 25.6266 15.7345C25.9983 15.7398 25.9983 15.7398 26.3499 15.5333C26.3134 15.1798 26.3134 15.1798 26.1666 14.7999C25.8345 14.5408 25.8345 14.5408 25.4333 14.3416C24.7408 13.9756 24.7408 13.9756 24.5388 13.5195C24.5166 13.1499 24.5166 13.1499 24.8947 12.6458C25.5103 12.1743 25.7784 12.1455 26.5333 12.2333Z"
            fill="#E7F7F2"></path>
        <path
            d="M32.9501 13.3334C33.1316 13.3334 33.3131 13.3334 33.5001 13.3334C33.5606 14.0594 33.6211 14.7854 33.6834 15.5334C33.9254 15.5939 34.1674 15.6544 34.4168 15.7167C34.8915 15.242 34.852 14.9784 34.898 14.3188C34.9117 14.1349 34.9254 13.9511 34.9396 13.7616C34.9485 13.6203 34.9575 13.479 34.9668 13.3334C35.1483 13.3334 35.3298 13.3334 35.5168 13.3334C35.5168 14.3014 35.5168 15.2694 35.5168 16.2667C35.2748 16.2062 35.0328 16.1457 34.7834 16.0834C34.3542 16.1334 33.9259 16.193 33.5001 16.2667C32.9261 15.646 32.8886 15.2197 32.9157 14.3875C32.9232 14.0912 32.9232 14.0912 32.9308 13.7888C32.9371 13.6385 32.9435 13.4882 32.9501 13.3334Z"
            fill="#EFF9F6"></path>
        <path
            d="M27.45 12.2333C28.4785 12.2333 29.507 12.2333 30.5666 12.2333C30.5666 12.4148 30.5666 12.5963 30.5666 12.7833C30.1431 12.7833 29.7196 12.7833 29.2833 12.7833C29.2833 13.9328 29.2833 15.0823 29.2833 16.2666C29.1018 16.2666 28.9203 16.2666 28.7333 16.2666C28.7333 15.1171 28.7333 13.9676 28.7333 12.7833C28.3098 12.7833 27.8863 12.7833 27.45 12.7833C27.45 12.6018 27.45 12.4203 27.45 12.2333Z"
            fill="#DAF3EC"></path>
        <path
            d="M32.5833 12.05C32.5833 12.171 32.5833 12.292 32.5833 12.4167C32.3413 12.4772 32.0993 12.5377 31.85 12.6C31.7895 12.842 31.729 13.084 31.6667 13.3334C31.9087 13.3334 32.1507 13.3334 32.4 13.3334C32.4 13.4544 32.4 13.5754 32.4 13.7C32.158 13.7 31.916 13.7 31.6667 13.7C31.6667 14.547 31.6667 15.394 31.6667 16.2667C31.4852 16.2667 31.3037 16.2667 31.1167 16.2667C31.1167 15.4197 31.1167 14.5727 31.1167 13.7C30.9957 13.7 30.8747 13.7 30.75 13.7C30.75 13.579 30.75 13.458 30.75 13.3334C30.871 13.3334 30.992 13.3334 31.1167 13.3334C31.1053 13.1897 31.094 13.046 31.0823 12.898C31.0936 12.7392 31.105 12.5803 31.1167 12.4167C31.7085 12.0222 31.9021 12.0132 32.5833 12.05Z"
            fill="#E6F7F3"></path>
        <path
            d="M36.4333 12.05C36.6148 12.05 36.7963 12.05 36.9833 12.05C36.9833 13.4415 36.9833 14.833 36.9833 16.2667C36.8018 16.2667 36.6203 16.2667 36.4333 16.2667C36.4333 14.8752 36.4333 13.4837 36.4333 12.05Z"
            fill="#E6F7F3"></path>
        <path
            d="M28.3667 40.4667C28.8938 40.4437 28.8938 40.4437 29.4667 40.4667C29.5877 40.5877 29.7087 40.7087 29.8334 40.8333C29.7646 41.4062 29.7646 41.4062 29.65 41.9333C29.2265 41.9938 28.803 42.0543 28.3667 42.1167C28.3667 41.5722 28.3667 41.0277 28.3667 40.4667Z"
            fill="#009F66"></path>
        <path
            d="M31.1167 40.1C31.2982 40.1 31.4797 40.1 31.6667 40.1C31.6667 41.3705 31.6667 42.641 31.6667 43.95C31.4852 43.95 31.3037 43.95 31.1167 43.95C31.1167 42.6795 31.1167 41.409 31.1167 40.1Z"
            fill="#D1F0E8"></path>
        <path
            d="M30.0167 40.2833C30.3834 40.65 30.3834 40.65 30.4636 41.1771C30.3834 41.75 30.3834 41.75 29.9938 42.1854C29.3948 42.524 29.0436 42.5463 28.3667 42.4833C28.3667 42.4228 28.3667 42.3623 28.3667 42.3C28.6692 42.3 28.9717 42.3 29.2834 42.3C29.2834 42.179 29.2834 42.058 29.2834 41.9333C29.4044 41.9333 29.5254 41.9333 29.65 41.9333C29.65 41.5703 29.65 41.2073 29.65 40.8333C29.2265 40.7123 28.803 40.5913 28.3667 40.4667C28.3667 40.4062 28.3667 40.3457 28.3667 40.2833C28.9809 40.1298 29.4171 40.0559 30.0167 40.2833Z"
            fill="#DFF4EF"></path>
        <path
            d="M34.9668 13.3334C35.1483 13.3334 35.3298 13.3334 35.5168 13.3334C35.5168 14.3014 35.5168 15.2694 35.5168 16.2667C35.3353 16.2667 35.1538 16.2667 34.9668 16.2667C34.9668 16.0852 34.9668 15.9037 34.9668 15.7167C34.8458 15.6562 34.7248 15.5957 34.6001 15.5334C34.6606 15.4729 34.7211 15.4124 34.7834 15.35C34.8263 15.0111 34.8592 14.6708 34.8866 14.3302C34.9019 14.1447 34.9173 13.9592 34.9331 13.7681C34.9442 13.6246 34.9553 13.4812 34.9668 13.3334Z"
            fill="#D2F2EA"></path>
        <path
            d="M18.8333 12.7833C19.3603 12.7604 19.3603 12.7604 19.9333 12.7833C20.0543 12.9043 20.1753 13.0253 20.2999 13.15C20.2017 13.7982 20.2017 13.7982 19.9333 14.0666C19.5667 14.0741 19.1998 14.0744 18.8333 14.0666C18.8333 13.6431 18.8333 13.2196 18.8333 12.7833Z"
            fill="#009C61"></path>
        <path
            d="M24.5168 41.9333C24.5773 42.1148 24.6378 42.2963 24.7001 42.4833C25.1236 42.4833 25.5471 42.4833 25.9834 42.4833C25.9834 42.5438 25.9834 42.6043 25.9834 42.6667C25.5599 42.7272 25.1364 42.7877 24.7001 42.85C24.5791 43.213 24.4581 43.576 24.3334 43.95C24.0914 43.8895 23.8494 43.829 23.6001 43.7667C23.718 43.4953 23.8365 43.2241 23.9553 42.9531C24.0212 42.8021 24.0872 42.6511 24.1551 42.4955C24.3334 42.1167 24.3334 42.1167 24.5168 41.9333Z"
            fill="#E2F5F0"></path>
        <path
            d="M25.25 40.65C25.371 40.7105 25.492 40.771 25.6166 40.8334C25.7255 41.3189 25.7527 41.8036 25.8 42.3C25.4975 42.3 25.195 42.3 24.8833 42.3C25.0043 41.7555 25.1253 41.211 25.25 40.65Z"
            fill="#05A36C"></path>
        <path
            d="M26.5333 12.2334C26.5938 12.4149 26.6543 12.5964 26.7166 12.7834C26.52 12.8098 26.3234 12.8363 26.1208 12.8636C25.6319 12.9369 25.1741 13.0173 24.7 13.15C25.1355 12.1856 25.5041 12.211 26.5333 12.2334Z"
            fill="#CEF0E8"></path>
        <path
            d="M24.6999 40.8334C24.8814 40.8334 25.0629 40.8334 25.2499 40.8334C25.1289 41.3174 25.0079 41.8014 24.8833 42.3C25.1858 42.3 25.4883 42.3 25.7999 42.3C25.8604 42.179 25.9209 42.058 25.9833 41.9334C25.9833 42.1149 25.9833 42.2964 25.9833 42.4834C25.5598 42.4834 25.1363 42.4834 24.6999 42.4834C24.4937 42.174 24.4937 42.174 24.3333 41.75C24.4937 41.2459 24.4937 41.2459 24.6999 40.8334Z"
            fill="#B4E8DB"></path>
        <path
            d="M25.0666 40.1C25.3086 40.1 25.5506 40.1 25.8 40.1C25.8605 40.5235 25.921 40.947 25.9833 41.3833C25.8623 41.3833 25.7413 41.3833 25.6166 41.3833C25.4956 41.2018 25.3746 41.0203 25.25 40.8333C25.129 40.8333 25.008 40.8333 24.8833 40.8333C24.9438 40.5913 25.0043 40.3493 25.0666 40.1Z"
            fill="#EBF8F4"></path>
        <path
            d="M24.5166 41.9333C24.5771 42.1148 24.6376 42.2963 24.6999 42.4833C25.1234 42.4833 25.5469 42.4833 25.9832 42.4833C25.9832 42.5438 25.9832 42.6043 25.9832 42.6667C25.3782 42.7272 24.7732 42.7877 24.1499 42.85C24.3332 42.1167 24.3332 42.1167 24.5166 41.9333Z"
            fill="#F2FBF8"></path>
    </g>
    <defs>
        <clipPath id="clip0_457_754">
            <rect width="55" height="55" fill="white" transform="translate(0.5 0.5)"></rect>
        </clipPath>
    </defs>
</svg>