<svg width="56" height="57" viewBox="0 0 56 57" fill="none" xmlns="http://www.w3.org/2000/svg">
<path d="M28.175 12.575C25.0253 12.575 21.9464 13.5089 19.3276 15.2588C16.7087 17.0087 14.6676 19.4958 13.4622 22.4057C12.2569 25.3156 11.9415 28.5176 12.556 31.6068C13.1705 34.6959 14.6872 37.5335 16.9143 39.7606C19.1415 41.9878 21.979 43.5045 25.0682 44.119C28.1573 44.7334 31.3593 44.4181 34.2692 43.2127C37.1792 42.0074 39.6663 39.9663 41.4162 37.3474C43.166 34.7286 44.1 31.6496 44.1 28.5C44.0954 24.2778 42.4161 20.2299 39.4306 17.2444C36.4451 14.2589 32.3972 12.5796 28.175 12.575ZM28.175 36.7425C26.5448 36.7425 24.9512 36.259 23.5957 35.3533C22.2402 34.4476 21.1838 33.1603 20.5599 31.6542C19.9361 30.1481 19.7728 28.4908 20.0909 26.8919C20.4089 25.293 21.1939 23.8244 22.3467 22.6716C23.4994 21.5189 24.9681 20.7339 26.567 20.4158C28.1659 20.0978 29.8232 20.261 31.3293 20.8849C32.8354 21.5087 34.1227 22.5652 35.0284 23.9207C35.9341 25.2761 36.4175 26.8697 36.4175 28.5C36.4175 30.686 35.5491 32.7825 34.0033 34.3283C32.4576 35.874 30.3611 36.7425 28.175 36.7425Z" fill="#F5F5F5"/>
<path fill-rule="evenodd" clip-rule="evenodd" d="M29.5049 9.9675V4C36.0027 4 42.2344 6.58124 46.829 11.1759C51.4236 15.7705 54.0049 22.0022 54.0049 28.5C54.0049 34.9978 51.4236 41.2295 46.829 45.8241C42.2344 50.4188 36.0027 53 29.5049 53V47.05C34.179 46.6979 38.5475 44.5926 41.7351 41.1559C44.9227 37.7192 46.6939 33.2049 46.6939 28.5175C46.6939 23.8301 44.9227 19.3158 41.7351 15.8791C38.5475 12.4424 34.179 10.3371 29.5049 9.985V9.9675ZM14.1399 40.75C11.5086 37.7206 9.93049 33.9197 9.64238 29.9175H3.69238C3.98599 35.494 6.18525 40.8006 9.92238 44.95L14.1224 40.75H14.1399ZM26.8449 53V47.05C22.8364 46.7471 19.0348 45.1503 16.0124 42.5L11.8124 46.7C15.9519 50.4626 21.2596 52.687 26.8449 53Z" fill="url(#paint0_linear_567_65)"/>
<defs>
<linearGradient id="paint0_linear_567_65" x1="42.7174" y1="19.715" x2="18.6199" y2="43.8125" gradientUnits="userSpaceOnUse">
<stop stop-color="#0096FF"/>
<stop offset="1" stop-color="#FF1E56"/>
</linearGradient>
</defs>
</svg>
