<svg width="52" height="53" viewBox="0 0 52 53" fill="none">
    <path
        d="M39.8125 0.280273H12.1875C5.45653 0.280273 0 5.7368 0 12.4678V40.0928C0 46.8237 5.45653 52.2803 12.1875 52.2803H39.8125C46.5435 52.2803 52 46.8237 52 40.0928V12.4678C52 5.7368 46.5435 0.280273 39.8125 0.280273Z"
        fill="#512BD4"></path>
    <path
        d="M4.88556 34.5968C4.43137 34.5968 4.04503 34.4483 3.72714 34.1512C3.40905 33.8463 3.25 33.4843 3.25 33.0651C3.25 32.6383 3.40905 32.2725 3.72714 31.9676C4.04503 31.6629 4.43137 31.5103 4.88556 31.5103C5.34747 31.5103 5.73747 31.6629 6.05556 31.9676C6.38117 32.2725 6.54387 32.6383 6.54387 33.0651C6.54387 33.4843 6.38117 33.8463 6.05556 34.1512C5.73747 34.4483 5.34747 34.5968 4.88556 34.5968ZM23.048 34.3454H20.095L12.3145 22.2964C12.1205 21.9971 11.9569 21.6792 11.8261 21.3474H11.7579C11.8184 21.698 11.8487 22.4487 11.8487 23.5994V34.3454H9.2363V17.9521H12.3825L19.9018 29.7155C20.2199 30.2034 20.4242 30.5386 20.5152 30.7216H20.5605C20.485 30.2871 20.447 29.5518 20.447 28.5151V17.9521H23.048V34.3454ZM35.7699 34.3454H26.6264V17.9521H35.4065V20.2615H29.3298V24.9027H34.9296V27.2004H29.3298V32.0476H35.7699V34.3454ZM48.7644 20.2615H44.0848V34.3454H41.3814V20.2615H36.7132V17.9521H48.7644V20.2615Z"
        fill="white"></path>
</svg>