<svg width="50" height="57" viewBox="0 0 50 57" fill="none" xmlns="http://www.w3.org/2000/svg">
<g clip-path="url(#clip0_567_54)">
<path d="M25 0.509277L49.7172 14.4909V42.4633L25 56.445L0.282715 42.4633V14.4909L25 0.509277Z" fill="white"/>
<path d="M45.3054 41.4933L25.8209 52.5272V43.9463L37.965 37.2587L45.3054 41.4933ZM46.6392 40.2901V17.2331L39.5133 21.3462V36.1766L46.6392 40.2901ZM4.6199 41.4931L24.1046 52.5182V43.937L11.9605 37.2587L4.6199 41.4931ZM3.28613 40.2901V17.2331L10.4122 21.3462V36.1766L3.28613 40.2901ZM4.11648 15.7408L24.1046 4.43598V12.7375L11.2984 19.7794L11.1956 19.8354L4.11648 15.7408ZM45.7998 15.7408L25.8209 4.43579V12.7373L38.6179 19.7885L38.7204 19.8445L45.7998 15.7408Z" fill="#8ED6FB"/>
<path d="M24.1047 41.9878L12.1284 35.3933V22.3445L24.1047 29.2561V41.9878ZM25.821 41.9878L37.7973 35.4027V22.3445L25.821 29.2561V41.9878ZM12.9306 20.8335L24.9628 14.2205L36.9855 20.8335L24.9628 27.773L12.9306 20.8335Z" fill="#1C78C0"/>
</g>
<defs>
<clipPath id="clip0_567_54">
<rect width="49.44" height="56" fill="white" transform="translate(0.280029 0.5)"/>
</clipPath>
</defs>
</svg>
