<svg width="50" height="57" viewBox="0 0 50 57" fill="none" xmlns="http://www.w3.org/2000/svg">
<g clip-path="url(#clip0_600_53)">
<path d="M0.111084 28.4649C0.111084 30.8838 0.450195 33.2173 1.02692 35.4563H35.0677C38.9286 35.4563 42.059 32.3258 42.059 28.4649C42.059 24.6022 38.9284 21.4736 35.0677 21.4736H1.02692C0.450195 23.7109 0.111084 26.046 0.111084 28.4649Z" fill="#343741"/>
<path d="M47.1692 13.89C48.1463 12.9899 49.0553 12.0234 49.8889 10.987C44.7625 4.59869 36.9025 0.5 28.0761 0.5C17.0278 0.5 7.51962 6.92678 2.98401 16.2306H41.2038C43.4166 16.2306 45.5436 15.3898 47.169 13.89" fill="#FEC514"/>
<path d="M41.2038 40.7H2.98376C7.52132 50.002 17.0277 56.4305 28.0758 56.4305C36.9023 56.4305 44.7623 52.3301 49.8886 45.9435C49.056 44.9086 48.1469 43.9375 47.1689 43.0385C45.5434 41.5372 43.4163 40.7 41.2038 40.7Z" fill="#00BFB3"/>
</g>
<defs>
<clipPath id="clip0_600_53">
<rect width="49.78" height="56" fill="white" transform="translate(0.109985 0.5)"/>
</clipPath>
</defs>
</svg>
