<svg width="55" height="55" viewBox="0 0 76 55" fill="none" xmlns="http://www.w3.org/2000/svg">
    <g clip-path="url(#clip0_518_1537)">
        <path
            d="M71.3766 3.47988C66.8517 -1.0468 59.5536 -1.17318 54.8745 3.19435C54.7634 3.29926 54.674 3.42513 54.6117 3.56471C54.5494 3.7043 54.5153 3.85483 54.5115 4.00765C54.5132 4.31485 54.6341 4.60939 54.8488 4.82914L56.3276 6.35977C56.5205 6.55202 56.7761 6.66834 57.0477 6.68741C57.3193 6.70648 57.5887 6.62704 57.8065 6.46363C58.9796 5.57833 60.4103 5.10146 61.88 5.10589C63.2283 5.09999 64.5478 5.49516 65.6709 6.24115C66.794 6.98714 67.6699 8.05026 68.1872 9.29533C68.7045 10.5404 68.8399 11.9112 68.5762 13.2334C68.3124 14.5556 67.6614 15.7696 66.706 16.7208C57.2793 26.1478 44.6954 -0.264802 16.1379 13.322C15.652 13.5491 15.2185 13.8743 14.8646 14.2773C14.5107 14.6802 14.2441 15.1521 14.0816 15.6631C13.9191 16.1742 13.8642 16.7134 13.9203 17.2467C13.9765 17.7801 14.1426 18.296 14.408 18.762L19.3033 27.2288C20.3661 29.0619 22.7022 29.7046 24.5529 28.6731L24.674 28.6041L24.5789 28.6731L26.7496 27.4537C29.1692 25.9516 31.4552 24.2444 33.5825 22.351C33.8004 22.1642 34.078 22.0615 34.3651 22.0615C34.6521 22.0615 34.9297 22.1642 35.1477 22.351C35.279 22.4539 35.3853 22.5851 35.4587 22.7348C35.5321 22.8846 35.5707 23.049 35.5716 23.2158C35.5747 23.3782 35.5432 23.5393 35.4791 23.6885C35.4149 23.8377 35.3197 23.9715 35.1997 24.0809C32.9593 26.0699 30.5486 27.8584 27.9953 29.4258H27.9263L25.7555 30.6364C24.8379 31.1564 23.8004 31.4276 22.7458 31.4234C21.6563 31.4236 20.5857 31.1387 19.6405 30.5971C18.6952 30.0554 17.9082 29.2758 17.3575 28.3358L12.7302 20.3359C3.8395 26.615 -1.55723 38.7141 1.34022 54.0655C1.39161 54.3222 1.52965 54.5533 1.7312 54.7202C1.93275 54.8871 2.18556 54.9797 2.44724 54.9824H7.72315C7.99732 54.9823 8.26203 54.8821 8.46746 54.7005C8.6729 54.519 8.80491 54.2686 8.83865 53.9965C9.32517 50.1348 12.6091 47.2385 16.5015 47.2385C20.3936 47.2385 23.6778 50.1348 24.1641 53.9965C24.1998 54.2693 24.3337 54.5198 24.5405 54.7012C24.7474 54.8826 25.0132 54.9825 25.2883 54.9824H30.4256C30.6998 54.9824 30.9646 54.8822 31.1701 54.7006C31.3756 54.5191 31.5076 54.2686 31.5414 53.9965C32.0434 50.145 35.3244 47.264 39.2083 47.264C43.0922 47.264 46.3732 50.145 46.8753 53.9962C46.909 54.2683 47.041 54.5188 47.2465 54.7003C47.452 54.8819 47.7168 54.9821 47.991 54.9821H53.0677C53.6821 54.9821 54.1824 54.4895 54.192 53.8754C54.3131 46.7228 56.2416 38.5067 61.7422 34.3899C80.795 20.137 75.7874 7.91674 71.3766 3.47988ZM51.9434 25.041L48.3108 23.2158C48.3094 22.8251 48.4082 22.4407 48.5978 22.0991C48.7875 21.7575 49.0615 21.4704 49.3939 21.265C49.7262 21.0596 50.1057 20.943 50.496 20.9262C50.8863 20.9094 51.2744 20.993 51.6231 21.1691C51.9719 21.3451 52.2696 21.6077 52.4879 21.9317C52.7062 22.2557 52.8377 22.6303 52.8698 23.0196C52.9019 23.409 52.8337 23.8 52.6715 24.1554C52.5093 24.5108 52.2586 24.8187 51.9434 25.0495V25.041Z"
            fill="#373737" />
    </g>
    <defs>
        <clipPath id="clip0_518_1537">
            <rect width="74.9" height="55" fill="white" transform="translate(0.550049)" />
        </clipPath>
    </defs>
</svg>