<svg width="55" height="55" viewBox="0 0 64 55" fill="none" xmlns="http://www.w3.org/2000/svg">
<g clip-path="url(#clip0_518_1263)">
<path d="M56.6271 16.0327C56.4991 15.8968 56.3671 15.7647 56.2311 15.6367C56.0967 15.5099 55.9696 15.3674 55.8351 15.2407C55.7004 15.1136 55.5736 14.9714 55.4391 14.8447C55.3044 14.7176 55.1776 14.5751 55.0431 14.4485C54.9082 14.3216 54.7816 14.1791 54.6471 14.0525C54.5122 13.9256 54.3856 13.7831 54.2509 13.6565C54.1162 13.5294 53.9893 13.3871 53.8549 13.2605C57.7839 17.1218 60.0348 22.3748 60.1205 27.8829C60.1205 41.0084 46.797 51.6862 30.4158 51.6862C21.2431 51.6862 13.0366 48.3356 7.57886 43.0837L7.97486 43.4797L8.37086 43.8757L8.76686 44.2717L9.1631 44.6679L9.5591 45.0639L9.9551 45.4599L10.3513 45.8559C15.8012 51.3298 24.1898 54.8547 33.5843 54.8547C49.9655 54.8547 63.289 44.1769 63.289 31.091C63.289 25.4986 60.8809 20.1993 56.6271 16.0327Z" fill="black"/>
<path d="M58.1402 27.8828C58.1402 39.931 45.7276 49.6977 30.4158 49.6977C15.1041 49.6977 2.69141 39.931 2.69141 27.8828C2.69141 20.413 7.44414 13.8145 14.7474 9.90145C22.0512 5.98838 26.5978 1.98022 30.416 1.98022C34.2343 1.98022 37.4976 5.25187 46.0842 9.90145C53.3877 13.8145 58.1402 20.413 58.1402 27.8828Z" fill="#FBF0DF"/>
<path d="M58.14 27.8829C58.1362 26.3351 57.9229 24.795 57.5062 23.3044C55.3438 49.6822 23.1676 50.9494 10.5173 43.06C16.2041 47.4676 23.2216 49.8086 30.4156 49.6978C45.7036 49.6978 58.14 39.9152 58.14 27.8829Z" fill="#F6DECE"/>
<path d="M19.7461 8.45189C23.2866 6.32914 27.9919 2.34469 32.618 2.33662C31.9063 2.10659 31.1637 1.9864 30.4158 1.98022C28.4989 1.98022 26.4551 2.97022 23.8808 4.45962C22.9857 4.98249 22.059 5.5606 21.0766 6.16267C19.231 7.30325 17.1161 8.5944 14.7396 9.88556C7.19847 13.9653 2.69141 20.6902 2.69141 27.8828V28.8254C7.49205 11.8658 16.2131 10.5749 19.7461 8.45189Z" fill="#FFFEFC"/>
<path d="M28.1344 3.98455C28.1454 5.85492 27.7527 7.70564 26.983 9.41035C26.2134 11.1151 25.0849 12.6336 23.6747 13.8623C23.453 14.0603 23.6273 14.4404 23.9123 14.3297C26.5817 13.292 30.186 10.1868 28.6651 3.92124C28.6017 3.5646 28.1344 3.65969 28.1344 3.98455ZM29.9327 3.98455C30.9019 5.56601 31.5177 7.33833 31.7378 9.18003C31.9579 11.0217 31.7772 12.8892 31.208 14.6546C31.1132 14.9318 31.4537 15.1694 31.6439 14.9396C33.3784 12.7217 34.8915 8.31758 30.3605 3.5646C30.1307 3.35878 29.7743 3.67558 29.9327 3.95278V3.98455ZM32.1191 3.84986C33.637 4.9243 34.9068 6.3118 35.8429 7.91876C36.7789 9.52571 37.3594 11.3147 37.5452 13.1652C37.5381 13.2314 37.5565 13.2978 37.5967 13.351C37.6369 13.4041 37.6959 13.4399 37.7616 13.451C37.8273 13.4621 37.8947 13.4478 37.9502 13.4109C38.0056 13.374 38.0449 13.3173 38.06 13.2524C38.7887 10.4878 38.3768 5.77486 32.3804 3.327C32.0636 3.20038 31.8577 3.62815 32.1191 3.81833V3.84986ZM17.4961 12.0879C19.3016 11.5484 20.9731 10.6348 22.402 9.40655C23.831 8.17827 24.9852 6.66284 25.7897 4.95891C25.9324 4.67364 26.3837 4.78462 26.3128 5.10142C24.9422 11.4384 20.3557 12.7613 17.5042 12.587C17.2031 12.5949 17.2109 12.1752 17.4961 12.0879Z" fill="#CCBEA7"/>
<path d="M30.4158 51.6861C14.0346 51.6861 0.711182 41.0082 0.711182 27.8828C0.711182 19.9616 5.60643 12.5708 13.8051 8.14293C16.1813 6.87573 18.2173 5.60022 20.0311 4.4836C21.0292 3.86564 21.972 3.28729 22.8828 2.74878C25.6631 1.10122 28.0393 0 30.4158 0C32.7923 0 34.8676 0.950645 37.4656 2.48722C38.2578 2.93871 39.0501 3.4298 39.8976 3.96856C41.87 5.18833 44.0959 6.56676 47.0266 8.14293C55.2252 12.571 60.1205 19.9535 60.1205 27.8828C60.1205 41.0082 46.797 51.6861 30.4158 51.6861ZM30.4158 1.98024C28.4989 1.98024 26.4551 2.97024 23.8808 4.45964C22.9857 4.98251 22.059 5.56062 21.0766 6.16269C19.231 7.30327 17.1161 8.59442 14.7396 9.88558C7.19849 13.9654 2.69143 20.6903 2.69143 27.8828C2.69143 39.9151 15.1278 49.7058 30.4158 49.7058C45.7039 49.7058 58.1402 39.9151 58.1402 27.8828C58.1402 20.6903 53.6329 13.9651 46.0842 9.90147C43.0898 8.31747 40.7529 6.82807 38.8599 5.65571C37.9965 5.12527 37.2043 4.63393 36.4834 4.19833C34.0835 2.77249 32.3328 1.98024 30.4158 1.98024Z" fill="black"/>
<path d="M36.0002 33.6653C35.6443 35.1228 34.8342 36.4294 33.687 37.3963C32.8257 38.2311 31.7109 38.7551 30.5185 38.8854C29.2904 38.7757 28.1364 38.2504 27.2471 37.3963C26.1117 36.4248 25.313 35.1187 24.9657 33.6653C24.9542 33.579 24.9626 33.4912 24.9902 33.4087C25.0179 33.3261 25.0641 33.251 25.1253 33.189C25.1865 33.1271 25.261 33.08 25.3432 33.0513C25.4254 33.0227 25.5131 33.0132 25.5996 33.0237H35.3744C35.4602 33.0145 35.547 33.025 35.6282 33.0542C35.7093 33.0835 35.7828 33.1308 35.8431 33.1926C35.9033 33.2544 35.9488 33.329 35.976 33.4109C36.0032 33.4928 36.0115 33.5798 36.0002 33.6653Z" fill="#B71422"/>
<path d="M27.2472 37.4596C28.1348 38.3142 29.2846 38.8445 30.5108 38.9647C31.7342 38.8427 32.8809 38.3126 33.7663 37.4596C34.0496 37.1956 34.3143 36.9123 34.5586 36.6119C34.0706 36.0583 33.4745 35.6104 32.807 35.2957C32.1395 34.9811 31.4146 34.8063 30.677 34.7822C29.8879 34.8009 29.1151 35.0111 28.4252 35.3947C27.7353 35.7783 27.1489 36.3238 26.7166 36.9842C26.8987 37.1506 27.0571 37.3093 27.2472 37.4596Z" fill="#FF6164"/>
<path d="M27.374 36.8339C27.7667 36.3263 28.2694 35.9143 28.8442 35.629C29.4191 35.3436 30.0511 35.1922 30.6929 35.1863C31.8791 35.2212 33.0094 35.6987 33.8613 36.5249C34.0421 36.3272 34.2165 36.1238 34.3842 35.915C33.3765 34.9552 32.0447 34.4095 30.6533 34.3862C29.9097 34.3926 29.1767 34.5636 28.507 34.8867C27.8373 35.2099 27.2475 35.6774 26.7798 36.2555C26.9671 36.459 27.1656 36.6521 27.374 36.8339Z" fill="black"/>
<path d="M30.4868 39.3608C29.1669 39.245 27.9248 38.6867 26.9619 37.7765C25.7358 36.7394 24.8729 35.3379 24.4987 33.7762C24.4718 33.6372 24.4764 33.4939 24.512 33.3569C24.5476 33.2199 24.6134 33.0926 24.7045 32.9842C24.813 32.8531 24.9501 32.7485 25.1053 32.6785C25.2604 32.6085 25.4295 32.5748 25.5996 32.5801H35.3745C35.5443 32.5767 35.7128 32.6111 35.8676 32.681C36.0224 32.7509 36.1597 32.8545 36.2694 32.9842C36.3596 33.093 36.4242 33.2206 36.4585 33.3577C36.4928 33.4948 36.4958 33.6378 36.4674 33.7762C36.0933 35.3379 35.2304 36.7393 34.0044 37.7765C33.0437 38.6851 31.8044 39.2432 30.4873 39.3608M25.6001 33.499C25.4733 33.499 25.4417 33.5545 25.4339 33.5704C25.7687 34.9246 26.5261 36.1369 27.5963 37.0317C28.3789 37.8026 29.3964 38.2905 30.4875 38.4182C31.5759 38.2923 32.5923 37.8106 33.3788 37.0478C34.4456 36.1514 35.2001 34.9393 35.5334 33.5863C35.5161 33.5609 35.4922 33.5408 35.4642 33.5282C35.4363 33.5156 35.4054 33.511 35.375 33.5149L25.6001 33.499Z" fill="black"/>
<path d="M42.4716 34.1562C45.0308 34.1562 47.1055 32.9362 47.1055 31.4314C47.1055 29.9265 45.0308 28.7065 42.4716 28.7065C39.9123 28.7065 37.8376 29.9265 37.8376 31.4314C37.8376 32.9362 39.9123 34.1562 42.4716 34.1562Z" fill="#FEBBD0"/>
<path d="M18.494 34.1562C21.0533 34.1562 23.128 32.9362 23.128 31.4314C23.128 29.9265 21.0533 28.7065 18.494 28.7065C15.9348 28.7065 13.8601 29.9265 13.8601 31.4314C13.8601 32.9362 15.9348 34.1562 18.494 34.1562Z" fill="#FEBBD0"/>
<path d="M20.6722 30.338C21.5357 30.3396 22.3804 30.085 23.0992 29.6063C23.818 29.1277 24.3787 28.4466 24.7103 27.6492C25.0418 26.8518 25.1294 25.974 24.9619 25.1268C24.7944 24.2796 24.3793 23.5012 23.7692 22.89C23.1591 22.2788 22.3814 21.8623 21.5345 21.6933C20.6877 21.5243 19.8097 21.6103 19.0117 21.9404C18.2137 22.2706 17.5316 22.83 17.0517 23.548C16.5718 24.2659 16.3156 25.1101 16.3157 25.9737C16.3157 28.381 18.2649 30.3336 20.6722 30.338ZM40.2932 30.3382C41.1578 30.3445 42.0047 30.0938 42.7266 29.618C43.4485 29.1423 44.0128 28.4628 44.348 27.6658C44.6832 26.8689 44.7741 25.9903 44.6092 25.1416C44.4444 24.2929 44.0312 23.5123 43.4221 22.8987C42.8129 22.2852 42.0353 21.8664 41.1878 21.6954C40.3403 21.5245 39.4611 21.6091 38.6617 21.9385C37.8624 22.2679 37.1789 22.8273 36.6979 23.5458C36.2169 24.2642 35.9602 25.1093 35.9602 25.9739C35.9558 28.3739 37.8933 30.3253 40.2932 30.3385" fill="black"/>
<path d="M19.3259 26.2509C19.5412 26.2519 19.7547 26.2106 19.954 26.1291C20.1533 26.0476 20.3347 25.9277 20.4877 25.7762C20.6406 25.6246 20.7623 25.4445 20.8456 25.2459C20.929 25.0474 20.9724 24.8343 20.9735 24.619C20.9745 24.4037 20.9331 24.1903 20.8516 23.9909C20.7702 23.7916 20.6503 23.6102 20.4987 23.4573C20.3472 23.3043 20.167 23.1826 19.9684 23.0993C19.7699 23.0159 19.5569 22.9725 19.3415 22.9715C18.9067 22.9693 18.4888 23.1401 18.1798 23.4461C17.8708 23.7521 17.696 24.1684 17.6939 24.6032C17.6918 25.0381 17.8625 25.456 18.1685 25.765C18.4745 26.074 18.8908 26.2488 19.3257 26.2509M38.9465 26.2509C39.3807 26.2488 39.7963 26.0746 40.1022 25.7665C40.4081 25.4583 40.5793 25.0414 40.5783 24.6072C40.5772 24.173 40.404 23.757 40.0966 23.4503C39.7892 23.1437 39.3727 22.9715 38.9385 22.9715C38.5043 22.9715 38.0879 23.1437 37.7805 23.4503C37.4731 23.757 37.2999 24.173 37.2988 24.6072C37.2978 25.0414 37.469 25.4583 37.7749 25.7665C38.0808 26.0746 38.4964 26.2488 38.9306 26.2509H38.9465Z" fill="white"/>
</g>
<defs>
<clipPath id="clip0_518_1263">
<rect width="62.58" height="55" fill="white" transform="translate(0.709961)"/>
</clipPath>
</defs>
</svg>
