<svg width="64" height="55" viewBox="0 0 64 55" fill="none" xmlns="http://www.w3.org/2000/svg">
<g id="bunjs" clip-path="url(#clip0_664_160)">
<path id="Vector" d="M56.5312 17.7651C56.4061 17.6551 56.2809 17.5451 56.1558 17.4351C56.0306 17.3251 55.9054 17.2151 55.7803 17.1051C55.6551 16.9951 55.53 16.8851 55.4048 16.7751C55.2796 16.6651 55.1545 16.5551 55.0293 16.4451C54.9042 16.3351 54.779 16.2251 54.6538 16.1151C54.5287 16.0051 54.4035 15.8951 54.2784 15.7851C54.1532 15.6751 54.028 15.5651 53.9029 15.4551C57.7828 18.8101 60.0357 23.3751 60.0983 28.1601C60.0983 39.5451 46.9565 48.8401 30.7483 48.8401C21.6742 48.8401 13.6014 45.9251 8.21948 41.3601L8.59496 41.6901L8.97044 42.0201L9.34592 42.3501L9.7214 42.6801L10.0969 43.0101L10.4724 43.3401L10.8478 43.6701C16.2297 48.4001 24.4903 51.4801 33.8147 51.4801C49.9603 51.4801 63.1647 42.1851 63.1647 30.8551C63.1021 25.9601 60.7241 21.3951 56.5312 17.7651Z" fill="black"/>
<path id="Vector_2" d="M58.0331 28.0499C58.0331 38.4999 45.7675 46.9699 30.6231 46.9699C15.4787 46.9699 3.27563 38.4999 3.27563 28.0499C3.27563 21.5599 7.96913 15.8399 15.1658 12.4299C22.3625 9.01993 26.8683 5.55493 30.6231 5.55493C34.3779 5.55493 37.6321 8.41493 46.1429 12.4299C53.3396 15.8399 58.0331 21.5599 58.0331 28.0499Z" fill="#F1F1F1"/>
<path id="Vector_3" d="M58.0333 28.0501C58.0333 26.7301 57.8456 25.3551 57.4075 24.0901C55.2798 46.9701 23.4891 48.0701 10.9731 41.2501C16.6053 45.1001 23.4891 47.0801 30.6233 47.0251C45.7676 46.9701 58.0333 38.5001 58.0333 28.0501Z" fill="#E3E3E3"/>
<path id="Vector_4" d="M20.1097 11.1649C23.6141 9.34993 28.2451 5.88493 32.8134 5.88493C32.125 5.66493 31.3741 5.55493 30.6231 5.55493C28.7457 5.55493 26.7431 6.43493 24.1774 7.69993C23.3012 8.13993 22.3625 8.63493 21.4238 9.18493C19.609 10.1749 17.5439 11.2749 15.1658 12.4299C7.71882 15.9499 3.27563 21.7799 3.27563 28.0499C3.27563 28.3249 3.27563 28.5999 3.27563 28.8749C8.03171 14.1349 16.6678 13.0349 20.1097 11.1649Z" fill="#FEFEFE"/>
<path id="Vector_5" fill-rule="evenodd" clip-rule="evenodd" d="M28.4329 7.31503C28.4329 8.96503 28.0575 10.56 27.3065 12.045C26.5555 13.53 25.4291 14.85 24.0523 15.895C23.8646 16.06 23.9898 16.39 24.3027 16.28C26.931 15.4 30.4981 12.705 28.9962 7.26003C28.871 6.93003 28.4329 7.04003 28.4329 7.31503ZM30.1852 7.31503C31.1239 8.69003 31.7497 10.23 31.9374 11.825C32.1252 13.42 32 15.07 31.4368 16.555C31.3742 16.775 31.6871 16.995 31.8748 16.83C33.5645 14.905 35.0664 11.055 30.6232 6.93003C30.3729 6.76503 30.06 7.04003 30.1852 7.31503ZM32.3755 7.20503C33.8774 8.14003 35.129 9.35003 36.0677 10.725C37.0064 12.1 37.5696 13.695 37.7574 15.29C37.7574 15.345 37.7574 15.4 37.8199 15.455C37.8825 15.51 37.9451 15.51 38.0077 15.565C38.0703 15.565 38.1328 15.565 38.1954 15.51C38.258 15.455 38.258 15.4 38.3206 15.345C39.0715 12.925 38.6335 8.85503 32.6884 6.71003C32.3129 6.60003 32.1252 6.98503 32.3755 7.20503ZM17.9195 14.355C19.6717 13.86 21.3614 13.09 22.7382 12.045C24.1775 11 25.3039 9.68003 26.0549 8.19503C26.1801 7.97503 26.6181 8.03003 26.5555 8.30503C25.2413 13.75 20.7356 14.905 17.9195 14.795C17.6066 14.795 17.6066 14.41 17.9195 14.355Z" fill="#C0C0C0"/>
<path id="Vector_6" d="M30.6857 48.7301C14.4775 48.7301 1.33569 39.4351 1.33569 28.0501C1.33569 21.1751 6.15435 14.7401 14.2898 10.9451C16.6678 9.8451 18.6704 8.7451 20.4226 7.7551C21.4239 7.2051 22.3626 6.7101 23.2387 6.2701C25.9922 4.7851 28.3077 3.8501 30.6857 3.8501C33.0638 3.8501 35.0663 4.6751 37.6321 5.9951C38.3831 6.3801 39.1966 6.8201 40.0101 7.2601C41.9501 8.3051 44.1404 9.5151 47.0191 10.8901C55.1545 14.7401 60.0357 21.1751 60.0357 28.0501C60.0357 39.4351 46.8314 48.7301 30.6857 48.7301ZM30.6857 5.5551C28.8083 5.5551 26.8058 6.4351 24.24 7.7001C23.3639 8.1401 22.4252 8.6351 21.4865 9.1851C19.6716 10.1751 17.6065 11.2751 15.2285 12.4301C7.71885 15.9501 3.27567 21.7801 3.27567 28.0501C3.27567 38.5001 15.5414 46.9701 30.6857 46.9701C45.8301 46.9701 58.0332 38.5001 58.0332 28.0501C58.0332 21.8351 53.59 15.9501 46.143 12.4301C43.2017 11.0551 40.8863 9.7351 39.0089 8.7451C38.1327 8.3051 37.3818 7.8651 36.6308 7.4801C34.3154 6.2701 32.5631 5.5551 30.6857 5.5551Z" fill="black"/>
<path id="Vector_7" d="M36.1927 33.0551C35.8172 34.3201 35.0663 35.4751 33.8773 36.3001C33.0011 37.0151 31.9373 37.4551 30.7483 37.5651C29.5592 37.4551 28.3702 37.0151 27.4941 36.3001C26.3677 35.4751 25.5541 34.3201 25.2412 33.0551C25.2412 33.0001 25.2412 32.8901 25.2412 32.8351C25.2412 32.7801 25.3038 32.7251 25.3664 32.6701C25.429 32.6151 25.4915 32.5601 25.5541 32.5601C25.6167 32.5601 25.7418 32.5051 25.8044 32.5601H35.4418C35.5043 32.5601 35.6295 32.5601 35.6921 32.5601C35.7547 32.5601 35.8172 32.6151 35.8798 32.6701C35.9424 32.7251 36.005 32.7801 36.005 32.8351C36.1927 32.9451 36.1927 33.0001 36.1927 33.0551Z" fill="#464646"/>
<path id="Vector_8" d="M27.5568 36.3549C28.4329 37.0699 29.5593 37.5649 30.7484 37.6749C31.9374 37.5649 33.0638 37.1249 33.9399 36.3549C34.1903 36.1349 34.5032 35.8599 34.6909 35.6399C34.1903 35.1449 33.627 34.7599 32.9387 34.4849C32.2503 34.2099 31.5619 34.0449 30.8109 34.0449C30.06 34.0449 29.2464 34.2649 28.5581 34.5949C27.8697 34.9249 27.3065 35.4199 26.8684 35.9699C27.1813 36.0799 27.369 36.2449 27.5568 36.3549Z" fill="#919191"/>
<path id="Vector_9" d="M27.682 35.8049C28.0574 35.3649 28.5581 34.9799 29.1213 34.7599C29.6845 34.4849 30.3103 34.3749 30.9361 34.3749C32.1251 34.4299 33.2516 34.8149 34.0651 35.5299C34.2529 35.3649 34.4406 35.1999 34.5658 34.9799C33.5645 34.1549 32.2503 33.6599 30.8735 33.6599C30.1226 33.6599 29.4342 33.8249 28.7458 34.0999C28.0574 34.3749 27.4942 34.7599 27.0562 35.3099C27.2439 35.4749 27.4316 35.6399 27.682 35.8049Z" fill="black"/>
<path id="Vector_10" d="M30.7483 38.0049C29.4341 37.8949 28.2451 37.3999 27.2438 36.6299C26.0548 35.7499 25.1787 34.5399 24.8032 33.1649C24.8032 33.0549 24.8032 32.9449 24.8032 32.7799C24.8658 32.6699 24.9284 32.5599 24.991 32.4499C25.1161 32.3399 25.2413 32.2299 25.3664 32.1749C25.4916 32.1199 25.6793 32.0649 25.8671 32.0649H35.5044C35.6921 32.0649 35.8173 32.0649 36.005 32.1749C36.1302 32.2299 36.3179 32.3399 36.3805 32.4499C36.4431 32.5599 36.5057 32.6699 36.5683 32.7799C36.6308 32.8899 36.6308 32.9999 36.5683 33.1649C36.1928 34.5399 35.3167 35.7499 34.1276 36.6299C33.2515 37.3999 32.0625 37.8949 30.7483 38.0049ZM25.9297 32.9449C25.8045 32.9449 25.8045 32.9999 25.7419 32.9999C26.0548 34.1549 26.8058 35.2549 27.8696 36.0249C28.6206 36.6849 29.6219 37.1249 30.7483 37.2349C31.8122 37.1249 32.8135 36.6849 33.627 36.0249C34.6909 35.2549 35.4418 34.2099 35.7547 32.9999L35.6921 32.9449H35.6296H25.9297Z" fill="black"/>
<path id="Vector_11" d="M42.5759 33.4949C45.0791 33.4949 47.1442 32.4499 47.1442 31.1299C47.1442 29.8099 45.0791 28.7649 42.5759 28.7649C40.0727 28.7649 38.0076 29.8099 38.0076 31.1299C38.0076 32.4499 40.0727 33.4949 42.5759 33.4949Z" fill="#D1D1D1"/>
<path id="Vector_12" d="M18.9206 33.4949C21.4238 33.4949 23.489 32.4499 23.489 31.1299C23.489 29.8099 21.4238 28.7649 18.9206 28.7649C16.4174 28.7649 14.3523 29.8099 14.3523 31.1299C14.3523 32.4499 16.3549 33.4949 18.9206 33.4949Z" fill="#D1D1D1"/>
<path id="Vector_13" fill-rule="evenodd" clip-rule="evenodd" d="M21.0486 30.195C21.9247 30.195 22.7382 29.975 23.4266 29.535C24.115 29.095 24.6782 28.545 24.9911 27.83C25.304 27.115 25.4292 26.4 25.2414 25.63C25.0537 24.915 24.6782 24.2 24.0524 23.705C23.4266 23.155 22.6756 22.825 21.8621 22.66C21.0486 22.495 20.1724 22.605 19.3589 22.88C18.5454 23.155 17.9196 23.65 17.4189 24.255C16.9183 24.86 16.668 25.63 16.668 26.345C16.668 27.335 17.106 28.325 17.9196 29.04C18.7957 29.755 19.9221 30.195 21.0486 30.195ZM40.4484 30.195C41.3245 30.195 42.138 29.975 42.8264 29.59C43.5148 29.15 44.078 28.6 44.4535 27.885C44.7664 27.17 44.8916 26.455 44.7038 25.685C44.5161 24.97 44.1406 24.255 43.5148 23.76C42.889 23.21 42.138 22.88 41.3245 22.715C40.511 22.55 39.6348 22.66 38.8213 22.935C38.0078 23.21 37.3819 23.705 36.8813 24.31C36.3807 24.915 36.1303 25.685 36.1303 26.4C36.1303 27.39 36.5684 28.38 37.3819 29.095C38.1955 29.755 39.2593 30.195 40.4484 30.195Z" fill="black"/>
<path id="Vector_14" fill-rule="evenodd" clip-rule="evenodd" d="M19.7342 26.6199C20.0471 26.6199 20.36 26.5649 20.6103 26.3999C20.8606 26.2349 21.1109 26.0149 21.2361 25.7399C21.3613 25.4649 21.4238 25.1899 21.3613 24.9149C21.2987 24.6399 21.1735 24.3649 20.9232 24.1999C20.6729 23.9799 20.4226 23.8699 20.1097 23.8149C19.7968 23.7599 19.4839 23.7599 19.171 23.8699C18.8581 23.9799 18.6077 24.1449 18.42 24.4199C18.2323 24.6399 18.1697 24.9149 18.1697 25.1899C18.1697 25.5749 18.3574 25.9049 18.6703 26.1799C18.8581 26.4549 19.2961 26.6199 19.7342 26.6199ZM39.0714 26.6199C39.3843 26.6199 39.6972 26.5649 39.9475 26.3999C40.1978 26.2349 40.4482 26.0149 40.5733 25.7399C40.6985 25.4649 40.7611 25.1899 40.6985 24.9149C40.6359 24.6399 40.5107 24.3649 40.2604 24.1999C40.0101 23.9799 39.7598 23.8699 39.4469 23.8149C39.134 23.7599 38.8211 23.7599 38.5082 23.8699C38.1953 23.9799 37.945 24.1449 37.7572 24.4199C37.5695 24.6949 37.5069 24.9149 37.5069 25.1899C37.5069 25.5749 37.6946 25.9049 37.945 26.1799C38.1953 26.4549 38.6333 26.6199 39.0714 26.6199Z" fill="white"/>
</g>
<defs>
<clipPath id="clip0_664_160">
<rect width="62.58" height="55" fill="white" transform="translate(0.709961)"/>
</clipPath>
</defs>
</svg>
