<svg width="56" height="57" viewBox="0 0 56 57" fill="none" xmlns="http://www.w3.org/2000/svg">
<path d="M23.45 19.4001L23.5666 22.0834L21.7 25.5834L18.7833 31.3L18.2 36.0834L20.3 42.85L25.0833 45.5334H32.3166L39.0833 40.4L42.1166 32.35L35.1166 23.8334L33.1333 19.05L23.45 19.4001Z" fill="#ECEFF1"/>
<path d="M40.0167 26.0501C38.15 23.3667 36.6334 21.7334 35.8167 18.3501C35.0001 14.9667 36.05 15.9001 35.35 12.9834C35 11.4667 34.4167 10.4167 33.8334 9.60006C33.1334 8.78339 32.3167 8.31673 31.85 8.20006C30.8 7.61673 28.3501 6.68339 25.3167 8.31673C22.1667 9.95006 22.5167 13.4501 23.1 20.5667C23.1 21.0334 22.9834 21.6167 22.7501 22.0834C22.2834 23.1334 21.4667 24.0667 20.7667 24.8834C19.9501 26.0501 19.1334 27.2167 18.5501 28.5001C17.1501 31.1834 15.8667 34.5667 16.2167 35.8501C16.8001 35.7334 24.1501 46.9334 24.1501 47.1667C24.6167 47.0501 26.6 47.0501 28.35 47.0501C30.8 46.9334 32.2001 46.8167 34.1834 47.2834C34.1834 46.9334 34.0667 46.5834 34.0667 46.2334C34.0667 45.5334 34.1834 44.9501 34.3001 44.1334C34.4167 43.5501 34.5334 42.9667 34.6501 42.2667C33.4834 43.3167 31.3834 44.4834 29.4001 44.8334C27.6501 45.1834 24.7334 44.6001 23.3334 42.8501C23.4501 42.8501 23.6834 42.8501 23.8001 42.7334C24.1501 42.6167 24.5001 42.5001 24.6167 42.2667C24.9667 41.6834 24.7334 41.1001 24.5001 40.7501C24.2667 40.4001 22.5167 39.1167 21.7001 38.4167C20.8834 37.7167 20.4167 37.3667 19.9501 36.9001L19.0167 35.9667C18.7834 35.7334 18.6667 35.5001 18.5501 35.3834C18.3167 34.8001 18.2001 34.1001 18.3167 33.1667C18.4334 31.8834 18.9001 30.8334 19.4834 29.6667C19.7167 29.2001 20.3001 28.2667 20.3001 28.2667C20.3001 28.2667 18.3167 33.1667 19.3667 34.6834C19.3667 34.6834 19.4834 33.1667 19.9501 31.6501C20.3001 30.6001 20.8834 29.0834 21.5834 28.2667C22.2834 27.4501 24.0334 24.4167 24.1501 22.5501C24.1501 21.7334 24.2667 20.9167 24.2667 20.3334C23.8001 19.8667 31.9667 18.7001 32.4334 19.9834C32.55 20.4501 34.1834 24.6501 35.1167 26.8667C35.5834 27.9167 36.1667 28.8501 36.5167 30.0167C36.8667 31.3001 37.1 33.0501 37.1 34.8001C37.1 35.1501 37.1001 35.7334 36.9834 36.3167C37.2167 36.3167 41.7667 31.4167 36.4001 27.3334C36.4001 27.3334 39.6667 28.8501 39.7834 31.8834C39.9 34.3334 38.85 36.3167 38.6167 36.6667C38.7334 36.6667 41.0667 37.7167 41.1834 37.7167C41.65 37.7167 42.5834 37.3667 42.5834 37.3667C42.7001 37.0167 43.0501 36.0834 43.0501 35.7334C43.8667 33.0501 41.8834 28.7334 40.0167 26.0501Z" fill="#263238"/>
<path d="M25.2 18.3498C26.0376 18.3498 26.7167 17.3051 26.7167 16.0164C26.7167 14.7278 26.0376 13.6831 25.2 13.6831C24.3624 13.6831 23.6833 14.7278 23.6833 16.0164C23.6833 17.3051 24.3624 18.3498 25.2 18.3498Z" fill="#ECEFF1"/>
<path d="M30.45 18.5832C31.5454 18.5832 32.4333 17.3819 32.4333 15.8999C32.4333 14.4179 31.5454 13.2166 30.45 13.2166C29.3546 13.2166 28.4667 14.4179 28.4667 15.8999C28.4667 17.3819 29.3546 18.5832 30.45 18.5832Z" fill="#ECEFF1"/>
<path d="M26.048 16.176C25.9511 15.4089 25.5097 14.8329 25.0622 14.8895C24.6148 14.946 24.3306 15.6137 24.4276 16.3808C24.5245 17.1479 24.9659 17.7239 25.4134 17.6674C25.8608 17.6108 26.145 16.9431 26.048 16.176Z" fill="#212121"/>
<path d="M30.3333 17.8832C30.9776 17.8832 31.5 17.2042 31.5 16.3665C31.5 15.5289 30.9776 14.8499 30.3333 14.8499C29.689 14.8499 29.1666 15.5289 29.1666 16.3665C29.1666 17.2042 29.689 17.8832 30.3333 17.8832Z" fill="#212121"/>
<path d="M45.8499 42.0332C45.3833 41.7999 44.5666 41.4499 43.8666 40.3999C43.5166 39.8166 43.6333 38.1833 43.0499 37.4833C42.7 37.0166 42.2333 37.2499 42.1166 37.2499C41.0666 37.4833 38.6166 39.1166 36.9833 37.2499C36.75 37.0166 36.4 36.6666 35.8166 36.6666C35.2333 36.6666 34.9999 36.8999 34.7666 37.3666C34.5333 37.8333 34.5333 38.1833 34.5333 39.3499C34.5333 40.2833 34.5333 41.3333 34.4166 42.1499C34.1833 44.1333 33.8333 45.2999 33.8333 46.4666C33.8333 47.7499 34.1833 48.5666 34.65 48.9166C35 49.2666 35.5833 49.4999 36.8666 49.4999C38.15 49.4999 38.9666 49.0333 39.7833 48.2166C40.3666 47.6333 40.8333 47.3999 42.4666 46.2333C43.75 45.4166 45.7333 44.3666 46.0833 44.0166C46.3166 43.7833 46.6666 43.6666 46.6666 42.9666C46.6666 42.3833 46.1999 42.1499 45.8499 42.0332ZM22.4 42.3833C21.2333 40.5166 21.1166 40.1666 20.2999 38.9999C19.5999 37.8333 18.0833 35.6166 17.1499 35.6166C16.4499 35.6166 16.0999 35.9666 15.6333 36.4333C15.1666 36.8999 14.6999 37.9499 13.8833 38.5332C13.1833 39.1166 11.1999 38.9999 10.7333 39.6999C10.2666 40.3999 11.1999 41.4499 11.1999 43.1999C11.1999 43.8999 10.6166 44.3666 10.4999 44.8333C10.3833 45.4166 10.2666 45.7666 10.4999 46.2333C10.9666 46.9333 11.5499 47.1666 15.5166 47.9833C17.6166 48.4499 19.5999 49.6166 20.8833 49.7333C22.1666 49.8499 24.3833 49.7332 24.3833 46.5833C24.4999 44.7166 23.4499 44.2499 22.4 42.3833ZM24.6166 21.2666C23.9166 20.7999 23.3333 20.3333 23.3333 19.6333C23.3333 18.9333 23.7999 18.6999 24.4999 18.1166C24.6166 17.9999 25.8999 16.8333 27.1833 16.8333C28.4666 16.8333 29.9833 17.6499 30.5666 17.8833C31.6166 18.1166 32.6666 18.3499 32.5499 19.1666C32.4333 20.3333 32.3166 20.5666 31.15 21.1499C30.3333 21.3833 28.8166 22.6666 27.7666 22.6666C27.2999 22.6666 26.5999 22.6666 26.1333 22.5499C25.7833 22.4333 25.1999 21.8499 24.6166 21.2666Z" fill="#FFC107"/>
<path d="M24.3833 20.3332C24.6166 20.5666 24.9666 20.7999 25.3166 20.9166C25.55 21.0332 25.9 21.1499 25.9 21.1499H26.95C27.5333 21.1499 28.35 20.9166 29.1666 20.4499C29.9833 20.0999 30.1 19.8666 30.6833 19.6332C31.2666 19.2832 31.85 18.9332 31.6166 18.8166C31.3833 18.6999 31.15 18.8166 30.3333 19.2832C29.6333 19.7499 29.05 19.9832 28.35 20.3332C28 20.4499 27.5333 20.6832 27.1833 20.6832H26.1333C25.7833 20.6832 25.55 20.5666 25.2 20.4499C24.9666 20.3332 24.85 20.2166 24.7333 20.2166C24.5 20.0999 24.0333 19.6332 23.8 19.5166C23.8 19.5166 23.5666 19.5166 23.6833 19.6332L24.3833 20.3332ZM27.8833 17.7666C28 17.9999 28.2333 17.9999 28.35 18.1166C28.4666 18.2332 28.5833 18.2332 28.5833 18.2332C28.7 18.1166 28.5833 17.8832 28.4666 17.8832C28.4666 17.6499 27.8833 17.6499 27.8833 17.7666ZM26.0166 17.9999C26.0166 18.1166 26.25 18.2332 26.25 18.1166C26.3666 17.9999 26.4833 17.8832 26.6 17.8832C26.8333 17.7666 26.7166 17.6499 26.3666 17.6499C26.1333 17.7666 26.1333 17.8832 26.0166 17.9999Z" fill="#634703"/>
<path d="M37.3334 38.65V39C37.5667 39.4667 38.15 39.5833 38.6167 39.5833C39.3167 39.5833 40.0167 39.1167 40.3667 38.65C40.3667 38.5333 40.4834 38.4167 40.6 38.3C40.8334 37.95 40.95 37.7167 41.0667 37.6C41.0667 37.6 40.95 37.4833 40.95 37.3667C40.8334 37.1333 40.4834 36.9 40.0167 36.7833C39.6667 36.6667 39.0834 36.55 38.85 36.55C37.8 36.4333 37.2167 36.7833 36.8667 37.1333C36.8667 37.1333 36.9834 37.1333 36.9834 37.25C37.2167 37.4833 37.3334 37.7167 37.3334 38.0667C37.45 38.3 37.3334 38.4167 37.3334 38.65Z" fill="#455A64"/>
</svg>
