<svg width="56" height="56" viewBox="0 0 56 56" fill="none" xmlns="http://www.w3.org/2000/svg">
    <g clip-path="url(#clip0_380_526)">
        <path
            d="M20.7759 43.2777C20.7759 43.2777 18.6779 44.4978 22.269 44.9106C26.6195 45.4068 28.8429 45.3358 33.6373 44.4283C33.6373 44.4283 34.8978 45.2186 36.658 45.9033C25.9106 50.5094 12.3342 45.6364 20.7759 43.2777ZM19.4625 37.2668C19.4625 37.2668 17.1095 39.0087 20.7032 39.3804C25.3506 39.8598 29.0206 39.8991 35.3714 38.6762C35.3714 38.6762 36.2498 39.5667 37.631 40.0537C24.6365 43.8535 10.1631 40.3534 19.4625 37.2668Z"
            fill="#5382A1"></path>
        <path
            d="M30.5341 27.0704C33.1823 30.1193 29.8383 32.8629 29.8383 32.8629C29.8383 32.8629 36.5625 29.3917 33.4744 25.0448C30.5902 20.9914 28.3783 18.977 40.3522 12.0327C40.3522 12.0327 21.5572 16.7269 30.5341 27.0704Z"
            fill="#E76F00"></path>
        <path
            d="M44.7486 47.7237C44.7486 47.7237 46.3012 49.0028 43.0387 49.9925C36.8352 51.8719 17.2186 52.4394 11.7691 50.0674C9.81028 49.2153 13.4838 48.0327 14.6393 47.7844C15.8444 47.5231 16.5332 47.5719 16.5332 47.5719C14.3546 46.0371 2.45205 50.5852 10.4873 51.8876C32.4003 55.4413 50.4326 50.2875 44.7486 47.7237ZM21.7847 31.0389C21.7847 31.0389 11.8067 33.409 18.2514 34.2695C20.9724 34.6338 26.3969 34.5515 31.4498 34.128C35.5792 33.7799 39.7257 33.0391 39.7257 33.0391C39.7257 33.0391 38.2696 33.6627 37.2162 34.382C27.0835 37.047 7.50887 35.8073 13.1441 33.0813C17.9099 30.7776 21.7847 31.0389 21.7847 31.0389ZM39.6845 41.0442C49.9851 35.6917 45.2225 30.5481 41.8983 31.2411C41.0835 31.4106 40.7203 31.5575 40.7203 31.5575C40.7203 31.5575 41.0228 31.0838 41.6004 30.8787C48.1766 28.5666 53.2342 37.6976 39.4775 41.3139C39.4775 41.3141 39.637 41.1717 39.6845 41.0442Z"
            fill="#5382A1"></path>
        <path
            d="M33.4744 0.819251C33.4744 0.819251 39.179 6.5259 28.0639 15.3006C19.1509 22.3397 26.0315 26.3531 28.0603 30.9386C22.8575 26.2445 19.0393 22.1122 21.601 18.2663C25.3605 12.6206 35.776 9.8836 33.4744 0.819251Z"
            fill="#E76F00"></path>
        <path
            d="M22.797 55.548C32.6841 56.181 47.8668 55.1969 48.2264 50.5186C48.2264 50.5186 47.5352 52.2922 40.0552 53.7006C31.6164 55.2886 21.2083 55.1033 15.0352 54.0854C15.0353 54.0854 16.2987 55.1314 22.797 55.548Z"
            fill="#5382A1"></path>
    </g>
    <defs>
        <clipPath id="clip0_380_526">
            <rect width="55" height="55" fill="white" transform="translate(0.5 0.760254)"></rect>
        </clipPath>
    </defs>
</svg>