<svg width="56" height="56" viewBox="0 0 56 56" fill="none" xmlns="http://www.w3.org/2000/svg">
    <g clip-path="url(#clip0_110_407)">
        <path
            d="M28.0017 11.7412C20.6682 11.7412 16.0865 15.4064 14.2517 22.7399C17.0008 19.0743 20.2102 17.6997 23.8758 18.6162C25.9689 19.1379 27.4646 20.6555 29.121 22.3373C31.8169 25.0731 34.9373 28.2404 41.7517 28.2404C49.0848 28.2404 53.6669 24.5747 55.5017 17.2395C52.7521 20.9073 49.5432 22.2819 45.8771 21.3654C43.7846 20.8433 42.2905 19.3261 40.6319 17.6443C37.9378 14.9084 34.8183 11.7412 28.0017 11.7412ZM14.2517 28.2404C6.91866 28.2404 2.33647 31.906 0.501709 39.2412C3.25085 35.5734 6.45976 34.1988 10.1258 35.1154C12.2189 35.6374 13.7146 37.1547 15.371 38.8364C18.0669 41.5723 21.1873 44.7395 28.0017 44.7395C35.3348 44.7395 39.9169 41.0743 41.7517 33.7408C39.0021 37.4064 35.7932 38.781 32.1271 37.8645C30.0346 37.3429 28.5405 35.8252 26.8819 34.1434C24.1878 31.4076 21.0683 28.2404 14.2517 28.2404Z"
            fill="#848484"></path>
    </g>
    <defs>
        <clipPath id="clip0_110_407">
            <rect width="55" height="55" fill="white" transform="translate(0.5 0.740234)"></rect>
        </clipPath>
    </defs>
</svg>