<svg width="56" height="56" viewBox="0 0 56 56" fill="none" xmlns="http://www.w3.org/2000/svg">
    <path
        d="M10.4688 43.0415L10.7609 42.6342L24.5453 16.4851L24.5745 16.2084L18.4987 4.79591C18.3875 4.58722 18.2135 4.41878 18.0013 4.31443C17.789 4.21008 17.5494 4.1751 17.3162 4.21444C17.083 4.25378 16.8681 4.36545 16.7018 4.53365C16.5356 4.70185 16.4265 4.91806 16.3898 5.1517L10.4688 43.0415Z"
        fill="#FFC24A"></path>
    <path
        d="M10.6406 42.7322L10.8606 42.3025L24.5023 16.425L18.442 4.96782C18.3421 4.76857 18.1803 4.60707 17.9808 4.50751C17.7814 4.40795 17.5551 4.37569 17.3358 4.41556C17.1164 4.45544 16.916 4.5653 16.7643 4.72869C16.6127 4.89209 16.5181 5.10021 16.4947 5.32189L10.6406 42.7322Z"
        fill="#FFA712"></path>
    <path
        d="M29.0037 24.8399L33.5274 20.1992L29.002 11.5694C28.9024 11.3837 28.7543 11.2284 28.5734 11.1202C28.3926 11.012 28.1858 10.9548 27.975 10.9548C27.7643 10.9548 27.5575 11.012 27.3766 11.1202C27.1958 11.2284 27.0477 11.3837 26.9481 11.5694L24.5298 16.1791V16.5727L29.0037 24.8399Z"
        fill="#F4BD62"></path>
    <path
        d="M28.923 24.6509L33.3213 20.1478L28.923 11.7603C28.851 11.5787 28.7281 11.4219 28.5689 11.3086C28.4098 11.1954 28.2213 11.1306 28.0262 11.1221C27.8311 11.1135 27.6377 11.1616 27.4693 11.2605C27.3009 11.3594 27.1647 11.5049 27.0771 11.6795L24.6468 16.37L24.5746 16.6089L28.923 24.6509Z"
        fill="#FFA50E"></path>
    <path
        d="M10.4722 43.0432L10.6045 42.9091L11.084 42.7149L28.7184 25.1458L28.9419 24.5374L24.5436 16.1533L10.4722 43.0432Z"
        fill="#F6820C"></path>
    <path
        d="M29.5675 51.9033L45.5313 43.0019L40.9697 14.933C40.937 14.7351 40.8504 14.5501 40.7194 14.3982C40.5885 14.2463 40.4182 14.1335 40.2273 14.072C40.0364 14.0106 39.8322 14.0029 39.6372 14.0499C39.4423 14.0969 39.264 14.1967 39.122 14.3383L10.4688 43.0414L26.338 51.9016C26.8313 52.1769 27.3869 52.3214 27.9519 52.3214C28.5168 52.3214 29.0724 52.1769 29.5658 51.9016"
        fill="#FDE068"></path>
    <path
        d="M45.3852 42.928L40.8614 15.0705C40.8534 14.8813 40.7895 14.6986 40.6776 14.5458C40.5658 14.3929 40.4111 14.2766 40.2332 14.2116C40.0553 14.1467 39.862 14.1359 39.678 14.1808C39.494 14.2257 39.3274 14.3242 39.1994 14.4638L10.6406 42.9882L26.3345 51.7538C26.824 52.0269 27.3751 52.1702 27.9355 52.1702C28.496 52.1702 29.0471 52.0269 29.5366 51.7538L45.3852 42.928Z"
        fill="#FCCA3F"></path>
    <path
        d="M29.5675 51.6351C29.0741 51.9104 28.5186 52.055 27.9536 52.055C27.3886 52.055 26.833 51.9104 26.3397 51.6351L10.5994 42.9073L10.4688 43.0414L26.338 51.9015C26.8313 52.1768 27.3869 52.3214 27.9519 52.3214C28.5168 52.3214 29.0724 52.1768 29.5658 51.9015L45.5313 43.0019L45.4917 42.7612L29.5675 51.6351Z"
        fill="#EEAB37"></path>
</svg>