<svg width="56" height="55" viewBox="0 0 56 55" fill="none" xmlns="http://www.w3.org/2000/svg">
<g id="firebase" clip-path="url(#clip0_661_3156)">
<path id="Vector" d="M34.27 19.8549L28.77 24.9699L23.655 14.6849L26.295 8.7449C26.955 7.58991 28.055 7.53491 28.715 8.7449L34.27 19.8549Z" fill="#ABABAB"/>
<path id="Vector_2" d="M28.77 24.9701L8.19995 44.1101L23.655 14.6851L28.77 24.9701Z" fill="#979797"/>
<path id="Vector_3" d="M40.32 12.0451C41.31 11.1101 42.3 11.4401 42.575 12.7601L47.91 43.8901L30.145 54.5051C29.54 54.8351 27.89 55.0001 27.89 55.0001C27.89 55.0001 26.405 54.8351 25.8 54.5051L8.19995 44.1101L40.32 12.0451Z" fill="#C8C8C8"/>
<path id="Vector_4" d="M23.655 14.685L8.19995 44.11L15.075 1.1C15.35 -0.220002 16.065 -0.385002 16.78 0.824998L23.655 14.685Z" fill="#ABABAB"/>
</g>
<defs>
<clipPath id="clip0_661_3156">
<rect width="55" height="55" fill="white" transform="translate(0.5)"/>
</clipPath>
</defs>
</svg>
