<svg width="56" height="55" viewBox="0 0 56 55" fill="none" xmlns="http://www.w3.org/2000/svg">
<g clip-path="url(#clip0_518_1260)">
<path d="M48.9824 41.9531C46.5202 42.5095 44.2021 43.5764 42.1779 45.0846C39.0558 47.0451 35.6821 48.5727 32.149 49.6256C31.7161 50.1314 31.1171 50.4666 30.4595 50.5709C26.7857 51.0942 23.087 51.4252 19.3787 51.5626C17.3798 51.5781 16.1543 51.047 15.814 50.2289C15.6738 49.8975 15.6012 49.5415 15.6003 49.1818C15.5995 48.822 15.6705 48.4657 15.8091 48.1337C15.9477 47.8017 16.1512 47.5007 16.4076 47.2484C16.6641 46.9961 16.9683 46.7974 17.3024 46.6642C16.9911 46.4709 16.6957 46.2531 16.419 46.0128C16.1251 45.7189 15.814 45.1293 15.7212 45.3459C15.3345 46.2912 15.1317 48.6012 14.0935 49.6428C12.667 51.0848 9.96854 50.6035 8.37354 49.7665C6.62213 48.8367 8.49729 46.6504 8.49729 46.6504C8.34716 46.7266 8.18325 46.7717 8.01532 46.7832C7.84738 46.7947 7.67886 46.7722 7.51977 46.7172C7.36069 46.6622 7.21429 46.5758 7.08931 46.463C6.96433 46.3502 6.86332 46.2135 6.79229 46.0609C5.87983 44.5367 5.47817 42.7608 5.64588 40.9923C6.08578 39.0532 7.14013 37.308 8.65197 36.0165C8.41156 33.4413 8.79965 30.8462 9.78291 28.454C11.0789 25.9598 12.9421 23.8046 15.2228 22.1617C15.2228 22.1617 11.8918 18.4715 13.1328 15.1543C13.9388 12.9853 14.2637 13.0007 14.5284 12.9062C15.4651 12.6197 16.3205 12.1148 17.024 11.4332C17.9727 10.3897 19.152 9.58221 20.4679 9.07494C21.7838 8.56767 23.2 8.37468 24.6037 8.51135C24.6037 8.51135 26.6249 2.40635 28.476 3.59229C29.4997 5.16431 30.3815 6.82429 31.1109 8.5526C31.1109 8.5526 33.3126 7.26698 33.5601 7.74651C34.8264 11.1094 35.1375 14.7571 34.459 18.2859C33.6594 21.6726 32.1348 24.8456 29.9903 27.586C29.7582 27.9728 32.656 29.1982 34.4848 34.2668C36.1743 38.9074 34.6704 42.7918 34.9351 43.2249C34.9815 43.3023 34.997 43.3332 34.997 43.3332C34.997 43.3332 36.934 43.4879 40.8253 41.0851C42.9782 39.5126 45.5203 38.5592 48.1763 38.3282C48.6528 38.2331 49.1475 38.3283 49.5545 38.5935C49.9615 38.8588 50.2485 39.2728 50.3539 39.7471C50.4593 40.2213 50.3748 40.718 50.1184 41.1306C49.8621 41.5433 49.4543 41.8374 48.9824 41.9531Z" fill="#2188B6"/>
</g>
<defs>
<clipPath id="clip0_518_1260">
<rect width="55" height="55" fill="white" transform="translate(0.5)"/>
</clipPath>
</defs>
</svg>
