<svg width="56" height="55" viewBox="0 0 56 55" fill="none" xmlns="http://www.w3.org/2000/svg">
<g clip-path="url(#clip0_673_9087)">
<path d="M42.6094 0H13.3906C6.27133 0 0.5 5.77133 0.5 12.8906V42.1094C0.5 49.2287 6.27133 55 13.3906 55H42.6094C49.7287 55 55.5 49.2287 55.5 42.1094V12.8906C55.5 5.77133 49.7287 0 42.6094 0Z" fill="#007ACC"/>
<path d="M12.6625 27.6824L12.6451 29.9349H19.8037V50.276H24.8674V29.9349H32.026V27.726C32.026 26.5038 32 25.4824 31.965 25.4562C31.9388 25.4214 27.5824 25.4038 22.3006 25.4126L12.6888 25.4388L12.6625 27.6824ZM44.8797 25.3748C46.2764 25.7241 47.3415 26.344 48.3193 27.3565C48.8257 27.8979 49.5764 28.8845 49.6376 29.1202C49.655 29.19 47.2629 30.7964 45.8138 31.6955C45.7614 31.7305 45.5517 31.5034 45.316 31.1543C44.609 30.1241 43.8669 29.6788 42.7319 29.6003C41.0645 29.4867 39.9907 30.3598 39.9995 31.8177C39.9995 32.2455 40.0605 32.4986 40.2352 32.8479C40.6017 33.6074 41.2827 34.0614 43.4217 34.9867C47.359 36.6805 49.0438 37.7979 50.0915 39.3867C51.2614 41.1589 51.5233 43.9876 50.7288 46.0915C49.8559 48.3788 47.6907 49.9327 44.6438 50.4479C43.701 50.6138 41.466 50.5876 40.4534 50.4043C38.2446 50.0114 36.1495 48.9202 34.8574 47.4884C34.351 46.9296 33.3645 45.4717 33.4257 45.3669C33.4517 45.3321 33.6788 45.1924 33.9319 45.044C34.1764 44.9043 35.1019 44.3717 35.9748 43.8653L37.555 42.9486L37.8867 43.4376C38.3495 44.1446 39.362 45.1138 39.9733 45.4367C41.7279 46.3622 44.1376 46.2312 45.3248 45.1662C45.8312 44.7034 46.0407 44.2233 46.0407 43.5162C46.0407 42.8788 45.962 42.5995 45.6303 42.1193C45.2026 41.5083 44.3297 40.9931 41.8501 39.9193C39.0129 38.697 37.7907 37.9376 36.6733 36.7327C36.0272 36.0345 35.416 34.9169 35.1629 33.9827C34.9534 33.2058 34.901 31.2589 35.0669 30.4733C35.6517 27.7321 37.7208 25.8202 40.7065 25.2525C41.6757 25.0693 43.9279 25.1391 44.8797 25.3748Z" fill="white"/>
</g>
<defs>
<clipPath id="clip0_673_9087">
<rect width="55" height="55" fill="white" transform="translate(0.5)"/>
</clipPath>
</defs>
</svg>
