<svg width="52" height="52" viewBox="0 0 52 52" fill="none" xmlns="http://www.w3.org/2000/svg">
    <g clip-path="url(#clip0_468_3690)">
        <path d="M9.20972 19.0938H49.7007V49.0222H9.20972V19.0938Z" fill="white"></path>
        <path
            d="M0.609375 25.9634V51.354H51.3906V0.572754H0.609375V25.9634ZM41.5309 23.9321C42.7472 24.2144 43.8526 24.8505 44.7078 25.7603C45.1786 26.2504 45.5879 26.7961 45.9266 27.3853C45.9266 27.4503 43.7328 28.9331 42.3963 29.7618C42.3475 29.7943 42.1525 29.5831 41.9372 29.2621C41.6932 28.8411 41.3465 28.4888 40.9295 28.238C40.5125 27.9872 40.0388 27.8462 39.5525 27.8281C38.0128 27.7224 37.0216 28.5309 37.0297 29.8593C37.017 30.1901 37.0927 30.5182 37.2491 30.8099C37.5863 31.5128 38.2159 31.9312 40.1903 32.7843C43.8262 34.3484 45.3822 35.3803 46.3491 36.8468C47.4297 38.4718 47.6694 41.0962 46.9381 43.0381C46.1256 45.1506 44.135 46.5846 41.3197 47.0599C40.0338 47.2072 38.7347 47.1936 37.4522 47.0193C35.4866 46.6953 33.676 45.7516 32.2847 44.3259C31.8175 43.8099 30.9075 42.4653 30.9644 42.3678C31.1127 42.2577 31.2688 42.1585 31.4316 42.0712L33.3125 41.0312L34.7709 40.1862L35.0756 40.6371C35.5898 41.3727 36.2442 41.9995 37.0013 42.4815C38.6263 43.3346 40.8444 43.2168 41.9412 42.2296C42.3095 41.8679 42.5393 41.3884 42.5905 40.8748C42.6417 40.3611 42.5112 39.8457 42.2216 39.4184C41.8153 38.8537 41.0028 38.3784 38.7319 37.3871C36.1116 36.2578 34.9822 35.559 33.9503 34.4459C33.3061 33.7113 32.8305 32.8447 32.5569 31.9068C32.3528 30.8353 32.3226 29.7379 32.4675 28.6568C33.0078 26.1259 34.905 24.3587 37.6756 23.8346C38.9587 23.6759 40.2584 23.7115 41.5309 23.9403V23.9321ZM29.6116 26.0609V28.1409H23.0181V46.9218H18.3422V28.1368H11.7325V26.1056C11.7119 25.4051 11.7282 24.704 11.7812 24.0053C11.8138 23.9687 15.8438 23.9687 20.7188 23.9687H29.5872L29.6116 26.0609Z"
            fill="#5F5F5F"></path>
    </g>
    <defs>
        <clipPath id="clip0_468_3690">
            <rect width="52" height="52" fill="white"></rect>
        </clipPath>
    </defs>
</svg>