<svg width="56" height="50" viewBox="0 0 56 50" fill="none" xmlns="http://www.w3.org/2000/svg">
    <g clip-path="url(#clip0_110_345)">
        <path
            d="M34.316 31.1457L33.2611 32.9776C33.105 33.2487 32.8801 33.4739 32.6092 33.6305C32.3384 33.787 32.031 33.8695 31.7181 33.8695H23.6361C23.3233 33.8695 23.0159 33.787 22.745 33.6305C22.4742 33.4739 22.2493 33.2487 22.0931 32.9776L21.038 31.1457H34.316ZM37.2695 26.0173L35.4094 29.2473H19.9449L18.0848 26.0173H37.2695ZM35.4777 21.0025L37.2725 24.119H18.0818L19.8766 21.0025H35.4777ZM31.7179 16.2617C32.0308 16.2617 32.3382 16.3441 32.6091 16.5006C32.8801 16.6572 33.105 16.8824 33.2611 17.1535L34.3843 19.1041H20.9699L22.0933 17.1535C22.2495 16.8824 22.4744 16.6573 22.7453 16.5007C23.0161 16.3441 23.3235 16.2617 23.6364 16.2617H31.7181H31.7179Z"
            fill="#00435B"></path>
        <path
            d="M11.8741 15.4116C10.9788 11.0705 10.7866 7.74083 11.3653 5.3232C11.7095 3.88525 12.3386 2.7122 13.2955 1.86572C14.3057 0.972182 15.5827 0.533686 17.0179 0.533686C19.385 0.533686 21.8738 1.61328 24.5331 3.66396C25.6181 4.50056 26.7439 5.50882 27.913 6.68939C28.0063 6.56972 28.1113 6.45671 28.2286 6.35208C31.5342 3.40658 34.3173 1.57611 36.6978 0.870561C38.1132 0.450756 39.442 0.410795 40.652 0.818139C41.9294 1.24783 42.9472 2.13663 43.6654 3.38122C44.8505 5.43535 45.1628 8.13443 44.7211 11.4673C44.5411 12.8258 44.2332 14.3054 43.7982 15.9088C43.9623 15.9285 44.1269 15.9651 44.2897 16.019C48.4837 17.409 51.4537 18.9035 53.2517 20.6117C54.3216 21.6279 55.0201 22.7593 55.2727 24.0118C55.5392 25.3337 55.2792 26.6595 54.562 27.9033C53.3791 29.9546 51.204 31.5722 48.1056 32.8535C46.8616 33.368 45.4537 33.834 43.8809 34.2532C43.9526 34.4152 44.0085 34.5873 44.0457 34.7677C44.9409 39.1089 45.133 42.4385 44.5544 44.8562C44.2102 46.2941 43.5809 47.4672 42.624 48.3136C41.6141 49.2072 40.3368 49.6457 38.9019 49.6457C36.5345 49.6457 34.046 48.5661 31.3866 46.5154C30.2901 45.6698 29.1518 44.6491 27.9691 43.4522C27.8446 43.6467 27.6939 43.8233 27.5214 43.9768C24.2158 46.9227 21.4327 48.7528 19.0522 49.4585C17.6368 49.8784 16.308 49.9183 15.098 49.511C13.8206 49.0813 12.8029 48.1925 12.0846 46.9479C10.8996 44.8938 10.5872 42.1947 11.0289 38.8618C11.2156 37.4544 11.5394 35.9165 11.9996 34.2459C11.8161 34.2273 11.6353 34.1886 11.4603 34.1305C7.26634 32.7405 4.29634 31.246 2.49831 29.5378C1.42839 28.5216 0.729932 27.3902 0.477276 26.1377C0.210869 24.8158 0.47083 23.4897 1.18798 22.246C2.37091 20.1949 4.54599 18.5771 7.64446 17.296C8.92558 16.766 10.3803 16.2877 12.0101 15.8589C11.9511 15.7143 11.9056 15.5646 11.8741 15.4116Z"
            fill="#002B3B"></path>
        <path
            d="M41.1194 35.1945C41.3196 35.1591 41.5257 35.202 41.6951 35.3144C41.8645 35.4268 41.9842 35.6 42.0293 35.7983L42.0342 35.8223L42.0787 36.0533C43.5203 43.6321 42.5047 47.4217 39.0322 47.4217C35.6349 47.4217 31.3099 44.1881 26.0574 37.7209C25.9641 37.6059 25.9049 37.4671 25.8865 37.3202C25.8681 37.1733 25.8913 37.0242 25.9535 36.8898C26.0156 36.7554 26.1142 36.6412 26.238 36.56C26.3619 36.4789 26.506 36.4341 26.654 36.4308H26.6785L26.9552 36.4327C29.1655 36.4447 31.3142 36.3676 33.4014 36.2015C35.865 36.0054 38.4378 35.6698 41.1194 35.1945ZM17.2716 29.4655L17.2849 29.4881L17.4237 29.7302C18.5359 31.6638 19.6946 33.499 20.8998 35.236C22.3195 37.2813 23.9158 39.352 25.6887 41.448C25.8203 41.6036 25.8868 41.8039 25.8745 42.0072C25.8621 42.2106 25.7718 42.4014 25.6223 42.5398L25.6023 42.5577L25.424 42.7113C19.5573 47.738 15.7442 48.7415 13.9849 45.7217C12.2625 42.7661 12.887 37.3915 15.8581 29.5983C15.9107 29.4602 16.0009 29.3396 16.1185 29.2502C16.2361 29.1607 16.3764 29.106 16.5235 29.0922C16.6706 29.0784 16.8187 29.106 16.9509 29.172C17.0831 29.238 17.1942 29.3397 17.2716 29.4655ZM44.0963 18.282L44.1204 18.29L44.3412 18.366C51.5825 20.8851 54.3336 23.6534 52.5947 26.6708C50.894 29.6219 45.9496 31.7708 37.7616 33.117C37.6132 33.1414 37.461 33.1231 37.3226 33.0641C37.1843 33.005 37.0656 32.9078 36.9806 32.7838C36.8955 32.6598 36.8476 32.5141 36.8423 32.3638C36.8371 32.2135 36.8748 32.0648 36.951 31.9352C38.1237 29.9401 39.18 27.9554 40.1198 25.9803C41.1854 23.7406 42.1855 21.3363 43.1201 18.768C43.1879 18.5813 43.3235 18.427 43.4999 18.3357C43.6763 18.2443 43.8806 18.2227 44.0722 18.275L44.0963 18.282ZM18.5177 17.0138C18.6073 17.0665 18.6856 17.1362 18.7483 17.2192C18.8109 17.3021 18.8566 17.3965 18.8828 17.4971C18.9089 17.5977 18.915 17.7025 18.9006 17.8054C18.8863 17.9084 18.8518 18.0075 18.7991 18.0971C17.6261 20.0919 16.5699 22.0768 15.6302 24.0519C14.5645 26.2916 13.5644 28.6957 12.6299 31.2642C12.5605 31.4549 12.4205 31.6117 12.2388 31.7021C12.0571 31.7926 11.8476 31.8098 11.6536 31.7502L11.6296 31.7422L11.4087 31.6659C4.16738 29.1471 1.41631 26.3786 3.15525 23.3614C4.85596 20.4101 9.80037 18.2614 17.9883 16.9152C18.1709 16.8851 18.3582 16.9199 18.5177 17.0138ZM41.765 4.60702C43.4874 7.56284 42.8629 12.9374 39.8918 20.7306C39.8392 20.8687 39.749 20.9893 39.6314 21.0787C39.5138 21.1682 39.3735 21.2229 39.2264 21.2367C39.0793 21.2505 38.9313 21.2229 38.799 21.1569C38.6668 21.0909 38.5558 20.9893 38.4784 20.8634L38.465 20.8408L38.3262 20.5987C37.214 18.6651 36.0554 16.8299 34.8501 15.0929C33.4304 13.0476 31.8341 10.9769 30.0612 8.88091C29.9296 8.72536 29.8631 8.52505 29.8754 8.32168C29.8878 8.1183 29.9781 7.92753 30.1276 7.78907L30.1476 7.77124L30.3259 7.61763C36.1926 2.59093 40.0057 1.58739 41.765 4.60702ZM17.0146 2.80835C20.4121 2.80835 24.7372 6.04175 29.9895 12.509C30.0828 12.6239 30.142 12.7627 30.1603 12.9096C30.1787 13.0566 30.1555 13.2057 30.0934 13.34C30.0312 13.4744 29.9326 13.5887 29.8088 13.6698C29.685 13.751 29.5408 13.7958 29.3928 13.7991H29.3683L29.0916 13.7974C26.8815 13.7854 24.7327 13.8625 22.6457 14.0286C20.1818 14.2247 17.6091 14.5603 14.9274 15.0355C14.7273 15.071 14.5212 15.028 14.3518 14.9156C14.1825 14.8032 14.0629 14.63 14.0178 14.4318L14.0126 14.4075L13.9681 14.1768C12.5265 6.59776 13.5419 2.80835 17.0146 2.80835Z"
            fill="#FF4154"></path>
        <path
            d="M24.2861 16.3608H31.07C31.5574 16.3608 32.0362 16.4894 32.4579 16.7337C32.8797 16.9779 33.2296 17.3292 33.4721 17.752L36.8785 23.6872C37.1193 24.1068 37.246 24.5821 37.246 25.0659C37.246 25.5496 37.1193 26.025 36.8785 26.4445L33.4721 32.3798C33.2295 32.8025 32.8797 33.1538 32.4579 33.398C32.0361 33.6423 31.5574 33.7709 31.07 33.7709H24.2861C23.2939 33.7709 22.3776 33.2403 21.8837 32.3798L18.4778 26.4445C18.237 26.025 18.1103 25.5496 18.1103 25.0659C18.1103 24.5821 18.237 24.1068 18.4778 23.6872L21.8839 17.752C22.1265 17.3292 22.4764 16.9779 22.8982 16.7337C23.32 16.4894 23.7986 16.3608 24.2861 16.3608ZM30.0359 18.1522C31.0285 18.1522 31.9455 18.6835 32.439 19.5446L34.8143 23.6885C35.0546 24.1078 35.181 24.5826 35.181 25.0659C35.181 25.5491 35.0546 26.024 34.8143 26.4432L32.439 30.5871C32.1964 31.0102 31.8465 31.3617 31.4245 31.6062C31.0026 31.8506 30.5236 31.9794 30.0359 31.9793H25.3201C24.3275 31.9793 23.4106 31.4482 22.9171 30.5871L20.5418 26.4432C20.3015 26.024 20.175 25.5491 20.175 25.0659C20.175 24.5826 20.3015 24.1078 20.5418 23.6885L22.9171 19.5446C23.1596 19.1216 23.5095 18.7701 23.9314 18.5256C24.3533 18.2812 24.8323 18.1524 25.3199 18.1524L30.0359 18.1522ZM28.9215 20.1116H26.4345C25.9473 20.1116 25.4687 20.2401 25.047 20.4841C24.6253 20.7282 24.2755 21.0792 24.0328 21.5016L22.7776 23.6859C22.5364 24.1058 22.4094 24.5816 22.4094 25.0659C22.4094 25.5501 22.5364 26.0259 22.7776 26.4458L24.0328 28.6304C24.2755 29.0528 24.6253 29.4038 25.047 29.6478C25.4687 29.8919 25.9473 30.0204 26.4345 30.0204H28.9215C29.9133 30.0204 30.8293 29.4902 31.3233 28.6304L32.5784 26.4458C32.8197 26.0259 32.9466 25.5501 32.9466 25.0659C32.9466 24.5816 32.8197 24.1058 32.5784 23.6859L31.3233 21.5014C31.0806 21.0789 30.7307 20.728 30.309 20.4839C29.8874 20.2399 29.4088 20.1116 28.9215 20.1116ZM27.8486 21.987C28.8395 21.987 29.7549 22.5163 30.2491 23.3748L30.4272 23.6842C30.6691 24.1045 30.7964 24.5809 30.7964 25.0659C30.7964 25.5508 30.6691 26.0273 30.4272 26.4475L30.2491 26.7569C30.0062 27.1788 29.6564 27.5292 29.235 27.7729C28.8136 28.0165 28.3354 28.1448 27.8486 28.1448H27.5074C27.0206 28.1448 26.5425 28.0165 26.121 27.7729C25.6996 27.5292 25.3498 27.1788 25.107 26.7569L24.9289 26.4475C24.687 26.0273 24.5597 25.5508 24.5597 25.0659C24.5597 24.5809 24.687 24.1045 24.9289 23.6842L25.107 23.3748C25.3498 22.953 25.6996 22.6026 26.121 22.3589C26.5425 22.1152 27.0206 21.9869 27.5074 21.987H27.8486ZM27.6784 23.8344C27.4621 23.8343 27.2495 23.8912 27.0621 23.9992C26.8747 24.1073 26.719 24.2628 26.6107 24.4501C26.5025 24.6373 26.4456 24.8497 26.4456 25.0659C26.4456 25.2821 26.5025 25.4944 26.6107 25.6816C26.7189 25.869 26.8745 26.0245 27.0619 26.1326C27.2493 26.2408 27.4618 26.2977 27.6781 26.2977C27.8945 26.2977 28.107 26.2408 28.2944 26.1326C28.4817 26.0245 28.6374 25.869 28.7456 25.6816C28.8537 25.4944 28.9107 25.2821 28.9107 25.0659C28.9107 24.8497 28.8537 24.6373 28.7456 24.4501C28.6374 24.2629 28.4818 24.1074 28.2945 23.9993C28.1072 23.8913 27.8947 23.8344 27.6784 23.8344ZM17.6863 25.0659H19.9035H17.6863Z"
            fill="#FFD94C"></path>
    </g>
    <defs>
        <clipPath id="clip0_110_345">
            <rect width="55" height="49.42" fill="white" transform="translate(0.375 0.530273)"></rect>
        </clipPath>
    </defs>
</svg>