<svg width="56" height="55" viewBox="0 0 56 55" fill="none" xmlns="http://www.w3.org/2000/svg">
<g id="reactquery" clip-path="url(#clip0_661_2856)">
<path id="Vector" fill-rule="evenodd" clip-rule="evenodd" d="M34.435 33.385L33.39 35.2C33.06 35.75 32.51 36.08 31.85 36.08H23.765C23.105 36.08 22.555 35.75 22.225 35.2L21.18 33.385H34.435ZM37.405 28.215L35.535 31.46H20.08L18.21 28.215H37.405ZM35.59 23.21L37.405 26.345H18.21L20.025 23.21H35.59ZM31.85 18.48C32.51 18.48 33.06 18.81 33.39 19.36L34.49 21.285H21.07L22.17 19.36C22.5 18.81 23.05 18.48 23.71 18.48H31.85Z" fill="#323232"/>
<path id="Vector_2" d="M11.995 17.6549C11.115 13.3099 10.895 10.0099 11.5 7.58989C11.83 6.15989 12.49 5.00489 13.425 4.12489C14.415 3.18989 15.735 2.74989 17.165 2.74989C19.53 2.74989 22.005 3.84989 24.7 5.88489C25.8 6.70989 26.9 7.7549 28.055 8.9099C28.165 8.7999 28.275 8.6899 28.385 8.5799C31.685 5.60989 34.49 3.79489 36.855 3.07989C38.285 2.63989 39.605 2.63989 40.815 3.02489C42.08 3.46489 43.125 4.34489 43.84 5.60989C45.05 7.64489 45.325 10.3399 44.885 13.6949C44.665 15.0149 44.335 16.4999 43.95 18.1499C44.115 18.1499 44.28 18.2049 44.445 18.2599C48.625 19.6349 51.595 21.1199 53.41 22.8799C54.455 23.8699 55.17 25.0249 55.445 26.2899C55.72 27.6099 55.445 28.9299 54.73 30.1949C53.52 32.2299 51.375 33.8799 48.295 35.1449C47.03 35.6399 45.655 36.1349 44.06 36.5199C44.115 36.6849 44.17 36.8499 44.225 37.0149C45.105 41.3599 45.325 44.6599 44.72 47.0799C44.39 48.5099 43.73 49.6649 42.795 50.5449C41.805 51.4249 40.485 51.8649 39.055 51.8649C36.69 51.8649 34.215 50.7649 31.52 48.7299C30.42 47.9049 29.265 46.8599 28.11 45.6499C28 45.8149 27.835 46.0349 27.67 46.1999C24.37 49.1699 21.565 50.9849 19.2 51.6999C17.77 52.1399 16.45 52.1399 15.24 51.7549C13.975 51.3149 12.93 50.4349 12.215 49.1699C11.005 47.1349 10.73 44.4399 11.17 41.0849C11.335 39.6549 11.665 38.1149 12.16 36.4649C11.995 36.4649 11.775 36.4099 11.61 36.3549C7.43004 34.9799 4.46004 33.4949 2.64504 31.7349C1.60004 30.7449 0.885039 29.5899 0.610039 28.3249C0.335039 27.0049 0.610039 25.6849 1.32504 24.4199C2.53504 22.3849 4.68004 20.7349 7.76004 19.4699C9.02504 18.9199 10.51 18.4799 12.105 18.0399C12.05 17.9299 12.05 17.7649 11.995 17.6549Z" fill="#202020"/>
<path id="Vector_3" fill-rule="evenodd" clip-rule="evenodd" d="M22.7749 16.2249C24.9749 16.0599 27.1749 15.9499 29.4849 16.0049C29.9249 16.0049 30.2549 15.6749 30.3099 15.2349C30.3099 15.0699 30.2549 14.8499 30.1449 14.7399C24.8649 8.24988 20.5199 5.00488 17.1649 5.00488C13.6449 5.00488 12.6549 8.85488 14.1399 16.6099C14.2499 17.0499 14.6349 17.3249 15.0749 17.2149C17.7149 16.7749 20.2999 16.4449 22.7749 16.2249Z" fill="#7C7C7C"/>
<path id="Vector_4" fill-rule="evenodd" clip-rule="evenodd" d="M34.9851 17.3249C36.2501 19.1399 37.4601 21.0649 38.6151 23.0999C38.8351 23.4849 39.3301 23.5949 39.7151 23.3749C39.8801 23.2649 39.9901 23.1549 40.0451 22.9899C43.0151 15.1799 43.6201 9.84495 41.9151 6.87495C40.1001 3.79495 36.2501 4.83995 30.2551 10.0099C29.9251 10.2849 29.8701 10.7799 30.1451 11.1099C31.9601 13.1999 33.5551 15.2899 34.9851 17.3249Z" fill="#7C7C7C"/>
<path id="Vector_5" fill-rule="evenodd" clip-rule="evenodd" d="M40.265 28.215C39.33 30.195 38.285 32.175 37.075 34.155C36.855 34.54 36.965 35.035 37.35 35.255C37.515 35.365 37.68 35.365 37.9 35.365C46.095 34.045 51.045 31.845 52.75 28.93C54.455 25.85 51.65 23.045 44.225 20.515C43.84 20.35 43.345 20.57 43.235 21.01C42.3 23.54 41.31 25.96 40.265 28.215Z" fill="#7C7C7C"/>
<path id="Vector_6" fill-rule="evenodd" clip-rule="evenodd" d="M33.5001 38.445C31.3001 38.61 29.1001 38.72 26.7901 38.665C26.3501 38.665 26.0201 38.995 25.9651 39.435C25.9651 39.6 26.0201 39.82 26.1301 39.93C31.3551 46.42 35.7001 49.61 39.1101 49.61C42.6301 49.61 43.6201 45.76 42.1351 38.005C42.0251 37.565 41.6401 37.29 41.2001 37.4C38.5601 37.895 35.9751 38.225 33.5001 38.445Z" fill="#7C7C7C"/>
<path id="Vector_7" fill-rule="evenodd" clip-rule="evenodd" d="M21.0149 37.4551C19.7499 35.6401 18.5399 33.7151 17.3849 31.6801C17.1649 31.2951 16.6699 31.1851 16.2849 31.4051C16.1199 31.5151 16.0099 31.6251 15.9549 31.7901C12.9849 39.6001 12.3799 44.9351 14.0849 47.9051C15.8449 50.9301 19.7499 49.8851 25.6899 44.7151C26.0199 44.4401 26.0749 43.9451 25.7999 43.6151C24.0399 41.5801 22.4449 39.4901 21.0149 37.4551Z" fill="#7C7C7C"/>
<path id="Vector_8" fill-rule="evenodd" clip-rule="evenodd" d="M15.735 26.2899C16.67 24.3099 17.715 22.3299 18.925 20.3499C19.145 19.9649 19.035 19.4699 18.65 19.2499C18.485 19.1399 18.32 19.1399 18.1 19.1399C9.90502 20.4599 4.95502 22.6599 3.25002 25.5749C1.54502 28.5999 4.35002 31.4049 11.775 33.9349C12.16 34.0999 12.655 33.8799 12.765 33.4399C13.7 30.9099 14.69 28.4899 15.735 26.2899Z" fill="#7C7C7C"/>
<path id="Vector_9" fill-rule="evenodd" clip-rule="evenodd" d="M24.425 18.5901H31.19C32.18 18.5901 33.115 19.1401 33.61 19.9651L37.02 25.9051C37.515 26.7851 37.515 27.8301 37.02 28.6551L33.61 34.5951C33.115 35.4751 32.18 35.9701 31.19 35.9701H24.425C23.435 35.9701 22.5 35.4201 22.005 34.5951L18.595 28.6551C18.1 27.7751 18.1 26.7301 18.595 25.9051L22.005 19.9651C22.5 19.0851 23.435 18.5901 24.425 18.5901ZM30.145 20.3501C31.135 20.3501 32.07 20.9001 32.565 21.7251L34.93 25.8501C35.425 26.7301 35.425 27.7751 34.93 28.6001L32.565 32.7251C32.07 33.6051 31.135 34.1001 30.145 34.1001H25.415C24.425 34.1001 23.49 33.5501 22.995 32.7251L20.63 28.6001C20.135 27.7201 20.135 26.6751 20.63 25.8501L22.995 21.7251C23.49 20.8451 24.425 20.3501 25.415 20.3501H30.145ZM29.045 22.3301H26.57C25.58 22.3301 24.645 22.8801 24.15 23.7051L22.885 25.9051C22.39 26.7851 22.39 27.8301 22.885 28.6551L24.15 30.8551C24.645 31.7351 25.58 32.2301 26.57 32.2301H29.045C30.035 32.2301 30.97 31.6801 31.465 30.8551L32.73 28.6551C33.225 27.7751 33.225 26.7301 32.73 25.9051L31.465 23.7051C30.97 22.8801 30.035 22.3301 29.045 22.3301ZM28 24.2001C28.99 24.2001 29.925 24.7501 30.42 25.5751L30.585 25.9051C31.08 26.7851 31.08 27.8301 30.585 28.6551L30.42 28.9851C29.925 29.8651 28.99 30.3601 28 30.3601H27.67C26.68 30.3601 25.745 29.8101 25.25 28.9851L25.085 28.6551C24.59 27.7751 24.59 26.7301 25.085 25.9051L25.25 25.5751C25.745 24.6951 26.68 24.2001 27.67 24.2001H28ZM27.78 26.0701C27.34 26.0701 26.955 26.2901 26.735 26.6751C26.515 27.0601 26.515 27.5001 26.735 27.8851C26.955 28.2701 27.34 28.4901 27.78 28.4901C28.22 28.4901 28.605 28.2701 28.825 27.8851C29.045 27.5001 29.045 27.0601 28.825 26.6751C28.66 26.2901 28.22 26.0701 27.78 26.0701Z" fill="#D5D5D5"/>
</g>
<defs>
<clipPath id="clip0_661_2856">
<rect width="55" height="55" fill="white" transform="translate(0.5)"/>
</clipPath>
</defs>
</svg>
