<svg width="56" height="56" viewBox="0 0 56 56" fill="none">
    <g clip-path="url(#clip0_380_479)">
        <path
            d="M3.66898 35.5367C2.54105 32.0236 2.21707 28.3141 2.86675 24.4976C3.14863 22.9146 3.58347 21.3957 4.06 19.8565C4.06 19.8565 7.05277 10.0326 17.1805 5.54278C17.1805 5.54278 20.6717 3.69942 25.9203 3.57051C25.9203 3.57051 25.2053 2.87571 24.749 2.57192C22.2766 0.923636 18.5907 0.38137 16.3568 2.70297C15.6835 3.39606 15.1193 4.15618 14.4919 4.84969C13.7752 5.63 12.9073 6.28141 11.9104 6.64879C11.0424 6.9745 10.1744 6.90918 9.28671 7.06172C8.37578 7.21297 7.44207 7.53867 6.70558 8.12434C5.90293 8.77575 5.57765 9.64157 5.49171 10.6402C5.40449 11.4209 5.4264 12.2231 5.38257 13.0034C5.27386 15.3031 4.53695 15.9528 2.88867 17.2333C2.19515 17.7536 1.60949 18.4467 1.17464 19.1854C-0.12602 21.4833 1.95668 23.8681 2.0641 26.1897C2.08644 26.6666 2.04261 27.1432 1.86988 27.5995C1.695 28.0979 1.34953 28.4236 1.06722 28.8348C0.676207 29.3775 0.416246 30.0285 0.525816 30.6997C0.633238 31.373 0.980425 32.0021 1.30613 32.5882C1.93562 33.6289 2.71593 34.5604 3.5405 35.4499C3.58347 35.4499 3.62601 35.4933 3.66941 35.5371"
            fill="#E32186"></path>
        <path
            d="M45.05 43.8622C50.0382 41.6935 52.1634 37.9424 52.1634 37.9424C56.8264 31.5877 55.2434 24.8872 55.2434 24.8872C52.2726 31.3492 49.56 33.1286 49.56 33.1286C56.8698 22.0018 49.6038 15.2798 49.6038 15.2798C52.5747 21.6125 48.6284 29.3319 48.6284 29.3319C45.3099 36.316 40.6036 38.8103 40.6036 38.8103C45.8522 39.7857 49.7129 36.2507 49.7129 36.2507C42.1861 44.3829 34.0323 43.9936 34.0323 43.9936C37.46 47.8325 42.5995 47.5068 42.5995 47.5068C35.877 49.0893 29.5662 46.8554 24.3829 42.5396C23.4009 41.735 22.4736 40.866 21.6071 39.9383C21.6071 39.9383 20.8263 39.1141 20.6734 38.8976L20.6519 38.8761C20.5445 42.8872 24.7288 46.6169 24.7288 46.6169C19.4801 44.4487 17.0734 39.7419 17.0734 39.7419C17.0734 39.7419 13.5384 33.7134 16.098 26.8397C18.656 19.9647 26.3989 18.4891 26.3989 18.4891C32.7974 21.5915 38.2188 22.5664 38.2188 22.5664C49.6476 24.4747 48.9979 18.8806 48.9979 18.8806C49.1054 14.0651 41.8411 8.94748 41.8411 8.94748C28.8933 -0.660335 17.1826 5.54177 17.1826 5.54177C7.05485 10.0316 4.06207 19.8555 4.06207 19.8555C3.58512 21.3947 3.15114 22.9136 2.86883 24.4962C1.76282 30.9385 3.43258 37.0314 7.05485 42.4545C12.6928 50.8686 21.8455 53.7742 21.8455 53.7742C35.3992 58.3714 44.6594 51.6056 44.6594 51.6056C53.1827 45.7489 54.8963 38.9835 54.8963 38.9835C48.0213 44.3632 45.0504 43.8626 45.0504 43.8626L45.05 43.8622ZM34.4672 12.2213C34.6212 12.2207 34.7737 12.2506 34.916 12.3093C35.0583 12.368 35.1876 12.4544 35.2964 12.5633C35.4052 12.6722 35.4913 12.8017 35.5498 12.9441C35.6083 13.0865 35.638 13.2391 35.6372 13.393C35.6378 13.5468 35.6079 13.6992 35.5493 13.8414C35.4907 13.9836 35.4045 14.1128 35.2958 14.2215C35.187 14.3302 35.0578 14.4163 34.9156 14.4749C34.7734 14.5334 34.621 14.5633 34.4672 14.5626C34.3133 14.5634 34.1607 14.5337 34.0183 14.4753C33.876 14.4168 33.7466 14.3307 33.6376 14.222C33.5287 14.1132 33.4424 13.984 33.3836 13.8417C33.3249 13.6994 33.2949 13.5469 33.2954 13.393C33.2947 13.2389 33.3245 13.0862 33.3831 12.9437C33.4417 12.8012 33.528 12.6718 33.637 12.5628C33.7459 12.4539 33.8754 12.3676 34.0179 12.309C34.1604 12.2503 34.3131 12.2205 34.4672 12.2213Z"
            fill="url(#paint0_linear_380_479)"></path>
        <path
            d="M48.973 18.8592C49.0805 14.0437 41.8162 8.92607 41.8162 8.92607C28.8684 -0.659825 17.1577 5.54228 17.1577 5.54228C7.02995 10.0321 4.03718 19.856 4.03718 19.856C3.45152 21.5262 2.93116 24.0859 2.93116 24.0859C2.30167 27.2952 2.58355 30.2661 2.58355 30.2661C2.84394 33.1076 3.473 35.0163 3.473 35.0163C4.12441 37.0538 4.42691 37.6833 4.42691 37.6833C4.40628 37.6176 4.29757 37.1411 4.29757 37.1411C4.29757 37.1411 3.38577 32.7604 4.23183 28.5525C4.23183 28.5525 4.96874 24.1718 7.96323 20.7897C7.96323 20.7897 12.8209 13.8709 21.8645 16.5818C21.8645 16.5818 23.8166 17.2766 24.4877 17.6225C25.161 17.9482 26.3311 18.4467 26.3311 18.4467C32.7291 21.5486 38.1505 22.5235 38.1505 22.5235C49.6232 24.4537 48.9735 18.8596 48.9735 18.8596L48.973 18.8592ZM34.4642 14.5859C34.3103 14.5867 34.1577 14.557 34.0153 14.4985C33.8728 14.44 33.7434 14.3539 33.6345 14.2451C33.5255 14.1363 33.4392 14.007 33.3805 13.8647C33.3218 13.7224 33.2919 13.5698 33.2925 13.4159C33.2917 13.2618 33.3215 13.1091 33.3801 12.9666C33.4388 12.8241 33.525 12.6946 33.634 12.5857C33.743 12.4767 33.8724 12.3904 34.0149 12.3318C34.1574 12.2732 34.3101 12.2434 34.4642 12.2441C34.6182 12.2436 34.7707 12.2735 34.913 12.3322C35.0554 12.3909 35.1846 12.4772 35.2934 12.5862C35.4022 12.6951 35.4883 12.8245 35.5468 12.9669C35.6053 13.1093 35.635 13.2619 35.6343 13.4159C35.6349 13.5697 35.605 13.7221 35.5465 13.8644C35.4879 14.0066 35.4017 14.1358 35.2929 14.2446C35.1842 14.3534 35.0549 14.4395 34.9127 14.4981C34.7705 14.5567 34.618 14.5865 34.4642 14.5859Z"
            fill="url(#paint1_radial_380_479)"></path>
        <path
            d="M27.0482 10.1412L19.6529 7.84148C19.609 7.84148 19.3929 7.73234 19.0015 7.84148C19.0015 7.84148 14.6423 8.94792 15.4015 11.3327C15.4015 11.3327 15.8579 12.8301 17.0932 14.2821L25.2255 13.8923L27.0482 10.1412Z"
            fill="url(#paint2_linear_380_479)"></path>
    </g>
    <defs>
        <linearGradient id="paint0_linear_380_479" x1="8.85159" y1="51.2378" x2="35.8378" y2="22.5283"
            gradientUnits="userSpaceOnUse">
            <stop stop-color="#DF1C84"></stop>
            <stop offset="0.401" stop-color="#DE1C85"></stop>
            <stop offset="0.77" stop-color="#932C86"></stop>
            <stop offset="1" stop-color="#5C2F87"></stop>
        </linearGradient>
        <radialGradient id="paint1_radial_380_479" cx="0" cy="0" r="1" gradientUnits="userSpaceOnUse"
            gradientTransform="translate(38.5556 14.9121) rotate(0.136224) scale(26.3674 22.048)"></radialGradient>
    </defs>
</svg>