<svg width="56" height="55" viewBox="0 0 56 55" fill="none" xmlns="http://www.w3.org/2000/svg">
<g clip-path="url(#clip0_661_2789)">
<path d="M20.4628 0.388506C18.9528 0.336943 17.4734 0.782099 16.3562 1.94269C15.6834 2.6362 15.1192 3.39632 14.4914 4.08983C13.7751 4.87015 12.9071 5.52155 11.9103 5.88894C11.0423 6.21464 10.1743 6.14933 9.28659 6.30187C8.37565 6.45312 7.44194 6.77882 6.70546 7.36448C5.9028 8.01546 5.57753 8.88128 5.49159 9.8803C5.40437 10.661 5.42628 11.4633 5.38245 12.2436C5.27331 14.5433 4.53683 15.193 2.88855 16.4734C2.19503 16.9934 1.60937 17.6869 1.17452 18.4255C-0.126142 20.7235 1.95655 23.1082 2.06398 25.4298C2.08589 25.9068 2.04249 26.3833 1.86976 26.8396C1.69487 27.3381 1.3494 27.6638 1.0671 28.075C0.676084 28.6173 0.416124 29.2687 0.525694 29.9398C0.633116 30.6127 0.980303 31.2422 1.30601 31.8283C1.9355 32.8686 2.71581 33.8006 3.54038 34.69C3.57261 34.69 3.6044 34.7162 3.63663 34.7472C4.16515 36.3503 4.42726 36.9231 4.42726 36.9231C4.41866 36.896 4.39804 36.8037 4.37355 36.6984C5.08253 38.4167 5.98101 40.0852 7.05565 41.6944C12.6932 50.1085 21.8464 53.0141 21.8464 53.0141C35.4 57.6113 44.6602 50.8454 44.6602 50.8454C53.1835 44.9888 54.8971 38.2233 54.8971 38.2233C48.0221 43.603 45.0512 43.1024 45.0512 43.1024C50.039 40.9338 52.1638 37.1826 52.1638 37.1826C56.8268 30.8276 55.2438 24.1275 55.2438 24.1275C52.273 30.5895 49.5603 32.3689 49.5603 32.3689C56.8702 21.2421 49.6037 14.5196 49.6037 14.5196C52.575 20.8528 48.6284 28.5721 48.6284 28.5721C45.3103 35.5563 40.6039 38.0506 40.6039 38.0506C45.8526 39.026 49.7129 35.491 49.7129 35.491C42.1865 43.6232 34.0327 43.2339 34.0327 43.2339C37.4603 47.0723 42.5998 46.7471 42.5998 46.7471C35.8774 48.3296 29.5666 46.0957 24.3832 41.7799C23.4015 40.9749 22.4741 40.1059 21.607 39.1785C21.607 39.1785 20.8267 38.3544 20.6737 38.1378L20.6523 38.1164C20.5448 42.1275 24.7291 45.8572 24.7291 45.8572C19.4805 43.6885 17.0738 38.9822 17.0738 38.9822C17.0738 38.9822 13.5388 32.9541 16.0984 26.0808C18.6564 19.2058 26.3993 17.7294 26.3993 17.7294C26.6425 17.8476 26.8724 17.9417 27.1126 18.0534C27.379 18.1771 27.6428 18.2972 27.9041 18.4135C33.6189 20.9598 38.22 21.8063 38.22 21.8063C49.6489 23.715 48.9992 18.1204 48.9992 18.1204C49.0542 15.6643 47.1923 13.1391 45.3537 11.2446C44.9839 10.8631 44.6027 10.4929 44.2107 10.1342C44.1772 10.1037 44.1428 10.0698 44.1098 10.0397C43.74 9.70438 43.3618 9.37857 42.9754 9.06261L42.9676 9.05702C42.5935 8.74815 42.2097 8.45109 41.8169 8.16628C41.1563 7.67972 40.4762 7.22001 39.7785 6.78827C39.656 6.71179 39.5332 6.628 39.4111 6.55409C39.3454 6.51499 39.2809 6.48061 39.2156 6.44194C36.8614 5.04503 34.5746 4.13452 32.4205 3.57679C32.3346 3.55401 32.2512 3.53769 32.1662 3.5162C31.9144 3.4539 31.6626 3.3903 31.4151 3.33745C29.5958 2.94107 27.7378 2.75053 25.876 2.7694C25.8051 2.70065 25.1812 2.09995 24.7498 1.81249C23.5131 0.98835 21.9731 0.440498 20.4632 0.389365L20.4628 0.388506ZM34.4646 11.4839C34.637 11.4834 34.8075 11.5211 34.9636 11.5945C35.1197 11.6678 35.2576 11.7748 35.3673 11.9079C35.4771 12.0409 35.5559 12.1967 35.5982 12.3639C35.6405 12.5311 35.6451 12.7056 35.6118 12.8748C35.5573 13.1378 35.4136 13.3738 35.205 13.543C34.9964 13.7121 34.7357 13.804 34.4671 13.8029C34.295 13.8038 34.1248 13.7665 33.9688 13.6937C33.8128 13.621 33.6748 13.5146 33.5648 13.3822C33.4548 13.2498 33.3754 13.0947 33.3325 12.928C33.2896 12.7613 33.2841 12.5871 33.3164 12.418C33.3698 12.1534 33.5135 11.9155 33.723 11.7451C33.9324 11.5747 34.1946 11.4823 34.4646 11.4839Z" fill="#A7A7A7"/>
</g>
<defs>
<clipPath id="clip0_661_2789">
<rect width="55" height="55" fill="white" transform="translate(0.5)"/>
</clipPath>
</defs>
</svg>
