<svg width="56" height="56" viewBox="0 0 56 56" fill="none" xmlns="http://www.w3.org/2000/svg">
   <path d="M29.0656 51.5625L27.7748 51.1346C27.7748 51.1346 27.9467 44.6033 25.5834 44.1444C24.0365 42.3432 25.812 -32.7542 31.4667 43.8883C30.3938 44.4325 29.5729 45.3705 29.1756 46.506C28.9626 48.183 28.9258 49.8778 29.0656 51.5625Z" fill="#C0C0C0"/>
<path d="M29.7634 45.253C33.2002 42.6659 35.8322 39.1565 37.3534 35.1328C38.8747 31.1091 39.2228 26.7362 38.3572 22.5225C35.8306 11.3764 29.8477 7.71205 29.2031 6.31299C28.647 5.44181 28.1724 4.52125 27.7852 3.56299L28.2613 34.6191C28.2613 34.6191 27.2747 44.11 29.7634 45.253Z" fill="#797979"/>
<path d="M27.1183 45.6655C27.1183 45.6655 16.5979 38.5 17.2063 25.8242C17.2631 22.0028 18.1393 18.2381 19.7757 14.7844C21.4121 11.3306 23.7707 8.2683 26.6921 5.80422C27.0335 5.51417 27.3047 5.15054 27.4854 4.74062C27.6661 4.33071 27.7516 3.88518 27.7354 3.4375C28.3902 4.84687 28.2837 24.4802 28.3524 26.7764C28.6188 35.7088 27.8557 43.9794 27.1183 45.6655Z" fill="#8E8E8E"/>

</svg>