<svg width="55" height="55" viewBox="0 0 55 55" fill="none" xmlns="http://www.w3.org/2000/svg">
    <path d="M10.144 46.7517L6.28198 3.4375H48.7179L44.8507 46.7448L27.4742 51.5625L10.144 46.7517Z" fill="#E44F26" class="svg-elem-1">
    </path>
    <path d="M27.5 47.8808L41.5422 43.9879L44.8456 6.97974H27.5V47.8808Z" fill="#F1662A" class="svg-elem-2"></path>
    <path d="M27.5 23.0433H20.4703L19.9856 17.6034H27.5V12.2908H14.1797L14.3069 13.7173L15.6114 28.3559H27.5V23.0433ZM27.5 36.8397L27.4759 36.8466L21.56 35.2498L21.1819 31.0131H15.8486L16.5928 39.3525L27.4759 42.3741L27.5 42.3672V36.8397Z" fill="#EBEBEB" class="svg-elem-3"></path>
    <path d="M27.4812 23.0433V28.3559H34.0228L33.4075 35.2464L27.4812 36.8448V42.3723L38.3729 39.3525L38.452 38.4553L39.6998 24.4698L39.8304 23.0433H27.4812ZM27.4812 12.2908V17.6034H40.3134L40.42 16.4106L40.6623 13.7173L40.7895 12.2908H27.4812Z" fill="white" class="svg-elem-4"></path>
</svg>