<svg width="55" height="56" viewBox="0 0 55 56" fill="none" xmlns="http://www.w3.org/2000/svg">
<path d="M10.144 47.0115L6.28198 3.69727H48.7179L44.8507 47.0046L27.4742 51.8223L10.144 47.0115Z" fill="#525252"/>
<path d="M27.5 48.1407L41.5422 44.2477L44.8456 7.23962H27.5V48.1407Z" fill="#626262"/>
<path d="M27.5 23.303H20.4703L19.9856 17.8632H27.5V12.5505H14.1797L14.3069 13.9771L15.6114 28.6157H27.5V23.303ZM27.5 37.0994L27.4759 37.1063L21.56 35.5096L21.1819 31.2729H15.8486L16.5928 39.6123L27.4759 42.6338L27.5 42.6269V37.0994Z" fill="#EBEBEB"/>
<path d="M27.4811 23.303V28.6157H34.0226L33.4073 35.5062L27.4811 37.1046V42.6321L38.3728 39.6123L38.4519 38.7151L39.6997 24.7296L39.8303 23.303H27.4811ZM27.4811 12.5505V17.8632H40.3133L40.4198 16.6704L40.6622 13.9771L40.7894 12.5505H27.4811Z" fill="white"/>
</svg>
