<svg width="56" height="55" viewBox="0 0 56 55" fill="none" xmlns="http://www.w3.org/2000/svg">
<g clip-path="url(#clip0_587_66)">
<path d="M27.9742 31.7866L21.8692 22.2441L21.8589 30.262L11.3384 12.5469H3.9375V42.4531H11.2559L11.28 24.762L21.6922 41.6591L27.9742 31.7866ZM21.8709 20.2348H29.1808L29.1962 20.1506V12.5469H21.8778L21.8692 20.1489L21.8709 20.2348Z" fill="#143055"/>
<path d="M40.4763 28.5312C39.6209 28.5127 38.7808 28.7607 38.0726 29.2408C37.3643 29.7208 36.8228 30.4093 36.5232 31.2108C37.0206 30.466 37.7571 29.9131 38.6111 29.6434C39.4652 29.3738 40.3856 29.4034 41.2205 29.7275C42.0231 30.2048 42.9607 30.4041 43.888 30.2947C43.5009 29.7503 42.9893 29.3062 42.3959 28.9995C41.8025 28.6927 41.1443 28.5322 40.4763 28.5312Z" fill="#96D8E9"/>
<path d="M48.7712 32.1236C48.7712 31.2281 48.2831 31.0201 47.2707 30.6523C46.4071 30.4383 45.6312 29.9615 45.0501 29.2876C44.9281 29.1278 44.8164 28.9439 44.696 28.7548C44.4275 28.2598 44.0643 27.8224 43.627 27.4675C42.9279 27.0023 42.0969 26.7761 41.2585 26.8229C40.2727 26.8226 39.3091 27.1157 38.4903 27.6648C37.6716 28.2139 37.0348 28.9942 36.6609 29.9064C37.1379 29.2446 37.7801 28.7195 38.5233 28.3833C39.2666 28.0471 40.085 27.9117 40.897 27.9905C41.7089 28.0692 42.486 28.3595 43.1508 28.8323C43.8156 29.3051 44.3448 29.9439 44.6857 30.685C44.8542 30.9637 45.109 31.1798 45.4114 31.3005C45.7139 31.4212 46.0475 31.4398 46.3615 31.3536C47.3481 31.1422 47.281 32.0772 48.7678 32.3848L48.7712 32.1236Z" fill="#48C4E5"/>
<path d="M52.028 31.931V31.9121C52.0287 29.0342 50.9014 26.2707 48.8881 24.2142C46.8747 22.1578 44.1356 20.9724 41.2584 20.9121C39.4745 20.9112 37.7183 21.3538 36.148 22.2002C34.5777 23.0466 33.2424 24.2701 32.2624 25.7607L32.2246 25.6954L29.1773 20.9121H21.8708L28.8146 31.7866L22.0376 42.4532H29.136L32.2298 37.7095L35.3734 42.4532H42.4718L36.0351 32.3126C35.9263 32.1161 35.8673 31.896 35.8632 31.6715C35.8637 30.2407 36.4322 28.8687 37.4439 27.857C38.4556 26.8454 39.8276 26.2768 41.2584 26.2763C42.1324 26.2351 42.9978 26.465 43.7362 26.9345C44.4746 27.404 45.0499 28.0901 45.3834 28.8991C46.6552 30.5543 49.1938 29.8307 49.1938 31.9929C49.1966 32.1789 49.2361 32.3625 49.3098 32.5332C49.3836 32.704 49.4903 32.8585 49.6238 32.988C49.7573 33.1176 49.915 33.2195 50.0879 33.2881C50.2608 33.3566 50.4456 33.3905 50.6316 33.3877C50.8175 33.3848 51.0011 33.3454 51.1719 33.2716C51.3426 33.1979 51.4972 33.0912 51.6267 32.9577C51.7562 32.8242 51.8582 32.6664 51.9267 32.4935C51.9953 32.3206 52.0291 32.1359 52.0263 31.9499L52.028 31.931ZM52.0349 33.459C52.1075 33.963 52.036 34.4772 51.8287 34.9423C51.4248 35.879 50.7493 35.5662 50.7493 35.5662C50.6739 35.5336 50.6069 35.4845 50.553 35.4226C50.4991 35.3606 50.4597 35.2874 50.4378 35.2083C50.4159 35.1292 50.4119 35.0462 50.4263 34.9653C50.4406 34.8845 50.4729 34.8079 50.5207 34.7412C50.9126 34.1362 51.6877 34.2032 52.0349 33.459Z" fill="#143055"/>
</g>
<defs>
<clipPath id="clip0_587_66">
<rect width="55" height="55" fill="white" transform="translate(0.5)"/>
</clipPath>
</defs>
</svg>
