<svg width="56" height="56" viewBox="0 0 56 56" fill="none">
    <path fill-rule="evenodd" clip-rule="evenodd"
        d="M15.2242 12.5393C14.7689 12.5379 14.3154 12.5957 13.875 12.7112V12.7714H13.9403C14.2557 13.2475 14.6074 13.6986 14.9922 14.1206C15.2569 14.6465 15.4872 15.1707 15.7502 15.6967L15.8155 15.6296C16.0596 15.4358 16.2507 15.1833 16.3709 14.8957C16.4912 14.6081 16.5366 14.2947 16.503 13.9848C16.359 13.7629 16.2271 13.5334 16.1077 13.2973C15.91 12.969 15.482 12.804 15.2191 12.5411"
        fill="#5D87A1"></path>
    <path fill-rule="evenodd" clip-rule="evenodd"
        d="M47.8719 41.2219C45.7038 41.0696 43.5283 41.3837 41.4919 42.1431C40.9986 42.3408 40.2114 42.3408 40.1426 42.9647C40.4073 43.2276 40.4383 43.6522 40.6703 44.0183C41.1205 44.7804 41.699 45.459 42.3804 46.0241C43.0679 46.55 43.7555 47.0742 44.4859 47.5348C45.7664 48.3272 47.2153 48.7861 48.4631 49.575C49.1884 50.0356 49.9103 50.6269 50.6356 51.1219C50.9965 51.3848 51.2251 51.8094 51.6858 51.9812V51.8815C51.5504 51.5163 51.3831 51.1637 51.1856 50.828C50.8573 50.5014 50.5273 50.204 50.1973 49.8758C49.2332 48.601 48.0798 47.4811 46.777 46.5551C45.7234 45.8298 43.4203 44.8364 42.9958 43.6333L42.9287 43.5662C43.6997 43.457 44.4594 43.2799 45.1992 43.0369C46.3164 42.7412 47.3356 42.8083 48.4855 42.5212C49.0131 42.3889 49.967 42.0606 49.967 42.0606V41.545C49.3792 40.9606 48.9581 40.1786 48.3394 39.6269C46.656 38.1574 44.8621 36.8197 42.9734 35.6256C41.9645 34.9742 40.6634 34.5548 39.5892 33.9997C39.2008 33.8037 38.558 33.7075 38.3225 33.3809C37.7882 32.5971 37.341 31.7574 36.9887 30.8767C36.0271 29.0253 35.1379 27.1373 34.3229 25.2169C33.8428 23.9498 33.289 22.7119 32.6644 21.5095C29.6502 16.385 25.2996 12.1764 20.078 9.33389C18.7604 8.69616 17.3596 8.24717 15.9169 8.00014C15.1022 7.96577 14.2909 7.90218 13.478 7.87124C12.9532 7.52743 12.454 7.14601 11.9844 6.72999C10.1247 5.55264 5.34655 3.02264 3.97842 6.37249C3.10186 8.48827 5.28123 10.568 6.02889 11.6422C6.65931 12.3996 7.21478 13.2164 7.68748 14.0811C7.91608 14.6345 7.98139 15.2206 8.20311 15.7998C8.68021 17.2867 9.24671 18.7434 9.89951 20.162C10.2487 20.8631 10.6509 21.5366 11.1026 22.1764C11.3656 22.5356 11.8194 22.692 11.9173 23.285C11.5569 24.0597 11.3047 24.8804 11.168 25.7239C10.5998 27.5181 10.3907 29.4066 10.5526 31.2817C10.7145 33.1567 11.2443 34.9815 12.1115 36.6517C12.6272 37.4647 13.8681 39.2539 15.5267 38.5698C16.9894 37.9855 16.6645 36.1309 17.0873 34.5067C17.1836 34.1131 17.12 33.8553 17.3142 33.5958V33.912C17.3142 33.912 18.1444 35.7356 18.5569 36.662C19.6787 38.3619 21.0722 39.8658 22.6819 41.1136C23.3186 41.6695 23.8315 42.3528 24.1875 43.1194V43.7089H24.9214C24.9061 43.4431 24.8324 43.1839 24.7056 42.9498C24.5787 42.7157 24.4018 42.5125 24.1875 42.3545C23.5856 41.7351 23.0345 41.0683 22.5392 40.3608C21.1939 38.4447 20.0074 36.4219 18.9917 34.3125C18.4761 33.2812 18.0412 32.1503 17.6287 31.1208C17.4397 30.7237 17.4397 30.1239 17.1217 29.9176C16.5346 30.6123 16.0251 31.369 15.6023 32.1744C15.0891 33.8021 14.7904 35.4898 14.7137 37.1948C14.5883 37.2292 14.6501 37.1948 14.5883 37.2601C13.5759 36.9937 13.227 35.8989 12.8455 34.9708C11.8598 32.1083 11.7603 29.015 12.5601 26.0951C12.7801 25.399 13.734 23.2059 13.3525 22.5408C13.1617 21.9065 12.5275 21.5439 12.1803 21.0437C11.7371 20.3709 11.3557 19.6593 11.0408 18.9176C10.2862 17.0683 9.90467 15.0058 9.08311 13.1426C8.62832 12.2466 8.09879 11.3905 7.50014 10.5834C6.83793 9.77722 6.2538 8.90994 5.75561 7.99327C5.59748 7.62718 5.37576 7.02905 5.62842 6.6303C5.64547 6.51954 5.69815 6.41734 5.77847 6.33919C5.85879 6.26104 5.96239 6.21119 6.07358 6.19718C6.48264 5.8328 7.65654 6.29686 8.06733 6.49624C9.17137 6.93087 10.223 7.48839 11.2023 8.15827C11.6458 8.49171 12.6908 9.33561 12.6908 9.33561H13.0001C14.052 9.56421 15.2345 9.39921 16.2245 9.69655C17.8914 10.2522 19.4822 11.0144 20.9597 11.9653C25.3144 14.7413 28.8546 18.6232 31.2189 23.2145C31.6142 23.9691 31.7809 24.6617 32.1419 25.4489C32.8294 27.0645 33.6887 28.7145 34.3762 30.2855C34.9827 31.8397 35.7671 33.3185 36.7137 34.6923C37.2053 35.3798 39.1801 35.7442 40.0687 36.1051C40.8404 36.3721 41.5977 36.679 42.3375 37.0247C43.4564 37.7122 44.5719 38.5045 45.6255 39.259C46.1497 39.6544 47.7945 40.4759 47.8942 41.1342"
        fill="#00758F"></path>
</svg>