<svg width="56" height="56" viewBox="0 0 56 56" fill="none" xmlns="http://www.w3.org/2000/svg">
    <path
        d="M31.5235 51.6351C31.5957 51.4719 31.7779 51.3584 31.9102 51.2209C33.9297 49.1034 35.9665 47.0048 37.9585 44.8615C38.5818 44.2858 39.0635 43.5737 39.3659 42.7809C39.6682 41.988 39.783 41.136 39.7013 40.2914C39.6388 39.9297 39.5567 39.5717 39.4555 39.2189C38.9124 39.7345 38.4071 40.2037 37.8983 40.6764C37.1077 41.412 36.3205 42.1511 35.523 42.8781C35.0528 43.3576 34.4481 43.6831 33.789 43.8117C33.1298 43.9403 32.4471 43.8658 31.8312 43.5983C31.2076 43.3692 30.6651 42.962 30.2709 42.4273C29.8767 41.8926 29.6483 41.2539 29.614 40.5904C29.5955 40.5051 29.5708 40.4212 29.5401 40.3395C28.9333 40.8551 28.3524 41.3295 27.7766 41.8176L15.809 51.9583C15.7265 52.0287 15.6371 52.1164 15.5597 52.1851H31.5149L31.4908 52.1697C31.4049 52.1095 31.4496 51.7933 31.5235 51.6351ZM14.8293 51.6351C14.9712 51.4503 15.1425 51.2901 15.3363 51.1608L31.8982 37.11C33.028 36.1509 34.1526 35.1867 35.2721 34.2173C35.4104 34.1209 35.5188 33.9875 35.5849 33.8323C35.8527 32.6655 35.8906 31.4576 35.6966 30.2762C35.5247 30.3965 35.4319 30.4481 35.3529 30.5323C33.9968 31.7458 32.6476 32.9695 31.2846 34.1761C30.8331 34.6305 30.2491 34.9301 29.6166 35.0317C28.9841 35.1333 28.3357 35.0317 27.7646 34.7415C27.1819 34.4665 26.6943 34.0243 26.3637 33.4712C26.0332 32.9181 25.8746 32.2792 25.9083 31.6358V31.0789C25.6591 31.2611 25.4769 31.3831 25.3068 31.5206C18.6781 36.8281 12.0506 42.1316 5.42428 47.4311C5.12521 47.67 4.76772 48.2028 4.37584 47.6854C3.98397 47.1681 4.58037 46.955 4.88115 46.7144C11.9452 41.0459 19.0127 35.3826 26.0837 29.7245C27.2352 28.8015 27.3108 28.4148 26.5615 26.9487L26.1146 27.3681C24.8891 28.5076 23.6499 29.6317 22.4433 30.7901C21.9484 31.2675 21.3285 31.5952 20.6553 31.7353C19.9821 31.8754 19.283 31.8223 18.6387 31.582C17.9943 31.3417 17.4311 30.9241 17.0141 30.3774C16.597 29.8306 16.3431 29.1771 16.2816 28.4922C16.053 28.664 15.8554 28.7895 15.668 28.9356L5.18365 37.0619C5.00283 37.2392 4.79661 37.3887 4.57178 37.5053C4.40209 37.5566 4.21988 37.5475 4.05615 37.4795V52.1937H14.8087C14.7687 52.1054 14.7497 52.0089 14.7533 51.912C14.7569 51.8151 14.7829 51.7203 14.8293 51.6351Z"
        fill="#FFCEBF"></path>
    <path
        d="M43.8761 4.92479C43.5839 5.88213 43.3003 6.84119 43.0442 7.80885C42.8076 8.49267 42.8351 9.2402 43.1213 9.90478C43.4075 10.5694 43.9317 11.103 44.5911 11.401C46.6079 12.4612 48.8805 12.9374 51.1532 12.776V5.08807C51.128 4.91951 51.1373 4.74758 51.1807 4.58275C51.2289 4.48952 51.2896 4.40335 51.3612 4.32666H43.8692C43.9843 4.46072 43.9448 4.69619 43.8761 4.92479Z"
        fill="#FF6196"></path>
    <path
        d="M28.8284 21.4404C28.7928 22.2985 28.4926 23.1245 27.9691 23.8054C26.0974 26.2215 23.9479 28.409 21.565 30.3229C21.1807 30.6786 20.6937 30.9034 20.1737 30.9652C19.6537 31.0269 19.1275 30.9224 18.6706 30.6666C18.2159 30.4723 17.8324 30.142 17.573 29.721C17.3135 29.2999 17.1908 28.8089 17.2217 28.3154C17.2768 27.7092 17.5285 27.1376 17.9384 26.6877C20.6031 24.1469 23.4901 21.85 26.5648 19.8247C26.7662 19.6668 27.0121 19.5762 27.2678 19.5657C27.5235 19.5552 27.7761 19.6254 27.9897 19.7663C28.2705 19.9406 28.4975 20.1893 28.6455 20.4848C28.7936 20.7803 28.8569 21.1111 28.8284 21.4404ZM26.7694 31.8577C26.7295 31.4778 26.7783 31.0938 26.9119 30.7359C27.0455 30.378 27.2603 30.056 27.5394 29.7952C30.1484 27.3888 32.9476 25.1971 35.9097 23.2416C35.9991 23.1849 36.0816 23.1282 36.1795 23.0697C36.4383 22.8829 36.7518 22.7875 37.0707 22.7984C37.3896 22.8093 37.6959 22.9259 37.9412 23.1299C38.1787 23.331 38.3467 23.6019 38.4213 23.9039C38.496 24.206 38.4736 24.524 38.3572 24.8125C37.9824 26.0607 37.2908 27.1905 36.3497 28.0919C34.4383 29.9749 32.49 31.8201 30.5059 33.6263C30.2071 33.9336 29.8146 34.1327 29.3902 34.1925C28.9658 34.2522 28.5336 34.1691 28.1616 33.9563C27.7707 33.7532 27.4378 33.454 27.1943 33.0869C26.9507 32.7198 26.8045 32.2968 26.7694 31.8577ZM39.1719 32.9938C38.6906 33.5094 38.1956 34.001 37.7333 34.5286C37.5943 34.7326 37.4789 34.9517 37.3895 35.1818C37.6439 35.2574 37.9412 35.4568 38.1475 35.3863C39.1977 35.0339 40.222 34.6111 41.3753 34.166C41.1244 34.7435 40.9353 35.2763 40.6689 35.7644C39.5714 37.6089 38.197 39.2737 36.5937 40.7007C35.9842 41.2885 35.3511 41.8505 34.6945 42.3868C34.3468 42.6753 33.9287 42.8663 33.483 42.9402C33.0373 43.0142 32.5799 42.9683 32.1577 42.8075C31.7354 42.6467 31.3635 42.3765 31.0799 42.0248C30.7964 41.673 30.6113 41.2522 30.5437 40.8055C30.5162 40.5571 30.5382 40.3057 30.6084 40.0659C30.6786 39.826 30.7957 39.6025 30.9528 39.4082C33.2917 36.8683 35.9647 34.6578 38.8986 32.8374C38.9343 32.8235 38.9721 32.816 39.0103 32.815L39.1719 32.9938Z"
        fill="#FF87AF"></path>
    <path
        d="M43.1147 26.1479L46.0555 13.0854L48.118 13.5684L47.0541 16.8014C46.0606 19.8092 45.0552 22.817 44.0858 25.8283C43.8967 26.3851 43.6492 26.4883 43.1147 26.1479ZM39.7941 33.8308C40.1052 32.6431 40.4145 31.5448 40.6758 30.4345C40.9304 29.3578 41.4147 28.3487 42.0955 27.4765C42.5131 26.9283 42.9823 27.1465 43.4619 27.2651C43.9053 27.3734 44.017 27.6983 44.0359 28.1245C44.1059 29.3033 43.7469 30.4675 43.0253 31.4022C42.1663 32.4671 41.0559 33.3017 39.7941 33.8308Z"
        fill="#FF6196"></path>
    <path
        d="M52.0504 5.73431C52.0761 5.35151 52.0663 4.96717 52.0212 4.58618C51.9857 4.47976 51.9155 4.38835 51.8218 4.32665C51.7455 4.26461 51.6563 4.22055 51.5606 4.19774C51.5056 4.18743 51.4283 4.24415 51.3543 4.32493C51.2827 4.40162 51.222 4.48779 51.1739 4.58102C51.1305 4.74585 51.1211 4.91778 51.1464 5.08634V12.7726C48.8736 12.9339 46.601 12.4577 44.5842 11.3976C43.9248 11.0996 43.4007 10.5659 43.1145 9.90133C42.8283 9.23675 42.8008 8.48922 43.0373 7.8054C43.2934 6.83774 43.577 5.87868 43.8692 4.92134C43.9379 4.69274 43.9775 4.45727 43.8692 4.32321C43.809 4.25795 43.7258 4.21853 43.6372 4.21321C43.5236 4.21444 43.4137 4.2531 43.3243 4.32321C43.1958 4.40009 43.0934 4.51388 43.0304 4.64977C42.6867 5.68102 42.3842 6.72259 42.1212 7.77446C42.0219 8.18897 41.9952 8.61754 42.0422 9.04118C42.1087 9.8077 42.3937 10.539 42.8635 11.1484C43.3333 11.7577 43.9681 12.2194 44.6925 12.4787C45.0173 12.6145 45.2081 12.7485 45.117 13.1765C44.9915 13.7196 44.8695 14.2627 44.7458 14.8076C43.9036 18.4995 43.066 22.1931 42.2329 25.8884C42.2095 26.0531 42.137 26.207 42.025 26.3301C41.4759 26.7665 41.0146 27.3031 40.6654 27.9113C40.2205 28.7141 39.9126 29.5854 39.7545 30.4895C39.7242 30.7778 39.6199 31.0535 39.4519 31.2899C39.2839 31.5262 39.0578 31.7152 38.7954 31.8387C38.0787 32.2013 37.4204 32.6706 36.6247 33.1587C36.6777 32.2017 36.6674 31.2423 36.5937 30.2866C36.5332 29.9927 36.546 29.6883 36.6312 29.4005C36.7163 29.1127 36.8711 28.8503 37.0818 28.6366C38.1301 27.5982 38.8773 26.295 39.244 24.8657C39.3536 24.5344 39.3836 24.182 39.3317 23.8369C39.2798 23.4918 39.1475 23.1638 38.9453 22.8794C38.7432 22.5949 38.477 22.362 38.1682 22.1995C37.8594 22.037 37.5167 21.9494 37.1678 21.9438C36.6029 21.9375 36.0482 22.0952 35.5711 22.3976C33.931 23.5175 32.3195 24.6786 30.7379 25.8798C29.7978 26.5879 28.9126 27.3716 28.0017 28.1141C27.9624 28.072 27.9284 28.0252 27.9003 27.9749C27.8829 27.8484 27.8488 27.7247 27.7989 27.6071C27.0375 26.4315 27.5651 25.5773 28.3918 24.699C29.2531 23.7962 29.729 22.5934 29.7187 21.3457C29.7454 20.71 29.5463 20.0853 29.1567 19.5823C28.9491 19.3269 28.6933 19.1149 28.4039 18.9584C27.9927 18.7333 27.5226 18.6394 27.0566 18.6892C26.5906 18.739 26.1509 18.93 25.7965 19.2368L25.317 19.5806C24.2222 20.3643 23.1136 21.1274 22.06 21.9662C20.5219 23.1942 19.0168 24.4631 17.5465 25.7715C16.859 26.3782 16.3572 27.2066 15.6439 27.7704C11.9245 30.7077 8.1656 33.5918 4.42044 36.4948C4.29166 36.5716 4.17325 36.6646 4.0681 36.7715C4.05727 36.7871 4.04806 36.8038 4.0406 36.8213C3.96153 37.0052 3.8945 37.3095 3.98732 37.4212C4.01007 37.4454 4.03756 37.4647 4.0681 37.4779C4.23182 37.5459 4.41404 37.555 4.58372 37.5037C4.80855 37.387 5.01477 37.2376 5.1956 37.0602L15.68 28.934C15.8673 28.7879 16.065 28.6556 16.2936 28.4906C16.355 29.1755 16.609 29.829 17.026 30.3757C17.4431 30.9225 18.0063 31.3401 18.6506 31.5804C19.2949 31.8207 19.994 31.8738 20.6673 31.7337C21.3405 31.5936 21.9604 31.2659 22.4553 30.7885C23.6584 29.6301 24.9011 28.506 26.1265 27.3665L26.5734 26.9471C27.3228 28.4132 27.2472 28.7999 26.0956 29.7229C19.0189 35.3856 11.9474 41.0495 4.88107 46.7145C4.58028 46.9551 3.9856 47.1734 4.37575 47.6856C4.76591 48.1977 5.12513 47.6701 5.42419 47.4312C12.054 42.1363 18.6792 36.8345 25.2998 31.5259C25.4717 31.3884 25.6522 31.2663 25.9014 31.0841V31.641C25.8677 32.2845 26.0262 32.9234 26.3568 33.4765C26.6873 34.0295 27.175 34.4717 27.7576 34.7468C28.3287 35.037 28.9772 35.1385 29.6097 35.0369C30.2421 34.9353 30.8261 34.6358 31.2776 34.1813C32.6406 32.9782 33.9898 31.751 35.3459 30.5376C35.4318 30.4602 35.5315 30.4018 35.6897 30.2815C35.8837 31.4629 35.8457 32.6707 35.5779 33.8376C35.5118 33.9927 35.4034 34.1261 35.2651 34.2226C34.1445 35.1908 33.0199 36.155 31.8912 37.1152L15.3362 51.1677C15.1424 51.2971 14.9711 51.4573 14.8292 51.6421C14.7839 51.7264 14.7585 51.82 14.7549 51.9156C14.7513 52.0112 14.7697 52.1064 14.8086 52.1938C14.8862 52.252 14.976 52.292 15.0712 52.3107C15.1664 52.3295 15.2646 52.3265 15.3586 52.3021C15.4327 52.2806 15.5009 52.2424 15.5579 52.1904C15.6439 52.1217 15.7298 52.034 15.8072 51.9635L27.7748 41.8229C28.3506 41.3348 28.9315 40.8535 29.5383 40.3448C29.569 40.4265 29.5937 40.5104 29.6122 40.5957C29.6465 41.2591 29.8749 41.8978 30.2691 42.4326C30.6633 42.9673 31.2058 43.3745 31.8293 43.6035C32.4453 43.8711 33.128 43.9455 33.7872 43.817C34.4463 43.6884 35.051 43.3628 35.5212 42.8834C36.3187 42.1563 37.1059 41.4173 37.8965 40.6816C38.4122 40.209 38.9106 39.7346 39.4537 39.2241C39.5549 39.577 39.637 39.935 39.6995 40.2966C39.7785 41.1385 39.6624 41.9871 39.3601 42.7768C39.0578 43.5664 38.5776 44.2757 37.9567 44.8496C35.9647 46.9946 33.9279 49.0932 31.9084 51.209C31.7761 51.3465 31.5939 51.4599 31.5217 51.6232C31.4495 51.7865 31.4031 52.1062 31.489 52.1749L31.5131 52.1904C31.6933 52.278 31.896 52.3086 32.094 52.2781C32.1495 52.2667 32.199 52.2355 32.2333 52.1904C32.2814 52.1406 32.3278 52.0787 32.3742 52.0323C34.0104 50.341 35.6553 48.6584 37.2795 46.9551C37.9351 46.2909 38.5515 45.589 39.1254 44.8531C39.8739 44.0245 40.3702 42.9994 40.5559 41.8984C40.7416 40.7974 40.6091 39.6663 40.1739 38.6381C40.1271 38.4088 40.1728 38.1703 40.3011 37.9746C40.4128 37.7821 40.5365 37.5948 40.6637 37.4091C41.0707 36.8808 41.4096 36.3033 41.6726 35.6904C42.1808 34.1861 42.9609 32.788 43.974 31.5654C44.4398 30.9749 44.7602 30.2832 44.9095 29.546C45.0588 28.8089 45.0327 28.047 44.8334 27.3218C44.763 27.0461 44.763 26.7571 44.8334 26.4813C45.7031 23.7881 46.5986 21.1034 47.4854 18.417L48.6714 14.8179L49.0375 13.7059C49.8178 13.7059 50.5534 13.6904 51.2856 13.7059C51.894 13.7231 52.0797 13.4377 52.0728 12.8465C52.0367 10.4746 52.0504 8.10446 52.0504 5.73431ZM21.565 30.3227C21.1807 30.6785 20.6936 30.9033 20.1737 30.9651C19.6537 31.0268 19.1275 30.9223 18.6706 30.6665C18.2158 30.4722 17.8324 30.1419 17.5729 29.7208C17.3135 29.2998 17.1908 28.8088 17.2217 28.3152C17.2767 27.7091 17.5284 27.1375 17.9384 26.6876C20.603 24.1468 23.4901 21.8499 26.5648 19.8246C26.7326 19.706 26.9235 19.624 27.1251 19.584C27.2603 19.5591 27.399 19.5591 27.5342 19.584C27.6961 19.6155 27.8506 19.6773 27.9897 19.7662C28.2707 19.9407 28.4979 20.1896 28.646 20.4855C28.794 20.7813 28.8572 21.1124 28.8284 21.442C28.7928 22.3001 28.4926 23.1262 27.969 23.807C26.0972 26.2225 23.9478 28.4095 21.565 30.3227ZM30.5025 33.6382C30.2037 33.9455 29.8112 34.1447 29.3868 34.2044C28.9623 34.2641 28.5301 34.1811 28.1581 33.9682C27.7665 33.7646 27.4332 33.4647 27.1896 33.0966C26.946 32.7285 26.8002 32.3045 26.7659 31.8645C26.726 31.4845 26.7748 31.1006 26.9084 30.7427C27.042 30.3848 27.2568 30.0628 27.5359 29.802C30.1449 27.3955 32.9442 25.2039 35.9062 23.2484C35.9956 23.1916 36.0781 23.1349 36.1761 23.0765C36.4348 22.8897 36.7483 22.7942 37.0672 22.8051C37.3861 22.816 37.6924 22.9326 37.9378 23.1367C38.1752 23.3378 38.3432 23.6086 38.4179 23.9107C38.4926 24.2128 38.4701 24.5307 38.3537 24.8193C37.979 26.0675 37.2874 27.1973 36.3462 28.0987C34.4504 29.9927 32.479 31.8163 30.5059 33.6313L30.5025 33.6382ZM40.662 35.7712C39.566 37.6127 38.194 39.2752 36.5937 40.7006C35.9841 41.2884 35.3511 41.8504 34.6945 42.3867C34.3468 42.6752 33.9287 42.8662 33.483 42.9401C33.0372 43.014 32.5799 42.9682 32.1576 42.8074C31.7354 42.6465 31.3635 42.3764 31.0799 42.0247C30.7964 41.6729 30.6113 41.2521 30.5437 40.8054C30.5162 40.557 30.5381 40.3056 30.6083 40.0658C30.6786 39.8259 30.7956 39.6024 30.9528 39.4081C33.2917 36.8682 35.9647 34.6577 38.8986 32.8373C38.9342 32.8234 38.972 32.8159 39.0103 32.8149L39.1822 32.9868C38.7009 33.5024 38.2059 33.994 37.7436 34.5216C37.6045 34.7256 37.4892 34.9447 37.3998 35.1748C37.6542 35.2504 37.9515 35.4498 38.1578 35.3793C38.9879 35.1009 39.8043 34.7777 40.6792 34.434L41.3856 34.159C41.1209 34.7434 40.9318 35.2762 40.6654 35.7643L40.662 35.7712ZM43.0218 31.4141C42.3807 32.2303 41.5772 32.9046 40.662 33.3941C40.379 33.5523 40.0885 33.7001 39.7906 33.8376C40.0965 32.6671 40.4025 31.5826 40.662 30.486L40.6723 30.4413C40.9269 29.3646 41.4112 28.3556 42.092 27.4834C42.5097 26.9351 42.9789 27.1534 43.4584 27.272C43.9018 27.3802 44.0136 27.7051 44.0325 28.1313C44.1029 29.3091 43.7452 30.4726 43.0253 31.4073L43.0218 31.4141ZM47.0437 16.8048C46.0503 19.8126 45.0448 22.8204 44.0754 25.8316C43.8933 26.3971 43.6458 26.5002 43.1112 26.1599L45.6601 14.8282L46.052 13.0888L48.1145 13.5718L47.7003 14.8282L47.0437 16.8048Z"
        fill="black"></path>
</svg>