<svg width="56" height="55" viewBox="0 0 56 55" fill="none" xmlns="http://www.w3.org/2000/svg">
<path d="M31.5235 50.8749C31.5957 50.7116 31.7779 50.5982 31.9102 50.4607C33.9297 48.3432 35.9665 46.2446 37.9585 44.1013C38.5818 43.5256 39.0635 42.8134 39.3659 42.0206C39.6682 41.2278 39.783 40.3757 39.7013 39.5311C39.6388 39.1695 39.5567 38.8114 39.4555 38.4586C38.9124 38.9743 38.4071 39.4435 37.8983 39.9161C37.1077 40.6518 36.3205 41.3908 35.523 42.1178C35.0528 42.5973 34.4481 42.9229 33.789 43.0514C33.1298 43.18 32.4471 43.1056 31.8312 42.838C31.2076 42.6089 30.6651 42.2018 30.2709 41.667C29.8767 41.1323 29.6483 40.4936 29.614 39.8302C29.5955 39.7449 29.5708 39.661 29.5401 39.5793C28.9333 40.0949 28.3524 40.5693 27.7766 41.0574L15.809 51.198C15.7265 51.2685 15.6371 51.3561 15.5597 51.4249H31.5149L31.4908 51.4094C31.4049 51.3493 31.4496 51.033 31.5235 50.8749ZM14.8293 50.8749C14.9712 50.6901 15.1425 50.5298 15.3363 50.4005L31.8982 36.3497C33.028 35.3907 34.1526 34.4264 35.2721 33.4571C35.4104 33.3606 35.5188 33.2272 35.5849 33.0721C35.8527 31.9052 35.8906 30.6974 35.6966 29.516C35.5247 29.6363 35.4319 29.6879 35.3529 29.7721C33.9968 30.9855 32.6476 32.2093 31.2846 33.4158C30.8331 33.8702 30.2491 34.1698 29.6166 34.2714C28.9841 34.373 28.3357 34.2714 27.7646 33.9813C27.1819 33.7062 26.6943 33.264 26.3637 32.7109C26.0332 32.1579 25.8746 31.519 25.9083 30.8755V30.3186C25.6591 30.5008 25.4769 30.6228 25.3068 30.7603C18.6781 36.0678 12.0506 41.3713 5.42428 46.6708C5.12521 46.9097 4.76772 47.4425 4.37584 46.9252C3.98397 46.4079 4.58037 46.1947 4.88115 45.9541C11.9452 40.2857 19.0127 34.6224 26.0837 28.9643C27.2352 28.0413 27.3108 27.6546 26.5615 26.1885L26.1146 26.6079C24.8891 27.7474 23.6499 28.8714 22.4433 30.0299C21.9484 30.5073 21.3285 30.835 20.6553 30.9751C19.9821 31.1152 19.283 31.062 18.6387 30.8218C17.9943 30.5815 17.4311 30.1638 17.0141 29.6171C16.597 29.0704 16.3431 28.4168 16.2816 27.7319C16.053 27.9038 15.8554 28.0293 15.668 28.1754L5.18365 36.3016C5.00283 36.479 4.79661 36.6284 4.57178 36.745C4.40209 36.7963 4.21988 36.7872 4.05615 36.7193V51.4335H14.8087C14.7687 51.3451 14.7497 51.2487 14.7533 51.1518C14.7569 51.0548 14.7829 50.9601 14.8293 50.8749Z" fill="#C8C8C8"/>
<path d="M43.8761 4.16453C43.5839 5.12187 43.3003 6.08094 43.0442 7.04859C42.8076 7.73241 42.8351 8.47994 43.1213 9.14452C43.4075 9.8091 43.9317 10.3428 44.5911 10.6408C46.6079 11.7009 48.8805 12.1771 51.1532 12.0158V4.32781C51.128 4.15926 51.1373 3.98732 51.1807 3.8225C51.2289 3.72927 51.2896 3.6431 51.3612 3.56641H43.8692C43.9843 3.70047 43.9448 3.93594 43.8761 4.16453Z" fill="#707070"/>
<path d="M28.8284 20.6801C28.7928 21.5382 28.4926 22.3643 27.9691 23.0451C26.0974 25.4612 23.9479 27.6488 21.565 29.5626C21.1807 29.9183 20.6937 30.1432 20.1737 30.2049C19.6537 30.2667 19.1275 30.1622 18.6706 29.9063C18.2159 29.7121 17.8324 29.3817 17.573 28.9607C17.3135 28.5397 17.1908 28.0487 17.2217 27.5551C17.2768 26.9489 17.5285 26.3773 17.9384 25.9274C20.6031 23.3866 23.4901 21.0898 26.5648 19.0645C26.7662 18.9066 27.0121 18.816 27.2678 18.8055C27.5235 18.795 27.7761 18.8651 27.9897 19.006C28.2705 19.1804 28.4975 19.4291 28.6455 19.7246C28.7936 20.0201 28.8569 20.3508 28.8284 20.6801ZM26.7694 31.0974C26.7295 30.7175 26.7783 30.3335 26.9119 29.9757C27.0455 29.6178 27.2603 29.2958 27.5394 29.0349C30.1484 26.6285 32.9476 24.4369 35.9097 22.4813C35.9991 22.4246 36.0816 22.3679 36.1795 22.3095C36.4383 22.1227 36.7518 22.0272 37.0707 22.0381C37.3896 22.049 37.6959 22.1656 37.9412 22.3696C38.1787 22.5708 38.3467 22.8416 38.4213 23.1437C38.496 23.4458 38.4736 23.7637 38.3572 24.0523C37.9824 25.3004 37.2908 26.4302 36.3497 27.3317C34.4383 29.2147 32.49 31.0598 30.5059 32.866C30.2071 33.1733 29.8146 33.3725 29.3902 33.4322C28.9658 33.492 28.5336 33.4089 28.1616 33.196C27.7707 32.9929 27.4378 32.6937 27.1943 32.3266C26.9507 31.9595 26.8045 31.5366 26.7694 31.0974ZM39.1719 32.2335C38.6906 32.7492 38.1956 33.2407 37.7333 33.7684C37.5943 33.9723 37.4789 34.1914 37.3895 34.4215C37.6439 34.4971 37.9412 34.6965 38.1475 34.626C39.1977 34.2737 40.222 33.8509 41.3753 33.4057C41.1244 33.9832 40.9353 34.516 40.6689 35.0042C39.5714 36.8486 38.197 38.5135 36.5937 39.9404C35.9842 40.5282 35.3511 41.0903 34.6945 41.6265C34.3468 41.915 33.9287 42.106 33.483 42.18C33.0373 42.2539 32.5799 42.2081 32.1577 42.0472C31.7354 41.8864 31.3635 41.6163 31.0799 41.2645C30.7964 40.9128 30.6113 40.492 30.5437 40.0453C30.5162 39.7969 30.5382 39.5455 30.6084 39.3056C30.6786 39.0658 30.7957 38.8422 30.9528 38.6479C33.2917 36.108 35.9647 33.8976 38.8986 32.0771C38.9343 32.0633 38.9721 32.0557 39.0103 32.0548L39.1719 32.2335Z" fill="#373737"/>
<path d="M43.1147 25.3877L46.0555 12.3252L48.118 12.8082L47.0541 16.0411C46.0606 19.0489 45.0552 22.0568 44.0858 25.068C43.8967 25.6249 43.6492 25.728 43.1147 25.3877ZM39.7941 33.0705C40.1052 31.8829 40.4145 30.7846 40.6758 29.6743C40.9304 28.5975 41.4147 27.5885 42.0955 26.7163C42.5131 26.168 42.9823 26.3863 43.4619 26.5049C43.9053 26.6132 44.017 26.938 44.0359 27.3643C44.1059 28.543 43.7469 29.7072 43.0253 30.6419C42.1663 31.7069 41.0559 32.5414 39.7941 33.0705Z" fill="#707070"/>
<path d="M52.0504 4.97405C52.0761 4.59126 52.0663 4.20692 52.0212 3.82593C51.9857 3.71951 51.9155 3.6281 51.8218 3.5664C51.7455 3.50436 51.6563 3.4603 51.5606 3.43749C51.5056 3.42718 51.4283 3.4839 51.3543 3.56468C51.2827 3.64137 51.222 3.72754 51.1739 3.82077C51.1305 3.98559 51.1211 4.15753 51.1464 4.32608V12.0123C48.8736 12.1737 46.601 11.6975 44.5842 10.6373C43.9248 10.3393 43.4006 9.80565 43.1145 9.14108C42.8283 8.4765 42.8008 7.72897 43.0373 7.04515C43.2934 6.07749 43.577 5.11843 43.8692 4.16108C43.9379 3.93249 43.9775 3.69702 43.8692 3.56296C43.809 3.4977 43.7258 3.45828 43.6372 3.45296C43.5236 3.45418 43.4137 3.49285 43.3243 3.56296C43.1958 3.63984 43.0934 3.75363 43.0304 3.88952C42.6867 4.92077 42.3842 5.96233 42.1212 7.01421C42.0219 7.42872 41.9952 7.85729 42.0422 8.28093C42.1087 9.04745 42.3937 9.77878 42.8635 10.3881C43.3333 10.9974 43.9681 11.4591 44.6925 11.7184C45.0173 11.8542 45.2081 11.9883 45.117 12.4162C44.9915 12.9594 44.8695 13.5025 44.7458 14.0473C43.9036 17.7392 43.066 21.4328 42.2329 25.1281C42.2095 25.2929 42.137 25.4468 42.025 25.5698C41.4759 26.0062 41.0146 26.5428 40.6654 27.1511C40.2205 27.9538 39.9126 28.8251 39.7545 29.7292C39.7242 30.0176 39.6199 30.2933 39.4519 30.5296C39.2839 30.766 39.0578 30.955 38.7954 31.0784C38.0787 31.4411 37.4204 31.9103 36.6247 32.3984C36.6777 31.4414 36.6674 30.482 36.5937 29.5264C36.5332 29.2324 36.546 28.9281 36.6312 28.6403C36.7163 28.3525 36.8711 28.0901 37.0818 27.8764C38.1301 26.8379 38.8773 25.5347 39.244 24.1055C39.3536 23.7741 39.3836 23.4217 39.3317 23.0766C39.2798 22.7316 39.1475 22.4035 38.9453 22.1191C38.7432 21.8346 38.477 21.6017 38.1682 21.4392C37.8594 21.2767 37.5167 21.1891 37.1678 21.1836C36.6029 21.1773 36.0482 21.3349 35.5711 21.6373C33.931 22.7573 32.3195 23.9184 30.7379 25.1195C29.7978 25.8276 28.9126 26.6114 28.0017 27.3539C27.9624 27.3117 27.9284 27.265 27.9003 27.2147C27.8829 27.0881 27.8488 26.9645 27.7989 26.8469C27.0375 25.6712 27.5651 24.817 28.3918 23.9387C29.2531 23.0359 29.729 21.8332 29.7187 20.5855C29.7454 19.9497 29.5463 19.3251 29.1567 18.822C28.9491 18.5667 28.6933 18.3547 28.4039 18.1981C27.9927 17.9731 27.5226 17.8792 27.0566 17.9289C26.5906 17.9787 26.1509 18.1698 25.7965 18.4766L25.317 18.8203C24.2222 19.6041 23.1136 20.3672 22.06 21.2059C20.5219 22.4339 19.0168 23.7028 17.5465 25.0112C16.859 25.618 16.3572 26.4464 15.6439 27.0101C11.9245 29.9475 8.1656 32.8316 4.42044 35.7345C4.29166 35.8113 4.17325 35.9043 4.0681 36.0112C4.05727 36.0269 4.04806 36.0436 4.0406 36.0611C3.96153 36.245 3.8945 36.5492 3.98732 36.6609C4.01007 36.6852 4.03756 36.7045 4.0681 36.7176C4.23182 36.7856 4.41404 36.7947 4.58372 36.7434C4.80855 36.6268 5.01477 36.4773 5.1956 36.3L15.68 28.1737C15.8673 28.0276 16.065 27.8953 16.2936 27.7303C16.355 28.4152 16.609 29.0688 17.026 29.6155C17.4431 30.1622 18.0063 30.5799 18.6506 30.8201C19.2949 31.0604 19.994 31.1136 20.6673 30.9735C21.3405 30.8333 21.9604 30.5057 22.4553 30.0283C23.6584 28.8698 24.9011 27.7458 26.1265 26.6062L26.5734 26.1869C27.3228 27.653 27.2472 28.0397 26.0956 28.9626C19.0189 34.6254 11.9474 40.2892 4.88107 45.9542C4.58028 46.1948 3.9856 46.4131 4.37575 46.9253C4.76591 47.4375 5.12513 46.9098 5.42419 46.6709C12.054 41.376 18.6792 36.0743 25.2998 30.7656C25.4717 30.6281 25.6522 30.5061 25.9014 30.3239V30.8808C25.8677 31.5242 26.0262 32.1631 26.3568 32.7162C26.6873 33.2693 27.175 33.7115 27.7576 33.9866C28.3287 34.2767 28.9772 34.3783 29.6097 34.2767C30.2421 34.1751 30.8261 33.8755 31.2776 33.4211C32.6406 32.218 33.9898 30.9908 35.3459 29.7773C35.4318 29.7 35.5315 29.6416 35.6897 29.5212C35.8837 30.7026 35.8457 31.9105 35.5779 33.0773C35.5118 33.2325 35.4034 33.3659 35.2651 33.4623C34.1445 34.4306 33.0199 35.3948 31.8912 36.355L15.3362 50.4075C15.1424 50.5368 14.9711 50.6971 14.8292 50.8819C14.7839 50.9662 14.7585 51.0597 14.7549 51.1553C14.7513 51.251 14.7697 51.3461 14.8086 51.4336C14.8862 51.4918 14.976 51.5317 15.0712 51.5505C15.1664 51.5692 15.2646 51.5663 15.3586 51.5419C15.4327 51.5203 15.5009 51.4821 15.5579 51.4301C15.6439 51.3614 15.7298 51.2737 15.8072 51.2033L27.7748 41.0626C28.3506 40.5745 28.9315 40.0933 29.5383 39.5845C29.569 39.6662 29.5937 39.7501 29.6122 39.8355C29.6465 40.4989 29.8749 41.1376 30.2691 41.6723C30.6633 42.207 31.2058 42.6142 31.8293 42.8433C32.4453 43.1109 33.128 43.1853 33.7872 43.0567C34.4463 42.9281 35.051 42.6026 35.5212 42.1231C36.3187 41.3961 37.1059 40.657 37.8965 39.9214C38.4122 39.4487 38.9106 38.9744 39.4537 38.4639C39.5549 38.8167 39.637 39.1747 39.6995 39.5364C39.7785 40.3782 39.6624 41.2269 39.3601 42.0165C39.0578 42.8062 38.5776 43.5155 37.9567 44.0894C35.9647 46.2344 33.9279 48.333 31.9084 50.4487C31.7761 50.5862 31.5939 50.6997 31.5217 50.863C31.4495 51.0262 31.4031 51.3459 31.489 51.4147L31.5131 51.4301C31.6933 51.5178 31.896 51.5484 32.094 51.5178C32.1495 51.5064 32.199 51.4753 32.2333 51.4301C32.2814 51.3803 32.3278 51.3184 32.3742 51.272C34.0104 49.5808 35.6553 47.8981 37.2795 46.1948C37.9351 45.5306 38.5515 44.8287 39.1254 44.0928C39.8739 43.2642 40.3702 42.2392 40.5559 41.1382C40.7416 40.0372 40.6091 38.906 40.1739 37.8778C40.1271 37.6485 40.1728 37.4101 40.3011 37.2144C40.4128 37.0219 40.5365 36.8345 40.6637 36.6489C41.0707 36.1205 41.4096 35.5431 41.6726 34.9301C42.1808 33.4259 42.9609 32.0277 43.974 30.8051C44.4398 30.2146 44.7602 29.5229 44.9095 28.7858C45.0588 28.0486 45.0327 27.2868 44.8334 26.5616C44.763 26.2858 44.763 25.9968 44.8334 25.7211C45.7031 23.0278 46.5986 20.3431 47.4854 17.6567L48.6714 14.0576L49.0375 12.9456C49.8178 12.9456 50.5534 12.9301 51.2856 12.9456C51.894 12.9628 52.0797 12.6775 52.0728 12.0862C52.0367 9.71436 52.0504 7.34421 52.0504 4.97405ZM21.565 29.5625C21.1807 29.9182 20.6936 30.1431 20.1737 30.2048C19.6537 30.2666 19.1275 30.162 18.6706 29.9062C18.2158 29.7119 17.8324 29.3816 17.5729 28.9606C17.3135 28.5396 17.1908 28.0486 17.2217 27.555C17.2767 26.9488 17.5284 26.3772 17.9384 25.9273C20.603 23.3865 23.4901 21.0897 26.5648 19.0644C26.7326 18.9457 26.9235 18.8637 27.1251 18.8237C27.2603 18.7988 27.399 18.7988 27.5342 18.8237C27.6961 18.8553 27.8506 18.9171 27.9897 19.0059C28.2707 19.1804 28.4979 19.4294 28.646 19.7252C28.794 20.0211 28.8572 20.3521 28.8284 20.6817C28.7928 21.5398 28.4926 22.3659 27.969 23.0467C26.0972 25.4622 23.9478 27.6492 21.565 29.5625ZM30.5025 32.878C30.2037 33.1852 29.8112 33.3844 29.3868 33.4442C28.9623 33.5039 28.5301 33.4208 28.1581 33.208C27.7665 33.0044 27.4332 32.7044 27.1896 32.3363C26.946 31.9683 26.8002 31.5442 26.7659 31.1042C26.726 30.7243 26.7748 30.3403 26.9084 29.9824C27.042 29.6245 27.2568 29.3025 27.5359 29.0417C30.1449 26.6353 32.9442 24.4436 35.9062 22.4881C35.9956 22.4314 36.0781 22.3747 36.1761 22.3162C36.4348 22.1295 36.7483 22.034 37.0672 22.0449C37.3861 22.0558 37.6924 22.1724 37.9378 22.3764C38.1752 22.5775 38.3432 22.8484 38.4179 23.1505C38.4926 23.4525 38.4701 23.7705 38.3537 24.0591C37.979 25.3072 37.2874 26.437 36.3462 27.3384C34.4504 29.2325 32.479 31.0561 30.5059 32.8711L30.5025 32.878ZM40.662 35.0109C39.566 36.8525 38.194 38.5149 36.5937 39.9403C35.9841 40.5281 35.3511 41.0901 34.6945 41.6264C34.3468 41.9149 33.9287 42.1059 33.483 42.1799C33.0372 42.2538 32.5799 42.208 32.1576 42.0471C31.7354 41.8863 31.3635 41.6162 31.0799 41.2644C30.7964 40.9127 30.6113 40.4919 30.5437 40.0451C30.5162 39.7968 30.5381 39.5454 30.6083 39.3055C30.6786 39.0657 30.7956 38.8421 30.9528 38.6478C33.2917 36.1079 35.9647 33.8975 38.8986 32.077C38.9342 32.0632 38.972 32.0556 39.0103 32.0547L39.1822 32.2266C38.7009 32.7422 38.2059 33.2337 37.7436 33.7614C37.6045 33.9653 37.4892 34.1845 37.3998 34.4145C37.6542 34.4901 37.9515 34.6895 38.1578 34.6191C38.9879 34.3406 39.8043 34.0175 40.6792 33.6737L41.3856 33.3987C41.1209 33.9831 40.9318 34.5159 40.6654 35.0041L40.662 35.0109ZM43.0218 30.6539C42.3807 31.4701 41.5772 32.1443 40.662 32.6339C40.379 32.792 40.0885 32.9398 39.7906 33.0773C40.0965 31.9069 40.4025 30.8223 40.662 29.7258L40.6723 29.6811C40.9269 28.6043 41.4112 27.5953 42.092 26.7231C42.5097 26.1748 42.9789 26.3931 43.4584 26.5117C43.9018 26.62 44.0136 26.9448 44.0325 27.3711C44.1029 28.5488 43.7452 29.7123 43.0253 30.647L43.0218 30.6539ZM47.0437 16.0445C46.0503 19.0523 45.0448 22.0601 44.0754 25.0714C43.8933 25.6369 43.6458 25.74 43.1112 25.3997L45.6601 14.068L46.052 12.3286L48.1145 12.8116L47.7003 14.068L47.0437 16.0445Z" fill="black"/>
</svg>
