<svg width="54" height="53" viewBox="0 0 54 53" fill="none" xmlns="http://www.w3.org/2000/svg">
    <path
        d="M3.63573 12.6081C-1.10329 19.4191 -0.513329 28.2814 3.10679 35.5191C3.19273 35.6926 3.28296 35.8632 3.37191 36.0338L3.5412 36.36L3.64691 36.5477L3.83554 36.8855C3.94812 37.0835 4.06327 37.2808 4.18101 37.478L4.37823 37.8028C4.50886 38.0138 4.64249 38.2222 4.77913 38.4302L4.95015 38.694C5.13878 38.9755 5.33171 39.2565 5.53109 39.5323L5.54784 39.5538L5.64581 39.6862C5.81812 39.9238 5.99558 40.1584 6.17519 40.3904L6.37456 40.6439C6.53484 40.8455 6.69769 41.0457 6.86355 41.2451L7.05046 41.4685C7.27346 41.7317 7.50065 41.9912 7.73195 42.2471L7.74612 42.2613L7.77234 42.2905C7.99967 42.5372 8.23058 42.7806 8.46499 43.0205L8.68714 43.2444C8.8689 43.4275 9.05366 43.6075 9.24015 43.7867L9.46659 44.0015C9.71581 44.2365 9.96761 44.4669 10.2246 44.692L10.2366 44.7015L10.3685 44.8141C10.595 45.01 10.8253 45.2046 11.0573 45.3954L11.3426 45.6227C11.5321 45.7748 11.7237 45.9244 11.9167 46.0713L12.2235 46.3046C12.4366 46.4615 12.651 46.6157 12.8676 46.7666L13.1022 46.9328L13.1666 46.9788C13.372 47.1202 13.5821 47.2564 13.7923 47.3926L14.063 47.5731C14.3852 47.7767 14.7118 47.9783 15.0422 48.1729L15.3129 48.3255C15.5557 48.4655 15.8002 48.603 16.0477 48.7375C16.1818 48.8097 16.3193 48.878 16.4542 48.9472C16.6291 49.0387 16.8026 49.1316 16.9805 49.2205L17.1021 49.2794L17.3174 49.3833C17.5928 49.5148 17.8704 49.6442 18.151 49.7688L18.3272 49.8478C18.6488 49.9885 18.973 50.1233 19.2996 50.2522L19.5363 50.3454C19.8388 50.4619 20.1456 50.577 20.4537 50.6853L20.5689 50.7253C20.907 50.8434 21.2482 50.953 21.5919 51.06L21.839 51.1339C22.1888 51.2392 22.5347 51.3651 22.8952 51.4317C45.8143 55.6112 52.4719 37.6589 52.4719 37.6589C46.8803 44.9434 36.9554 46.865 27.5517 44.7255C27.1955 44.6452 26.85 44.5339 26.5024 44.4312L26.2407 44.3517C25.902 44.2479 25.5651 44.1383 25.2301 44.023L25.0913 43.9727C24.7926 43.8671 24.4955 43.757 24.2001 43.6423L23.9501 43.5439C23.6269 43.4163 23.3055 43.2831 22.988 43.1439L22.7959 43.0588C22.524 42.9359 22.2534 42.81 21.9842 42.6811L21.7496 42.5685C21.5387 42.4658 21.3298 42.3567 21.1219 42.2492C20.9826 42.1758 20.8409 42.1066 20.7029 42.0301C20.4497 41.8938 20.1989 41.7531 19.9505 41.6082L19.6966 41.4664C19.3668 41.2717 19.0402 41.0715 18.7169 40.8661L18.4526 40.6899C18.2177 40.5392 17.9852 40.3846 17.7553 40.2263L17.531 40.0686C17.3096 39.9121 17.0899 39.7532 16.8718 39.5921L16.5801 39.3712C16.3797 39.2189 16.1815 39.0639 15.9854 38.9063L15.7203 38.6936C15.4705 38.4888 15.2236 38.2807 14.9795 38.0692L14.8983 38.0009C14.6353 37.7688 14.3757 37.5329 14.1197 37.2932L13.9001 37.0823C13.7106 36.9018 13.5241 36.72 13.3407 36.5335L13.1215 36.3148C12.8887 36.0766 12.6597 35.8345 12.4349 35.5887L12.4009 35.5526C12.164 35.2927 11.9317 35.0285 11.7044 34.7602L11.5222 34.5437C11.3524 34.3393 11.1852 34.1328 11.0208 33.9241L10.8373 33.6955C10.6407 33.4413 10.4478 33.1843 10.2585 32.9246C5.0378 25.803 3.16179 15.9812 7.33448 7.91507M18.3469 6.86921C14.9193 11.8012 15.1058 18.4037 17.7793 23.6197C18.2268 24.4965 18.7332 25.342 19.2953 26.1501C19.8087 26.8862 20.3781 27.7619 21.0596 28.3532C21.3088 28.6261 21.5652 28.8923 21.8287 29.1515L22.0315 29.3513C22.2874 29.6008 22.5493 29.8441 22.817 30.0809L22.8488 30.1084L22.8565 30.1162C23.1559 30.3769 23.4618 30.63 23.7739 30.8754L23.9823 31.0378C24.2961 31.2796 24.616 31.5133 24.9418 31.7387L24.9697 31.7597C25.1141 31.8594 25.261 31.9522 25.4076 32.0485L25.6151 32.1855C25.8489 32.3355 26.0856 32.4816 26.3262 32.6217L26.4272 32.6801C26.6348 32.7996 26.8449 32.9173 27.0558 33.0316L27.2797 33.148C27.4254 33.2241 27.571 33.3019 27.7193 33.3758L27.7859 33.4058C28.088 33.5545 28.3926 33.698 28.7037 33.8334L28.9065 33.9167C29.1553 34.0225 29.4067 34.1256 29.6585 34.2218L29.9807 34.34C30.2098 34.4251 30.4396 34.5024 30.6712 34.5802L30.9836 34.6803C31.3132 34.7826 31.6389 34.9119 31.9822 34.9691C49.678 37.9008 53.7635 24.2758 53.7635 24.2758C50.0811 29.5795 42.9491 32.1103 35.3389 30.1346C35.0025 30.0462 34.6683 29.9496 34.3365 29.845L34.0353 29.7475C33.8002 29.6714 33.5665 29.5909 33.3344 29.506L33.0182 29.3883C32.765 29.2911 32.5135 29.1897 32.2637 29.0841L32.0604 28.9981C31.7493 28.8627 31.4415 28.7196 31.1375 28.5689C30.9815 28.4928 30.8281 28.4125 30.6743 28.3334L30.407 28.1959C30.2098 28.089 30.0146 27.9787 29.8213 27.865L29.6812 27.7855C29.4419 27.646 29.2054 27.5016 28.9718 27.3524L28.7578 27.2098C28.6037 27.1101 28.4506 27.0088 28.2985 26.906C27.9741 26.6805 27.6552 26.4472 27.342 26.2064L27.1267 26.0367C23.7958 23.407 21.155 19.8123 19.8998 15.7367C18.5841 11.5103 18.8677 6.76565 21.1472 2.91479M30.7198 2.58179C28.6994 5.55522 28.5009 9.24796 29.903 12.5316C31.3815 16.0177 34.4108 18.7518 37.9467 20.049C38.0924 20.1027 38.2385 20.1509 38.3859 20.2011L38.5796 20.2626C38.788 20.3279 38.9947 20.4039 39.21 20.4448C48.9811 22.3328 51.6314 15.4307 52.3365 14.4145C50.0153 17.7571 46.1138 18.5593 41.3266 17.3974C40.9485 17.3059 40.533 17.1692 40.1686 17.0399C39.7005 16.8736 39.2414 16.683 38.7932 16.4689C37.9427 16.0594 37.135 15.5666 36.3818 14.9976C32.0982 11.747 29.4372 5.54706 32.2323 0.497803"
        fill="#000000"></path>
</svg>