<svg width="56" height="55" viewBox="0 0 56 55" fill="none" xmlns="http://www.w3.org/2000/svg">
<mask id="mask0_661_2983" style="mask-type:luminance" maskUnits="userSpaceOnUse" x="0" y="0" width="56" height="55">
<path d="M55.5 0H0.5V55H55.5V0Z" fill="white"/>
</mask>
<g mask="url(#mask0_661_2983)">
<path d="M25.69 1.15494L1.65505 25.1899C0.390049 26.4549 0.390049 28.5449 1.65505 29.8649L25.69 53.8999C26.955 55.1649 29.045 55.1649 30.365 53.8999L40.43 43.8349C41.585 42.6799 41.585 40.8099 40.43 39.6549C39.275 38.4999 37.405 38.4999 36.25 39.6549L28.605 47.2449C28.275 47.5749 27.78 47.5749 27.45 47.2449L8.25505 28.0499C7.92505 27.7199 7.92505 27.2249 8.25505 26.8949L27.45 7.75494C27.78 7.42494 28.275 7.42494 28.605 7.75494L36.25 15.3449C37.405 16.4999 39.275 16.4999 40.43 15.3449C41.585 14.1899 41.585 12.3199 40.43 11.1649L30.365 1.09994C29.045 -0.165056 26.955 -0.165056 25.69 1.15494Z" fill="url(#paint0_linear_661_2983)"/>
<path d="M25.69 1.15494L1.65505 25.1899C0.390049 26.4549 0.390049 28.5449 1.65505 29.8649L25.69 53.8999C26.955 55.1649 29.045 55.1649 30.365 53.8999L40.43 43.8349C41.585 42.6799 41.585 40.8099 40.43 39.6549C39.275 38.4999 37.405 38.4999 36.25 39.6549L28.605 47.2449C28.275 47.5749 27.78 47.5749 27.45 47.2449L8.25505 28.0499C7.92505 27.7199 7.92505 27.2249 8.25505 26.8949L27.45 7.75494C28.275 7.03994 29.54 5.66494 31.465 5.33494C32.895 5.11494 34.4351 5.60994 36.1401 6.92994C35.0401 5.77494 33.115 3.84994 30.365 1.09994C29.045 -0.165056 26.955 -0.165056 25.69 1.15494Z" fill="url(#paint1_linear_661_2983)"/>
<path d="M42.7401 37.3449C43.8951 38.4999 45.7651 38.4999 46.9201 37.3449L54.4001 29.9199C55.6651 28.6549 55.6651 26.5649 54.4001 25.2449L46.8651 17.8199C45.7101 16.6649 43.8401 16.6649 42.6851 17.8199C41.5301 18.9749 41.5301 20.8449 42.6851 21.9999L47.7451 27.0599C48.0751 27.3899 48.0751 27.8849 47.7451 28.2149L42.7401 33.2199C41.5851 34.3199 41.5851 36.1899 42.7401 37.3449Z" fill="url(#paint2_linear_661_2983)"/>
<path d="M28.165 34.1001C31.74 34.1001 34.655 31.1851 34.655 27.6101C34.655 24.0351 31.74 21.1201 28.165 21.1201C24.59 21.1201 21.675 24.0351 21.675 27.6101C21.675 31.1851 24.535 34.1001 28.165 34.1001Z" fill="url(#paint3_linear_661_2983)"/>
</g>
<defs>
<linearGradient id="paint0_linear_661_2983" x1="1833.55" y1="1130.09" x2="4117.78" y2="2525.04" gradientUnits="userSpaceOnUse">
<stop stop-color="#7C7C7C"/>
<stop offset="1" stop-color="#9F9F9F"/>
</linearGradient>
<linearGradient id="paint1_linear_661_2983" x1="128.775" y1="-522.471" x2="-999.43" y2="5308.4" gradientUnits="userSpaceOnUse">
<stop stop-color="#A1A1A1"/>
<stop offset="0.3786" stop-color="#767676"/>
<stop offset="1" stop-color="#585858"/>
</linearGradient>
<linearGradient id="paint2_linear_661_2983" x1="448.808" y1="-602.108" x2="-1019.16" y2="1693.67" gradientUnits="userSpaceOnUse">
<stop stop-color="#A3A3A3"/>
<stop offset="0.4147" stop-color="#808080"/>
<stop offset="1" stop-color="#5F5F5F"/>
</linearGradient>
<linearGradient id="paint3_linear_661_2983" x1="190.211" y1="-620.681" x2="-298.223" y2="1333.14" gradientUnits="userSpaceOnUse">
<stop stop-color="#ADADAD"/>
<stop offset="0.5126" stop-color="#808080"/>
<stop offset="1" stop-color="#5F5F5F"/>
</linearGradient>
</defs>
</svg>
