<svg width="55" height="55" viewBox="0 0 55 55" fill="none" xmlns="http://www.w3.org/2000/svg">
<path d="M9.87691 47.074L6.0166 3.75977H48.4491L44.5836 47.0671L27.2071 51.8848L9.87691 47.074Z" fill="#525252"/>
<path d="M27.2329 47.8789L41.1302 44.0479L44.3996 7.62854H27.2329V47.8789Z" fill="#626262"/>
<path d="M27.2329 23.0711H34.1901L34.6697 17.7178H27.2329V12.4896H40.4158L40.2899 13.8918L38.9988 28.2992H27.2329V23.0711Z" fill="white"/>
<path d="M27.2652 36.6479L27.2414 36.6547L21.3865 35.0817L21.0123 30.9124H15.734L16.4705 39.1207L27.2397 42.0942L27.2652 42.0875V36.6479Z" fill="#EBEBEB"/>
<path d="M33.7426 28.0776L33.1099 35.0784L27.2465 36.6514V42.0909L38.0241 39.1208L38.104 38.2379L39.0175 28.0776H33.7426Z" fill="white"/>
<path d="M27.2515 12.4896V17.7178H14.5517L14.4463 16.5422L14.2064 13.8918L14.0806 12.4896H27.2515ZM27.2328 23.0711V28.2992H21.4511L21.3456 27.1237L21.1075 24.4732L20.9816 23.0711H27.2328Z" fill="#EBEBEB"/>
</svg>
