<svg width="56" height="55" viewBox="0 0 56 55" fill="none" xmlns="http://www.w3.org/2000/svg">
<g clip-path="url(#clip0_518_204)">
<path d="M50.538 2.85436C49.7677 4.70231 48.7816 6.45269 47.6002 8.06904C42.4242 2.89599 35.406 -0.0103416 28.0881 -0.0112305C12.9541 -0.0112305 0.5 12.4531 0.5 27.6039C0.499839 31.3452 1.25934 35.0476 2.73249 38.4867C4.20563 41.9258 6.36173 45.0299 9.07012 47.611L10.0876 48.5134C15.0604 52.706 21.3543 55.0073 27.8586 55.0111C42.2476 55.0111 54.3433 43.7361 55.3677 29.3661C56.12 22.3317 54.0567 13.4346 50.538 2.85436ZM12.9897 47.7683C12.7682 48.0412 12.4886 48.2613 12.1713 48.4125C11.854 48.5637 11.5069 48.6422 11.1554 48.6423C9.85859 48.6423 8.7977 47.5749 8.7977 46.2781C8.7977 44.9818 9.86547 43.9144 11.1554 43.9144C11.6925 43.9144 12.2232 44.1005 12.6387 44.4447C13.6489 45.2611 13.8066 46.7581 12.9897 47.7683ZM50.4237 39.502C43.6161 48.5778 29.0768 45.5189 19.7543 45.9559C19.7543 45.9559 18.0991 46.0564 16.4367 46.3284C16.4367 46.3284 17.0597 46.0633 17.8697 45.7552C24.4121 43.4774 27.5076 43.0331 31.4843 40.9917C38.9725 37.1808 46.3747 28.8427 47.9156 20.1678C45.0637 28.5131 36.4214 35.6838 28.5466 38.5992C23.151 40.5908 13.4052 42.5248 13.4052 42.5248L13.0112 42.3169C6.37598 39.0865 6.17488 24.7096 18.2349 20.0676C23.5162 18.0331 28.568 19.1507 34.2721 17.7894C40.363 16.3427 47.4068 11.7721 50.2728 5.81232C53.483 15.3471 57.3459 30.2753 50.4237 39.502Z" fill="#77BC1F"/>
</g>
<defs>
<clipPath id="clip0_518_204">
<rect width="55" height="55" fill="white" transform="translate(0.5)"/>
</clipPath>
</defs>
</svg>
