<svg width="56" height="56" viewBox="0 0 56 56" fill="none">
    <g clip-path="url(#clip0_380_421)">
        <path
            d="M46.857 36.8769C47.0894 36.7435 47.2826 36.5513 47.4172 36.3196C47.5519 36.0879 47.6232 35.8249 47.624 35.5569L47.6515 26.7155C47.6524 26.4475 47.7237 26.1844 47.8583 25.9527C47.9929 25.721 48.1861 25.5287 48.4185 25.3953L53.2113 22.6423C53.4435 22.5088 53.7068 22.4388 53.9747 22.4393C54.2426 22.4397 54.5056 22.5105 54.7375 22.6447C54.9693 22.7789 55.1618 22.9717 55.2957 23.2037C55.4295 23.4357 55.5 23.6989 55.5 23.9668V40.0409C55.5 40.3097 55.4291 40.5737 55.2944 40.8063C55.1597 41.0389 54.9661 41.2319 54.733 41.3657L36.6453 51.7549C36.4142 51.8876 36.1525 51.9575 35.886 51.9578C35.6196 51.958 35.3577 51.8886 35.1264 51.7564L20.9316 43.6374C20.6978 43.5039 20.5034 43.3109 20.3681 43.0781C20.2329 42.8452 20.1616 42.5807 20.1614 42.3114V34.2062C20.1614 34.1972 20.1722 34.1912 20.1814 34.1955C20.1889 34.2002 20.1997 34.1955 20.1997 34.1847V34.1757C20.1997 34.1697 20.2027 34.1635 20.2089 34.1605L31.8998 27.4442C31.9106 27.438 31.9059 27.4212 31.8936 27.4212C31.8904 27.4212 31.8872 27.42 31.885 27.4177C31.8827 27.4154 31.8814 27.4122 31.8814 27.409L31.9044 19.4628C31.9055 19.1941 31.8357 18.9298 31.702 18.6967C31.5684 18.4636 31.3756 18.2698 31.1431 18.135C30.9107 18.0002 30.6468 17.9291 30.3781 17.9288C30.1094 17.9285 29.8453 17.9992 29.6126 18.1335L20.9239 23.1405C20.692 23.274 20.4291 23.3443 20.1615 23.3443C19.8939 23.3443 19.6311 23.274 19.3992 23.1405L10.683 18.1217C10.4507 17.988 10.1874 17.9177 9.91948 17.9179C9.65151 17.918 9.38831 17.9887 9.15627 18.1227C8.92424 18.2568 8.73154 18.4495 8.59752 18.6815C8.4635 18.9136 8.39287 19.1768 8.39272 19.4447V33.8062C8.39292 34.0739 8.32279 34.3369 8.18935 34.5689C8.05591 34.801 7.86384 34.9939 7.63239 35.1283C7.40094 35.2628 7.13822 35.3341 6.87054 35.3351C6.60287 35.3361 6.33964 35.2667 6.10721 35.1339L1.27 32.368C1.03577 32.2342 0.841139 32.0408 0.705893 31.8074C0.570648 31.574 0.49961 31.309 0.500002 31.0392L0.54297 5.93687C0.543656 5.66935 0.614575 5.4067 0.748635 5.17519C0.882694 4.94369 1.07519 4.75144 1.30688 4.61769C1.53856 4.48393 1.8013 4.41336 2.06882 4.41303C2.33634 4.4127 2.59926 4.48262 2.83127 4.61579L19.4007 14.1321C19.6322 14.2651 19.8945 14.335 20.1615 14.335C20.4285 14.335 20.6909 14.2651 20.9224 14.1321L37.4869 4.61536C37.7192 4.48187 37.9827 4.41186 38.2507 4.41236C38.5187 4.41285 38.7818 4.48384 39.0137 4.61819C39.2456 4.75254 39.4381 4.94553 39.5718 5.17778C39.7055 5.41003 39.7758 5.67338 39.7756 5.94138V31.0495C39.7757 31.3181 39.7051 31.582 39.5707 31.8146C39.4364 32.0472 39.2431 32.2402 39.0103 32.3743L30.3354 37.3702C30.1023 37.5045 29.9089 37.698 29.7746 37.931C29.6403 38.164 29.5699 38.4284 29.5705 38.6973C29.5711 38.9663 29.6427 39.2303 29.7781 39.4627C29.9134 39.6952 30.1077 39.8877 30.3414 40.021L35.1266 42.7452C35.3578 42.8768 35.6194 42.9457 35.8855 42.9452C36.1516 42.9446 36.4129 42.8746 36.6436 42.742L46.857 36.8769ZM47.8608 14.3538C47.861 14.624 47.9329 14.8893 48.069 15.1227C48.2052 15.3561 48.4009 15.5492 48.636 15.6823C48.8712 15.8153 49.1374 15.8837 49.4076 15.8803C49.6778 15.877 49.9423 15.802 50.174 15.6631L54.7575 12.9131C54.9838 12.7775 55.1711 12.5856 55.3012 12.3562C55.4313 12.1268 55.4998 11.8676 55.5 11.6038V5.9996C55.4995 5.72952 55.4275 5.46439 55.2912 5.23123C55.1549 4.99806 54.9592 4.8052 54.7241 4.67228C54.489 4.53936 54.2229 4.47115 53.9528 4.47459C53.6827 4.47802 53.4184 4.55299 53.1868 4.69185L48.6035 7.44185C48.3772 7.57741 48.1898 7.76927 48.0597 7.99875C47.9295 8.22823 47.861 8.4875 47.8608 8.75132V14.3553V14.3538Z"
            fill="#007FFF"></path>
    </g>
    <defs>
        <clipPath id="clip0_380_421">
            <rect width="55" height="55" fill="white" transform="translate(0.5 0.760254)"></rect>
        </clipPath>
    </defs>
</svg>