<svg width="56" height="56" viewBox="0 0 56 56" fill="none" xmlns="http://www.w3.org/2000/svg">
    <g clip-path="url(#clip0_110_409)">
        <path
            d="M54.3479 25.8245L30.6652 2.14274C29.3023 0.778916 27.0902 0.778916 25.7251 2.14274L20.8078 7.06095L27.046 13.2992C28.4962 12.8097 30.1582 13.138 31.3136 14.2934C32.4751 15.4562 32.8008 17.1324 32.2993 18.5873L38.3115 24.5999C39.766 24.0985 41.4448 24.4225 42.6058 25.5861C44.23 27.209 44.23 29.84 42.6058 31.4638C42.2198 31.8499 41.7615 32.1563 41.2571 32.3653C40.7527 32.5743 40.2121 32.6818 39.6661 32.6818C39.1201 32.6818 38.5795 32.5743 38.0751 32.3653C37.5707 32.1563 37.1124 31.8499 36.7264 31.4638C36.1465 30.8835 35.7512 30.1446 35.5902 29.3402C35.4293 28.5358 35.5099 27.7017 35.8219 26.943L30.2153 21.3365L30.2145 36.0924C30.6213 36.2927 30.9926 36.558 31.314 36.8778C32.9374 38.5007 32.9374 41.1309 31.314 42.7572C29.6903 44.3802 27.0584 44.3802 25.4364 42.7572C23.813 41.1313 23.813 38.5012 25.4364 36.8778C25.8253 36.4883 26.2879 36.1801 26.7972 35.9712V21.0786C26.2875 20.8703 25.8247 20.5619 25.4364 20.1716C24.2066 18.9427 23.9105 17.138 24.5413 15.6272L18.3912 9.47708L2.15244 25.715C1.49731 26.3703 1.12927 27.259 1.12927 28.1857C1.12927 29.1123 1.49731 30.001 2.15244 30.6564L25.8355 54.3382C27.1994 55.702 29.4105 55.702 30.7765 54.3382L54.3483 30.7664C55.0033 30.1108 55.3712 29.2221 55.3711 28.2954C55.371 27.3687 55.003 26.48 54.3479 25.8245Z"
            fill="#F34F29"></path>
    </g>
    <defs>
        <clipPath id="clip0_110_409">
            <rect width="55" height="55" fill="white" transform="translate(0.75 0.740234)"></rect>
        </clipPath>
    </defs>
</svg>