<svg width="56" height="56" viewBox="0 0 56 56" fill="none" xmlns="http://www.w3.org/2000/svg">
    <g clip-path="url(#clip0_110_411)">
        <path
            d="M46.6253 1.60468L43.6544 1.78987L43.886 7.96749C43.898 8.30909 43.504 8.50847 43.2354 8.29663L41.246 6.72827L38.8892 8.51663C38.8285 8.56272 38.7559 8.59057 38.68 8.59694C38.604 8.60331 38.5279 8.58792 38.4603 8.55259C38.3928 8.51725 38.3368 8.46343 38.2987 8.3974C38.2607 8.33138 38.2422 8.25589 38.2455 8.17975L38.5106 2.11128L9.03919 3.95421C8.33814 3.99789 7.68193 4.3139 7.21067 4.83477C6.73942 5.35564 6.49045 6.0401 6.51693 6.74202L8.17552 50.9302C8.20084 51.6054 8.47915 52.2463 8.95517 52.7257C9.43119 53.2052 10.0701 53.4881 10.7451 53.5182L46.6721 55.1313C47.0353 55.1473 47.3979 55.0897 47.7383 54.962C48.0786 54.8342 48.3896 54.639 48.6525 54.3879C48.9155 54.1369 49.1248 53.8351 49.2678 53.5008C49.4108 53.1665 49.4845 52.8067 49.4844 52.4432V4.29108C49.4846 3.92341 49.4094 3.55961 49.2634 3.22216C49.1174 2.8847 48.9038 2.58076 48.6358 2.32913C48.368 2.07735 48.0514 1.88317 47.7056 1.75856C47.3598 1.63396 46.9921 1.58158 46.6253 1.60468ZM28.8104 10.7085C35.8178 10.7085 39.6445 14.4566 39.6445 21.5877C38.6975 22.3238 31.6438 22.8252 31.6438 21.7781C31.7924 17.782 30.0036 17.6071 29.0098 17.6071C28.0653 17.6071 26.4751 17.8916 26.4751 20.0323C26.4751 25.3123 40.0919 25.0274 40.0919 35.6832C40.0919 41.6773 35.2213 44.9881 29.0098 44.9881C22.5988 44.9881 16.997 42.3945 17.6295 33.4024C17.8779 32.3467 26.0278 32.5976 26.0278 33.4024C25.9289 37.1128 26.7733 38.2042 28.9097 38.2042C30.5498 38.2042 31.2957 37.3005 31.2957 35.7782C31.2957 30.3551 17.8779 30.1651 17.8779 20.223C17.8779 14.5146 21.8039 10.7085 28.8104 10.7085Z"
            fill="#939393"></path>
    </g>
    <defs>
        <clipPath id="clip0_110_411">
            <rect width="55" height="55" fill="white" transform="translate(0.5 0.740234)"></rect>
        </clipPath>
    </defs>
</svg>