<svg width="56" height="56" viewBox="0 0 56 56" fill="none" xmlns="http://www.w3.org/2000/svg">
    <g clip-path="url(#clip0_110_405)">
        <path fill-rule="evenodd" clip-rule="evenodd"
            d="M0.773682 24.8698C0.773682 25.1718 0.862627 25.3712 0.912471 25.565C1.23731 26.8253 1.93556 27.9068 2.76399 28.8934C3.94392 30.2993 5.38896 31.4311 6.86923 32.4954C8.15313 33.4184 9.46325 34.3207 10.7523 35.2368C10.9736 35.3941 11.1829 35.575 11.4231 35.7679C11.2164 35.8796 11.0445 35.9781 10.8658 36.0687C9.16462 36.9315 7.52794 37.8988 6.01931 39.0705C5.11009 39.7769 4.23095 40.5276 3.61005 41.5086C2.61103 43.0864 2.25739 44.7673 3.00204 46.5621C3.21946 47.0863 3.55118 47.5392 4.01911 47.8739C4.17079 47.9822 4.34095 48.0896 4.51841 48.1318C4.97302 48.2388 5.43622 48.3088 5.89642 48.3934L7.19966 48.3926C8.64083 48.2641 9.95267 47.7704 11.1382 46.9523C12.991 45.6735 14.2392 43.9591 14.7759 41.7586C15.1661 40.1593 15.182 38.5583 14.7222 36.9663C14.6782 36.8188 14.6274 36.6735 14.5701 36.5306C14.5142 36.3875 14.4485 36.2483 14.3711 36.07L17.3257 34.371L17.3699 34.4088C17.3162 34.5846 17.2591 34.7599 17.2105 34.9373C16.8595 36.2195 16.6261 37.5241 16.7099 38.8548C16.7993 40.2728 17.195 41.6001 18.0252 42.7847C18.6964 43.7429 20.2957 43.7786 21.009 42.817C21.262 42.4754 21.5074 42.1183 21.6917 41.7372C22.1734 40.7424 22.6194 39.7301 23.0796 38.7246L23.16 38.5407C23.1269 39.0168 23.0882 39.4349 23.0706 39.8534C23.0431 40.507 23.0813 41.1566 23.3048 41.7784C23.496 42.3104 23.8213 42.7078 24.4306 42.7779C24.8474 42.8256 25.1795 42.6348 25.4859 42.3929C25.9605 42.0178 26.3539 41.5501 26.6422 41.0183C27.459 39.5182 28.2977 38.0272 29.0381 36.4894C29.839 34.8261 30.5394 33.1142 31.2832 31.4225L31.4061 31.1226C31.5818 31.8131 31.7043 32.4894 31.9299 33.1297C32.192 33.8726 32.5164 34.5979 32.8696 35.303C33.0368 35.636 33.0174 35.8521 32.7858 36.1314C31.8165 37.3002 30.8638 38.4831 29.9104 39.6648C29.6994 39.9256 29.4893 40.1911 29.3135 40.476C29.2069 40.6559 29.1368 40.8551 29.1073 41.0621C29.0777 41.2527 29.1231 41.4474 29.2339 41.6052C29.3446 41.7631 29.5122 41.872 29.7015 41.909C30.0836 41.9913 30.4753 42.0192 30.8651 41.992C32.1959 41.894 33.4041 41.4269 34.4724 40.6354C35.8564 39.6102 36.3007 38.2111 35.9655 36.553C35.8749 36.1031 35.7146 35.6657 35.5586 35.2321C35.4886 35.0366 35.4838 34.8995 35.6115 34.7173C36.7179 33.1374 37.6632 31.4612 38.5424 29.7463C38.5772 29.6788 38.6128 29.6114 38.6738 29.5392C38.9587 31.0216 39.3876 32.4503 40.1558 33.7467C39.764 34.1244 39.3759 34.4668 39.0249 34.8441C38.2519 35.6751 37.5816 36.5775 37.2318 37.6779C37.0814 38.1523 36.9658 38.6344 37.0329 39.141C37.1368 39.9277 37.7814 40.4391 38.5552 40.2599C40.2113 39.8766 41.6408 39.0963 42.6854 37.714C43.3884 36.7833 43.4524 35.7452 43.1581 34.6576C43.0773 34.362 42.9815 34.0711 42.8783 33.7321C43.287 33.6053 43.6853 33.4532 44.0974 33.3591C46.2368 32.871 48.353 32.9561 50.4146 33.7286C51.6182 34.1798 52.5906 34.9348 53.1672 36.1224C53.8715 37.5743 53.4822 38.9519 52.1136 39.8697C51.986 39.9552 51.8399 40.0227 51.7342 40.1297C51.7003 40.1689 51.675 40.2148 51.6598 40.2644C51.6447 40.3139 51.64 40.3661 51.6461 40.4176C51.6551 40.4704 51.7948 40.5366 51.8751 40.5357C52.325 40.5323 52.6898 40.2964 53.04 40.0541C53.9174 39.4469 54.5577 38.6301 54.6956 37.5546L54.7227 37.4738L54.6896 36.7734C54.6763 36.733 54.6995 36.693 54.6965 36.6625C54.51 35.0963 53.6734 33.8816 52.4565 32.9294C51.0471 31.8273 49.3829 31.3735 47.6229 31.3018C46.1955 31.2403 44.7699 31.4598 43.427 31.9476C43.0416 32.0872 42.6596 32.2527 42.272 32.4086C42.22 32.3145 42.1642 32.2243 42.1182 32.1311C41.7203 31.3164 41.2382 30.5378 41.1316 29.6036C41.056 28.9402 40.9632 28.2776 41.1209 27.6215C41.2726 26.9903 41.4702 26.3698 41.6563 25.7472C41.7521 25.4266 41.6847 25.247 41.3787 25.1027C41.2721 25.0495 41.1583 25.0122 41.041 24.9918C40.289 24.8827 39.5474 24.945 38.8191 25.1568C38.5613 25.232 38.3739 25.3764 38.3168 25.6617C38.2841 25.8254 38.2175 25.9822 38.1711 26.1438C37.9808 26.8154 37.8458 27.4999 37.5382 28.1397C36.7673 29.7446 35.8873 31.2889 34.9867 32.822C34.8892 32.9874 34.7865 33.1498 34.6636 33.3505C34.3473 32.6888 34.01 32.095 33.9077 31.3989C33.7922 30.6117 33.7011 29.8258 33.897 29.0446C34.0427 28.462 34.233 27.89 34.4083 27.3151C34.4913 27.0418 34.453 26.8983 34.2055 26.7544C34.0805 26.6818 33.9391 26.6173 33.7982 26.5963C33.0271 26.4788 32.2393 26.5433 31.4976 26.7845C31.2643 26.8601 31.1418 27.0109 31.0705 27.2515C30.8608 27.9614 30.6821 28.6884 30.3877 29.3634C29.1958 32.0963 27.9695 34.8149 26.7444 37.5331C26.4888 38.1007 26.1893 38.6486 25.9009 39.2011C25.8279 39.3412 25.7213 39.4645 25.6302 39.596C25.5572 39.5097 25.5288 39.4504 25.5293 39.3911C25.5314 39.0417 25.4897 38.6821 25.5563 38.3443C25.7609 37.3229 25.9869 36.3059 26.2344 35.294C26.4363 34.4578 26.6714 33.6294 26.8952 32.7988C26.9704 32.5208 26.9717 32.2608 26.7719 32.0271C26.4363 31.6356 25.7351 31.5497 25.3191 31.8513L25.1352 31.9553L25.1709 31.6588C25.2586 31.0233 25.2762 30.39 25.1017 29.7639C24.8843 28.9836 24.3274 28.5346 23.5179 28.5595C23.1406 28.5711 22.7445 28.6355 22.3951 28.773C20.926 29.3488 19.7964 30.3685 18.8347 31.5952C18.7456 31.7091 18.6351 31.8046 18.5095 31.8763C17.2664 32.5655 16.0194 33.2461 14.7729 33.9293L13.3854 34.6894C13.0133 34.3345 12.6752 33.9663 12.2915 33.6539C11.1197 32.6982 9.92903 31.7663 8.74911 30.8214C7.70325 29.9839 6.69005 29.1116 5.91489 28.0026C5.33825 27.1776 4.96657 26.2748 4.93091 25.2548C4.88579 23.955 5.25446 22.7673 5.91618 21.6617C6.76267 20.2472 7.91724 19.112 9.18653 18.0837C10.5293 16.9966 11.9817 16.0736 13.4868 15.231C15.5927 14.0524 17.7588 13.0091 20.0813 12.3203C22.4626 11.6139 24.8787 11.2096 27.3709 11.4914C28.3506 11.6023 29.3019 11.8266 30.1755 12.3057C30.8445 12.6722 31.3932 13.1522 31.6484 13.9024C31.9002 14.6406 31.8925 15.3887 31.7181 16.1385C31.3636 17.657 30.5321 18.9087 29.4858 20.0272C27.7697 21.8607 25.6762 23.1089 23.3194 23.9335C21.9643 24.4082 20.5544 24.709 19.1235 24.8285C17.9509 24.9269 16.8027 24.8229 15.6924 24.4152C14.9572 24.1449 14.317 23.7315 13.8022 23.1317C13.7103 23.0243 13.5925 22.9078 13.4211 23.0084C13.2531 23.1072 13.2234 23.267 13.2797 23.429C13.3738 23.698 13.4606 23.9782 13.6072 24.2188C13.9754 24.8225 14.5125 25.2604 15.1038 25.6359C16.2394 26.3582 17.5087 26.601 18.8249 26.6573C20.822 26.7436 22.7707 26.4454 24.6918 25.9096C27.4345 25.1448 29.8193 23.7938 31.7318 21.6626C33.3242 19.888 34.4616 17.8852 34.7052 15.4669C34.8243 14.2866 34.6975 13.1303 34.1449 12.0535C33.5455 10.8869 32.5925 10.0193 31.4529 9.42164C29.7935 8.55152 28.0025 8.04492 26.154 8.04492H24.3021C22.0634 8.04492 19.8991 8.68645 17.7953 9.45172C16.2029 10.0314 14.6414 10.7154 13.1255 11.4725C9.82419 13.1221 6.74978 15.1111 4.2245 17.8461C2.96638 19.2086 1.90118 20.7121 1.28845 22.4824C1.10351 23.011 0.944199 23.5481 0.811064 24.092M12.7731 39.5664C12.63 41.4823 11.7617 43.0357 10.3424 44.2938C9.54403 45.0011 8.62837 45.5047 7.56188 45.6817C7.17517 45.7457 6.77942 45.7612 6.40431 45.6009C5.86935 45.3723 5.74946 44.8975 5.73915 44.3918C5.72325 43.5857 6.00556 42.8569 6.3927 42.1634C6.89802 41.2593 7.6388 40.5701 8.42985 39.9264C9.67595 38.912 11.0277 38.0534 12.4122 37.243L12.5166 37.2001C12.7306 37.9907 12.8324 38.7714 12.7731 39.5664ZM23.5832 31.2395C23.4822 31.8513 23.3559 32.4636 23.1772 33.0566C22.5593 35.1092 21.7656 37.0982 20.9075 39.0606C20.749 39.4237 20.5183 39.755 20.3176 40.0992C20.2835 40.1521 20.2426 40.2003 20.196 40.2427C19.9476 40.488 19.7122 40.4752 19.5867 40.1542C19.4406 39.7812 19.3508 39.382 19.2734 38.9872C19.2215 38.722 19.2339 38.4436 19.2176 38.172C19.2343 36.241 19.8234 34.4862 20.8229 32.8525C21.235 32.1788 21.6836 31.5368 22.3689 31.1105C22.5821 30.978 22.8128 30.8759 23.0543 30.8072C23.4195 30.7045 23.6438 30.8734 23.5832 31.2395ZM30.9584 40.6359L33.6091 37.5408C33.7195 38.6902 31.7658 40.9848 30.9584 40.6359ZM39.4245 38.5532C39.2372 38.6606 39.0331 38.7379 38.841 38.8372C38.6652 38.9283 38.6072 38.8363 38.6021 38.6851C38.5995 38.5804 38.613 38.4759 38.642 38.3753C39 37.1129 39.6587 36.0352 40.6388 35.1586L40.7075 35.1234C41.1738 36.4275 40.6349 37.8596 39.4245 38.5532Z"
            fill="#8B8B8B"></path>
    </g>
    <defs>
        <clipPath id="clip0_110_405">
            <rect width="55" height="55" fill="white" transform="translate(0.25 0.740234)"></rect>
        </clipPath>
    </defs>
</svg>