<svg width="55" height="55" viewBox="0 0 62 55" fill="none" xmlns="http://www.w3.org/2000/svg">
    <g clip-path="url(#clip0_518_1328)">
        <path
            d="M33.5091 7.6084C33.8579 7.60841 34.1928 7.74467 34.4426 7.98814C34.6923 8.2316 34.837 8.56299 34.8459 8.91164L34.8464 8.94563V24.2524C34.8464 24.6012 34.7102 24.9362 34.4667 25.186C34.2232 25.4358 33.8918 25.5805 33.5431 25.5894L33.5091 25.5899H21.0277C20.6788 25.5899 20.3438 25.4536 20.094 25.2101C19.8442 24.9666 19.6995 24.6351 19.6907 24.2864L19.6904 24.2524V8.94563C19.6905 8.59686 19.8268 8.26191 20.0702 8.01217C20.3137 7.76242 20.645 7.61762 20.9937 7.60864L21.0277 7.6084H33.5091ZM33.5091 8.20325H21.0277C20.8353 8.2033 20.6505 8.27788 20.5119 8.41134C20.3734 8.5448 20.292 8.72674 20.2848 8.91896L20.2841 8.94563V24.2524C20.2844 24.4449 20.3592 24.6298 20.4929 24.7683C20.6265 24.9069 20.8086 24.9883 21.001 24.9955L21.0277 24.996H33.5091C33.7016 24.9956 33.8864 24.9208 34.0249 24.7871C34.1634 24.6535 34.2448 24.4714 34.252 24.2791L34.2524 24.2524V8.94563C34.2521 8.74863 34.1737 8.5598 34.0342 8.42062C33.8948 8.28143 33.7059 8.20325 33.5089 8.20325M22.8103 21.8749V22.7657H21.9185V21.8749H22.8103ZM32.767 21.8749V22.7657H23.2567V21.8749H32.767ZM22.8103 18.0114V18.9023H21.9185V18.0114H22.8103ZM32.767 18.0114V18.9023H23.2567V18.0114H32.767ZM22.8103 14.2964V15.1871H21.9185V14.2964H22.8103ZM32.767 14.2964V15.1871H23.2567V14.2964H32.767ZM32.767 10.8784V11.7702H21.9183V10.8782L32.767 10.8784ZM33.5091 28.7086V28.718C33.8564 28.718 34.19 28.853 34.4395 29.0945C34.689 29.3361 34.8347 29.6652 34.8459 30.0123L34.8464 30.046V45.3528C34.8464 45.7016 34.7102 46.0366 34.4667 46.2864C34.2232 46.5362 33.8918 46.6809 33.5431 46.6898L33.5091 46.6903H21.0277C20.68 46.6903 20.346 46.555 20.0965 46.3129C19.8469 46.0708 19.7015 45.7411 19.6909 45.3936L19.6904 45.3528V30.046C19.6905 29.6973 19.8268 29.3623 20.0702 29.1126C20.3137 28.8628 20.645 28.718 20.9937 28.709L21.0277 28.7088L33.5091 28.7086ZM33.5091 29.3037H21.0277C20.8353 29.3037 20.6505 29.3783 20.5119 29.5117C20.3734 29.6452 20.292 29.8271 20.2848 30.0194L20.2841 30.046V45.3528C20.2844 45.5453 20.3592 45.7302 20.4929 45.8687C20.6265 46.0073 20.8086 46.0887 21.001 46.0959L21.0277 46.0964H33.5091C33.7008 46.0961 33.885 46.0218 34.0234 45.8891C34.1618 45.7564 34.2436 45.5755 34.252 45.384L34.2524 45.3575V30.0508C34.2521 29.8584 34.1773 29.6737 34.0437 29.5353C33.9101 29.397 33.728 29.3158 33.5358 29.3088L33.5091 29.3084V29.3037ZM22.8103 42.9786V43.8706H21.9185V42.9786H22.8103ZM32.767 42.9857V43.8638H23.2567V42.9857H32.767ZM22.8103 39.1151V40.0069H21.9185V39.1151H22.8103ZM32.767 39.122V40.0001H23.2567V39.122H32.767ZM22.8103 35.4011V36.292H21.9185V35.4011H22.8103ZM32.767 35.4082V36.2851H23.2567V35.4077L32.767 35.4082ZM32.767 31.9831V32.8749H21.9183V31.9831H32.767ZM37.1087 16.5991V17.3413H41.566V37.531H37.1087V38.2743H42.3094V16.5991H41.566H37.1087Z"
            fill="#8E8F8F" />
        <path
            d="M5.34875 3.49239C6.22757 2.05082 7.67551 1.21001 9.13808 0.721854L9.33755 0.657412L9.53677 0.597218C9.63639 0.568105 9.73577 0.540566 9.83491 0.5146L10.0325 0.464321C10.0655 0.456138 10.0983 0.44827 10.1309 0.440716L10.3268 0.395866L10.4239 0.374858L10.6169 0.335437L10.8079 0.299557L10.9963 0.26651L11.1821 0.236768L11.3645 0.209622L11.5437 0.185545L11.7191 0.164064L11.8904 0.144944L12.0576 0.128184L12.2993 0.106939L12.5294 0.0904158L12.7471 0.0781411L12.9836 0.0679909L13.2001 0.0618536L13.3322 0.0597291L13.454 0.0587849H13.5652L13.7109 0.0606733L13.793 0.0623257L13.9429 0.0675188L14.009 0.0708235V3.63851C10.8535 3.33825 9.44542 4.29142 8.82461 5.30715L8.76866 5.40252C8.69128 5.53984 8.6246 5.68292 8.5692 5.83048L8.53568 5.92396C8.53017 5.93922 8.52498 5.95464 8.5201 5.97022L8.49154 6.06228L8.46604 6.15269L8.44386 6.24145C8.44024 6.25608 8.43685 6.27064 8.43371 6.28512L8.41553 6.37127L8.4075 6.41376L8.39334 6.49638L8.38107 6.57664L8.37139 6.6543L8.36029 6.76524L8.35297 6.86887L8.34943 6.95007L8.34778 7.02537V7.09383L8.34896 7.1552L8.35132 7.20949L8.35534 7.27559L8.36289 7.35348V8.66428L8.3551 11.3404L8.34566 13.2689L8.3348 14.8911L8.323 16.2618L8.31119 17.3413L8.2975 18.3922L8.28334 19.288L8.2654 20.2372L8.25431 20.7317L8.24227 21.1991L8.22669 21.7196L8.22126 21.8825L8.22079 22.1837L8.21913 22.368L8.21701 22.4926L8.21229 22.681L8.20473 22.8632L8.1986 22.9742L8.19152 23.0856L8.18255 23.1975L8.16649 23.3656L8.15375 23.4779L8.13888 23.5905L8.12212 23.7031L8.11291 23.7593L8.09285 23.8717L8.08199 23.9278L8.05838 24.04L8.03242 24.1519L8.00386 24.2635C7.99378 24.3006 7.98324 24.3376 7.97222 24.3745L7.93776 24.4854L7.90046 24.5952L7.85986 24.7044C7.40287 25.8854 6.36802 26.937 4.02521 27.424C6.30452 27.8973 7.34574 28.904 7.82139 30.0442L7.86482 30.1532C7.90684 30.2628 7.94406 30.3731 7.97647 30.4844L8.00787 30.5958C8.0277 30.6703 8.04579 30.745 8.06216 30.8201L8.08529 30.9324L8.09592 30.9888L8.11574 31.1014L8.13345 31.2143L8.14879 31.3271L8.16248 31.4399L8.17428 31.5525L8.1842 31.6649L8.1927 31.777L8.20285 31.9444L8.20804 32.0553L8.21441 32.2413L8.21725 32.3641L8.21937 32.4861L8.22079 32.6667L8.22126 32.9665L8.23731 33.4891L8.25147 34.041L8.26469 34.6325L8.27649 35.259L8.28948 36.0271L8.30695 37.2959L8.31875 38.3711L8.32489 38.9759L8.3374 40.5211L8.35109 42.8136L8.36053 45.2947L8.36407 45.2926V47.4933L8.36053 47.5245L8.35628 47.5712L8.35368 47.6132L8.35014 47.6914L8.34896 47.753V47.8214L8.35062 47.8967L8.35416 47.9779L8.36124 48.0804L8.36808 48.1524L8.38177 48.2662L8.39358 48.3455L8.4075 48.4269L8.42403 48.5107L8.433 48.5532L8.4533 48.6401L8.46463 48.684L8.48918 48.7732L8.51703 48.8636C8.52175 48.879 8.52679 48.8943 8.53214 48.9094L8.56495 49.0015C8.57644 49.0325 8.58848 49.0635 8.60107 49.0947L8.64119 49.1882C9.1369 50.2995 10.4439 51.4998 13.8249 51.2246L14.0102 51.2081V54.776L13.9155 54.7807L13.7399 54.7857L13.5954 54.788H13.4238L13.2952 54.7868L13.1559 54.784L13.0067 54.7798L12.8127 54.772L12.6758 54.7651L12.5337 54.7566L12.3859 54.7465L12.2334 54.7347L12.0762 54.7205L11.9145 54.7047L11.7486 54.6865L11.5789 54.666L11.4056 54.6431L11.3178 54.6306L11.1398 54.6037L11.0496 54.5895L10.8674 54.5584L10.7753 54.5418L10.5896 54.506L10.4959 54.4871L10.307 54.4469L10.117 54.403C10.0533 54.3881 9.98944 54.3723 9.92555 54.3558L9.73293 54.3051C7.96491 53.8231 6.10718 52.8703 5.15188 51.0034C5.35913 48.7085 6.30287 46.7521 7.99795 45.5343C8.07774 45.478 8.15855 45.4235 8.24038 45.3708L8.33291 45.312C8.21803 45.3828 8.10528 45.4577 7.99465 45.5367C6.30287 46.7521 5.35913 48.7085 5.15188 50.9942C4.72678 50.1353 4.50392 49.1905 4.50038 48.2322L4.47913 47.2485L4.45152 46.056L4.41705 44.6605L4.36984 42.8816L4.32688 41.3388L4.2674 39.3189L4.20036 37.1552L4.088 33.7504L4.06085 32.9608C3.99452 31.1734 3.27716 30.3029 2.53053 29.8827L2.44248 29.8353L2.39858 29.8131L2.31053 29.7715C2.28126 29.7583 2.25207 29.7457 2.22295 29.7338L2.13585 29.6998C2.10705 29.6888 2.07825 29.6785 2.04946 29.6691L1.96401 29.6412C1.93568 29.6327 1.90767 29.6246 1.87997 29.6169L1.81317 29.5992L1.74755 29.5834L1.68287 29.5692L1.61961 29.5567L1.52731 29.5407L1.46759 29.5319L1.40976 29.5244L1.32643 29.5152L1.25278 29.5147L1.10242 29.5131C1.0239 29.5119 0.94536 29.5119 0.866838 29.5131L0.7854 29.5152V25.334C0.981087 25.3411 1.156 25.3375 1.32643 25.3283L1.40976 25.3189L1.46759 25.3116L1.52731 25.3026L1.61961 25.2866L1.68287 25.274L1.74755 25.2599L1.81317 25.2441L1.87997 25.2266L1.96401 25.202L2.04946 25.1744L2.13585 25.1437C3.00358 24.8192 3.98272 23.9852 4.06085 21.8825L4.16235 18.8586L4.24096 16.3886L4.28345 14.9869L4.3486 12.7383L4.39109 11.1742L4.42201 9.98286L4.46096 8.38786L4.48362 7.39645L4.50038 6.61016C4.52634 5.37112 4.8318 4.36531 5.31641 3.54904L5.34898 3.49499L5.34875 3.49239ZM47.9898 3.57973V0.0122828L48.0856 0.00756174L48.2188 0.00354886L48.3052 0.0018965L48.4577 0.000244141H48.574L48.7015 0.00166045L48.8979 0.00567333L49.1488 0.0146433L49.2831 0.0210167L49.4229 0.0290424L49.6426 0.0439137L49.7954 0.0561883L49.9526 0.0703514L50.1143 0.086875L50.2797 0.105287L50.4492 0.12606L50.622 0.149193L50.7981 0.175158L50.9773 0.203484L51.0677 0.218828L51.2506 0.251639L51.4357 0.287519L51.6226 0.326231L51.8115 0.368721L52.0013 0.414042C52.0968 0.437648 52.1925 0.462669 52.2883 0.489107L52.4804 0.543871C54.2768 1.07145 56.1234 2.09992 56.9909 4.09102C57.3208 4.86942 57.4936 5.70529 57.4996 6.55067L57.5209 7.5343L57.5485 8.72683L57.5678 9.52469L57.5985 10.7191L57.6408 12.2919L57.6731 13.4448L57.7326 15.4649L57.7996 17.6286L57.912 21.0334L57.9391 21.823C58.0066 23.6401 58.7469 24.5092 59.5068 24.9211L59.5946 24.9667L59.6385 24.9879L59.7258 25.0281L59.8131 25.064C59.8276 25.0698 59.8421 25.0754 59.8566 25.0807L59.9427 25.1119L59.9855 25.126L60.0702 25.1522L60.112 25.1643L60.2361 25.1961L60.3171 25.2143L60.396 25.2297L60.4727 25.2429L60.5324 25.2519L60.5902 25.2594L60.6736 25.2686C60.8197 25.2764 60.9717 25.2802 61.1331 25.2766L61.2146 25.2743V29.4566C61.0342 29.4503 60.8537 29.4523 60.6736 29.4625L60.6186 29.4682L60.5614 29.4753L60.4727 29.488L60.3804 29.5041L60.3171 29.5166L60.2524 29.5308L60.1868 29.5466L60.12 29.564L60.0782 29.5758L59.9933 29.6018L59.9505 29.616L59.8641 29.6469L59.8207 29.6634L59.7334 29.6995C58.9008 30.0581 58.0133 30.9105 57.9394 32.9082L57.8374 35.9304L57.759 38.4006L57.7165 39.8025L57.6514 42.0514L57.6089 43.6155L57.578 44.8068L57.539 46.4018L57.5164 47.3932L57.4996 48.1793C57.493 48.9145 57.3624 49.6434 57.1134 50.3352L57.0837 50.4161L57.0851 50.4237C56.1957 52.7216 54.0433 53.802 52.0563 54.3048L51.8613 54.3525L51.7645 54.3749L51.5716 54.4174L51.476 54.437L51.2863 54.4743L51.1921 54.4918L51.0056 54.5244L50.9135 54.5395L50.7313 54.5678L50.5524 54.5931L50.377 54.6157L50.2051 54.6358L50.0375 54.6537L49.8744 54.6693L49.6384 54.6887L49.4873 54.6993L49.2713 54.712L49.0683 54.721L48.8205 54.7285L48.6793 54.7309L48.5495 54.7318H48.4319L48.3269 54.7307L48.2353 54.729L48.1236 54.7257L48.0269 54.7217L47.9931 54.7198V51.1521C51.2966 51.4666 52.6849 50.4072 53.2599 49.3404L53.3095 49.2448C53.3252 49.213 53.3401 49.1813 53.3543 49.1495L53.3956 49.0546C53.4087 49.0231 53.4211 48.9916 53.4329 48.9602L53.4667 48.8669L53.4969 48.7744L53.5108 48.7286L53.5363 48.6382L53.5585 48.5492L53.5781 48.4621L53.5948 48.3771L53.609 48.2945L53.621 48.2142L53.631 48.1363L53.6421 48.0254L53.6472 47.9555L53.6529 47.8406L53.6546 47.7655V47.697L53.6534 47.6352L53.651 47.5811L53.6487 47.5351L53.643 47.4683L53.6395 47.4372V45.4805L53.6449 43.6589L53.6539 41.7792L53.6645 40.1951L53.6784 38.5779L53.6945 37.1264L53.7058 36.2825L53.7164 35.6029L53.7306 34.8235L53.7405 34.3302L53.7516 33.8609L53.7631 33.4183L53.7787 32.907L53.7792 32.6072L53.7808 32.4245L53.7827 32.3013L53.7858 32.1771L53.7924 31.9892L53.7986 31.8632L53.8054 31.7508L53.8137 31.6382L53.8231 31.5252L53.8349 31.4119L53.8479 31.2985L53.863 31.1848L53.8715 31.1281L53.8897 31.0146L53.9102 30.9013L53.9331 30.788L53.9586 30.6747C53.9896 30.5431 54.0264 30.4123 54.0691 30.2823L54.1075 30.1714C54.1606 30.0241 54.223 29.8789 54.2947 29.7357L54.3504 29.629C54.8901 28.638 55.9381 27.7878 57.9748 27.3643C55.4061 26.831 54.4099 25.6206 54.0233 24.3048L53.9921 24.1934C53.9724 24.119 53.9543 24.0442 53.9378 23.9691L53.9147 23.8568L53.9041 23.8006L53.8842 23.6878L53.8665 23.5749L53.8512 23.4621L53.8375 23.3495L53.8257 23.2369L53.8158 23.1246L53.8073 23.0124L53.7971 22.8451L53.7919 22.7341L53.7856 22.5481L53.7827 22.4254L53.7806 22.3036L53.7792 22.1228L53.7787 21.823L53.7676 21.4743L53.7556 21.031L53.7419 20.4605L53.7294 19.8529L53.7176 19.2132L53.7039 18.3193L53.6876 17.0337L53.6753 15.8325L53.664 14.4409L53.6491 11.9664L53.6395 9.28486C53.8425 9.17281 54.0389 9.05007 54.2286 8.91662C55.1738 8.23962 55.8857 7.32705 56.3656 6.25348L56.3987 6.17842C55.9181 7.28456 55.1948 8.22428 54.2253 8.91803C54.0672 9.02898 53.9043 9.13276 53.7367 9.22939L53.6359 9.28604V7.29518L53.6395 7.26402L53.6437 7.21705L53.6463 7.17503L53.6498 7.09713L53.651 7.03552V6.96707L53.6494 6.89153L53.6458 6.81033L53.6416 6.74306L53.6321 6.63589L53.6182 6.52211L53.6064 6.44303L53.5925 6.36136L53.576 6.27756L53.567 6.23507L53.5467 6.14844L53.5354 6.1043L53.5108 6.01507L53.483 5.92466C53.4782 5.90956 53.4732 5.89429 53.4678 5.87887L53.435 5.78681C53.4235 5.75597 53.4115 5.72497 53.3989 5.69381L53.3588 5.60009C52.8631 4.489 51.5561 3.28868 48.1751 3.56368L47.9898 3.57973Z"
            fill="#FE0902" />
        <path
            d="M8.1431 8.51957C8.17867 8.54538 8.21502 8.57009 8.25216 8.59369L8.36286 8.66451V7.35371L8.35932 7.32255L8.35531 7.27558L8.35248 7.23356L8.34894 7.15543L8.34776 7.09406V7.02536L8.34941 6.95006L8.35295 6.86886L8.35743 6.80041L8.36334 6.72888L8.37136 6.65429L8.38104 6.57663L8.39308 6.49637L8.40724 6.41376L8.42424 6.32854L8.43368 6.28511L8.45445 6.1973L8.47829 6.1076L8.49151 6.06204L8.51984 5.97021L8.53565 5.92395L8.56917 5.83047C8.62252 5.68955 8.68814 5.54579 8.76864 5.40251L8.82458 5.30715C9.4454 4.29142 10.8534 3.33848 14.0092 3.6385V0.0708155L13.9431 0.0675107L13.8296 0.0634978L13.7536 0.0613734L13.5652 0.0590129H13.4543L13.3322 0.059721L13.1302 0.0634978L12.9456 0.0693991L12.747 0.078133L12.5294 0.0906438L12.2993 0.107167L12.1392 0.120622L11.8904 0.144936L11.719 0.16382L11.5437 0.185536L11.3645 0.209614L11.182 0.23676L10.9963 0.266502L10.8079 0.299549L10.6169 0.335429L10.4238 0.37485L10.3266 0.396094L10.1309 0.440708C10.0983 0.448262 10.0655 0.45613 10.0325 0.464313L9.83488 0.514592C9.73574 0.540558 9.63636 0.568097 9.53675 0.59721L9.33752 0.657403L9.13806 0.721846C7.67548 1.21 6.22754 2.05082 5.34872 3.49238C5.63293 5.59725 6.56061 7.39172 8.1431 8.51957ZM14.0102 54.7762V51.2083C10.5589 51.5367 9.19801 50.3656 8.67115 49.2533L8.62795 49.1582C8.60766 49.1114 8.58846 49.0642 8.57035 49.0166L8.53683 48.9229L8.52125 48.8766L8.49269 48.7845L8.4672 48.6944L8.44477 48.6054L8.42542 48.5183L8.40866 48.4333L8.39426 48.3507L8.38246 48.2704L8.37254 48.1925L8.36145 48.0816L8.35413 47.9779L8.35059 47.8967L8.34894 47.8214V47.753L8.35012 47.6916L8.35248 47.6373L8.35484 47.5913L8.3605 47.5245L8.36404 47.4914V45.2926C8.23972 45.3694 8.11776 45.45 7.99816 45.5343C6.30284 46.7521 5.35911 48.7085 5.15186 51.0037C6.10739 52.8703 7.96464 53.823 9.73291 54.3051L9.92553 54.3558C9.98926 54.3723 10.0531 54.3881 10.117 54.403L10.3072 54.4467L10.4958 54.4871L10.6825 54.5241L10.7753 54.5416L10.9587 54.5742L11.0496 54.5893L11.229 54.6176L11.3178 54.6306L11.4927 54.6549L11.5788 54.666L11.7488 54.6865L11.9145 54.7047L12.0762 54.7205L12.2334 54.7347L12.3859 54.7465L12.5337 54.7566L12.6758 54.7651L12.8788 54.775L13.0067 54.7798L13.1561 54.784L13.2954 54.7868L13.4238 54.788L13.5954 54.7878L13.7399 54.7857L13.8555 54.7826L14.0102 54.7762ZM56.9909 4.09077C56.0679 1.97292 54.0377 0.944206 52.1384 0.448734L51.9488 0.401051L51.7605 0.356674L51.667 0.335665L51.481 0.296245L51.3884 0.277833L51.2053 0.243133L51.0244 0.211266L50.846 0.182232L50.6704 0.155794L50.4978 0.132189L50.3286 0.110944L50.1631 0.091824L50.0014 0.0750644L49.844 0.0601931L49.6162 0.0417811L49.3992 0.027382L49.1943 0.0162876L49.0022 0.00849785L48.8818 0.00495708L48.7366 0.00188841L48.6023 0H48.4801L48.3698 0.000708155L48.2726 0.00212446L48.1517 0.00519313L48.063 0.00849785L47.9898 0.0120386V3.57996C51.4411 3.25137 52.8019 4.42242 53.3288 5.5347L53.372 5.63006C53.3924 5.67727 53.4116 5.72448 53.4296 5.7717L53.4631 5.86517C53.4684 5.88059 53.4736 5.89609 53.4787 5.91167L53.5072 6.0035L53.5327 6.09391L53.5552 6.18266L53.5745 6.27L53.5913 6.35498L53.6057 6.4376L53.6175 6.51785L53.6274 6.59575L53.6385 6.7067L53.6458 6.81009L53.6493 6.89152L53.651 6.96659V7.03504L53.6498 7.09665L53.6475 7.15094L53.6437 7.21704L53.6359 7.29541V9.28603C53.8389 9.17383 54.0354 9.05108 54.2253 8.91779C55.7594 7.81968 56.6779 6.10618 56.9909 4.09077ZM54.3771 45.9326C54.1417 45.7653 53.8953 45.6142 53.6394 45.4803V47.4369L53.643 47.4681L53.647 47.5148L53.6498 47.5568L53.6534 47.635L53.6545 47.6966V47.765L53.6529 47.8403L53.6472 47.9553L53.642 48.0252L53.6309 48.1361L53.621 48.214L53.6092 48.2942L53.5948 48.3769L53.5781 48.4618L53.5585 48.5492L53.5363 48.6379L53.5108 48.7283L53.4969 48.7741L53.4666 48.8667L53.4329 48.9601C53.4211 48.9913 53.4087 49.0228 53.3956 49.0546L53.3545 49.1492C53.3402 49.1812 53.3251 49.213 53.3092 49.2446L53.2599 49.3402C52.6848 50.4071 51.2966 51.4663 47.9931 51.1519V54.7196L48.046 54.7224L48.198 54.7278L48.3847 54.7311L48.498 54.7318L48.6916 54.7307L48.8351 54.7281L48.9897 54.7236L49.1814 54.716L49.3858 54.7054L49.5288 54.6962L49.7528 54.6797L49.9079 54.666L50.0675 54.6504L50.2311 54.6327L50.3987 54.6126L50.5696 54.5905L50.744 54.5654L50.9211 54.538C50.951 54.5333 50.9809 54.5284 51.0108 54.5232L51.192 54.4915L51.3755 54.4568L51.468 54.4384L51.6545 54.3993L51.7482 54.3785L51.937 54.3341C53.9567 53.8445 56.1777 52.7674 57.0853 50.4234C56.726 48.5508 55.8215 46.9672 54.3771 45.9326Z"
            fill="#FFAB00" />
    </g>
    <defs>
        <clipPath id="clip0_518_1328">
            <rect width="60.43" height="55" fill="white" transform="translate(0.784912)" />
        </clipPath>
    </defs>
</svg>