<svg width="53" height="53" viewBox="0 0 53 53" fill="none" xmlns="http://www.w3.org/2000/svg">
    <g clip-path="url(#clip0_110_396)">
        <path
            d="M40.5625 0.240234H12.9375C6.20653 0.240234 0.75 5.69676 0.75 12.4277V40.0527C0.75 46.7837 6.20653 52.2402 12.9375 52.2402H40.5625C47.2935 52.2402 52.75 46.7837 52.75 40.0527V12.4277C52.75 5.69676 47.2935 0.240234 40.5625 0.240234Z"
            fill="#0A0A0A"></path>
        <path
            d="M12.45 36.4047V14.1097C12.45 13.958 12.515 13.8715 12.6667 13.8715C13.035 13.8715 13.3817 13.8715 13.88 13.8497C14.4 13.828 14.9417 13.828 15.5267 13.8065C16.1117 13.7847 16.74 13.7847 17.4117 13.763C18.0832 13.7415 18.7332 13.7415 19.3832 13.7415C21.16 13.7415 22.6332 13.958 23.8467 14.413C24.9343 14.7824 25.9261 15.3893 26.75 16.1897C27.4481 16.8902 27.9875 17.7326 28.3317 18.6597C28.6567 19.5697 28.83 20.5015 28.83 21.4765C28.83 23.3397 28.3967 24.878 27.53 26.0915C26.6632 27.3047 25.45 28.2147 24.0417 28.7347C22.5682 29.2765 20.9432 29.4715 19.1667 29.4715C18.6467 29.4715 18.3 29.4715 18.0832 29.4497C17.8667 29.428 17.5632 29.428 17.1517 29.428V36.383C17.1732 36.5347 17.065 36.6647 16.9132 36.6865H12.71C12.5367 36.6865 12.45 36.5997 12.45 36.4047ZM17.1732 18.053V25.333C17.4767 25.3547 17.7582 25.3765 18.0182 25.3765H19.1667C20.0117 25.3765 20.8567 25.2465 21.6582 24.9865C22.3517 24.7915 22.9582 24.3797 23.435 23.838C23.89 23.2965 24.1067 22.5597 24.1067 21.6065C24.127 20.9293 23.9541 20.2604 23.6082 19.678C23.24 19.1147 22.72 18.6815 22.0917 18.443C21.29 18.118 20.4232 17.988 19.535 18.0097C18.9717 18.0097 18.4732 18.0097 18.0617 18.0315C17.6282 18.0097 17.325 18.0315 17.1732 18.053ZM42.35 24.0115C41.7 23.6647 41.0067 23.4265 40.2699 23.2747C39.4682 23.1015 38.6667 22.993 37.8432 22.993C37.41 22.9715 36.955 23.0365 36.5432 23.1447C36.2617 23.2097 36.0232 23.3615 35.8717 23.578C35.7632 23.7515 35.6982 23.968 35.6982 24.163C35.6982 24.358 35.785 24.553 35.915 24.7265C36.11 24.9647 36.3699 25.1597 36.6517 25.3115C37.154 25.5716 37.6672 25.8102 38.19 26.0265C39.36 26.4165 40.4867 26.958 41.5267 27.608C42.2417 28.063 42.8267 28.6697 43.2382 29.4065C43.585 30.0997 43.7582 30.858 43.7367 31.638C43.7582 32.6565 43.455 33.6747 42.8917 34.5197C42.2873 35.3846 41.444 36.0547 40.465 36.448C39.4032 36.903 38.1032 37.1415 36.5432 37.1415C35.5467 37.1415 34.5717 37.0547 33.5967 36.8597C32.8325 36.7277 32.0893 36.4946 31.3867 36.1665C31.235 36.0797 31.1267 35.928 31.1482 35.7547V31.9847C31.1482 31.9197 31.17 31.833 31.235 31.7897C31.3 31.7465 31.365 31.768 31.43 31.8115C32.275 32.3097 33.1632 32.6565 34.1167 32.873C34.94 33.0897 35.8067 33.198 36.6732 33.198C37.4967 33.198 38.0817 33.0897 38.4717 32.8947C38.8182 32.743 39.0567 32.3747 39.0567 31.9847C39.0567 31.6815 38.8832 31.3997 38.5367 31.118C38.19 30.8365 37.475 30.5115 36.4132 30.0997C35.3241 29.716 34.2899 29.1915 33.3367 28.5397C32.6577 28.0558 32.0952 27.4266 31.69 26.698C31.3432 26.0047 31.17 25.2465 31.1917 24.488C31.1917 23.5565 31.4517 22.668 31.9282 21.8665C32.47 20.9997 33.2717 20.3065 34.2032 19.873C35.2217 19.353 36.5 19.1147 38.0382 19.1147C38.9267 19.1147 39.8367 19.1797 40.725 19.3097C41.375 19.3965 42.0032 19.5697 42.5882 19.808C42.675 19.8297 42.7617 19.9165 42.805 20.003C42.8267 20.0897 42.8482 20.1765 42.8482 20.263V23.7947C42.8482 23.8815 42.805 23.968 42.74 24.0115C42.545 24.0547 42.4367 24.0547 42.35 24.0115Z"
            fill="#fff"></path>
    </g>
    <defs>
        <clipPath id="clip0_110_396">
            <rect width="52" height="52" fill="white" transform="translate(0.75 0.240234)"></rect>
        </clipPath>
    </defs>
</svg>