<svg width="56" height="56" viewBox="0 0 56 56" fill="none" xmlns="http://www.w3.org/2000/svg">
    <path
        d="M28 33.1387C30.7053 33.1387 32.8984 30.9456 32.8984 28.2402C32.8984 25.5349 30.7053 23.3418 28 23.3418C25.2947 23.3418 23.1016 25.5349 23.1016 28.2402C23.1016 30.9456 25.2947 33.1387 28 33.1387Z"
        fill="#B9B9B9"></path>
    <path
        d="M46.6055 20.1621C45.6602 19.8184 44.6719 19.4746 43.6406 19.1738C43.8984 18.1426 44.1133 17.1113 44.2852 16.123C45.1875 10.4512 44.1992 6.45508 41.4492 4.9082C40.6328 4.43555 39.7305 4.2207 38.6992 4.2207C35.6914 4.2207 31.8672 6.45508 28 10.1934C24.1328 6.45508 20.3086 4.2207 17.3008 4.2207C16.2695 4.2207 15.3672 4.43555 14.5508 4.9082C11.8008 6.49805 10.8125 10.4941 11.7148 16.123C11.8867 17.1113 12.1016 18.1426 12.3594 19.1738C11.3281 19.4746 10.3398 19.7754 9.39453 20.1621C4.02344 22.2246 1.10156 25.0605 1.10156 28.2402C1.10156 31.4199 4.06641 34.2559 9.39453 36.3184C10.3398 36.6621 11.3281 37.0059 12.3594 37.3066C12.1016 38.3379 11.8867 39.3691 11.7148 40.3574C10.8125 46.0293 11.8008 50.0254 14.5508 51.5723C15.3672 52.0449 16.2695 52.2598 17.3008 52.2598C20.3516 52.2598 24.1758 50.0254 28 46.2871C31.8672 50.0254 35.6914 52.2598 38.6992 52.2598C39.7305 52.2598 40.6328 52.0449 41.4492 51.5723C44.1992 49.9824 45.1875 45.9863 44.2852 40.3574C44.1133 39.3691 43.8984 38.3379 43.6406 37.3066C44.6719 37.0059 45.6602 36.7051 46.6055 36.3184C51.9766 34.2559 54.8984 31.4199 54.8984 28.2402C54.8984 25.0605 51.9766 22.2246 46.6055 20.1621ZM40.2461 7.05664C42.0078 8.08789 42.6094 11.2676 41.8789 15.7793C41.75 16.6816 41.5352 17.627 41.2773 18.6152C39.043 18.0996 36.6797 17.7559 34.1875 17.541C32.7266 15.4785 31.2227 13.6309 29.7188 11.9551C32.8984 8.81836 36.1211 6.66992 38.7422 6.66992C39.3008 6.66992 39.8164 6.79883 40.2461 7.05664ZM35.4336 32.5371C34.6602 33.9121 33.7578 35.2871 32.8125 36.6621C31.2227 36.791 29.6328 36.834 28 36.834C26.3242 36.834 24.7344 36.791 23.1875 36.6621C22.2422 35.2871 21.3828 33.9121 20.6094 32.5371C19.793 31.1191 19.0195 29.6582 18.332 28.2402C19.0195 26.8223 19.793 25.3613 20.6094 23.9434C21.3828 22.5684 22.2852 21.1934 23.2305 19.8184C24.8203 19.6895 26.4102 19.6465 28.043 19.6465C29.7187 19.6465 31.3086 19.6895 32.8555 19.8184C33.8008 21.1934 34.6602 22.5684 35.4336 23.9434C36.25 25.3613 37.0234 26.8223 37.7109 28.2402C36.9805 29.6582 36.25 31.0762 35.4336 32.5371ZM39 31.1191C39.6445 32.623 40.1602 34.084 40.6328 35.5449C39.1719 35.8887 37.625 36.1465 35.9922 36.3613C36.5078 35.5449 37.0664 34.6855 37.5391 33.7832C38.0547 32.8809 38.5273 31.9785 39 31.1191ZM28 42.7637C26.9688 41.6465 25.9805 40.4434 25.0352 39.1973C26.0234 39.2402 27.0117 39.2832 28 39.2832C28.9883 39.2832 29.9766 39.2402 30.9648 39.1973C30.0195 40.4434 29.0312 41.6465 28 42.7637ZM20.0078 36.3184C18.375 36.1035 16.8281 35.8457 15.3672 35.502C15.8398 34.084 16.3555 32.5801 17 31.0762C17.4727 31.9355 17.9453 32.8379 18.4609 33.6973C18.9766 34.6426 19.4922 35.459 20.0078 36.3184ZM17 25.3613C16.3555 23.8574 15.8398 22.3965 15.3672 20.9355C16.8281 20.5918 18.375 20.334 20.0078 20.1191C19.4922 20.9355 18.9336 21.7949 18.4609 22.6973C17.9453 23.5996 17.4727 24.502 17 25.3613ZM28 13.7168C29.0312 14.834 30.0195 16.0371 30.9648 17.2832C29.9766 17.2402 28.9883 17.1973 28 17.1973C27.0117 17.1973 26.0234 17.2402 25.0352 17.2832C25.9805 16.0371 26.9688 14.834 28 13.7168ZM37.5391 22.7402L35.9922 20.1621C37.625 20.377 39.1719 20.6348 40.6328 20.9785C40.1602 22.3965 39.6445 23.9004 39 25.4043C38.5273 24.502 38.0547 23.5996 37.5391 22.7402ZM14.1211 15.7793C13.3906 11.2676 13.9922 8.08789 15.7539 7.05664C16.1836 6.79883 16.6992 6.66992 17.2578 6.66992C19.8359 6.66992 23.0586 8.77539 26.2812 11.9551C24.7773 13.5879 23.2734 15.4785 21.8125 17.541C19.3203 17.7559 16.957 18.1426 14.7227 18.6152C14.4648 17.627 14.293 16.6816 14.1211 15.7793ZM3.50781 28.2402C3.50781 26.2207 5.95703 24.0723 10.2539 22.4824C11.1133 22.1387 12.0586 21.8379 13.0039 21.5801C13.6914 23.7285 14.5508 26.0059 15.582 28.2832C14.5508 30.5605 13.6484 32.7949 13.0039 34.9434C7.07422 33.2246 3.50781 30.6465 3.50781 28.2402ZM15.7539 49.4238C13.9922 48.3926 13.3906 45.2129 14.1211 40.7012C14.25 39.7988 14.4648 38.8535 14.7227 37.8652C16.957 38.3809 19.3203 38.7246 21.8125 38.9395C23.2734 41.002 24.7773 42.8496 26.2812 44.5254C23.1016 47.6621 19.8789 49.8105 17.2578 49.8105C16.6992 49.8105 16.1836 49.6816 15.7539 49.4238ZM41.8789 40.7012C42.6094 45.2129 42.0078 48.3926 40.2461 49.4238C39.8164 49.6816 39.3008 49.8105 38.7422 49.8105C36.1641 49.8105 32.9414 47.7051 29.7188 44.5254C31.2227 42.8926 32.7266 41.002 34.1875 38.9395C36.6797 38.7246 39.043 38.3379 41.2773 37.8652C41.5352 38.8535 41.707 39.7988 41.8789 40.7012ZM45.7461 33.998C44.8867 34.3418 43.9414 34.6426 42.9961 34.9004C42.3086 32.752 41.4492 30.4746 40.418 28.1973C41.4492 25.9199 42.3516 23.6855 42.9961 21.5371C48.9258 23.2559 52.4922 25.834 52.4922 28.2402C52.4922 30.2598 50 32.4082 45.7461 33.998Z"
        fill="#B9B9B9"></path>
</svg>