<svg width="52" height="52" viewBox="0 0 52 52" fill="none" xmlns="http://www.w3.org/2000/svg">
    <path
        d="M35.7724 26.0014C35.9947 26.4517 36.215 26.903 36.4396 27.3522C39.4395 33.3524 42.4401 39.3523 45.4403 45.3523C45.4609 45.3936 45.4797 45.4357 45.506 45.4918C45.455 45.495 45.4146 45.4997 45.3741 45.4997C41.5482 45.5001 37.7223 45.4996 33.8964 45.5027C33.8076 45.5028 33.7714 45.4709 33.7351 45.3983C32.4673 42.8607 31.1964 40.3247 29.9282 37.7872C28.6405 35.2109 27.3551 32.6334 26.0684 30.0565C26.0502 30.02 26.0284 29.9853 25.9987 29.9329C25.9665 29.9931 25.9421 30.0363 25.9199 30.0806C25.5654 30.7878 25.2107 31.495 24.8567 32.2025C24.4762 32.9631 24.0974 33.7246 23.7158 34.4847C23.3799 35.1537 23.0382 35.8198 22.7041 36.4897C21.2243 39.4567 19.746 42.4245 18.2693 45.393C18.2305 45.4709 18.1893 45.5026 18.0975 45.5025C14.2759 45.4997 10.4544 45.5001 6.63278 45.5001H6.48926C6.64697 45.1811 6.79429 44.8802 6.94413 44.5806C10.0321 38.4053 13.1203 32.2301 16.2085 26.0549C16.2142 26.0436 16.219 26.0318 16.2335 26.0062C16.2708 25.9438 16.3013 25.8965 16.3263 25.8465C18.2165 22.0671 20.1062 18.2873 21.9969 14.5081C22.0252 14.4516 22.0664 14.4015 22.1016 14.3484C22.1357 14.3964 22.1769 14.4409 22.203 14.4929C23.4427 16.9678 24.6811 19.4434 25.9194 21.9189C25.9434 21.9669 25.9653 22.0159 25.9958 22.0806C26.0282 22.0177 26.0556 21.9657 26.0819 21.9132C27.328 19.4236 28.5741 16.934 29.8206 14.4446C29.8369 14.412 29.8602 14.383 29.8975 14.354C29.9451 14.4076 29.9785 14.4581 30.0054 14.5119C31.8939 18.2875 33.7818 22.0634 35.6706 25.8388C35.6991 25.8957 35.7382 25.9473 35.7724 26.0014Z"
        fill="#4FC08D"></path>
    <path
        d="M35.7742 25.9921C35.738 25.9474 35.6989 25.8958 35.6704 25.8389C33.7816 22.0634 31.8937 18.2875 30.0052 14.512C29.9783 14.4582 29.9449 14.4077 29.9063 14.3515C29.912 14.2964 29.9177 14.2416 29.9407 14.1954C31.2001 11.6735 32.4615 9.1526 33.719 6.62974C33.769 6.5293 33.8252 6.49751 33.9352 6.49766C36.5691 6.50086 39.203 6.50013 41.8368 6.50013H45.5053C45.4741 6.5688 45.4548 6.61518 45.4324 6.66003C42.2358 13.0541 39.0389 19.4481 35.8423 25.8421C35.8191 25.8884 35.7982 25.9359 35.7742 25.9921ZM22.1012 14.3385C22.0662 14.4016 22.025 14.4517 21.9967 14.5082C20.106 18.2874 18.2163 22.0671 16.3261 25.8466C16.3011 25.8966 16.2706 25.9438 16.2351 25.9969C16.0065 25.5523 15.7877 25.1021 15.5639 24.6544C12.5681 18.6609 9.57146 12.6678 6.57519 6.67454C6.55062 6.62543 6.52782 6.57548 6.49561 6.50788C6.55944 6.50471 6.60488 6.50042 6.65031 6.50042C10.4586 6.50013 14.2669 6.50065 18.0752 6.49756C18.183 6.49748 18.2333 6.53557 18.2793 6.62797C19.5301 9.13531 20.7838 11.6411 22.0358 14.1478C22.0642 14.2047 22.0796 14.2681 22.1012 14.3385Z"
        fill="#35495E"></path>
</svg>