<svg width="56" height="55" viewBox="0 0 56 55" fill="none" xmlns="http://www.w3.org/2000/svg">
<g clip-path="url(#clip0_518_1353)">
<path d="M10.7704 4.35393C10.3268 5.83487 10.0958 7.37131 10.0842 8.91721L12.5365 10.1044C12.4904 8.64645 12.5476 7.18703 12.7075 5.7371C12.7178 5.63827 12.7277 5.57897 12.7277 5.57897C12.7277 5.63268 12.7126 5.68339 12.7075 5.7371C12.5931 7.17091 12.5914 8.61149 12.7023 10.0456C13.9729 8.96409 15.1859 7.81668 16.3362 6.60807C16.0945 5.96474 15.7283 5.37536 15.2587 4.87363C14.789 4.3719 14.2251 3.96767 13.5991 3.68405C13.5991 3.68405 11.427 2.80792 10.7704 4.35393Z" fill="url(#paint0_linear_518_1353)"/>
<path d="M19.2752 23.1946C19.1613 23.3205 19.0419 23.4382 18.9211 23.5572C18.9834 23.5001 19.047 23.4331 19.1059 23.3712C19.1658 23.3156 19.2222 23.2569 19.2752 23.195V23.1946Z" fill="#BE202E"/>
<mask id="mask0_518_1353" style="mask-type:luminance" maskUnits="userSpaceOnUse" x="0" y="0" width="56" height="55">
<path d="M0.5 0H55.5V55H0.5V0Z" fill="black" fill-opacity="0.349"/>
</mask>
<g mask="url(#mask0_518_1353)">
<mask id="mask1_518_1353" style="mask-type:luminance" maskUnits="userSpaceOnUse" x="0" y="0" width="56" height="55">
<path d="M0.5 0H55.5V55H0.5V0Z" fill="white"/>
</mask>
<g mask="url(#mask1_518_1353)">
<path d="M19.2752 23.1946C19.1613 23.3205 19.0419 23.4382 18.9211 23.5572C18.9834 23.5001 19.047 23.4331 19.1059 23.3712C19.1658 23.3156 19.2222 23.2569 19.2752 23.195V23.1946Z" fill="#BE202E"/>
</g>
</g>
<path d="M18.3759 21.2377C18.3956 21.2205 18.4111 21.2008 18.4296 21.1857C18.5069 21.1084 18.5856 21.031 18.6491 20.9524C18.5636 21.0461 18.4665 21.1372 18.3741 21.2377H18.3759Z" fill="#BE202E"/>
<mask id="mask2_518_1353" style="mask-type:luminance" maskUnits="userSpaceOnUse" x="0" y="0" width="56" height="55">
<path d="M0.5 0H55.5V55H0.5V0Z" fill="black" fill-opacity="0.349"/>
</mask>
<g mask="url(#mask2_518_1353)">
<mask id="mask3_518_1353" style="mask-type:luminance" maskUnits="userSpaceOnUse" x="0" y="0" width="56" height="55">
<path d="M0.5 0H55.5V55H0.5V0Z" fill="white"/>
</mask>
<g mask="url(#mask3_518_1353)">
<path d="M18.3759 21.2377C18.3956 21.2205 18.4111 21.2008 18.4296 21.1857C18.5069 21.1084 18.5856 21.031 18.6491 20.9524C18.5636 21.0461 18.4665 21.1372 18.3741 21.2377H18.3759Z" fill="#BE202E"/>
</g>
</g>
<path d="M13.1844 17.3452C13.0715 16.5448 12.9684 15.7431 12.875 14.9402C12.7798 14.1354 12.7048 13.3283 12.6503 12.5198C12.6503 12.4708 12.6417 12.4222 12.6503 12.3801C12.5883 11.6223 12.5486 10.8629 12.5313 10.1028L10.0821 8.92285C10.0821 9.07023 10.0657 9.2232 10.0589 9.38434C10.0352 9.97 10.0168 10.5875 10.0116 11.2492C10.0116 11.9874 10.0116 12.7578 10.0253 13.5635C10.0421 14.3068 10.0739 15.0811 10.1126 15.8683C10.153 16.5412 10.1964 17.221 10.2518 17.9158V17.9948L13.5282 19.6534C13.419 18.8796 13.3004 18.1091 13.1844 17.3452Z" fill="url(#paint1_linear_518_1353)"/>
<path d="M18.0312 36.7169C18.2031 37.3275 18.3956 37.9587 18.5954 38.5981V38.6234C18.6225 38.7171 18.6444 38.8047 18.6796 38.8937C18.8102 39.3251 18.9344 39.7075 19.2064 40.5854C19.8638 40.5449 20.5184 40.7015 21.0863 41.0352C20.6412 40.488 19.9983 40.1381 19.2971 40.0616C20.241 39.5809 21.0339 38.8488 21.5881 37.9461C22.1423 37.0433 22.4363 36.005 22.4377 34.9457C22.4184 34.7578 22.3915 34.5707 22.3569 34.385C22.3371 34.8032 22.2043 35.2083 21.9727 35.5572C21.741 35.906 21.4191 36.1854 21.0412 36.3658C21.8352 35.1611 22.2037 33.7255 22.0883 32.2872C22.0606 31.9308 22.018 31.5758 21.9607 31.2229C21.865 32.1323 21.5336 33.001 20.9993 33.7432C20.465 34.4853 19.7463 35.0752 18.9142 35.4545L17.9208 36.3693C17.9577 36.4831 17.9878 36.597 18.0316 36.7165L18.0312 36.7169Z" fill="url(#paint2_linear_518_1353)"/>
<path d="M16.7478 33.9199C16.5394 33.1431 16.331 32.3542 16.12 31.5584C15.9204 30.7886 15.7268 30.0173 15.5391 29.2445C15.3479 28.4638 15.1648 27.6783 14.9818 26.8941C14.8004 26.1091 14.6208 25.2884 14.4533 24.4879C14.2835 23.6869 14.1258 22.8881 13.9677 22.0924C13.911 21.8036 13.8603 21.5235 13.8087 21.233C13.7181 20.7431 13.6356 20.2477 13.5466 19.7506C13.5454 19.7231 13.5397 19.6959 13.5299 19.6702L10.272 18.0073C10.28 18.0589 10.2844 18.1113 10.2853 18.1646C10.351 18.9015 10.4129 19.65 10.5019 20.399C10.5891 21.1458 10.6832 21.9278 10.7975 22.7034C10.8933 23.3565 10.9973 24.004 11.1047 24.6585C11.1262 24.7878 11.1533 24.924 11.1752 25.0516C11.4624 26.62 11.8288 28.1729 12.273 29.7043C12.414 30.1774 12.5532 30.6358 12.6958 31.069C12.82 31.4329 12.9541 31.799 13.0834 32.1599C13.3921 32.9982 13.7361 33.8231 14.1142 34.6324L17.4056 36.2991C17.2338 35.6935 17.0619 35.0787 16.89 34.4545C16.8415 34.2749 16.7981 34.0996 16.7478 33.9199Z" fill="url(#paint3_linear_518_1353)"/>
<path d="M14.1598 34.7326C14.6054 35.6955 15.111 36.6294 15.6736 37.529C15.6917 37.5556 15.7101 37.5943 15.7303 37.6214C14.9138 37.398 14.0621 37.3324 13.2209 37.428C14.7491 37.8526 16.1418 38.6644 17.2643 39.7848C16.7191 40.2618 16.061 40.5916 15.3526 40.743C16.0565 40.859 16.7783 40.795 17.4508 40.557C16.8046 41.2528 16.3631 42.1136 16.175 43.0445C16.6384 42.128 17.3579 41.3658 18.2461 40.8505C19.2353 44.1268 20.4234 47.6782 21.7429 51.4049C21.9475 51.1398 22.0046 50.7904 21.8972 50.475C21.6536 49.8052 20.0843 45.3742 18.2951 39.3586C18.2449 39.1854 18.1993 39.0144 18.1426 38.8417C18.1271 38.7927 18.1155 38.7493 18.1005 38.6973C17.9115 38.0493 17.7246 37.4008 17.5397 36.7517C17.4981 36.597 17.4542 36.453 17.4121 36.2971L14.1207 34.6299C14.131 34.6655 14.1426 34.6986 14.1594 34.7326H14.1598Z" fill="url(#paint4_linear_518_1353)"/>
<path d="M13.9162 19.7235C13.9364 19.8344 13.9561 19.9319 13.9746 20.0441C14.0386 20.3698 14.0958 20.7006 14.1628 21.0328C14.2316 21.3954 14.3072 21.7646 14.3794 22.144C14.4146 22.3352 14.4516 22.5264 14.4915 22.7215C14.611 23.3058 14.7403 23.9048 14.8727 24.5206C15.0441 25.2794 15.2151 26.0584 15.4063 26.8688C15.5795 27.6358 15.7806 28.435 15.9838 29.2471C16.1819 30.0227 16.3817 30.8168 16.6017 31.6392C16.7946 32.3658 17.0013 33.113 17.211 33.8731C17.211 33.9084 17.2359 33.9488 17.2428 33.9857C17.4604 34.7616 17.6814 35.5364 17.9058 36.3103C17.9073 36.3279 17.9124 36.3451 17.9209 36.3606L18.9143 35.4458C18.8894 35.4458 18.8709 35.4677 18.8369 35.481C20.1871 33.9967 21.0342 32.1241 21.2578 30.1301C21.3636 29.1368 21.3528 28.1346 21.2256 27.1438C21.1217 26.2831 20.9626 25.43 20.7491 24.5897C20.5377 23.7464 20.294 22.9115 20.0186 22.0868C19.816 22.4845 19.5609 22.8532 19.2602 23.1829L19.0892 23.3712C19.032 23.4347 18.968 23.4902 18.9044 23.5572C19.6949 22.269 19.9515 20.7232 19.6194 19.2487C19.3975 19.8715 19.0642 20.4488 18.6359 20.9524C18.5705 21.0311 18.4932 21.1084 18.4159 21.1858C18.3957 21.2008 18.3806 21.221 18.354 21.2429C18.6256 20.8055 18.8399 20.335 18.9916 19.843C19.0217 19.7472 19.0475 19.6496 19.0655 19.5508C19.1008 19.4013 19.1244 19.25 19.1463 19.0996C19.1549 18.9987 19.1712 18.9063 19.1798 18.8057C19.1994 18.5694 19.1994 18.3318 19.1798 18.0954C19.1798 18.0168 19.1798 17.9463 19.1614 17.872C19.1412 17.7616 19.1278 17.6593 19.1077 17.5583C19.036 17.1544 18.9503 16.7531 18.8507 16.3552C18.8069 16.1838 18.7648 16.0261 18.7196 15.8834C18.6994 15.8263 18.6896 15.7708 18.6694 15.7103C18.6157 15.5543 18.5723 15.4099 18.525 15.2909C18.4719 15.149 18.4114 15.01 18.3437 14.8745C18.3277 14.9427 18.3035 15.0086 18.2715 15.0709C17.9834 15.6601 17.6071 16.2018 17.1556 16.6775L18.0704 15.8396L17.1487 16.6723C17.1411 16.6772 17.1356 16.6849 17.1337 16.6938C17.0865 16.7415 17.0416 16.7914 16.9992 16.8433C16.9992 16.8317 17.0164 16.8219 17.0177 16.8115L13.8895 19.6733C13.9144 19.6947 13.9179 19.7119 13.9162 19.7235Z" fill="url(#paint5_linear_518_1353)"/>
<path d="M12.7023 10.0457C12.7409 10.7337 12.8011 11.5041 12.8754 12.357C12.8772 12.4004 12.8819 12.446 12.8905 12.4894C12.9609 13.2349 13.0516 14.0371 13.1689 14.9115C13.2677 15.6669 13.379 16.4592 13.5131 17.3186C13.6239 18.062 13.7614 18.841 13.9024 19.6681L17.0314 16.803C17.563 15.9556 17.836 14.9715 17.8168 13.9713C17.8168 13.7264 17.7984 13.4682 17.7782 13.2031C17.7298 12.3787 17.639 11.5573 17.5062 10.7422C17.3909 9.99711 17.2357 9.2587 17.0413 8.53021C16.9399 8.15017 16.8201 7.77532 16.682 7.40701C16.5753 7.1441 16.4606 6.88445 16.3383 6.62842C15.1841 7.82751 13.9706 8.96804 12.7023 10.0457Z" fill="url(#paint6_linear_518_1353)"/>
<path d="M19.1093 23.374C19.0522 23.438 18.9882 23.4935 18.9246 23.5605C18.9829 23.4952 19.0446 23.433 19.1093 23.374Z" fill="#BE202E"/>
<mask id="mask4_518_1353" style="mask-type:luminance" maskUnits="userSpaceOnUse" x="0" y="0" width="56" height="55">
<path d="M0.5 0H55.5V55H0.5V0Z" fill="black" fill-opacity="0.349"/>
</mask>
<g mask="url(#mask4_518_1353)">
<mask id="mask5_518_1353" style="mask-type:luminance" maskUnits="userSpaceOnUse" x="0" y="0" width="56" height="55">
<path d="M0.5 0H55.5V55H0.5V0Z" fill="white"/>
</mask>
<g mask="url(#mask5_518_1353)">
<path d="M19.1093 23.374C19.0522 23.438 18.9882 23.4935 18.9246 23.5605C18.9829 23.4952 19.0446 23.433 19.1093 23.374Z" fill="#BE202E"/>
</g>
</g>
<path d="M19.1093 23.374C19.0522 23.438 18.9882 23.4935 18.9246 23.5605C18.9829 23.4952 19.0446 23.433 19.1093 23.374Z" fill="url(#paint7_linear_518_1353)"/>
<path d="M18.3759 21.2429C18.3956 21.2258 18.4111 21.206 18.436 21.1858C18.4158 21.2008 18.4008 21.221 18.3759 21.2429Z" fill="#BE202E"/>
<mask id="mask6_518_1353" style="mask-type:luminance" maskUnits="userSpaceOnUse" x="0" y="0" width="56" height="55">
<path d="M0.5 0H55.5V55H0.5V0Z" fill="black" fill-opacity="0.349"/>
</mask>
<g mask="url(#mask6_518_1353)">
<mask id="mask7_518_1353" style="mask-type:luminance" maskUnits="userSpaceOnUse" x="0" y="0" width="56" height="55">
<path d="M0.5 0H55.5V55H0.5V0Z" fill="white"/>
</mask>
<g mask="url(#mask7_518_1353)">
<path d="M18.3759 21.2429C18.3956 21.2258 18.4111 21.206 18.436 21.1858C18.4158 21.2008 18.4008 21.221 18.3759 21.2429Z" fill="#BE202E"/>
</g>
</g>
<path d="M18.3759 21.2429C18.3956 21.2258 18.4111 21.206 18.436 21.1858C18.4158 21.2008 18.4008 21.221 18.3759 21.2429Z" fill="url(#paint8_linear_518_1353)"/>
<path d="M42.8277 4.96859C41.2969 5.81107 39.8927 6.86548 38.6567 8.10058L39.6871 11.0057C40.8081 9.79472 42.0147 8.66602 43.2978 7.62836C43.385 7.5566 43.4387 7.51449 43.4387 7.51449C43.3932 7.5566 43.3412 7.58625 43.2978 7.62836C42.0627 8.68911 40.9133 9.84613 39.8603 11.0878C41.7402 11.2274 43.6265 11.2695 45.5115 11.2124C45.8291 10.5012 46.0032 9.73442 46.0239 8.95587C46.0446 8.17733 45.9115 7.40235 45.6323 6.67531C45.6323 6.67531 44.5817 4.24543 42.8277 4.96859Z" fill="url(#paint9_linear_518_1353)"/>
<path d="M34.7039 26.8923C34.5106 26.9022 34.3194 26.9022 34.1299 26.9022H34.4251C34.5173 26.9039 34.6103 26.9006 34.7039 26.8923Z" fill="#BE202E"/>
<mask id="mask8_518_1353" style="mask-type:luminance" maskUnits="userSpaceOnUse" x="0" y="0" width="56" height="55">
<path d="M0.5 0H55.5V55H0.5V0Z" fill="black" fill-opacity="0.349"/>
</mask>
<g mask="url(#mask8_518_1353)">
<mask id="mask9_518_1353" style="mask-type:luminance" maskUnits="userSpaceOnUse" x="0" y="0" width="56" height="55">
<path d="M0.5 0H55.5V55H0.5V0Z" fill="white"/>
</mask>
<g mask="url(#mask9_518_1353)">
<path d="M34.7039 26.8923C34.5106 26.9022 34.3194 26.9022 34.1299 26.9022H34.4251C34.5173 26.9039 34.6103 26.9006 34.7039 26.8923Z" fill="#BE202E"/>
</g>
</g>
<path d="M35.5345 24.6029H35.6205C35.7442 24.6029 35.8688 24.6029 35.9857 24.5879C35.8401 24.5879 35.6892 24.5879 35.5363 24.5978L35.5345 24.6029Z" fill="#BE202E"/>
<mask id="mask10_518_1353" style="mask-type:luminance" maskUnits="userSpaceOnUse" x="0" y="0" width="56" height="55">
<path d="M0.5 0H55.5V55H0.5V0Z" fill="black" fill-opacity="0.349"/>
</mask>
<g mask="url(#mask10_518_1353)">
<mask id="mask11_518_1353" style="mask-type:luminance" maskUnits="userSpaceOnUse" x="0" y="0" width="56" height="55">
<path d="M0.5 0H55.5V55H0.5V0Z" fill="white"/>
</mask>
<g mask="url(#mask11_518_1353)">
<path d="M35.5345 24.6029H35.6205C35.7442 24.6029 35.8688 24.6029 35.9857 24.5879C35.8401 24.5879 35.6892 24.5879 35.5363 24.5978L35.5345 24.6029Z" fill="#BE202E"/>
</g>
</g>
<path d="M34.447 17.3434C34.9941 16.6094 35.5486 15.8809 36.1103 15.158C36.6747 14.4359 37.2556 13.7268 37.8527 13.0315C37.8862 12.9881 37.9231 12.9477 37.9549 12.9124C38.5136 12.2603 39.0866 11.6206 39.6737 10.9939L38.6433 8.09692C38.5204 8.21294 38.3898 8.32681 38.257 8.44927C37.742 8.92743 37.2356 9.41477 36.7381 9.91106C36.1196 10.5283 35.5097 11.154 34.9085 11.7879C34.3139 12.4204 33.728 13.061 33.151 13.7095C32.6398 14.2912 32.1346 14.8782 31.6355 15.4704L31.5767 15.5374L32.8945 19.475C33.4196 18.7652 33.9335 18.0463 34.447 17.3434Z" fill="url(#paint10_linear_518_1353)"/>
<path d="M22.9528 36.7821C22.6091 37.4163 22.2645 38.0711 21.9121 38.744C21.9121 38.7526 21.9005 38.7608 21.8988 38.7694C21.8468 38.8682 21.7948 38.9554 21.7527 39.053C21.5142 39.5041 21.3131 39.9123 20.8345 40.8336C21.3965 41.3232 21.7993 41.9696 21.9912 42.6898C22.0662 41.8964 21.8269 41.1052 21.3247 40.4864C24.0017 41.0033 26.4337 40.6591 27.9179 38.863C28.0468 38.7002 28.1744 38.5292 28.2969 38.3461C27.9485 38.6672 27.5196 38.8877 27.0558 38.9841C26.592 39.0805 26.1107 39.0492 25.6633 38.8936C27.2603 38.5533 28.6977 37.6889 29.7471 36.4379C30.0069 36.1276 30.2544 35.8072 30.4891 35.4775C29.6899 36.1342 28.733 36.5707 27.7132 36.7438C26.6935 36.9169 25.6462 36.8206 24.675 36.4645L23.1475 36.4108C23.0822 36.5419 23.0147 36.6579 22.9528 36.7821Z" fill="url(#paint11_linear_518_1353)"/>
<path d="M24.1462 33.5157C24.5961 32.7233 25.0558 31.9246 25.5212 31.1086C25.9717 30.3294 26.4305 29.5551 26.8975 28.7857C27.3688 28.0088 27.8406 27.2281 28.3154 26.4495C28.8033 25.656 29.3004 24.8682 29.8065 24.0862C30.3113 23.302 30.8149 22.5402 31.3168 21.7732C31.4994 21.4966 31.6856 21.2224 31.8754 20.9508C32.1929 20.4824 32.5186 20.014 32.8439 19.5491C32.8577 19.5238 32.8792 19.4971 32.8929 19.4701L31.5918 15.5444C31.557 15.5923 31.519 15.6376 31.4779 15.6802C30.9443 16.3265 30.402 16.9796 29.8713 17.6559C29.3428 18.3305 28.8023 19.0309 28.2785 19.7472C27.8373 20.3488 27.402 20.9547 26.9727 21.5648C26.8872 21.686 26.7999 21.8166 26.7179 21.9378C26.2022 22.7099 25.7021 23.4666 25.2625 24.1936C24.7885 24.9685 24.3363 25.7566 23.9064 26.5569C23.6512 27.0318 23.4027 27.5102 23.1609 27.9921C22.9714 28.3831 22.7884 28.784 22.607 29.1767C22.1897 30.0966 21.8107 31.0334 21.4709 31.9847L22.7952 35.9378C23.139 35.3101 23.4935 34.6857 23.8458 34.0459C23.9399 33.8766 24.0474 33.7022 24.1466 33.5157H24.1462Z" fill="url(#paint12_linear_518_1353)"/>
<path d="M21.4172 32.1158C21.0125 33.2461 20.6779 34.4003 20.4152 35.5718C20.4152 35.6087 20.3933 35.6543 20.3881 35.6912C19.9085 34.8622 19.275 34.1324 18.5216 33.5411C19.4133 35.0978 19.8898 36.8578 19.9052 38.6518C19.0868 38.6024 18.2946 38.3447 17.6038 37.9033C18.0773 38.556 18.7085 39.078 19.4385 39.4205C18.3662 39.4682 17.3278 39.8102 16.4371 40.4092C17.538 40.0403 18.7223 39.9996 19.8459 40.2919C18.0317 43.7109 16.175 47.5141 14.2754 51.5626C14.4594 51.5378 14.6343 51.4677 14.7843 51.3584C14.9344 51.249 15.0548 51.1041 15.1348 50.9365C15.4785 50.2048 17.7314 45.3927 21.0696 39.1253C21.1637 38.9538 21.2643 38.7729 21.3584 38.5865L21.4374 38.4369C21.7915 37.7838 22.1554 37.1126 22.5331 36.426C22.6221 36.267 22.7046 36.1158 22.7918 35.9576V35.9495L21.4675 31.9963C21.4474 32.0353 21.4307 32.0751 21.4172 32.1158Z" fill="url(#paint13_linear_518_1353)"/>
<path d="M33.1464 19.8413C33.0742 19.9435 33.0119 20.0411 32.9402 20.1433C32.7318 20.457 32.5148 20.7677 32.3055 21.0886C32.0713 21.446 31.8346 21.8016 31.5952 22.1556C31.4745 22.3386 31.352 22.5199 31.2279 22.7111C30.8583 23.277 30.4875 23.861 30.1034 24.4621C29.618 25.2288 29.1396 25.9998 28.6682 26.7751C28.1881 27.5631 27.713 28.3542 27.2429 29.1483C26.7866 29.9286 26.3183 30.7278 25.8417 31.5554C25.4185 32.2936 24.9922 33.0593 24.5527 33.8431C24.529 33.8766 24.5123 33.9217 24.4886 33.9569C24.0458 34.7566 23.6078 35.559 23.1747 36.364C23.1609 36.3794 23.151 36.3978 23.1459 36.4177L24.6734 36.4697C24.6463 36.4564 24.6176 36.4525 24.581 36.4379C26.8477 36.3141 29.0175 35.4782 30.7814 34.0493C31.6567 33.3357 32.4458 32.5224 33.1327 31.6259C33.7305 30.8489 34.2794 30.0355 34.7762 29.1904C35.2767 28.3436 35.7436 27.4774 36.1757 26.5938C35.6975 26.7528 35.2003 26.8473 34.6972 26.8722L34.4067 26.8873H34.1115C35.7708 26.4777 37.205 25.4372 38.1093 23.9869C37.4362 24.3127 36.7093 24.5129 35.9643 24.5777C35.8483 24.5897 35.7245 24.5897 35.6004 24.591H35.5058C36.0709 24.4547 36.6164 24.2472 37.1292 23.9736C37.2297 23.9216 37.329 23.8644 37.4231 23.8008C37.5705 23.7084 37.7084 23.6062 37.8459 23.5018C37.9349 23.4296 38.0186 23.3643 38.1063 23.2921C38.3088 23.1162 38.4956 22.9243 38.6666 22.7163C38.7255 22.6493 38.7809 22.5904 38.8277 22.5199C38.8999 22.4177 38.9704 22.3236 39.0327 22.2265C39.2999 21.8449 39.5519 21.4528 39.7881 21.0513C39.8889 20.8797 39.979 20.718 40.0584 20.5661C40.0867 20.5043 40.122 20.4523 40.152 20.3951C40.2345 20.222 40.3132 20.0746 40.3703 19.9401C40.4391 19.7854 40.5014 19.6264 40.5534 19.4631C40.4861 19.5053 40.4139 19.5392 40.3385 19.5641C39.6388 19.8091 38.9058 19.9462 38.1647 19.9706C38.1544 19.9654 38.145 19.9654 38.1364 19.9706C38.0625 19.9674 37.9885 19.9674 37.9147 19.9706C37.9267 19.9706 37.9447 19.9706 37.9551 19.9568L33.1597 19.7841C33.1683 19.8159 33.1563 19.8327 33.1464 19.8413Z" fill="url(#paint14_linear_518_1353)"/>
<path d="M39.8602 11.0898C39.2824 11.7459 38.7171 12.4129 38.1647 13.0905C38.1291 13.1277 38.0978 13.1674 38.0706 13.2095C37.4909 13.9233 36.924 14.6474 36.3703 15.3816C35.8551 16.0682 35.3047 16.7982 34.7306 17.5988C34.2287 18.2854 33.7217 19.0236 33.1829 19.7992L37.9782 19.9719C39.0797 19.7129 40.0819 19.1385 40.8622 18.3189C41.0606 18.1073 41.2541 17.8913 41.4427 17.6709C42.0556 16.9658 42.6332 16.2309 43.1735 15.4688C43.6694 14.7769 44.1283 14.0592 44.5481 13.3186C44.7693 12.9331 44.9703 12.5364 45.1505 12.1301C45.2833 11.8164 45.3937 11.5195 45.4943 11.2291C43.6148 11.2776 41.7345 11.2308 39.8602 11.0898Z" fill="url(#paint15_linear_518_1353)"/>
<path d="M34.4251 26.9074H34.1299C34.2282 26.9026 34.3267 26.9026 34.4251 26.9074Z" fill="#BE202E"/>
<mask id="mask12_518_1353" style="mask-type:luminance" maskUnits="userSpaceOnUse" x="0" y="0" width="56" height="55">
<path d="M0.5 0H55.5V55H0.5V0Z" fill="black" fill-opacity="0.349"/>
</mask>
<g mask="url(#mask12_518_1353)">
<mask id="mask13_518_1353" style="mask-type:luminance" maskUnits="userSpaceOnUse" x="0" y="0" width="56" height="55">
<path d="M0.5 0H55.5V55H0.5V0Z" fill="white"/>
</mask>
<g mask="url(#mask13_518_1353)">
<path d="M34.4251 26.9074H34.1299C34.2282 26.9026 34.3267 26.9026 34.4251 26.9074Z" fill="#BE202E"/>
</g>
</g>
<path d="M34.4251 26.9074H34.1299C34.2282 26.9026 34.3267 26.9026 34.4251 26.9074Z" fill="url(#paint16_linear_518_1353)"/>
</g>
<defs>
<linearGradient id="paint0_linear_518_1353" x1="9.83215" y1="3.93664" x2="15.8197" y2="-3.65924" gradientUnits="userSpaceOnUse">
<stop stop-color="#F69923"/>
<stop offset="0.312" stop-color="#F79A23"/>
<stop offset="0.838" stop-color="#E97826"/>
</linearGradient>
<linearGradient id="paint1_linear_518_1353" x1="18.0654" y1="49.733" x2="9.34267" y2="5.74035" gradientUnits="userSpaceOnUse">
<stop offset="0.323" stop-color="#9E2064"/>
<stop offset="0.63" stop-color="#C92037"/>
<stop offset="0.751" stop-color="#CD2335"/>
<stop offset="1" stop-color="#E97826"/>
</linearGradient>
<linearGradient id="paint2_linear_518_1353" x1="21.4335" y1="43.546" x2="16.2356" y2="17.3308" gradientUnits="userSpaceOnUse">
<stop stop-color="#282662"/>
<stop offset="0.095" stop-color="#662E8D"/>
<stop offset="0.788" stop-color="#9F2064"/>
<stop offset="0.949" stop-color="#CD2032"/>
</linearGradient>
<linearGradient id="paint3_linear_518_1353" x1="17.1691" y1="47.3428" x2="8.44642" y2="3.35008" gradientUnits="userSpaceOnUse">
<stop offset="0.323" stop-color="#9E2064"/>
<stop offset="0.63" stop-color="#C92037"/>
<stop offset="0.751" stop-color="#CD2335"/>
<stop offset="1" stop-color="#E97826"/>
</linearGradient>
<linearGradient id="paint4_linear_518_1353" x1="17.1357" y1="44.0148" x2="12.5517" y2="20.8955" gradientUnits="userSpaceOnUse">
<stop stop-color="#282662"/>
<stop offset="0.095" stop-color="#662E8D"/>
<stop offset="0.788" stop-color="#9F2064"/>
<stop offset="0.949" stop-color="#CD2032"/>
</linearGradient>
<linearGradient id="paint5_linear_518_1353" x1="21.7217" y1="46.4402" x2="12.999" y2="2.44746" gradientUnits="userSpaceOnUse">
<stop offset="0.323" stop-color="#9E2064"/>
<stop offset="0.63" stop-color="#C92037"/>
<stop offset="0.751" stop-color="#CD2335"/>
<stop offset="1" stop-color="#E97826"/>
</linearGradient>
<linearGradient id="paint6_linear_518_1353" x1="22.0422" y1="49.213" x2="13.3195" y2="5.22027" gradientUnits="userSpaceOnUse">
<stop offset="0.323" stop-color="#9E2064"/>
<stop offset="0.63" stop-color="#C92037"/>
<stop offset="0.751" stop-color="#CD2335"/>
<stop offset="1" stop-color="#E97826"/>
</linearGradient>
<linearGradient id="paint7_linear_518_1353" x1="23.0853" y1="46.1697" x2="14.3625" y2="2.17688" gradientUnits="userSpaceOnUse">
<stop offset="0.323" stop-color="#9E2064"/>
<stop offset="0.63" stop-color="#C92037"/>
<stop offset="0.751" stop-color="#CD2335"/>
<stop offset="1" stop-color="#E97826"/>
</linearGradient>
<linearGradient id="paint8_linear_518_1353" x1="22.9252" y1="46.2014" x2="14.2026" y2="2.20892" gradientUnits="userSpaceOnUse">
<stop offset="0.323" stop-color="#9E2064"/>
<stop offset="0.63" stop-color="#C92037"/>
<stop offset="0.751" stop-color="#CD2335"/>
<stop offset="1" stop-color="#E97826"/>
</linearGradient>
<linearGradient id="paint9_linear_518_1353" x1="36.3142" y1="6.84795" x2="47.2095" y2="5.49391" gradientUnits="userSpaceOnUse">
<stop stop-color="#F69923"/>
<stop offset="0.312" stop-color="#F79A23"/>
<stop offset="0.838" stop-color="#E97826"/>
</linearGradient>
<linearGradient id="paint10_linear_518_1353" x1="6.41535" y1="50.3889" x2="34.4797" y2="7.91321" gradientUnits="userSpaceOnUse">
<stop offset="0.323" stop-color="#9E2064"/>
<stop offset="0.63" stop-color="#C92037"/>
<stop offset="0.751" stop-color="#CD2335"/>
<stop offset="1" stop-color="#E97826"/>
</linearGradient>
<linearGradient id="paint11_linear_518_1353" x1="14.0718" y1="48.0819" x2="30.7954" y2="22.7705" gradientUnits="userSpaceOnUse">
<stop stop-color="#282662"/>
<stop offset="0.095" stop-color="#662E8D"/>
<stop offset="0.788" stop-color="#9F2064"/>
<stop offset="0.949" stop-color="#CD2032"/>
</linearGradient>
<linearGradient id="paint12_linear_518_1353" x1="7.59938" y1="47.7442" x2="35.6637" y2="5.26852" gradientUnits="userSpaceOnUse">
<stop offset="0.323" stop-color="#9E2064"/>
<stop offset="0.63" stop-color="#C92037"/>
<stop offset="0.751" stop-color="#CD2335"/>
<stop offset="1" stop-color="#E97826"/>
</linearGradient>
<linearGradient id="paint13_linear_518_1353" x1="10.2281" y1="45.0308" x2="24.9767" y2="22.7087" gradientUnits="userSpaceOnUse">
<stop stop-color="#282662"/>
<stop offset="0.095" stop-color="#662E8D"/>
<stop offset="0.788" stop-color="#9F2064"/>
<stop offset="0.949" stop-color="#CD2032"/>
</linearGradient>
<linearGradient id="paint14_linear_518_1353" x1="11.9949" y1="50.6484" x2="40.0592" y2="8.17267" gradientUnits="userSpaceOnUse">
<stop offset="0.323" stop-color="#9E2064"/>
<stop offset="0.63" stop-color="#C92037"/>
<stop offset="0.751" stop-color="#CD2335"/>
<stop offset="1" stop-color="#E97826"/>
</linearGradient>
<linearGradient id="paint15_linear_518_1353" x1="10.0408" y1="53.1425" x2="38.1051" y2="10.6668" gradientUnits="userSpaceOnUse">
<stop offset="0.323" stop-color="#9E2064"/>
<stop offset="0.63" stop-color="#C92037"/>
<stop offset="0.751" stop-color="#CD2335"/>
<stop offset="1" stop-color="#E97826"/>
</linearGradient>
<linearGradient id="paint16_linear_518_1353" x1="13.3114" y1="51.5183" x2="41.3757" y2="9.04244" gradientUnits="userSpaceOnUse">
<stop offset="0.323" stop-color="#9E2064"/>
<stop offset="0.63" stop-color="#C92037"/>
<stop offset="0.751" stop-color="#CD2335"/>
<stop offset="1" stop-color="#E97826"/>
</linearGradient>
<clipPath id="clip0_518_1353">
<rect width="55" height="55" fill="white" transform="translate(0.5)"/>
</clipPath>
</defs>
</svg>
