<svg width="54" height="53" viewBox="0 0 54 53" fill="none" xmlns="http://www.w3.org/2000/svg">
<path d="M1.75247 0.000157874C1.49995 -0.00340622 1.24977 0.0534149 1.01951 0.166631C0.789249 0.279846 0.584488 0.446712 0.419607 0.655507C0.254727 0.864303 0.133725 1.10997 0.0650998 1.37524C-0.00352551 1.64052 -0.0181102 1.91898 0.0223699 2.19107L7.36698 50.8564C7.45847 51.4519 7.73929 51.9932 8.16011 52.3852C8.58094 52.7772 9.11486 52.9948 9.66809 52.9998H44.903C45.3176 53.0056 45.7204 52.8486 46.0379 52.5575C46.3554 52.2663 46.5666 51.8603 46.6329 51.4135L53.9777 2.20051C54.0181 1.92844 54.0035 1.65001 53.9348 1.38477C53.8661 1.11953 53.7451 0.873917 53.5802 0.66517C53.4153 0.456424 53.2105 0.289607 52.9803 0.176433C52.75 0.0632589 52.4999 0.00647145 52.2474 0.0100579L1.75247 0.000157874ZM32.6792 35.1726H21.4331L18.388 17.8083H35.4043L32.6792 35.1726Z" fill="#2684FF"/>
<path d="M51.5973 17.7839H35.3729L32.6499 35.1344H21.4129L8.14453 52.3244C8.56508 52.7212 9.10124 52.9419 9.65716 52.9469H44.8726C45.287 52.9528 45.6895 52.7959 46.0068 52.505C46.3241 52.2141 46.5352 51.8085 46.6015 51.362L51.5973 17.7839Z" fill="url(#paint0_linear_667_8872)"/>
<defs>
<linearGradient id="paint0_linear_667_8872" x1="55.3485" y1="22.6428" x2="34.3527" y2="49.9557" gradientUnits="userSpaceOnUse">
<stop offset="0.18" stop-color="#0052CC"/>
<stop offset="1" stop-color="#2684FF"/>
</linearGradient>
</defs>
</svg>
