<svg width="56" height="57" viewBox="0 0 56 57" fill="none" xmlns="http://www.w3.org/2000/svg">
<path d="M8.34832 9.25C7.50919 9.25 6.8805 10.0191 7.01875 10.7883L12.6844 45.4772C12.8244 46.3863 13.5931 47.015 14.5022 47.015H41.9159C42.5468 47.015 43.1059 46.525 43.2459 45.8959L48.9811 10.8583C49.1194 10.0191 48.4907 9.32 47.6516 9.32L8.34832 9.25ZM32.4056 34.2868H23.6643L21.3552 21.9086H34.5743L32.4056 34.2868Z" fill="#2684FF"/>
<path d="M47.0926 21.9087H34.5048L32.4057 34.2869H23.6644L13.3832 46.5246C13.3832 46.5246 13.8732 46.9451 14.5727 46.9451H41.9865C42.6169 46.9451 43.1761 46.4551 43.3161 45.8259L47.0926 21.9087Z" fill="url(#paint0_linear_566_78)"/>
<defs>
<linearGradient id="paint0_linear_566_78" x1="50.0378" y1="25.3956" x2="29.1761" y2="41.6811" gradientUnits="userSpaceOnUse">
<stop offset="0.176" stop-color="#0052CC"/>
<stop offset="1" stop-color="#2684FF"/>
</linearGradient>
</defs>
</svg>
