<svg width="54" height="53" viewBox="0 0 54 53"  fill="none" xmlns="http://www.w3.org/2000/svg">
<path d="M2.28493 0.000157874C2.02773 -0.00340622 1.77292 0.0534149 1.53839 0.166631C1.30386 0.279846 1.09531 0.446712 0.927378 0.655507C0.759444 0.864303 0.636202 1.10997 0.566305 1.37524C0.496409 1.64052 0.481554 1.91898 0.522784 2.19107L8.00341 50.8564C8.09659 51.4519 8.38261 51.9932 8.81123 52.3852C9.23985 52.7772 9.78366 52.9948 10.3471 52.9998H46.2345C46.6569 53.0056 47.0671 52.8486 47.3905 52.5575C47.7139 52.2663 47.9289 51.8603 47.9964 51.4135L55.4773 2.20051C55.5184 1.92844 55.5035 1.65001 55.4336 1.38477C55.3637 1.11953 55.2404 0.873917 55.0724 0.66517C54.9045 0.456424 54.6959 0.289607 54.4614 0.176433C54.2269 0.0632589 53.9721 0.00647145 53.7149 0.0100579L2.28493 0.000157874ZM33.7844 35.1726H22.33L19.2285 17.8083H36.5599L33.7844 35.1726Z" fill="#757575"/>
<path d="M53.0527 17.7839H36.5279L33.7544 35.1344H22.3093L8.79529 52.3244C9.22363 52.7212 9.76971 52.9419 10.3359 52.9469H46.2035C46.6256 52.9528 47.0355 52.7959 47.3587 52.505C47.6819 52.2141 47.8968 51.8085 47.9644 51.362L53.0527 17.7839Z" fill="url(#paint0_linear_666_8865)"/>
<defs>
<linearGradient id="paint0_linear_666_8865" x1="56.8735" y1="22.6428" x2="35.9797" y2="50.3262" gradientUnits="userSpaceOnUse">
<stop offset="0.18" stop-color="#474747"/>
<stop offset="1" stop-color="#757575"/>
</linearGradient>
</defs>
</svg>
