<svg width="56" height="56" viewBox="0 0 56 56" fill="none" xmlns="http://www.w3.org/2000/svg">
    <path
        d="M52.8359 40.504C49.957 42.0079 35.0469 48.1095 31.8672 49.7853C28.6875 51.461 26.9258 51.4181 24.4336 50.2149C21.9414 49.0118 6.08594 42.6524 3.20703 41.2774C1.78906 40.5899 1.05859 40.0314 1.05859 39.4728V34.0157C1.05859 34.0157 21.6836 29.504 25.0352 28.3439C28.3867 27.1407 29.5039 27.0978 32.3398 28.129C35.1758 29.1603 52.1484 32.211 54.9414 33.2423V38.6134C54.9414 39.172 54.2969 39.7735 52.8359 40.504Z"
        fill="#464646" />
    <path
        d="M52.836 35.0899C49.9571 36.5939 35.0469 42.6954 31.8672 44.3712C28.6875 46.047 26.9258 46.004 24.4336 44.8009C21.9414 43.5978 6.08597 37.1954 3.20707 35.8204C0.37113 34.4454 0.285192 33.5001 3.07816 32.4259C5.87113 31.3087 21.6407 25.1212 24.9922 23.961C28.3438 22.7579 29.461 22.7149 32.2969 23.7462C35.1329 24.7774 49.9571 30.6642 52.75 31.6954C55.6289 32.7267 55.7149 33.586 52.836 35.0899Z"
        fill="#5C5C5C" />
    <path
        d="M52.8359 31.6524C49.957 33.1564 35.0469 39.2579 31.8672 40.9337C28.6875 42.5665 26.9258 42.5665 24.4336 41.3634C21.9414 40.1603 6.08594 33.7579 3.20703 32.3829C1.78906 31.6954 1.05859 31.1368 1.05859 30.5782V25.1212C1.05859 25.1212 21.6836 20.6095 25.0352 19.4493C28.3867 18.2462 29.5039 18.2032 32.3398 19.2345C35.1758 20.2657 52.1484 23.3165 54.9414 24.3478V29.7189C54.9414 30.2774 54.2969 30.879 52.8359 31.6524Z"
        fill="#464646" />
    <path
        d="M52.8359 26.1954C49.957 27.6993 35.0469 33.8009 31.8672 35.4767C28.6875 37.1095 26.9258 37.1095 24.4336 35.9064C21.9414 34.7032 6.08594 28.3009 3.20703 26.9259C0.328125 25.5509 0.285156 24.6056 3.07812 23.5314C5.87109 22.4142 21.6406 16.2267 24.9922 15.0665C28.3438 13.8634 29.4609 13.8204 32.2969 14.8517C35.1328 15.8829 49.957 21.7696 52.75 22.8009C55.6289 23.8321 55.7148 24.6915 52.8359 26.1954Z"
        fill="#5C5C5C" />
    <path
        d="M52.8359 22.4142C49.957 23.9181 35.0469 30.0196 31.8672 31.6954C28.6875 33.3282 26.9258 33.3282 24.4336 32.1251C21.9414 30.9649 6.08594 24.5626 3.20703 23.1876C1.78906 22.5001 1.01562 21.9415 1.01562 21.3829V15.9259C1.01562 15.9259 21.6406 11.4142 24.9922 10.254C28.3438 9.05089 29.4609 9.00792 32.2969 10.0392C35.1328 11.0704 52.1055 14.1212 54.8984 15.1524V20.5235C54.9414 21.0821 54.2969 21.6407 52.8359 22.4142Z"
        fill="#464646" />
    <path
        d="M52.8359 16.9571C49.957 18.461 35.0469 24.5626 31.8672 26.2384C28.6875 27.8712 26.9258 27.8712 24.4336 26.6681C21.9414 25.4649 6.08594 19.1056 3.20703 17.7306C0.328125 16.3556 0.285156 15.4103 3.07812 14.336C5.87109 13.2189 21.6406 7.03136 24.9922 5.8712C28.3438 4.66807 29.4609 4.62511 32.2969 5.65636C35.1328 6.68761 49.957 12.5743 52.75 13.6056C55.6289 14.6368 55.7148 15.4962 52.8359 16.9571Z"
        fill="#5C5C5C" />
    <path
        d="M35.0469 11.7148L30.4062 12.2305L29.332 14.7227L27.6562 11.9297L22.2852 11.457L26.2812 9.99609L25.0781 7.76172L28.8594 9.22266L32.3828 8.0625L31.4375 10.3828L35.0469 11.7148ZM29.0742 23.918L20.3516 20.3086L32.8555 18.418L29.0742 23.918Z"
        fill="white" />
    <path
        d="M17 18.2891C20.6783 18.2891 23.6602 17.1348 23.6602 15.7109C23.6602 14.2871 20.6783 13.1328 17 13.1328C13.3217 13.1328 10.3398 14.2871 10.3398 15.7109C10.3398 17.1348 13.3217 18.2891 17 18.2891Z"
        fill="white" />
    <path d="M40.5898 12.4023L47.9805 15.3242L40.5898 18.2461V12.4023Z" fill="#303030" />
    <path d="M32.4258 15.668L40.5898 12.4023V18.2461L39.7734 18.5898L32.4258 15.668Z" fill="#4B4B4B" />
</svg>