<svg width="56" height="55" viewBox="0 0 56 55" fill="none">
    <path
        d="M55.375 27.5C55.375 42.6878 43.0628 55 27.875 55C12.6872 55 0.375 42.6878 0.375 27.5C0.375 12.3122 12.6872 0 27.875 0C43.0628 0 55.375 12.3122 55.375 27.5Z"
        fill="black"></path>
    <path
        d="M11.0715 37.1655V18.634H25.2198V21.769H14.9242V25.8772H24.5039V28.9995H14.9242V34.0432H25.5842V37.1655H11.0715ZM26.9379 37.1655L33.4589 27.4952L27.5496 18.634H32.0531L35.8798 24.5878L39.6284 18.634H44.0928L38.1576 27.6343L44.6785 37.1655H40.0319L35.8017 30.7565L31.5585 37.1655H26.9379Z"
        fill="white"></path>
</svg>