<svg width="56" height="56" viewBox="0 0 56 56" fill="none" xmlns="http://www.w3.org/2000/svg">
  <g clip-path="url(#clip0_110_384)">
    <path
      d="M27.9788 0.740479C12.8301 0.740479 0.500244 13.0704 0.500244 28.219C0.500244 43.3676 12.8301 55.6975 27.9788 55.6975C43.1274 55.6975 55.4573 43.3676 55.4573 28.219C55.4573 13.0704 43.1278 0.740479 27.9788 0.740479ZM27.9788 5.32911C40.6477 5.32911 50.8691 15.5501 50.8691 28.219C50.8691 40.8883 40.6477 51.1093 27.9788 51.1093C15.3099 51.1093 5.08845 40.8883 5.08845 28.219C5.08845 15.5501 15.3099 5.32911 27.9788 5.32911Z"
      fill="#545454"></path>
    <path
      fill-rule="evenodd"
      clip-rule="evenodd"
      d="M21.2925 26.8291C27.3099 21.9134 33.1957 16.8268 39.3441 12.0547C36.1193 17.0103 32.8026 21.9001 29.5778 26.8553C26.8119 26.8682 24.0455 26.8682 21.2925 26.8291ZM26.3792 29.5688C29.1584 29.5688 31.9243 29.5687 34.6902 29.6083C28.6337 34.4981 22.7741 39.6239 16.6128 44.3827C19.8376 39.4271 23.1544 34.5243 26.3792 29.5688Z"
      fill="#545454"></path>
  </g>
  <defs>
    <clipPath id="clip0_110_384">
      <rect
        width="55"
        height="55"
        fill="white"
        transform="translate(0.5 0.740234)"></rect>
    </clipPath>
  </defs>
</svg>