<svg width="56" height="56" viewBox="0 0 56 56" fill="none" xmlns="http://www.w3.org/2000/svg">
    <g clip-path="url(#clip0_457_903)">
        <path
            d="M46.011 31.2664H9.93359V29.2319C9.93359 27.8648 11.0418 26.7566 12.4087 26.7566H43.5357C44.9028 26.7566 46.011 27.8648 46.011 29.2319V31.2664Z"
            fill="#DFDEDF"></path>
        <path
            d="M43.4977 54.8614H12.4467C11.0586 54.8614 9.93335 53.7361 9.93335 52.348V31.2664H46.0108V52.3479C46.0108 53.7359 44.8856 54.8612 43.4974 54.8612"
            fill="white"></path>
        <path
            d="M45.563 30.8574V29.0328C45.563 27.9556 44.6899 27.0824 43.6128 27.0824H12.3874C11.3103 27.0824 10.4371 27.9555 10.4371 29.0328V30.8574H45.563ZM45.563 52.6089V31.6757H10.4371V52.6087C10.4371 53.686 11.3103 54.5591 12.3874 54.5591H43.6128C44.6899 54.5591 45.563 53.686 45.563 52.6089ZM12.5705 26.2643L12.692 24.938L12.1762 26.2749C12.2461 26.2696 12.3161 26.2643 12.3874 26.2643H12.5705ZM43.2156 24.0284L43.3956 26.2643H43.6128C43.7289 26.2643 43.8427 26.2738 43.9551 26.2877L43.2156 24.0284ZM45.6923 27.2112C46.1198 27.6986 46.3813 28.335 46.3813 29.0328V52.6089C46.3813 54.1354 45.1393 55.3774 43.6128 55.3774H12.3874C10.8609 55.3774 9.6189 54.1355 9.6189 52.6087V29.0329C9.6189 28.2931 9.91228 27.6218 10.3867 27.1245L13.1468 19.9706L14.3503 6.82315L15.7082 6.94736L14.6238 18.7935L15.0057 18.9408L14.4873 20.2846L13.9399 26.2643H42.0277L40.469 6.91462L41.8281 6.80505L42.7474 18.2171L42.748 18.2169L45.6923 27.2112ZM12.6571 28.416C12.739 28.4148 12.8204 28.4298 12.8964 28.4603C12.9724 28.4908 13.0417 28.5361 13.1 28.5936C13.1584 28.6511 13.2047 28.7196 13.2364 28.7952C13.268 28.8707 13.2843 28.9518 13.2843 29.0337C13.2843 29.1157 13.268 29.1968 13.2364 29.2723C13.2047 29.3479 13.1584 29.4164 13.1 29.4739C13.0417 29.5314 12.9724 29.5767 12.8964 29.6072C12.8204 29.6376 12.739 29.6527 12.6571 29.6514C12.4949 29.649 12.3402 29.5828 12.2264 29.4672C12.1125 29.3517 12.0487 29.196 12.0487 29.0337C12.0487 28.8715 12.1125 28.7158 12.2264 28.6002C12.3402 28.4847 12.4949 28.4185 12.6571 28.416ZM14.7692 28.416C14.8511 28.4148 14.9325 28.4298 15.0085 28.4603C15.0846 28.4908 15.1538 28.5361 15.2121 28.5936C15.2705 28.6511 15.3169 28.7196 15.3485 28.7952C15.3801 28.8707 15.3964 28.9518 15.3964 29.0337C15.3964 29.1157 15.3801 29.1968 15.3485 29.2723C15.3169 29.3479 15.2705 29.4164 15.2121 29.4739C15.1538 29.5314 15.0846 29.5767 15.0085 29.6072C14.9325 29.6376 14.8511 29.6527 14.7692 29.6514C14.607 29.649 14.4523 29.5828 14.3385 29.4672C14.2247 29.3517 14.1609 29.196 14.1609 29.0337C14.1609 28.8715 14.2247 28.7158 14.3385 28.6002C14.4523 28.4847 14.607 28.4185 14.7692 28.416ZM16.8147 28.416C16.8966 28.4148 16.978 28.4298 17.054 28.4603C17.13 28.4908 17.1993 28.5361 17.2576 28.5936C17.316 28.6511 17.3623 28.7196 17.394 28.7952C17.4256 28.8707 17.4419 28.9518 17.4419 29.0337C17.4419 29.1157 17.4256 29.1968 17.394 29.2723C17.3623 29.3479 17.316 29.4164 17.2576 29.4739C17.1993 29.5314 17.13 29.5767 17.054 29.6072C16.978 29.6376 16.8966 29.6527 16.8147 29.6514C16.6525 29.649 16.4978 29.5828 16.384 29.4672C16.2701 29.3517 16.2063 29.196 16.2063 29.0337C16.2063 28.8715 16.2701 28.7158 16.384 28.6002C16.4978 28.4847 16.6525 28.4185 16.8147 28.416Z"
            fill="black"></path>
        <path
            d="M14.7917 41.8215C14.8978 41.6987 14.9537 41.5373 14.9537 41.337C14.9537 41.1365 14.8977 40.9816 14.7917 40.8588C14.68 40.736 14.5234 40.6779 14.3224 40.6779H13.3391V42.0023H14.3224C14.5234 42.0023 14.68 41.9441 14.7917 41.8215ZM14.3224 39.8833C14.7469 39.8833 15.0821 40.0125 15.3334 40.2773C15.585 40.5422 15.7079 40.8974 15.7079 41.3371C15.7079 41.7826 15.585 42.1316 15.3393 42.3964C15.0878 42.6614 14.7526 42.797 14.3224 42.797H13.3391V44.5797H12.5793V39.8833H14.3224ZM18.4214 42.7635V41.3936H19.2397V44.4868H18.4214V44.2079C18.1734 44.4558 17.8513 44.5797 17.4482 44.5797C17.0763 44.5797 16.7787 44.4558 16.5494 44.2141C16.3201 43.9724 16.2085 43.6624 16.2085 43.2781V41.3936H17.0267V43.1045C17.0267 43.3213 17.0825 43.5012 17.2002 43.6315C17.3118 43.7616 17.4606 43.8297 17.6527 43.8297C18.1672 43.8297 18.4214 43.4764 18.4214 42.7635ZM22.4317 43.6128C22.5928 43.4454 22.6734 43.2222 22.6734 42.9433C22.6734 42.6645 22.5929 42.435 22.4317 42.2677C22.2642 42.1002 22.0597 42.0135 21.8056 42.0135C21.5762 42.0135 21.3719 42.1002 21.1919 42.2739C21.0122 42.4475 20.9254 42.6705 20.9254 42.9433C20.9254 43.216 21.0122 43.4393 21.1919 43.6065C21.3717 43.7803 21.5762 43.867 21.8056 43.867C22.0597 43.867 22.2642 43.7803 22.4317 43.6128ZM21.9482 41.3007C22.3511 41.3007 22.7107 41.4558 23.0144 41.7657C23.3181 42.0816 23.4668 42.4722 23.4668 42.9432C23.4668 43.4142 23.3181 43.8048 23.0144 44.1149C22.7105 44.4249 22.3573 44.5797 21.9482 44.5797C21.5452 44.5797 21.2043 44.4681 20.9254 44.2451V45.9625H20.1072V41.3936H20.9254V41.6416C21.1983 41.4122 21.539 41.3007 21.9482 41.3007ZM26.4111 43.6127C26.5722 43.4454 26.6527 43.2221 26.6527 42.9433C26.6527 42.6645 26.5722 42.435 26.4111 42.2677C26.2436 42.1002 26.0391 42.0135 25.7849 42.0135C25.5556 42.0135 25.3511 42.1002 25.1713 42.2739C24.9915 42.4475 24.9047 42.6705 24.9047 42.9433C24.9047 43.216 24.9915 43.4393 25.1713 43.6065C25.3511 43.7803 25.5556 43.867 25.7849 43.867C26.0391 43.867 26.2436 43.7801 26.4111 43.6127ZM25.9274 41.3008C26.3304 41.3008 26.6899 41.4559 26.9938 41.7658C27.2974 42.0817 27.4461 42.4723 27.4461 42.9433C27.4461 43.4144 27.2974 43.805 26.9938 44.115C26.6899 44.425 26.3367 44.5798 25.9274 44.5798C25.5246 44.5798 25.1835 44.4683 24.9047 44.2452V45.9626H24.0866V41.3937H24.9047V41.6417C25.1775 41.4124 25.5184 41.3008 25.9274 41.3008ZM28.6546 42.5839H30.1485C30.0989 42.3918 30.0059 42.2493 29.8758 42.156C29.7455 42.0632 29.5907 42.0137 29.417 42.0137C29.2484 42.0134 29.0838 42.0654 28.9459 42.1624C28.7972 42.2615 28.6979 42.4041 28.6546 42.5839ZM29.4171 41.3008C29.8386 41.3008 30.2043 41.4496 30.5081 41.741C30.8118 42.0385 30.9667 42.4165 30.9854 42.8814V43.1605H28.6299C28.6732 43.3773 28.7663 43.5508 28.9089 43.6812C29.0513 43.8113 29.2125 43.8793 29.4046 43.8793C29.758 43.8793 30.0122 43.7429 30.1733 43.4704L30.9048 43.6253C30.7746 43.9415 30.5763 44.1772 30.3161 44.3383C30.0556 44.4994 29.7518 44.5798 29.4046 44.5798C28.9583 44.5798 28.5803 44.425 28.2765 44.1213C27.9727 43.8176 27.8176 43.4208 27.8176 42.9435C27.8176 42.4663 27.9727 42.0695 28.2826 41.7595C28.5864 41.4559 28.9647 41.3008 29.4171 41.3008ZM33.2415 43.8176C33.3965 43.8176 33.5701 43.7679 33.7561 43.6688L33.9916 44.3506C33.7064 44.5056 33.4399 44.58 33.1857 44.58C32.8076 44.58 32.51 44.4746 32.293 44.2698C32.0762 44.0656 31.9708 43.7617 31.9708 43.3464V42.0632H31.3074V41.3937H31.9708V40.4579H32.789V41.3937H33.7994V42.0632H32.789V43.2844C32.789 43.6377 32.938 43.8176 33.2415 43.8176ZM34.958 42.5839H36.4519C36.4024 42.3918 36.3093 42.2493 36.1792 42.156C36.049 42.0632 35.8942 42.0137 35.7204 42.0137C35.5518 42.0134 35.3873 42.0654 35.2494 42.1624C35.1006 42.2615 35.0014 42.4041 34.958 42.5839ZM35.7206 41.3008C36.142 41.3008 36.5078 41.4496 36.8115 41.741C37.1152 42.0385 37.2702 42.4165 37.2889 42.8814V43.1605H34.9333C34.9767 43.3773 35.0698 43.5508 35.2123 43.6812C35.3548 43.8113 35.5159 43.8793 35.7081 43.8793C36.0615 43.8793 36.3157 43.7429 36.4768 43.4704L37.2081 43.6253C37.078 43.9415 36.8797 44.1772 36.6194 44.3383C36.359 44.4994 36.0553 44.5798 35.7081 44.5798C35.2617 44.5798 34.8838 44.425 34.5799 44.1213C34.2762 43.8176 34.1211 43.4208 34.1211 42.9435C34.1211 42.4663 34.2762 42.0695 34.5861 41.7595C34.8898 41.4559 35.2682 41.3008 35.7206 41.3008ZM38.6336 42.5839H40.1275C40.0779 42.3918 39.9849 42.2493 39.8549 42.156C39.7246 42.0632 39.5697 42.0137 39.3959 42.0137C39.2273 42.0134 39.0628 42.0654 38.9249 42.1624C38.7761 42.2615 38.6769 42.4041 38.6336 42.5839ZM39.3961 41.3008C39.8176 41.3008 40.1833 41.4496 40.487 41.741C40.7908 42.0385 40.9458 42.4165 40.9645 42.8814V43.1605H38.6089C38.6522 43.3773 38.7453 43.5508 38.888 43.6812C39.0305 43.8113 39.1916 43.8793 39.3837 43.8793C39.737 43.8793 39.9912 43.7429 40.1523 43.4704L40.884 43.6253C40.7537 43.9415 40.5554 44.1772 40.295 44.3383C40.0345 44.4994 39.7308 44.5798 39.3837 44.5798C38.9374 44.5798 38.5592 44.425 38.2556 44.1213C37.9519 43.8176 37.7966 43.4208 37.7966 42.9435C37.7966 42.4663 37.9517 42.0695 38.2616 41.7595C38.5653 41.4559 38.9437 41.3008 39.3961 41.3008ZM43.5117 41.3504C43.6049 41.3504 43.6793 41.3565 43.729 41.3751L43.6855 42.1624H43.5059C42.7682 42.1624 42.4023 42.6026 42.4023 43.489V44.4869H41.5842V41.3937H42.4023V41.9578C42.6813 41.5548 43.0531 41.3504 43.5117 41.3504Z"
            fill="black"></path>
        <path
            d="M39.9328 19.5472L44.3473 17.416V15.2849L34.1482 10.4136L44.3473 5.16189V3.10692L40.085 1.12793L28.0086 7.14074L15.7291 1.12793L11.7712 3.25914V5.08578L21.3613 10.3375L11.7712 15.2088V17.416L15.8813 19.5472L28.0593 13.3059L39.9328 19.5472Z"
            fill="#939393"></path>
        <path
            d="M40.4862 18.6781V17.7601L43.8092 16.0382V17.0693L40.4862 18.6781ZM12.0384 16.0141L15.2494 17.8574V18.5912L12.0384 16.9667V16.0141ZM28.4857 12.1376L39.5317 17.5953V18.6927L28.4857 13.034V12.1376ZM16.2039 17.755L27.5313 12.1387V13.0337L16.2039 18.7646V17.755ZM24.2244 8.57801L12.7617 3.04384L15.7306 1.535L28.0085 7.89992L40.0808 1.53773L43.1545 3.11205L31.9764 8.73756C31.5294 8.96244 31.5301 9.60061 31.9774 9.82463L43.0403 15.3615L40.1729 16.8474L28.0085 10.6146L15.6291 16.9746L12.8017 15.3515L24.231 9.67026C24.6837 9.44523 24.6798 8.79787 24.2244 8.57801ZM12.1812 4.91872V3.91149L22.8718 9.24534L21.7911 9.67715L12.1812 4.91872ZM34.1027 9.73632C34.0881 9.72741 33.0789 9.25122 33.0789 9.25122L43.809 3.85103V4.86271L34.1027 9.73632ZM35.1769 10.2652L44.6079 5.52975C44.6547 5.50621 44.6941 5.47011 44.7216 5.42548C44.7492 5.38084 44.7637 5.32944 44.7637 5.27701V3.0368C44.7637 2.98479 44.7493 2.93379 44.7222 2.88941C44.6951 2.84502 44.6563 2.80897 44.61 2.78521L40.2108 0.53193C40.171 0.511612 40.1271 0.500981 40.0824 0.500907C40.0378 0.500832 39.9938 0.511315 39.954 0.531499L28.135 6.52894C28.0957 6.54893 28.0522 6.55942 28.0081 6.55957C27.964 6.55972 27.9205 6.54953 27.881 6.5298L15.8539 0.529776C15.8144 0.510104 15.7709 0.49995 15.7267 0.500124C15.6826 0.500299 15.6391 0.510797 15.5998 0.530781L11.2385 2.74715C11.192 2.77077 11.1529 2.80683 11.1256 2.85131C11.0982 2.89579 11.0838 2.94697 11.0837 2.99918V5.276C11.0837 5.38356 11.1448 5.48179 11.2413 5.52946L20.712 10.2086L11.2851 14.8894C11.2387 14.9124 11.1996 14.9477 11.172 14.9914C11.1443 15.0352 11.1292 15.0856 11.1283 15.1374L11.087 17.3761C11.0861 17.4293 11.1001 17.4817 11.1275 17.5272C11.155 17.5727 11.1947 17.6096 11.2421 17.6336L15.7708 19.925C15.8102 19.9449 15.8538 19.9553 15.898 19.9553C15.9422 19.9554 15.9858 19.9451 16.0253 19.9252L27.8809 13.9722C27.9204 13.9523 27.9641 13.942 28.0084 13.9421C28.0526 13.9422 28.0963 13.9527 28.1358 13.9728L39.8437 19.9257C39.8825 19.9454 39.9254 19.9558 39.9689 19.9563C40.0125 19.9567 40.0555 19.9471 40.0947 19.9281L44.6042 17.7449C44.6519 17.7218 44.6923 17.6857 44.7205 17.6407C44.7487 17.5957 44.7637 17.5437 44.7637 17.4906V15.1513C44.7637 15.0985 44.7489 15.0467 44.721 15.0019C44.6931 14.957 44.6531 14.9209 44.6057 14.8976L35.1769 10.2652Z"
            fill="black"></path>
    </g>
    <defs>
        <clipPath id="clip0_457_903">
            <rect width="55" height="55" fill="white" transform="translate(0.5 0.5)"></rect>
        </clipPath>
    </defs>
</svg>