<svg width="55" height="55" viewBox="0 0 55 55" fill="none" xmlns="http://www.w3.org/2000/svg">
    <g clip-path="url(#clip0_518_1047)">
        <path
            d="M34.9238 38.8537H40.8599L31.3838 14.2605H24.8205L15.3444 38.8537H21.281L22.8296 34.6879H31.7832L30.1624 30.0782H24.2671L28.1021 19.4963L34.9238 38.8537ZM54.4986 20.6455C54.4486 20.4646 54.3634 20.2954 54.2479 20.1475C54.1324 19.9996 53.9889 19.876 53.8256 19.7837C53.6622 19.6913 53.4823 19.6321 53.296 19.6094C53.1098 19.5867 52.9209 19.601 52.7401 19.6514C52.3751 19.7527 52.0654 19.9948 51.8789 20.3245C51.6924 20.6542 51.6446 21.0445 51.7458 21.4095C52.3416 23.5556 52.6436 25.7727 52.6434 28C52.6434 41.5884 41.5884 52.643 28 52.643C14.4116 52.643 3.35678 41.5884 3.35678 28C3.35678 14.4113 14.4116 3.35656 28 3.35656C33.7563 3.35656 39.3261 5.40144 43.722 9.04047C43.5461 9.46046 43.4557 9.91133 43.4561 10.3667C43.4561 12.2648 44.9948 13.8036 46.8929 13.8036C48.7911 13.8036 50.3298 12.2648 50.3298 10.3667C50.3298 8.46855 48.7911 6.92984 46.8929 6.92984C46.5275 6.92984 46.1758 6.98807 45.8454 7.09377C40.8954 2.87531 34.5555 0.5 28 0.5C12.8365 0.5 0.5 12.8363 0.5 28C0.5 43.1635 12.8365 55.4998 28 55.4998C43.1635 55.4998 55.5 43.1635 55.5 28C55.5002 25.5145 55.1634 23.0404 54.4986 20.6455Z"
            fill="#112B49"></path>
    </g>
    <defs>
        <clipPath id="clip0_518_1047">
            <rect width="55" height="55" fill="white" transform="translate(0.5 0.5)"></rect>
        </clipPath>
    </defs>
</svg>