<svg width="56" height="56" viewBox="0 0 56 56" fill="none">
    <path
        d="M48.9563 13.7743L30.0084 2.77219C28.8134 2.09156 27.2575 2.09156 26.0531 2.77219L6.90277 13.7743C5.66957 14.4837 4.79688 15.8171 4.79688 17.2432V39.2183C4.79688 40.6444 5.69234 41.9782 6.92555 42.6914L11.9851 45.5652C14.4034 46.7563 15.258 46.7563 16.3585 46.7563C19.9391 46.7563 21.9844 44.5911 21.9844 40.8146V19.1196C21.9844 18.8133 21.825 18.3574 21.5242 18.3574H19.108C18.8021 18.3574 18.1172 18.8133 18.1172 19.1192V40.8141C18.1172 42.4882 16.603 44.1541 13.773 42.7391L8.54504 39.7257C8.36285 39.6269 8.23438 39.428 8.23438 39.2183V17.2432C8.23438 17.0361 8.47285 16.8281 8.65633 16.722L27.7448 5.73875C27.9231 5.63777 28.1852 5.63777 28.3631 5.73875L47.2186 16.7194C47.3991 16.8281 47.3355 17.0296 47.3355 17.2432V39.2183C47.3355 39.428 47.4141 39.6321 47.2358 39.733L28.2926 50.7227C28.1302 50.8203 27.9287 50.8203 27.7508 50.7227L22.8923 47.8228C22.7458 47.7377 22.5718 47.7072 22.4312 47.7858C21.0795 48.552 20.8302 48.6538 19.5622 49.0934C19.2503 49.2021 18.7901 49.3907 19.7384 49.9222L26.0969 53.6837C26.704 54.0343 27.3926 54.219 28.0937 54.2191C28.7992 54.2191 29.4902 54.0361 30.099 53.6837L48.9559 42.6914C50.1891 41.973 50.7734 40.6444 50.7734 39.2183V17.2432C50.7734 15.8171 50.1891 14.4872 48.9563 13.7743ZM33.977 35.7361C28.9384 35.7361 27.8286 34.3461 27.4586 31.8405C27.4156 31.5707 27.1866 31.248 26.912 31.248H24.4495C24.1448 31.248 23.8999 31.6175 23.8999 31.9209C23.8999 35.1289 25.644 39.0159 33.9774 39.0159C40.0098 39.0159 43.4683 36.672 43.4683 32.5238C43.4683 28.4108 40.6895 27.3314 34.8393 26.5571C28.926 25.7755 28.3253 25.3806 28.3253 23.9953C28.3253 22.8532 28.834 21.33 33.2125 21.33C37.1248 21.33 38.5669 22.1696 39.1603 24.8066C39.211 25.0545 39.4374 25.2324 39.6931 25.2324H42.1655C42.3176 25.2324 42.4628 25.1709 42.5694 25.0622C42.6725 24.9454 42.7271 24.7988 42.7134 24.6416C42.3305 20.1006 39.3137 17.9844 33.2121 17.9844C27.7847 17.9844 24.547 20.2764 24.547 24.1182C24.547 28.2853 27.7684 29.4369 32.9784 29.9521C39.211 30.5631 39.6957 31.474 39.6957 32.6999C39.6957 34.829 37.9864 35.7361 33.977 35.7361Z"
        fill="#83CD29"></path>
</svg>